<svg xmlns="http://www.w3.org/2000/svg" xmlns:xlink="http://www.w3.org/1999/xlink" width="820" height="496" viewBox="0 0 820 496">
  <defs>
    <clipPath id="clip-path">
      <rect id="Rectángulo_386411" data-name="Rectángulo 386411" width="820" height="496" rx="10" fill="#273a89" opacity="0.33"/>
    </clipPath>
    <clipPath id="clip-path-2">
      <path id="Trazado_828551" data-name="Trazado 828551" d="M17.313,51.19A40.251,40.251,0,1,0,57.565,10.939,40.252,40.252,0,0,0,17.313,51.19" transform="translate(-17.313 -10.939)" fill="#273a89"/>
    </clipPath>
    <clipPath id="clip-path-4">
      <rect id="Rectángulo_386408" data-name="Rectángulo 386408" width="51" height="32" transform="translate(-0.049 -0.485)" fill="#fff" stroke="#707070" stroke-width="1"/>
    </clipPath>
    <clipPath id="clip-path-5">
      <rect id="Rectángulo_386409" data-name="Rectángulo 386409" width="51" height="32" transform="translate(926 2777)" fill="#fff" stroke="#707070" stroke-width="1"/>
    </clipPath>
  </defs>
  <g id="Grupo_1075364" data-name="Grupo 1075364" transform="translate(-180 -2397)">
    <g id="Enmascarar_grupo_207" data-name="Enmascarar grupo 207" transform="translate(180 2397)" clip-path="url(#clip-path)">
      <rect id="Rectángulo_386410" data-name="Rectángulo 386410" width="820" height="496" rx="10" fill="#273a89"/>
      <ellipse id="Elipse_9986" data-name="Elipse 9986" cx="31.706" cy="31.708" rx="31.706" ry="31.708" transform="translate(590.568 482.776)" fill="#273a89"/>
      <ellipse id="Elipse_9987" data-name="Elipse 9987" cx="31.706" cy="31.708" rx="31.706" ry="31.708" transform="translate(62.584 -48.268)" fill="#273a89"/>
      <g id="Grupo_1074758" data-name="Grupo 1074758" transform="translate(764.219)" clip-path="url(#clip-path-2)">
        <path id="Trazado_828545" data-name="Trazado 828545" d="M89.035,19.638,73.911,4.514,59.672,18.753,45.353,4.434,30.39,19.4l-14.8-14.8L2.217,17.966,0,15.749,15.588.161l14.8,14.8L45.353,0,59.672,14.318,73.911.08,89.035,15.2,103.21,1.028l2.218,2.216Z" transform="translate(-15.755 -9.955)" fill="#273a89"/>
        <path id="Trazado_828546" data-name="Trazado 828546" d="M89.035,36.433,73.911,21.31,59.672,35.547,45.353,21.229,30.39,36.192l-14.8-14.8L2.217,34.762,0,32.544,15.588,16.956l14.8,14.8L45.353,16.8,59.672,31.115,73.911,16.876,89.035,32,103.21,17.824l2.218,2.216Z" transform="translate(-15.755 -11.466)" fill="#273a89"/>
        <path id="Trazado_828547" data-name="Trazado 828547" d="M89.035,53.228,73.911,38.105,59.672,52.344,45.353,38.025,30.39,52.987l-14.8-14.8L2.217,51.557,0,49.339,15.588,33.751l14.8,14.8L45.353,33.59,59.672,47.91,73.911,33.671,89.035,48.794,103.21,34.619l2.218,2.217Z" transform="translate(-15.755 -12.977)" fill="#273a89"/>
        <path id="Trazado_828548" data-name="Trazado 828548" d="M89.035,70.024,73.911,54.9,59.672,69.139,45.353,54.82,30.39,69.783l-14.8-14.8L2.217,68.352,0,66.136,15.588,50.548l14.8,14.8L45.353,50.386,59.672,64.706,73.911,50.467,89.035,65.59,103.21,51.414l2.218,2.217Z" transform="translate(-15.755 -14.488)" fill="#273a89"/>
        <path id="Trazado_828549" data-name="Trazado 828549" d="M89.035,86.819,73.911,71.7,59.672,85.934,45.353,71.615,30.39,86.578l-14.8-14.8L2.217,85.149,0,82.932,15.588,67.343l14.8,14.8L45.353,67.182,59.672,81.5,73.911,67.263,89.035,82.387,103.21,68.21l2.218,2.217Z" transform="translate(-15.755 -15.999)" fill="#273a89"/>
        <path id="Trazado_828550" data-name="Trazado 828550" d="M89.035,103.615,73.911,88.492,59.672,102.73,45.353,88.412,30.39,103.374l-14.8-14.8L2.217,101.944,0,99.726,15.588,84.138l14.8,14.8L45.353,83.977,59.672,98.3,73.911,84.058,89.035,99.181,103.21,85.005l2.218,2.217Z" transform="translate(-15.755 -17.51)" fill="#273a89"/>
      </g>
      <g id="Grupo_1074759" data-name="Grupo 1074759" transform="translate(-32.636 415.952)" clip-path="url(#clip-path-2)">
        <path id="Trazado_828552" data-name="Trazado 828552" d="M89.035,19.638,73.911,4.514,59.672,18.753,45.353,4.434,30.39,19.4l-14.8-14.8L2.217,17.966,0,15.749,15.588.161l14.8,14.8L45.353,0,59.672,14.318,73.911.08,89.035,15.2,103.21,1.028l2.218,2.216Z" transform="translate(-15.755 -9.955)" fill="#273a89"/>
        <path id="Trazado_828553" data-name="Trazado 828553" d="M89.035,36.433,73.911,21.31,59.672,35.547,45.353,21.229,30.39,36.192l-14.8-14.8L2.217,34.762,0,32.544,15.588,16.956l14.8,14.8L45.353,16.8,59.672,31.115,73.911,16.876,89.035,32,103.21,17.824l2.218,2.216Z" transform="translate(-15.755 -11.466)" fill="#273a89"/>
        <path id="Trazado_828554" data-name="Trazado 828554" d="M89.035,53.228,73.911,38.105,59.672,52.344,45.353,38.025,30.39,52.987l-14.8-14.8L2.217,51.557,0,49.339,15.588,33.751l14.8,14.8L45.353,33.59,59.672,47.91,73.911,33.671,89.035,48.794,103.21,34.619l2.218,2.217Z" transform="translate(-15.755 -12.977)" fill="#273a89"/>
        <path id="Trazado_828555" data-name="Trazado 828555" d="M89.035,70.024,73.911,54.9,59.672,69.139,45.353,54.82,30.39,69.783l-14.8-14.8L2.217,68.352,0,66.136,15.588,50.548l14.8,14.8L45.353,50.386,59.672,64.706,73.911,50.467,89.035,65.59,103.21,51.414l2.218,2.217Z" transform="translate(-15.755 -14.488)" fill="#273a89"/>
        <path id="Trazado_828556" data-name="Trazado 828556" d="M89.035,86.819,73.911,71.7,59.672,85.934,45.353,71.615,30.39,86.578l-14.8-14.8L2.217,85.149,0,82.932,15.588,67.343l14.8,14.8L45.353,67.182,59.672,81.5,73.911,67.263,89.035,82.387,103.21,68.21l2.218,2.217Z" transform="translate(-15.755 -15.999)" fill="#273a89"/>
        <path id="Trazado_828557" data-name="Trazado 828557" d="M89.035,103.615,73.911,88.492,59.672,102.73,45.353,88.412,30.39,103.374l-14.8-14.8L2.217,101.944,0,99.726,15.588,84.138l14.8,14.8L45.353,83.977,59.672,98.3,73.911,84.058,89.035,99.181,103.21,85.005l2.218,2.217Z" transform="translate(-15.755 -17.51)" fill="#273a89"/>
      </g>
    </g>
    <g id="Grupo_1075363" data-name="Grupo 1075363">
      <path id="Trazado_830491" data-name="Trazado 830491" d="M9,0H787a9,9,0,0,1,9,9V462a9,9,0,0,1-9,9H9a9,9,0,0,1-9-9V9A9,9,0,0,1,9,0Z" transform="translate(192 2410)" fill="#fff"/>
    </g>
    <path id="Trazado_830492" data-name="Trazado 830492" d="M8.416-9.016H5.369V0H3.23V-9.016h-3v-1.648H8.416ZM13.491,0a4.5,4.5,0,0,1-.2-.571,3.974,3.974,0,0,1-.121-.615,2.931,2.931,0,0,1-.872.959,2.185,2.185,0,0,1-1.289.381A2.676,2.676,0,0,1,9.089-.487a2.3,2.3,0,0,1-.674-1.747,2.09,2.09,0,0,1,.9-1.805,4.481,4.481,0,0,1,2.618-.641h1.2v-.63a1.233,1.233,0,0,0-.3-.886,1.179,1.179,0,0,0-.894-.315,1.162,1.162,0,0,0-.8.253.882.882,0,0,0-.282.692H8.8L8.782-5.61a2.01,2.01,0,0,1,.875-1.732,3.8,3.8,0,0,1,2.421-.729,3.548,3.548,0,0,1,2.311.718A2.5,2.5,0,0,1,15.271-5.3v3.274a6.192,6.192,0,0,0,.084,1.047A5.256,5.256,0,0,0,15.623,0ZM11.536-1.428a1.822,1.822,0,0,0,1-.278,1.5,1.5,0,0,0,.6-.645V-3.472h-1.2a1.424,1.424,0,0,0-1.029.337,1.107,1.107,0,0,0-.348.828.826.826,0,0,0,.26.641A1.029,1.029,0,0,0,11.536-1.428Zm7.324-6.5.088,1.047A2.662,2.662,0,0,1,19.9-7.76a2.749,2.749,0,0,1,1.329-.311,2.421,2.421,0,0,1,1.3.337,2.078,2.078,0,0,1,.82,1.018,2.747,2.747,0,0,1,.952-1,2.584,2.584,0,0,1,1.377-.359,2.258,2.258,0,0,1,1.849.831A3.969,3.969,0,0,1,28.213-4.7V0H26.074V-4.709a2.221,2.221,0,0,0-.293-1.326,1.04,1.04,0,0,0-.872-.374,1.493,1.493,0,0,0-.787.2,1.467,1.467,0,0,0-.531.56q0,.139.007.238t.007.2V0H21.475V-4.709a2.228,2.228,0,0,0-.293-1.315,1.035,1.035,0,0,0-.879-.385,1.659,1.659,0,0,0-.758.165,1.454,1.454,0,0,0-.538.465V0H16.875V-7.925ZM34.526,0a4.5,4.5,0,0,1-.2-.571,3.974,3.974,0,0,1-.121-.615,2.931,2.931,0,0,1-.872.959,2.185,2.185,0,0,1-1.289.381,2.676,2.676,0,0,1-1.919-.641,2.3,2.3,0,0,1-.674-1.747,2.09,2.09,0,0,1,.9-1.805,4.481,4.481,0,0,1,2.618-.641h1.2v-.63a1.233,1.233,0,0,0-.3-.886,1.179,1.179,0,0,0-.894-.315,1.162,1.162,0,0,0-.8.253.882.882,0,0,0-.282.692H29.832l-.015-.044a2.01,2.01,0,0,1,.875-1.732,3.8,3.8,0,0,1,2.421-.729,3.548,3.548,0,0,1,2.311.718A2.5,2.5,0,0,1,36.306-5.3v3.274A6.192,6.192,0,0,0,36.39-.974,5.256,5.256,0,0,0,36.658,0ZM32.571-1.428a1.822,1.822,0,0,0,1-.278,1.5,1.5,0,0,0,.6-.645V-3.472h-1.2a1.424,1.424,0,0,0-1.029.337,1.107,1.107,0,0,0-.348.828.826.826,0,0,0,.26.641A1.029,1.029,0,0,0,32.571-1.428Zm7.295-6.5.1,1.135a2.9,2.9,0,0,1,.974-.945,2.529,2.529,0,0,1,1.3-.337,2.356,2.356,0,0,1,1.875.773,3.663,3.663,0,0,1,.674,2.443V0H42.634V-4.849a1.9,1.9,0,0,0-.3-1.2,1.093,1.093,0,0,0-.89-.355,1.867,1.867,0,0,0-.839.179,1.637,1.637,0,0,0-.6.494V0H37.874V-7.925Zm4.189-3.311a1.748,1.748,0,0,1-.436,1.2,1.406,1.406,0,0,1-1.1.494,2.683,2.683,0,0,1-1.161-.319,2.537,2.537,0,0,0-1.029-.319.528.528,0,0,0-.439.238.929.929,0,0,0-.176.568l-1.143-.308a1.783,1.783,0,0,1,.436-1.2,1.381,1.381,0,0,1,1.095-.509,2.925,2.925,0,0,1,1.113.319,2.907,2.907,0,0,0,1.084.319.557.557,0,0,0,.439-.234.888.888,0,0,0,.19-.579Zm1.992,7.2a4.253,4.253,0,0,1,.989-2.9,3.447,3.447,0,0,1,2.739-1.132,3.483,3.483,0,0,1,2.754,1.128,4.23,4.23,0,0,1,1,2.908v.154A4.237,4.237,0,0,1,52.533-.97,3.469,3.469,0,0,1,49.79.154,3.477,3.477,0,0,1,47.04-.97a4.237,4.237,0,0,1-.992-2.911Zm2.131.154a3.448,3.448,0,0,0,.381,1.74,1.315,1.315,0,0,0,1.23.656A1.3,1.3,0,0,0,51-2.146a3.425,3.425,0,0,0,.385-1.736v-.154A3.39,3.39,0,0,0,51-5.757a1.313,1.313,0,0,0-1.223-.667,1.3,1.3,0,0,0-1.212.67,3.42,3.42,0,0,0-.385,1.718ZM58.25-3.9a5.15,5.15,0,0,1,.809-3.025,2.628,2.628,0,0,1,2.281-1.15,2.219,2.219,0,0,1,1.069.256,2.573,2.573,0,0,1,.835.732v-4.343h2.146V0H63.567l-.183-.974a2.649,2.649,0,0,1-.886.839,2.343,2.343,0,0,1-1.172.289A2.68,2.68,0,0,1,59.059-.916a4.566,4.566,0,0,1-.809-2.827Zm2.131.154a3.228,3.228,0,0,0,.352,1.637,1.224,1.224,0,0,0,1.143.6,1.664,1.664,0,0,0,.806-.187,1.49,1.49,0,0,0,.564-.546V-5.618a1.646,1.646,0,0,0-.56-.582,1.49,1.49,0,0,0-.795-.209,1.207,1.207,0,0,0-1.146.7A3.932,3.932,0,0,0,60.381-3.9Zm10.1,3.9A3.566,3.566,0,0,1,67.712-.934a3.986,3.986,0,0,1-1-2.8v-.293a4.339,4.339,0,0,1,.967-2.915,3.287,3.287,0,0,1,2.659-1.128,3.077,3.077,0,0,1,2.45.978,3.864,3.864,0,0,1,.853,2.633v1.106H68.921l-.022.044a2.141,2.141,0,0,0,.494,1.318,1.655,1.655,0,0,0,1.315.505,4.4,4.4,0,0,0,1.219-.146,4.976,4.976,0,0,0,1.036-.447l.579,1.318a3.97,3.97,0,0,1-1.289.652A5.717,5.717,0,0,1,70.481.154Zm-.139-6.577a1.188,1.188,0,0,0-.992.443A2.223,2.223,0,0,0,68.928-4.8l.015.037H71.55v-.161a1.851,1.851,0,0,0-.286-1.095A1.057,1.057,0,0,0,70.342-6.423ZM82.061.154A3.566,3.566,0,0,1,79.292-.934a3.986,3.986,0,0,1-1-2.8v-.293a4.339,4.339,0,0,1,.967-2.915,3.287,3.287,0,0,1,2.659-1.128,3.077,3.077,0,0,1,2.45.978,3.864,3.864,0,0,1,.853,2.633v1.106H80.5l-.022.044a2.141,2.141,0,0,0,.494,1.318,1.655,1.655,0,0,0,1.315.505,4.4,4.4,0,0,0,1.219-.146,4.976,4.976,0,0,0,1.036-.447l.579,1.318a3.97,3.97,0,0,1-1.289.652A5.717,5.717,0,0,1,82.061.154Zm-.139-6.577a1.188,1.188,0,0,0-.992.443A2.223,2.223,0,0,0,80.508-4.8l.015.037H83.13v-.161a1.851,1.851,0,0,0-.286-1.095A1.057,1.057,0,0,0,81.921-6.423Zm6.5-1.5.1,1.135a2.9,2.9,0,0,1,.974-.945,2.529,2.529,0,0,1,1.3-.337,2.356,2.356,0,0,1,1.875.773,3.663,3.663,0,0,1,.674,2.443V0H91.194V-4.849a1.9,1.9,0,0,0-.3-1.2,1.093,1.093,0,0,0-.89-.355,1.867,1.867,0,0,0-.839.179,1.637,1.637,0,0,0-.6.494V0H86.433V-7.925ZM97.5-9.866v1.941h1.34v1.5H97.5v4.036a.921.921,0,0,0,.194.659.681.681,0,0,0,.509.2,2.042,2.042,0,0,0,.293-.018,2.467,2.467,0,0,0,.286-.062l.176,1.545A4.33,4.33,0,0,1,98.331.1a3.733,3.733,0,0,1-.663.055,2.279,2.279,0,0,1-1.7-.608,2.666,2.666,0,0,1-.6-1.926V-6.423H94.211v-1.5h1.157V-9.866Zm6.826,3.779-.784-.022a1.424,1.424,0,0,0-.784.2,1.253,1.253,0,0,0-.469.557V0h-2.131V-7.925h1.985l.1,1.172a2.5,2.5,0,0,1,.721-.97,1.608,1.608,0,0,1,1.022-.348,1.6,1.6,0,0,1,.3.026q.135.026.275.062ZM110.112,0a4.5,4.5,0,0,1-.2-.571,3.974,3.974,0,0,1-.121-.615,2.931,2.931,0,0,1-.872.959,2.185,2.185,0,0,1-1.289.381,2.676,2.676,0,0,1-1.919-.641,2.3,2.3,0,0,1-.674-1.747,2.09,2.09,0,0,1,.9-1.805,4.481,4.481,0,0,1,2.618-.641h1.2v-.63a1.233,1.233,0,0,0-.3-.886,1.179,1.179,0,0,0-.894-.315,1.162,1.162,0,0,0-.8.253.882.882,0,0,0-.282.692h-2.058L105.4-5.61a2.01,2.01,0,0,1,.875-1.732,3.8,3.8,0,0,1,2.421-.729,3.548,3.548,0,0,1,2.311.718,2.5,2.5,0,0,1,.883,2.058v3.274a6.192,6.192,0,0,0,.084,1.047,5.256,5.256,0,0,0,.267.974Zm-1.956-1.428a1.822,1.822,0,0,0,1-.278,1.5,1.5,0,0,0,.6-.645V-3.472h-1.2a1.424,1.424,0,0,0-1.029.337,1.107,1.107,0,0,0-.348.828.826.826,0,0,0,.26.641A1.029,1.029,0,0,0,108.157-1.428Zm5.01-2.468a5.15,5.15,0,0,1,.809-3.025,2.628,2.628,0,0,1,2.281-1.15,2.219,2.219,0,0,1,1.069.256,2.573,2.573,0,0,1,.835.732v-4.343h2.146V0h-1.824L118.3-.974a2.649,2.649,0,0,1-.886.839,2.343,2.343,0,0,1-1.172.289,2.68,2.68,0,0,1-2.267-1.069,4.566,4.566,0,0,1-.809-2.827Zm2.131.154a3.228,3.228,0,0,0,.352,1.637,1.224,1.224,0,0,0,1.143.6A1.664,1.664,0,0,0,117.6-1.7a1.49,1.49,0,0,0,.564-.546V-5.618a1.646,1.646,0,0,0-.56-.582,1.49,1.49,0,0,0-.795-.209,1.207,1.207,0,0,0-1.146.7A3.932,3.932,0,0,0,115.3-3.9ZM126.636,0a4.5,4.5,0,0,1-.2-.571,3.974,3.974,0,0,1-.121-.615,2.931,2.931,0,0,1-.872.959,2.185,2.185,0,0,1-1.289.381,2.676,2.676,0,0,1-1.919-.641,2.3,2.3,0,0,1-.674-1.747,2.09,2.09,0,0,1,.9-1.805,4.481,4.481,0,0,1,2.618-.641h1.2v-.63a1.233,1.233,0,0,0-.3-.886,1.179,1.179,0,0,0-.894-.315,1.162,1.162,0,0,0-.8.253.882.882,0,0,0-.282.692h-2.058l-.015-.044a2.01,2.01,0,0,1,.875-1.732,3.8,3.8,0,0,1,2.421-.729,3.548,3.548,0,0,1,2.311.718,2.5,2.5,0,0,1,.883,2.058v3.274A6.192,6.192,0,0,0,128.5-.974a5.256,5.256,0,0,0,.267.974ZM124.68-1.428a1.822,1.822,0,0,0,1-.278,1.5,1.5,0,0,0,.6-.645V-3.472h-1.2a1.424,1.424,0,0,0-1.029.337,1.107,1.107,0,0,0-.348.828.826.826,0,0,0,.26.641A1.029,1.029,0,0,0,124.68-1.428Zm9.163-2.908a9.9,9.9,0,0,1,1.113-4.874,5.574,5.574,0,0,1,2.52-2.6h.044l.388,1.069A5.316,5.316,0,0,0,136.3-8.423a10.873,10.873,0,0,0-.652,4.072v.19A10.867,10.867,0,0,0,136.3-.084a5.492,5.492,0,0,0,1.611,2.333L137.52,3.3h-.044A5.576,5.576,0,0,1,134.956.7a9.9,9.9,0,0,1-1.113-4.878Zm7.075-3.589.1,1.135a2.9,2.9,0,0,1,.974-.945,2.529,2.529,0,0,1,1.3-.337,2.356,2.356,0,0,1,1.875.773,3.663,3.663,0,0,1,.674,2.443V0h-2.146V-4.849a1.9,1.9,0,0,0-.3-1.2,1.093,1.093,0,0,0-.89-.355,1.867,1.867,0,0,0-.839.179,1.637,1.637,0,0,0-.6.494V0h-2.139V-7.925Zm10.1,3.75A9.636,9.636,0,0,1,149.857.67,5.707,5.707,0,0,1,147.275,3.3h-.044l-.4-1.047a5.43,5.43,0,0,0,1.6-2.322A10.845,10.845,0,0,0,149.1-4.16v-.19a10.755,10.755,0,0,0-.667-4.076,5.61,5.61,0,0,0-1.6-2.34l.4-1.04h.044a5.705,5.705,0,0,1,2.582,2.629,9.641,9.641,0,0,1,1.161,4.841Z" transform="translate(525 2857)" fill="#12263f"/>
    <path id="Trazado_830493" data-name="Trazado 830493" d="M5.134,0H3.473V-8.422H1.36V-9.741L5.134-10.1ZM15.2-3.562a3.928,3.928,0,0,1-.885,2.714,3.019,3.019,0,0,1-2.369.991A3.045,3.045,0,0,1,9.563-.851a3.9,3.9,0,0,1-.9-2.71V-6.385A3.934,3.934,0,0,1,9.557-9.1a3.019,3.019,0,0,1,2.372-1,3.03,3.03,0,0,1,2.375,1A3.924,3.924,0,0,1,15.2-6.385ZM13.535-6.638A2.55,2.55,0,0,0,13.111-8.2a1.4,1.4,0,0,0-1.183-.564,1.384,1.384,0,0,0-1.183.564,2.58,2.58,0,0,0-.417,1.562v3.315a2.575,2.575,0,0,0,.424,1.576,1.4,1.4,0,0,0,1.189.564,1.378,1.378,0,0,0,1.179-.561,2.62,2.62,0,0,0,.414-1.579Zm9.618,3.076a3.928,3.928,0,0,1-.885,2.714A3.019,3.019,0,0,1,19.9.144a3.045,3.045,0,0,1-2.379-.995,3.9,3.9,0,0,1-.9-2.71V-6.385A3.934,3.934,0,0,1,17.514-9.1a3.019,3.019,0,0,1,2.372-1,3.03,3.03,0,0,1,2.375,1,3.924,3.924,0,0,1,.892,2.714ZM21.492-6.638A2.55,2.55,0,0,0,21.068-8.2a1.4,1.4,0,0,0-1.183-.564A1.384,1.384,0,0,0,18.7-8.2a2.58,2.58,0,0,0-.417,1.562v3.315a2.575,2.575,0,0,0,.424,1.576,1.4,1.4,0,0,0,1.189.564,1.378,1.378,0,0,0,1.179-.561,2.62,2.62,0,0,0,.414-1.579Z" transform="translate(262 2478)" fill="#273a89"/>
    <path id="Trazado_830494" data-name="Trazado 830494" d="M7.369-8.62a13.891,13.891,0,0,0-2.43,3.753,10.184,10.184,0,0,0-.632,3.7V0H2.646V-1.169a9.293,9.293,0,0,1,.8-3.9A15.719,15.719,0,0,1,5.756-8.62H.581V-9.953H7.369ZM9.037-4.4l.574-5.551h5.25v1.436H10.992l-.3,2.536a2.765,2.765,0,0,1,.7-.355,2.8,2.8,0,0,1,.9-.15,2.682,2.682,0,0,1,2.16.868,3.579,3.579,0,0,1,.772,2.44,3.5,3.5,0,0,1-.813,2.4,3.074,3.074,0,0,1-2.434.923A3.494,3.494,0,0,1,9.758-.564a2.329,2.329,0,0,1-.872-2.02L8.9-2.618l1.559-.048a1.42,1.42,0,0,0,.42,1.09,1.542,1.542,0,0,0,1.1.393,1.4,1.4,0,0,0,1.183-.526,2.343,2.343,0,0,0,.4-1.456A2.3,2.3,0,0,0,13.146-4.6a1.41,1.41,0,0,0-1.189-.543,1.871,1.871,0,0,0-1.015.219,1.236,1.236,0,0,0-.482.643Z" transform="translate(267 2557)" fill="#273a89"/>
    <path id="Trazado_830495" data-name="Trazado 830495" d="M1.08-4.4l.574-5.551H6.9v1.436H3.035l-.3,2.536a2.765,2.765,0,0,1,.7-.355,2.8,2.8,0,0,1,.9-.15,2.682,2.682,0,0,1,2.16.868,3.579,3.579,0,0,1,.772,2.44,3.5,3.5,0,0,1-.813,2.4A3.074,3.074,0,0,1,4.02.144,3.494,3.494,0,0,1,1.8-.564,2.329,2.329,0,0,1,.93-2.584l.014-.034L2.5-2.666a1.42,1.42,0,0,0,.42,1.09,1.542,1.542,0,0,0,1.1.393A1.4,1.4,0,0,0,5.2-1.709a2.343,2.343,0,0,0,.4-1.456A2.3,2.3,0,0,0,5.188-4.6,1.41,1.41,0,0,0,4-5.147a1.871,1.871,0,0,0-1.015.219,1.236,1.236,0,0,0-.482.643ZM15.2-3.562a3.928,3.928,0,0,1-.885,2.714,3.019,3.019,0,0,1-2.369.991A3.045,3.045,0,0,1,9.563-.851a3.9,3.9,0,0,1-.9-2.71V-6.385A3.934,3.934,0,0,1,9.557-9.1a3.019,3.019,0,0,1,2.372-1,3.03,3.03,0,0,1,2.375,1A3.924,3.924,0,0,1,15.2-6.385ZM13.535-6.638A2.55,2.55,0,0,0,13.111-8.2a1.4,1.4,0,0,0-1.183-.564,1.384,1.384,0,0,0-1.183.564,2.58,2.58,0,0,0-.417,1.562v3.315a2.575,2.575,0,0,0,.424,1.576,1.4,1.4,0,0,0,1.189.564,1.378,1.378,0,0,0,1.179-.561,2.62,2.62,0,0,0,.414-1.579Z" transform="translate(267 2640)" fill="#273a89"/>
    <path id="Trazado_830496" data-name="Trazado 830496" d="M7.335,0H.916V-1.142l3.11-3.6A8.24,8.24,0,0,0,5.079-6.214a2.468,2.468,0,0,0,.294-1.114,1.5,1.5,0,0,0-.355-1.036A1.291,1.291,0,0,0,4-8.764a1.443,1.443,0,0,0-1.183.5,1.915,1.915,0,0,0-.41,1.258H.8L.786-7.048A2.84,2.84,0,0,1,1.63-9.211,3.187,3.187,0,0,1,4-10.1a3.1,3.1,0,0,1,2.232.766,2.649,2.649,0,0,1,.8,2.01,2.994,2.994,0,0,1-.448,1.579A18.03,18.03,0,0,1,5.113-3.767L3.015-1.36l.014.034H7.335Zm1.7-4.4.574-5.551h5.25v1.436H10.992l-.3,2.536a2.765,2.765,0,0,1,.7-.355,2.8,2.8,0,0,1,.9-.15,2.682,2.682,0,0,1,2.16.868,3.579,3.579,0,0,1,.772,2.44,3.5,3.5,0,0,1-.813,2.4,3.074,3.074,0,0,1-2.434.923A3.494,3.494,0,0,1,9.758-.564a2.329,2.329,0,0,1-.872-2.02L8.9-2.618l1.559-.048a1.42,1.42,0,0,0,.42,1.09,1.542,1.542,0,0,0,1.1.393,1.4,1.4,0,0,0,1.183-.526,2.343,2.343,0,0,0,.4-1.456A2.3,2.3,0,0,0,13.146-4.6a1.41,1.41,0,0,0-1.189-.543,1.871,1.871,0,0,0-1.015.219,1.236,1.236,0,0,0-.482.643Z" transform="translate(267 2723)" fill="#273a89"/>
    <path id="Trazado_830497" data-name="Trazado 830497" d="M7.239-3.562A3.928,3.928,0,0,1,6.354-.848,3.019,3.019,0,0,1,3.985.144,3.045,3.045,0,0,1,1.606-.851a3.9,3.9,0,0,1-.9-2.71V-6.385A3.934,3.934,0,0,1,1.6-9.1a3.019,3.019,0,0,1,2.372-1,3.03,3.03,0,0,1,2.375,1,3.924,3.924,0,0,1,.892,2.714ZM5.578-6.638A2.55,2.55,0,0,0,5.154-8.2a1.4,1.4,0,0,0-1.183-.564A1.384,1.384,0,0,0,2.789-8.2a2.58,2.58,0,0,0-.417,1.562v3.315A2.575,2.575,0,0,0,2.8-1.747a1.4,1.4,0,0,0,1.189.564,1.378,1.378,0,0,0,1.179-.561,2.62,2.62,0,0,0,.414-1.579Z" transform="translate(271 2805)" fill="#273a89"/>
    <path id="Trazado_830498" data-name="Trazado 830498" d="M7.239-3.562A3.928,3.928,0,0,1,6.354-.848,3.019,3.019,0,0,1,3.985.144,3.045,3.045,0,0,1,1.606-.851a3.9,3.9,0,0,1-.9-2.71V-6.385A3.934,3.934,0,0,1,1.6-9.1a3.019,3.019,0,0,1,2.372-1,3.03,3.03,0,0,1,2.375,1,3.924,3.924,0,0,1,.892,2.714ZM5.578-6.638A2.55,2.55,0,0,0,5.154-8.2a1.4,1.4,0,0,0-1.183-.564A1.384,1.384,0,0,0,2.789-8.2a2.58,2.58,0,0,0-.417,1.562v3.315A2.575,2.575,0,0,0,2.8-1.747a1.4,1.4,0,0,0,1.189.564,1.378,1.378,0,0,0,1.179-.561,2.62,2.62,0,0,0,.414-1.579Z" transform="translate(295 2827)" fill="#12263f"/>
    <path id="Trazado_830499" data-name="Trazado 830499" d="M7.335,0H.916V-1.142l3.11-3.6A8.24,8.24,0,0,0,5.079-6.214a2.468,2.468,0,0,0,.294-1.114,1.5,1.5,0,0,0-.355-1.036A1.291,1.291,0,0,0,4-8.764a1.443,1.443,0,0,0-1.183.5,1.915,1.915,0,0,0-.41,1.258H.8L.786-7.048A2.84,2.84,0,0,1,1.63-9.211,3.187,3.187,0,0,1,4-10.1a3.1,3.1,0,0,1,2.232.766,2.649,2.649,0,0,1,.8,2.01,2.994,2.994,0,0,1-.448,1.579A18.03,18.03,0,0,1,5.113-3.767L3.015-1.36l.014.034H7.335Z" transform="translate(415 2827)" fill="#12263f"/>
    <path id="Trazado_830500" data-name="Trazado 830500" d="M6.3-3.548H7.561v1.34H6.3V0H4.648V-2.208H.485L.444-3.227,4.6-9.953H6.3Zm-4.238,0H4.648V-7.608l-.041-.007-.157.383Z" transform="translate(536 2827)" fill="#12263f"/>
    <path id="Trazado_830501" data-name="Trazado 830501" d="M4.471-10.1a5.47,5.47,0,0,1,1.121.113,5.123,5.123,0,0,1,.971.3L6.241-8.4a5.738,5.738,0,0,0-.82-.256,4.266,4.266,0,0,0-.943-.092,1.755,1.755,0,0,0-1.466.731,3.111,3.111,0,0,0-.557,1.935v.52a2.858,2.858,0,0,1,.96-.629,3.24,3.24,0,0,1,1.227-.226,2.481,2.481,0,0,1,2.013.882A3.49,3.49,0,0,1,7.39-3.227a3.4,3.4,0,0,1-.882,2.44,3.064,3.064,0,0,1-2.331.93A3.117,3.117,0,0,1,1.753-.916,4.174,4.174,0,0,1,.8-3.814V-5.981A4.221,4.221,0,0,1,1.849-8.955,3.413,3.413,0,0,1,4.471-10.1ZM4.1-5.127a2.162,2.162,0,0,0-1.008.215,1.574,1.574,0,0,0-.639.591v.595a3.152,3.152,0,0,0,.485,1.866,1.467,1.467,0,0,0,1.237.677,1.333,1.333,0,0,0,1.145-.574,2.454,2.454,0,0,0,.414-1.47A2.078,2.078,0,0,0,5.3-4.614,1.488,1.488,0,0,0,4.1-5.127Z" transform="translate(657 2827)" fill="#12263f"/>
    <g id="Enmascarar_grupo_205" data-name="Enmascarar grupo 205" transform="translate(192.049 2463.485)" clip-path="url(#clip-path-4)">
      <g id="Grupo_1074744" data-name="Grupo 1074744" transform="translate(-13.46 9.232)">
        <path id="Trazado_828541" data-name="Trazado 828541" d="M64.145,9.347,63.072,10.42a7.348,7.348,0,0,1-10.392,0l-.646-.646a7.351,7.351,0,0,0-10.392,0,7.348,7.348,0,0,1-10.392,0l-.059-.059a7.351,7.351,0,0,0-10.392,0l-.529.529a7.348,7.348,0,0,1-10.392,0l-.41-.411A7.347,7.347,0,0,0,0,9.058V12.3a7.345,7.345,0,0,1,9.467.773l.41.411a7.348,7.348,0,0,0,10.392,0l.529-.529a7.348,7.348,0,0,1,10.392,0l.059.059a7.348,7.348,0,0,0,10.392,0,7.348,7.348,0,0,1,10.392,0l.646.646a7.348,7.348,0,0,0,10.392,0l1.074-1.074Z" transform="translate(0 2.769)" fill="#1682fb"/>
        <path id="Trazado_828542" data-name="Trazado 828542" d="M64.145,1.783,63.072,2.856a7.348,7.348,0,0,1-10.392,0l-.646-.646a7.348,7.348,0,0,0-10.392,0,7.348,7.348,0,0,1-10.392,0l-.059-.059a7.348,7.348,0,0,0-10.392,0l-.529.529a7.348,7.348,0,0,1-10.392,0l-.41-.411A7.347,7.347,0,0,0,0,1.495V4.731a7.347,7.347,0,0,1,9.467.774l.41.411a7.348,7.348,0,0,0,10.392,0l.529-.529a7.348,7.348,0,0,1,10.392,0l.059.059a7.348,7.348,0,0,0,10.392,0,7.348,7.348,0,0,1,10.392,0l.646.646a7.348,7.348,0,0,0,10.392,0l1.074-1.074Z" transform="translate(0 0.001)" fill="#1682fb"/>
      </g>
    </g>
    <path id="Trazado_830504" data-name="Trazado 830504" d="M9.5-4.373A4.507,4.507,0,0,1,8.273-1.132,4.21,4.21,0,0,1,5.083.154,4.066,4.066,0,0,1,1.97-1.132a4.561,4.561,0,0,1-1.2-3.241V-6.292a4.572,4.572,0,0,1,1.2-3.237,4.058,4.058,0,0,1,3.116-1.289A4.207,4.207,0,0,1,8.269-9.529,4.5,4.5,0,0,1,9.5-6.292ZM7.72-6.306a3.317,3.317,0,0,0-.71-2.19,2.371,2.371,0,0,0-1.926-.857A2.238,2.238,0,0,0,3.226-8.5a3.423,3.423,0,0,0-.677,2.19v1.934A3.45,3.45,0,0,0,3.23-2.164,2.237,2.237,0,0,0,5.083-1.3a2.368,2.368,0,0,0,1.93-.857A3.362,3.362,0,0,0,7.72-4.373Zm3.486,1.97a9.826,9.826,0,0,1,1.146-4.911,6.057,6.057,0,0,1,2.479-2.648l.044.007.33.981a5.76,5.76,0,0,0-1.681,2.4,10.705,10.705,0,0,0-.7,4.16V-4.2a10.756,10.756,0,0,0,.7,4.16A6.142,6.142,0,0,0,15.205,2.4l-.33.938h-.044A6.074,6.074,0,0,1,12.349.688a9.831,9.831,0,0,1-1.143-4.907ZM20.859,0H19.08V-9.023H16.816v-1.414l4.043-.381Zm7.207-4.219A9.7,9.7,0,0,1,26.9.674,6.142,6.142,0,0,1,24.39,3.34h-.044L24.009,2.4A5.814,5.814,0,0,0,25.686-.015a10.846,10.846,0,0,0,.7-4.189v-.146a10.541,10.541,0,0,0-.721-4.164,6.291,6.291,0,0,0-1.659-2.435l.337-.945h.044a6.123,6.123,0,0,1,2.5,2.666,9.7,9.7,0,0,1,1.172,4.893Z" transform="translate(384.78 2449.438)" fill="#12263f"/>
    <path id="Trazado_828019" data-name="Trazado 828019" d="M-7527.747-9339.346h20.857" transform="translate(7887.967 11785.205)" fill="none" stroke="#2442a1" stroke-width="2"/>
    <path id="Trazado_830505" data-name="Trazado 830505" d="M9.5-4.373A4.507,4.507,0,0,1,8.273-1.132,4.21,4.21,0,0,1,5.083.154,4.066,4.066,0,0,1,1.97-1.132a4.561,4.561,0,0,1-1.2-3.241V-6.292a4.572,4.572,0,0,1,1.2-3.237,4.058,4.058,0,0,1,3.116-1.289A4.207,4.207,0,0,1,8.269-9.529,4.5,4.5,0,0,1,9.5-6.292ZM7.72-6.306a3.317,3.317,0,0,0-.71-2.19,2.371,2.371,0,0,0-1.926-.857A2.238,2.238,0,0,0,3.226-8.5a3.423,3.423,0,0,0-.677,2.19v1.934A3.45,3.45,0,0,0,3.23-2.164,2.237,2.237,0,0,0,5.083-1.3a2.368,2.368,0,0,0,1.93-.857A3.362,3.362,0,0,0,7.72-4.373Zm3.486,1.97a9.826,9.826,0,0,1,1.146-4.911,6.057,6.057,0,0,1,2.479-2.648l.044.007.33.981a5.76,5.76,0,0,0-1.681,2.4,10.705,10.705,0,0,0-.7,4.16V-4.2a10.756,10.756,0,0,0,.7,4.16A6.142,6.142,0,0,0,15.205,2.4l-.33.938h-.044A6.074,6.074,0,0,1,12.349.688a9.831,9.831,0,0,1-1.143-4.907ZM18.193,0h-1.78V-11.426h1.78Zm1.663-4.036a4.3,4.3,0,0,1,.97-2.9,3.314,3.314,0,0,1,2.655-1.132A3.339,3.339,0,0,1,26.158-6.94a4.3,4.3,0,0,1,.97,2.9v.154a4.3,4.3,0,0,1-.97,2.911A3.333,3.333,0,0,1,23.5.154a3.336,3.336,0,0,1-2.67-1.128,4.3,4.3,0,0,1-.97-2.908Zm1.78.154a3.515,3.515,0,0,0,.454,1.89,1.542,1.542,0,0,0,1.406.725A1.545,1.545,0,0,0,24.891-2a3.454,3.454,0,0,0,.465-1.886v-.154a3.447,3.447,0,0,0-.465-1.871,1.555,1.555,0,0,0-1.41-.736,1.524,1.524,0,0,0-1.388.736,3.49,3.49,0,0,0-.458,1.871Zm6.768.029a5.226,5.226,0,0,1,.813-3.058A2.63,2.63,0,0,1,31.5-8.071a2.5,2.5,0,0,1,1.249.3,2.639,2.639,0,0,1,.912.875l.176-1.033h1.479V0a2.991,2.991,0,0,1-.945,2.366,3.918,3.918,0,0,1-2.681.835,5.248,5.248,0,0,1-1.249-.165A5.8,5.8,0,0,1,29.231,2.6l.286-1.4a4.509,4.509,0,0,0,1.014.355,5.124,5.124,0,0,0,1.146.128,2.033,2.033,0,0,0,1.414-.414A1.652,1.652,0,0,0,33.538,0V-.813a2.49,2.49,0,0,1-.883.721,2.659,2.659,0,0,1-1.168.245A2.7,2.7,0,0,1,29.216-.908,4.468,4.468,0,0,1,28.4-3.7Zm1.772.154a3.17,3.17,0,0,0,.425,1.75,1.484,1.484,0,0,0,1.34.652,1.823,1.823,0,0,0,.963-.238,1.757,1.757,0,0,0,.634-.685V-5.691a1.9,1.9,0,0,0-.641-.677,1.738,1.738,0,0,0-.941-.245,1.441,1.441,0,0,0-1.348.765,4.038,4.038,0,0,0-.432,2Zm7-.637a9.826,9.826,0,0,1,1.146-4.911A6.057,6.057,0,0,1,40.8-11.895l.044.007.33.981a5.76,5.76,0,0,0-1.681,2.4,10.705,10.705,0,0,0-.7,4.16V-4.2a10.756,10.756,0,0,0,.7,4.16A6.142,6.142,0,0,0,41.177,2.4l-.33.938H40.8A6.074,6.074,0,0,1,38.32.688a9.831,9.831,0,0,1-1.143-4.907Zm6.7-3.589.1,1.143a2.835,2.835,0,0,1,.978-.948,2.609,2.609,0,0,1,1.329-.341,2.475,2.475,0,0,1,1.93.762,3.461,3.461,0,0,1,.692,2.38V0h-1.78V-4.915a1.914,1.914,0,0,0-.359-1.311,1.406,1.406,0,0,0-1.084-.388A2.125,2.125,0,0,0,44.7-6.4a1.732,1.732,0,0,0-.667.6V0h-1.78V-7.925ZM54.009-4.219A9.7,9.7,0,0,1,52.841.674,6.142,6.142,0,0,1,50.332,3.34h-.044L49.951,2.4A5.814,5.814,0,0,0,51.628-.015a10.846,10.846,0,0,0,.7-4.189v-.146a10.541,10.541,0,0,0-.721-4.164,6.291,6.291,0,0,0-1.659-2.435l.337-.945h.044a6.123,6.123,0,0,1,2.5,2.666,9.7,9.7,0,0,1,1.172,4.893Zm5.127,0A9.7,9.7,0,0,1,57.968.674,6.142,6.142,0,0,1,55.459,3.34h-.044L55.078,2.4A5.814,5.814,0,0,0,56.755-.015a10.846,10.846,0,0,0,.7-4.189v-.146a10.541,10.541,0,0,0-.721-4.164,6.291,6.291,0,0,0-1.659-2.435l.337-.945h.044a6.123,6.123,0,0,1,2.5,2.666,9.7,9.7,0,0,1,1.172,4.893Z" transform="translate(478.669 2450.438)" fill="#12263f"/>
    <path id="Trazado_828016" data-name="Trazado 828016" d="M-7527.747-9339.346h20.857" transform="translate(7977.967 11785.205)" fill="none" stroke="#b63333" stroke-width="2"/>
    <path id="Trazado_830506" data-name="Trazado 830506" d="M9.5-4.373A4.507,4.507,0,0,1,8.273-1.132,4.21,4.21,0,0,1,5.083.154,4.066,4.066,0,0,1,1.97-1.132a4.561,4.561,0,0,1-1.2-3.241V-6.292a4.572,4.572,0,0,1,1.2-3.237,4.058,4.058,0,0,1,3.116-1.289A4.207,4.207,0,0,1,8.269-9.529,4.5,4.5,0,0,1,9.5-6.292ZM7.72-6.306a3.317,3.317,0,0,0-.71-2.19,2.371,2.371,0,0,0-1.926-.857A2.238,2.238,0,0,0,3.226-8.5a3.423,3.423,0,0,0-.677,2.19v1.934A3.45,3.45,0,0,0,3.23-2.164,2.237,2.237,0,0,0,5.083-1.3a2.368,2.368,0,0,0,1.93-.857A3.362,3.362,0,0,0,7.72-4.373Zm3.486,1.97a9.826,9.826,0,0,1,1.146-4.911,6.057,6.057,0,0,1,2.479-2.648l.044.007.33.981a5.76,5.76,0,0,0-1.681,2.4,10.705,10.705,0,0,0-.7,4.16V-4.2a10.756,10.756,0,0,0,.7,4.16A6.142,6.142,0,0,0,15.205,2.4l-.33.938h-.044A6.074,6.074,0,0,1,12.349.688a9.831,9.831,0,0,1-1.143-4.907Zm6.7-3.589.1,1.143a2.835,2.835,0,0,1,.978-.948,2.609,2.609,0,0,1,1.329-.341,2.475,2.475,0,0,1,1.93.762,3.461,3.461,0,0,1,.692,2.38V0H21.16V-4.915A1.914,1.914,0,0,0,20.8-6.226a1.406,1.406,0,0,0-1.084-.388,2.125,2.125,0,0,0-.989.216,1.732,1.732,0,0,0-.667.6V0h-1.78V-7.925ZM28.037-4.219A9.7,9.7,0,0,1,26.869.674,6.142,6.142,0,0,1,24.36,3.34h-.044L23.979,2.4A5.814,5.814,0,0,0,25.657-.015a10.846,10.846,0,0,0,.7-4.189v-.146a10.541,10.541,0,0,0-.721-4.164,6.291,6.291,0,0,0-1.659-2.435l.337-.945h.044a6.123,6.123,0,0,1,2.5,2.666,9.7,9.7,0,0,1,1.172,4.893Z" transform="translate(600.78 2450.438)" fill="#12263f"/>
    <path id="Trazado_828017" data-name="Trazado 828017" d="M-7527.747-9339.346h20.857" transform="translate(8103.967 11785.204)" fill="none" stroke="#e4df0a" stroke-width="2"/>
    <path id="Trazado_830507" data-name="Trazado 830507" d="M9.5-4.373A4.507,4.507,0,0,1,8.273-1.132,4.21,4.21,0,0,1,5.083.154,4.066,4.066,0,0,1,1.97-1.132a4.561,4.561,0,0,1-1.2-3.241V-6.292a4.572,4.572,0,0,1,1.2-3.237,4.058,4.058,0,0,1,3.116-1.289A4.207,4.207,0,0,1,8.269-9.529,4.5,4.5,0,0,1,9.5-6.292ZM7.72-6.306a3.317,3.317,0,0,0-.71-2.19,2.371,2.371,0,0,0-1.926-.857A2.238,2.238,0,0,0,3.226-8.5a3.423,3.423,0,0,0-.677,2.19v1.934A3.45,3.45,0,0,0,3.23-2.164,2.237,2.237,0,0,0,5.083-1.3a2.368,2.368,0,0,0,1.93-.857A3.362,3.362,0,0,0,7.72-4.373Zm3.486,1.97a9.826,9.826,0,0,1,1.146-4.911,6.057,6.057,0,0,1,2.479-2.648l.044.007.33.981a5.76,5.76,0,0,0-1.681,2.4,10.705,10.705,0,0,0-.7,4.16V-4.2a10.756,10.756,0,0,0,.7,4.16A6.142,6.142,0,0,0,15.205,2.4l-.33.938h-.044A6.074,6.074,0,0,1,12.349.688a9.831,9.831,0,0,1-1.143-4.907Zm6.7-3.589.1,1.143a2.835,2.835,0,0,1,.978-.948,2.609,2.609,0,0,1,1.329-.341,2.475,2.475,0,0,1,1.93.762,3.461,3.461,0,0,1,.692,2.38V0H21.16V-4.915A1.914,1.914,0,0,0,20.8-6.226a1.406,1.406,0,0,0-1.084-.388,2.125,2.125,0,0,0-.989.216,1.732,1.732,0,0,0-.667.6V0h-1.78V-7.925Zm8.159,2.959-1.7-.535.374-1.2,1.743.608-.037-1.824h1.238l-.015,1.882,1.692-.608.374,1.223-1.743.535L29.063-3.42l-1.011.747L27-4.219,25.972-2.732l-1.018-.725ZM33.076,0H31.3V-11.426h1.78Zm1.663-4.036a4.3,4.3,0,0,1,.97-2.9,3.314,3.314,0,0,1,2.655-1.132A3.339,3.339,0,0,1,41.041-6.94a4.3,4.3,0,0,1,.97,2.9v.154a4.3,4.3,0,0,1-.97,2.911A3.333,3.333,0,0,1,38.379.154a3.336,3.336,0,0,1-2.67-1.128,4.3,4.3,0,0,1-.97-2.908Zm1.78.154a3.515,3.515,0,0,0,.454,1.89,1.542,1.542,0,0,0,1.406.725A1.545,1.545,0,0,0,39.774-2a3.454,3.454,0,0,0,.465-1.886v-.154a3.447,3.447,0,0,0-.465-1.871,1.555,1.555,0,0,0-1.41-.736,1.524,1.524,0,0,0-1.388.736,3.49,3.49,0,0,0-.458,1.871Zm6.768.029A5.226,5.226,0,0,1,44.1-6.91a2.63,2.63,0,0,1,2.285-1.161,2.5,2.5,0,0,1,1.249.3,2.639,2.639,0,0,1,.912.875l.176-1.033H50.2V0a2.991,2.991,0,0,1-.945,2.366,3.918,3.918,0,0,1-2.681.835,5.248,5.248,0,0,1-1.249-.165A5.8,5.8,0,0,1,44.114,2.6L44.4,1.2a4.509,4.509,0,0,0,1.014.355,5.124,5.124,0,0,0,1.146.128,2.033,2.033,0,0,0,1.414-.414A1.652,1.652,0,0,0,48.42,0V-.813a2.49,2.49,0,0,1-.883.721A2.659,2.659,0,0,1,46.37.154,2.7,2.7,0,0,1,44.1-.908,4.468,4.468,0,0,1,43.286-3.7Zm1.772.154a3.17,3.17,0,0,0,.425,1.75,1.484,1.484,0,0,0,1.34.652,1.823,1.823,0,0,0,.963-.238,1.757,1.757,0,0,0,.634-.685V-5.691a1.9,1.9,0,0,0-.641-.677,1.738,1.738,0,0,0-.941-.245,1.441,1.441,0,0,0-1.348.765,4.038,4.038,0,0,0-.432,2Zm7-.637a9.826,9.826,0,0,1,1.146-4.911,6.057,6.057,0,0,1,2.479-2.648l.044.007.33.981a5.76,5.76,0,0,0-1.681,2.4,10.705,10.705,0,0,0-.7,4.16V-4.2a10.756,10.756,0,0,0,.7,4.16A6.142,6.142,0,0,0,56.06,2.4l-.33.938h-.044A6.074,6.074,0,0,1,53.2.688a9.831,9.831,0,0,1-1.143-4.907Zm6.7-3.589.1,1.143a2.835,2.835,0,0,1,.978-.948,2.609,2.609,0,0,1,1.329-.341,2.475,2.475,0,0,1,1.93.762,3.461,3.461,0,0,1,.692,2.38V0h-1.78V-4.915a1.914,1.914,0,0,0-.359-1.311,1.406,1.406,0,0,0-1.084-.388,2.125,2.125,0,0,0-.989.216,1.732,1.732,0,0,0-.667.6V0h-1.78V-7.925ZM68.892-4.219A9.7,9.7,0,0,1,67.723.674,6.142,6.142,0,0,1,65.215,3.34h-.044L64.834,2.4A5.814,5.814,0,0,0,66.511-.015a10.846,10.846,0,0,0,.7-4.189v-.146a10.541,10.541,0,0,0-.721-4.164,6.291,6.291,0,0,0-1.659-2.435l.337-.945h.044a6.123,6.123,0,0,1,2.5,2.666,9.7,9.7,0,0,1,1.172,4.893Zm5.127,0A9.7,9.7,0,0,1,72.85.674,6.142,6.142,0,0,1,70.342,3.34H70.3L69.961,2.4A5.814,5.814,0,0,0,71.638-.015a10.846,10.846,0,0,0,.7-4.189v-.146a10.541,10.541,0,0,0-.721-4.164,6.291,6.291,0,0,0-1.659-2.435l.337-.945h.044a6.123,6.123,0,0,1,2.5,2.666,9.7,9.7,0,0,1,1.172,4.893Z" transform="translate(690.78 2450.438)" fill="#12263f"/>
    <path id="Trazado_828018" data-name="Trazado 828018" d="M-7527.747-9339.346h20.857" transform="translate(8193.967 11785.204)" fill="none" stroke="#0e8f22" stroke-width="2"/>
    <path id="Trazado_830508" data-name="Trazado 830508" d="M9.5-4.373A4.507,4.507,0,0,1,8.273-1.132,4.21,4.21,0,0,1,5.083.154,4.066,4.066,0,0,1,1.97-1.132a4.561,4.561,0,0,1-1.2-3.241V-6.292a4.572,4.572,0,0,1,1.2-3.237,4.058,4.058,0,0,1,3.116-1.289A4.207,4.207,0,0,1,8.269-9.529,4.5,4.5,0,0,1,9.5-6.292ZM7.72-6.306a3.317,3.317,0,0,0-.71-2.19,2.371,2.371,0,0,0-1.926-.857A2.238,2.238,0,0,0,3.226-8.5a3.423,3.423,0,0,0-.677,2.19v1.934A3.45,3.45,0,0,0,3.23-2.164,2.237,2.237,0,0,0,5.083-1.3a2.368,2.368,0,0,0,1.93-.857A3.362,3.362,0,0,0,7.72-4.373Zm3.486,1.97a9.826,9.826,0,0,1,1.146-4.911,6.057,6.057,0,0,1,2.479-2.648l.044.007.33.981a5.76,5.76,0,0,0-1.681,2.4,10.705,10.705,0,0,0-.7,4.16V-4.2a10.756,10.756,0,0,0,.7,4.16A6.142,6.142,0,0,0,15.205,2.4l-.33.938h-.044A6.074,6.074,0,0,1,12.349.688a9.831,9.831,0,0,1-1.143-4.907Zm6.7-3.589.1,1.143a2.835,2.835,0,0,1,.978-.948,2.609,2.609,0,0,1,1.329-.341,2.475,2.475,0,0,1,1.93.762,3.461,3.461,0,0,1,.692,2.38V0H21.16V-4.915A1.914,1.914,0,0,0,20.8-6.226a1.406,1.406,0,0,0-1.084-.388,2.125,2.125,0,0,0-.989.216,1.732,1.732,0,0,0-.667.6V0h-1.78V-7.925Zm8.159,2.959-1.7-.535.374-1.2,1.743.608-.037-1.824h1.238l-.015,1.882,1.692-.608.374,1.223-1.743.535L29.063-3.42l-1.011.747L27-4.219,25.972-2.732l-1.018-.725ZM38.1,0H31.223V-1.223l3.333-3.853a8.829,8.829,0,0,0,1.128-1.582A2.645,2.645,0,0,0,36-7.852a1.608,1.608,0,0,0-.381-1.11,1.383,1.383,0,0,0-1.091-.428,1.546,1.546,0,0,0-1.267.535,2.052,2.052,0,0,0-.439,1.348H31.1l-.015-.044a3.043,3.043,0,0,1,.9-2.318,3.414,3.414,0,0,1,2.538-.948,3.325,3.325,0,0,1,2.391.82,2.838,2.838,0,0,1,.861,2.153,3.207,3.207,0,0,1-.48,1.692A19.318,19.318,0,0,1,35.72-4.036L33.472-1.458l.015.037H38.1Zm4.849-4.219A9.7,9.7,0,0,1,41.781.674,6.142,6.142,0,0,1,39.272,3.34h-.044L38.892,2.4A5.814,5.814,0,0,0,40.569-.015a10.846,10.846,0,0,0,.7-4.189v-.146a10.541,10.541,0,0,0-.721-4.164,6.291,6.291,0,0,0-1.659-2.435l.337-.945h.044a6.123,6.123,0,0,1,2.5,2.666,9.7,9.7,0,0,1,1.172,4.893Z" transform="translate(827.78 2450.438)" fill="#12263f"/>
    <path id="Trazado_828015" data-name="Trazado 828015" d="M-7527.747-9339.346h20.857" transform="translate(8330.967 11785.204)" fill="none" stroke="#af1e94" stroke-width="2"/>
    <path id="Trazado_830502" data-name="Trazado 830502" d="M7.055-7.383a2.265,2.265,0,0,1-.4,1.33,2.632,2.632,0,0,1-1.094.892,3,3,0,0,1,1.309.95,2.3,2.3,0,0,1,.489,1.449A2.618,2.618,0,0,1,6.429-.615,3.594,3.594,0,0,1,4.074.144,3.877,3.877,0,0,1,1.6-.615a2.578,2.578,0,0,1-.96-2.146,2.256,2.256,0,0,1,.5-1.449A3.072,3.072,0,0,1,2.5-5.161,2.693,2.693,0,0,1,1.36-6.053a2.213,2.213,0,0,1-.417-1.33A2.443,2.443,0,0,1,1.8-9.4a3.474,3.474,0,0,1,2.256-.7,3.247,3.247,0,0,1,2.157.7A2.477,2.477,0,0,1,7.055-7.383ZM5.7-2.823a1.618,1.618,0,0,0-.472-1.2,1.593,1.593,0,0,0-1.169-.468A1.775,1.775,0,0,0,2.8-4.023a1.572,1.572,0,0,0-.5,1.2,1.529,1.529,0,0,0,.5,1.193,1.839,1.839,0,0,0,1.282.448A1.609,1.609,0,0,0,5.236-1.63,1.58,1.58,0,0,0,5.7-2.823Zm-.308-4.5a1.46,1.46,0,0,0-.376-1.042,1.256,1.256,0,0,0-.957-.4A1.456,1.456,0,0,0,3-8.377a1.4,1.4,0,0,0-.4,1.056,1.472,1.472,0,0,0,.41,1.083,1.427,1.427,0,0,0,1.06.414,1.218,1.218,0,0,0,.947-.414A1.557,1.557,0,0,0,5.394-7.321Z" transform="translate(778 2827)" fill="#12263f"/>
    <path id="Trazado_830503" data-name="Trazado 830503" d="M5.134,0H3.473V-8.422H1.36V-9.741L5.134-10.1ZM15.2-3.562a3.928,3.928,0,0,1-.885,2.714,3.019,3.019,0,0,1-2.369.991A3.045,3.045,0,0,1,9.563-.851a3.9,3.9,0,0,1-.9-2.71V-6.385A3.934,3.934,0,0,1,9.557-9.1a3.019,3.019,0,0,1,2.372-1,3.03,3.03,0,0,1,2.375,1A3.924,3.924,0,0,1,15.2-6.385ZM13.535-6.638A2.55,2.55,0,0,0,13.111-8.2a1.4,1.4,0,0,0-1.183-.564,1.384,1.384,0,0,0-1.183.564,2.58,2.58,0,0,0-.417,1.562v3.315a2.575,2.575,0,0,0,.424,1.576,1.4,1.4,0,0,0,1.189.564,1.378,1.378,0,0,0,1.179-.561,2.62,2.62,0,0,0,.414-1.579Z" transform="translate(896 2826)" fill="#12263f"/>
    <g id="Grupo_1075279" data-name="Grupo 1075279">
      <path id="Trazado_828011" data-name="Trazado 828011" d="M-8454.5-9362.212v331.38h605.208" transform="translate(8751.959 11836.251)" fill="none" stroke="#b3bad6" stroke-width="2"/>
      <path id="Trazado_828020" data-name="Trazado 828020" d="M-8442-9176.6h606.185" transform="translate(8738.925 11650.277)" fill="none" stroke="#b3bad6" stroke-width="0.8"/>
      <g id="Grupo_1074623" data-name="Grupo 1074623" transform="translate(297.71 2473.763)">
        <g id="Grupo_1074754" data-name="Grupo 1074754">
          <g id="Grupo_1074753" data-name="Grupo 1074753">
            <g id="Grupo_1074467" data-name="Grupo 1074467" transform="translate(119.694)">
              <path id="Trazado_826215" data-name="Trazado 826215" d="M-8275-9343.053v332.076" transform="translate(8275 9343.053)" fill="none" stroke="#b3bad6" stroke-width="0.8"/>
              <path id="Trazado_826216" data-name="Trazado 826216" d="M-8275-9343.053v332.076" transform="translate(8396.677 9343.053)" fill="none" stroke="#b3bad6" stroke-width="0.8"/>
              <path id="Trazado_826217" data-name="Trazado 826217" d="M-8275-9343.053v332.076" transform="translate(8518.355 9343.053)" fill="none" stroke="#b3bad6" stroke-width="0.8"/>
              <path id="Trazado_826218" data-name="Trazado 826218" d="M-8275-9343.053v332.076" transform="translate(8640.032 9343.053)" fill="none" stroke="#b3bad6" stroke-width="0.8"/>
            </g>
            <path id="Trazado_828012" data-name="Trazado 828012" d="M-8442-9176.6h606.4" transform="translate(8442 9256.167)" fill="none" stroke="#b3bad6" stroke-width="0.8"/>
            <path id="Trazado_828013" data-name="Trazado 828013" d="M-8442-9176.6h606.4" transform="translate(8442 9340.723)" fill="none" stroke="#b3bad6" stroke-width="0.8"/>
          </g>
          <path id="Trazado_828014" data-name="Trazado 828014" d="M-8442-9176.6h606.4" transform="translate(8442 9422.062)" fill="none" stroke="#b3bad6" stroke-width="0.8"/>
        </g>
      </g>
      <path id="Trazado_826219" data-name="Trazado 826219" d="M-8275-9343.053v332.076" transform="translate(9177.791 11816.815)" fill="none" stroke="#b3bad6" stroke-width="0.8"/>
    </g>
    <g id="Enmascarar_grupo_225" data-name="Enmascarar grupo 225" transform="translate(11)" clip-path="url(#clip-path-5)">
      <g id="Grupo_1074755" data-name="Grupo 1074755" transform="translate(926.266 2786.169)">
        <path id="Trazado_828543" data-name="Trazado 828543" d="M0,9.347,1.074,10.42a7.348,7.348,0,0,0,10.392,0l.646-.646a7.351,7.351,0,0,1,10.392,0,7.348,7.348,0,0,0,10.392,0l.059-.059a7.351,7.351,0,0,1,10.392,0l.529.529a7.348,7.348,0,0,0,10.392,0l.41-.411a7.347,7.347,0,0,1,9.467-.774V12.3a7.345,7.345,0,0,0-9.467.773l-.41.411a7.348,7.348,0,0,1-10.392,0l-.529-.529a7.348,7.348,0,0,0-10.392,0l-.059.059a7.348,7.348,0,0,1-10.392,0,7.348,7.348,0,0,0-10.392,0l-.646.646a7.348,7.348,0,0,1-10.392,0L0,12.583Z" transform="translate(0 2.769)" fill="#1682fb"/>
        <path id="Trazado_828544" data-name="Trazado 828544" d="M0,1.783,1.074,2.856a7.348,7.348,0,0,0,10.392,0l.646-.646a7.348,7.348,0,0,1,10.392,0,7.348,7.348,0,0,0,10.392,0l.059-.059a7.348,7.348,0,0,1,10.392,0l.529.529a7.348,7.348,0,0,0,10.392,0l.41-.411a7.347,7.347,0,0,1,9.467-.774V4.731a7.347,7.347,0,0,0-9.467.774l-.41.411a7.348,7.348,0,0,1-10.392,0l-.529-.529a7.348,7.348,0,0,0-10.392,0l-.059.059a7.348,7.348,0,0,1-10.392,0,7.348,7.348,0,0,0-10.392,0l-.646.646a7.348,7.348,0,0,1-10.392,0L0,5.019Z" transform="translate(0 0.001)" fill="#1682fb"/>
      </g>
    </g>
    <g id="Grupo_1075344" data-name="Grupo 1075344" transform="translate(297.71 2473.012)">
      <path id="Trazado_826213" data-name="Trazado 826213" d="M-7850.764-8893.658l-566.082,30.947-39.016,1.7" transform="translate(8455.953 9190.748)" fill="none" stroke="#e4df0a" stroke-width="2"/>
      <path id="Trazado_826210" data-name="Trazado 826210" d="M-8456-9014.356s109.589,6.828,234.439-46.217c106.912-45.426,230.167-150.4,248.746-166.027,72.47-60.965,118.213-116.452,118.213-116.452" transform="translate(8456 9343.053)" fill="none" stroke="#af1e94" stroke-width="2"/>
      <path id="Trazado_826214" data-name="Trazado 826214" d="M-7830.29-8959.742s-165.579,34.249-316.841,53.05-247.6,19.65-247.6,19.65" transform="translate(8435.247 9213.223)" fill="none" stroke="#0e8f22" stroke-width="2"/>
      <path id="Trazado_826211" data-name="Trazado 826211" d="M-8302.234-8846h604.958" transform="translate(8302.234 9175.358)" fill="none" stroke="#2442a1" stroke-width="2"/>
      <path id="Trazado_826212" data-name="Trazado 826212" d="M-8302.234-8846h604.958" transform="translate(8302.234 9172.052)" fill="none" stroke="#b63333" stroke-width="2"/>
    </g>
  </g>
</svg>
