<svg xmlns="http://www.w3.org/2000/svg" xmlns:xlink="http://www.w3.org/1999/xlink" width="562.767" height="286.347" viewBox="0 0 562.767 286.347">
  <defs>
    <clipPath id="clip-path">
      <path id="Exclusi칩n_3" data-name="Exclusi칩n 3" d="M539.766,286.347H23a23,23,0,0,1-23-23V23A23,23,0,0,1,23,0H539.766a23,23,0,0,1,23,23V263.346a23,23,0,0,1-23,23ZM45.556,15.993a23.026,23.026,0,0,0-23,23V249.638a23.026,23.026,0,0,0,23,23H517.21a23.026,23.026,0,0,0,23-23V38.992a23.026,23.026,0,0,0-23-23Z" transform="translate(0 0)" fill="#1789f7"/>
    </clipPath>
  </defs>
  <g id="Grupo_1075362" data-name="Grupo 1075362" transform="translate(7046 10488)">
    <g id="Grupo_1073094" data-name="Grupo 1073094" transform="translate(-7046 -10488)">
      <rect id="Rect치ngulo_382363" data-name="Rect치ngulo 382363" width="562.766" height="286.347" rx="23" transform="translate(0)" fill="#0082ff"/>
      <g id="Enmascarar_grupo_124" data-name="Enmascarar grupo 124" transform="translate(0 0)" clip-path="url(#clip-path)">
        <ellipse id="Elipse_9726" data-name="Elipse 9726" cx="195.671" cy="132.131" rx="195.671" ry="132.131" transform="translate(-119.545 108.903)" fill="#ffce00"/>
        <ellipse id="Elipse_9727" data-name="Elipse 9727" cx="195.671" cy="132.131" rx="195.671" ry="132.131" transform="translate(302.247 -126.419)" fill="#3ee2a8"/>
      </g>
    </g>
    <path id="Trazado_830472" data-name="Trazado 830472" d="M22,0H509.952a22,22,0,0,1,22,22V234.9a22,22,0,0,1-22,22H22a22,22,0,0,1-22-22V22A22,22,0,0,1,22,0Z" transform="translate(-7031 -10472)" fill="#fff"/>
    <g id="Trazado_830473" data-name="Trazado 830473" transform="translate(-6771 -10446)" fill="#fff">
      <path d="M 20.5 41.5 C 17.80130004882812 41.5 15.18348026275635 40.9586296081543 12.71926021575928 39.89093017578125 C 10.33804035186768 38.85919189453125 8.199179649353027 37.38185882568359 6.362100124359131 35.49996948242188 C 4.524199962615967 33.61724853515625 3.08119010925293 31.42473030090332 2.073149919509888 28.98332977294922 C 1.029279947280884 26.45516014099121 0.5 23.76918029785156 0.5 21 C 0.5 18.23081970214844 1.029279947280884 15.54483985900879 2.073149919509888 13.01667022705078 C 3.08119010925293 10.57526969909668 4.524199962615967 8.382749557495117 6.362100124359131 6.500030040740967 C 8.199179649353027 4.61814022064209 10.33804035186768 3.140810012817383 12.71926021575928 2.109070062637329 C 15.18348026275635 1.041370034217834 17.80130004882812 0.5 20.5 0.5 C 23.19869995117188 0.5 25.81652069091797 1.041370034217834 28.28074073791504 2.109070062637329 C 30.66196060180664 3.140810012817383 32.80081939697266 4.61814022064209 34.63790130615234 6.500030040740967 C 36.47579956054688 8.382749557495117 37.9188117980957 10.57526969909668 38.92684936523438 13.01667022705078 C 39.97071838378906 15.54483985900879 40.5 18.23081970214844 40.5 21 C 40.5 23.76918029785156 39.97071838378906 26.45516014099121 38.92684936523438 28.98332977294922 C 37.9188117980957 31.42473030090332 36.47579956054688 33.61724853515625 34.63790130615234 35.49996948242188 C 32.80081939697266 37.38185882568359 30.66196060180664 38.85919189453125 28.28074073791504 39.89093017578125 C 25.81652069091797 40.9586296081543 23.19869995117188 41.5 20.5 41.5 Z" stroke="none"/>
      <path d="M 20.5 1 C 17.87009048461914 1 15.31915092468262 1.527500152587891 12.91803932189941 2.567859649658203 C 10.59671974182129 3.573638916015625 8.511360168457031 5.014118194580078 6.719879150390625 6.849288940429688 C 4.926769256591797 8.686138153076172 3.518871307373047 10.82534980773926 2.535301208496094 13.20749092102051 C 1.516548156738281 15.67484092712402 1 18.2966194152832 1 21 C 1 23.7033805847168 1.516548156738281 26.32516098022461 2.535301208496094 28.79251098632812 C 3.518871307373047 31.17465019226074 4.926769256591797 33.31385803222656 6.719879150390625 35.15071105957031 C 8.511360168457031 36.98587799072266 10.59671974182129 38.42636108398438 12.91803932189941 39.4321403503418 C 15.31915092468262 40.47249984741211 17.87009048461914 41 20.5 41 C 23.12990951538086 41 25.68085098266602 40.47249984741211 28.08195877075195 39.4321403503418 C 30.40328025817871 38.42636108398438 32.48863983154297 36.98587799072266 34.28012084960938 35.15071105957031 C 36.0732307434082 33.31385803222656 37.48112869262695 31.17465019226074 38.46469879150391 28.79251098632812 C 39.48345184326172 26.32516098022461 40 23.7033805847168 40 21 C 40 18.2966194152832 39.48345184326172 15.67484092712402 38.46469879150391 13.20749092102051 C 37.48112869262695 10.82534980773926 36.0732307434082 8.686138153076172 34.28012084960938 6.849288940429688 C 32.48863983154297 5.014118194580078 30.40328025817871 3.573638916015625 28.08195877075195 2.567859649658203 C 25.68085098266602 1.527500152587891 23.12990951538086 1 20.5 1 M 20.5 0 C 31.82184028625488 0 41 9.402019500732422 41 21 C 41 32.59798049926758 31.82184028625488 42 20.5 42 C 9.178159713745117 42 0 32.59798049926758 0 21 C 0 9.402019500732422 9.178159713745117 0 20.5 0 Z" stroke="none" fill="#273a89"/>
    </g>
    <path id="Trazado_830474" data-name="Trazado 830474" d="M5.274,0H-4.812V-1.794L.075-7.444a12.949,12.949,0,0,0,1.654-2.32,3.879,3.879,0,0,0,.462-1.751,2.358,2.358,0,0,0-.559-1.627,2.029,2.029,0,0,0-1.6-.628,2.268,2.268,0,0,0-1.858.784,3.01,3.01,0,0,0-.645,1.977H-5l-.021-.064a4.462,4.462,0,0,1,1.327-3.4A5.008,5.008,0,0,1,.032-15.866a4.877,4.877,0,0,1,3.507,1.2A4.163,4.163,0,0,1,4.8-11.5a4.7,4.7,0,0,1-.7,2.481,28.333,28.333,0,0,1-2.315,3.1l-3.3,3.781.021.054H5.274Z" transform="translate(-6751 -10417)" fill="#12263f"/>
    <g id="Trazado_830475" data-name="Trazado 830475" transform="translate(-6651 -10404)" fill="#fff">
      <path d="M 20.5 40.5 C 17.79980087280273 40.5 15.18062973022461 39.97127151489258 12.71525001525879 38.92850875854492 C 10.33372020721436 37.92121124267578 8.194789886474609 36.47906112670898 6.357860088348389 34.64213943481445 C 4.520939826965332 32.80521011352539 3.078789949417114 30.66628074645996 2.071490049362183 28.28474998474121 C 1.028730034828186 25.81937026977539 0.5 23.20019912719727 0.5 20.5 C 0.5 17.79980087280273 1.028730034828186 15.18062973022461 2.071490049362183 12.71525001525879 C 3.078789949417114 10.33372020721436 4.520939826965332 8.194789886474609 6.357860088348389 6.357860088348389 C 8.194789886474609 4.520939826965332 10.33372020721436 3.078789949417114 12.71525001525879 2.071490049362183 C 15.18062973022461 1.028730034828186 17.79980087280273 0.5 20.5 0.5 C 23.20019912719727 0.5 25.81937026977539 1.028730034828186 28.28474998474121 2.071490049362183 C 30.66628074645996 3.078789949417114 32.80521011352539 4.520939826965332 34.64213943481445 6.357860088348389 C 36.47906112670898 8.194789886474609 37.92121124267578 10.33372020721436 38.92850875854492 12.71525001525879 C 39.97127151489258 15.18062973022461 40.5 17.79980087280273 40.5 20.5 C 40.5 23.20019912719727 39.97127151489258 25.81937026977539 38.92850875854492 28.28474998474121 C 37.92121124267578 30.66628074645996 36.47906112670898 32.80521011352539 34.64213943481445 34.64213943481445 C 32.80521011352539 36.47906112670898 30.66628074645996 37.92121124267578 28.28474998474121 38.92850875854492 C 25.81937026977539 39.97127151489258 23.20019912719727 40.5 20.5 40.5 Z" stroke="none"/>
      <path d="M 20.5 1 C 17.86708068847656 1 15.31344032287598 1.51544189453125 12.91003036499023 2.532001495361328 C 10.58810043334961 3.514091491699219 8.502590179443359 4.920249938964844 6.711418151855469 6.711418151855469 C 4.920249938964844 8.502590179443359 3.514091491699219 10.58810043334961 2.532001495361328 12.91003036499023 C 1.51544189453125 15.31344032287598 1 17.86708068847656 1 20.5 C 1 23.13291931152344 1.51544189453125 25.68655967712402 2.532001495361328 28.08996963500977 C 3.514091491699219 30.41189956665039 4.920249938964844 32.49740982055664 6.711418151855469 34.28858184814453 C 8.502590179443359 36.07975006103516 10.58810043334961 37.48590850830078 12.91003036499023 38.46799850463867 C 15.31344032287598 39.48455810546875 17.86708068847656 40 20.5 40 C 23.13291931152344 40 25.68655967712402 39.48455810546875 28.08996963500977 38.46799850463867 C 30.41189956665039 37.48590850830078 32.49740982055664 36.07975006103516 34.28858184814453 34.28858184814453 C 36.07975006103516 32.49740982055664 37.48590850830078 30.41189956665039 38.46799850463867 28.08996963500977 C 39.48455810546875 25.68655967712402 40 23.13291931152344 40 20.5 C 40 17.86708068847656 39.48455810546875 15.31344032287598 38.46799850463867 12.91003036499023 C 37.48590850830078 10.58810043334961 36.07975006103516 8.502590179443359 34.28858184814453 6.711418151855469 C 32.49740982055664 4.920249938964844 30.41189956665039 3.514091491699219 28.08996963500977 2.532001495361328 C 25.68655967712402 1.51544189453125 23.13291931152344 1 20.5 1 M 20.5 0 C 31.82184028625488 0 41 9.178159713745117 41 20.5 C 41 31.82184028625488 31.82184028625488 41 20.5 41 C 9.178159713745117 41 0 31.82184028625488 0 20.5 C 0 9.178159713745117 9.178159713745117 0 20.5 0 Z" stroke="none" fill="#273a89"/>
    </g>
    <g id="Trazado_830476" data-name="Trazado 830476" transform="translate(-6893 -10404)" fill="#fff">
      <path d="M 20.5 40.5 C 17.79980087280273 40.5 15.18062973022461 39.97127151489258 12.71525001525879 38.92850875854492 C 10.33372020721436 37.92121124267578 8.194789886474609 36.47906112670898 6.357860088348389 34.64213943481445 C 4.520939826965332 32.80521011352539 3.078789949417114 30.66628074645996 2.071490049362183 28.28474998474121 C 1.028730034828186 25.81937026977539 0.5 23.20019912719727 0.5 20.5 C 0.5 17.79980087280273 1.028730034828186 15.18062973022461 2.071490049362183 12.71525001525879 C 3.078789949417114 10.33372020721436 4.520939826965332 8.194789886474609 6.357860088348389 6.357860088348389 C 8.194789886474609 4.520939826965332 10.33372020721436 3.078789949417114 12.71525001525879 2.071490049362183 C 15.18062973022461 1.028730034828186 17.79980087280273 0.5 20.5 0.5 C 23.20019912719727 0.5 25.81937026977539 1.028730034828186 28.28474998474121 2.071490049362183 C 30.66628074645996 3.078789949417114 32.80521011352539 4.520939826965332 34.64213943481445 6.357860088348389 C 36.47906112670898 8.194789886474609 37.92121124267578 10.33372020721436 38.92850875854492 12.71525001525879 C 39.97127151489258 15.18062973022461 40.5 17.79980087280273 40.5 20.5 C 40.5 23.20019912719727 39.97127151489258 25.81937026977539 38.92850875854492 28.28474998474121 C 37.92121124267578 30.66628074645996 36.47906112670898 32.80521011352539 34.64213943481445 34.64213943481445 C 32.80521011352539 36.47906112670898 30.66628074645996 37.92121124267578 28.28474998474121 38.92850875854492 C 25.81937026977539 39.97127151489258 23.20019912719727 40.5 20.5 40.5 Z" stroke="none"/>
      <path d="M 20.5 1 C 17.86708068847656 1 15.31344032287598 1.51544189453125 12.91003036499023 2.532001495361328 C 10.58810043334961 3.514091491699219 8.502590179443359 4.920249938964844 6.711418151855469 6.711418151855469 C 4.920249938964844 8.502590179443359 3.514091491699219 10.58810043334961 2.532001495361328 12.91003036499023 C 1.51544189453125 15.31344032287598 1 17.86708068847656 1 20.5 C 1 23.13291931152344 1.51544189453125 25.68655967712402 2.532001495361328 28.08996963500977 C 3.514091491699219 30.41189956665039 4.920249938964844 32.49740982055664 6.711418151855469 34.28858184814453 C 8.502590179443359 36.07975006103516 10.58810043334961 37.48590850830078 12.91003036499023 38.46799850463867 C 15.31344032287598 39.48455810546875 17.86708068847656 40 20.5 40 C 23.13291931152344 40 25.68655967712402 39.48455810546875 28.08996963500977 38.46799850463867 C 30.41189956665039 37.48590850830078 32.49740982055664 36.07975006103516 34.28858184814453 34.28858184814453 C 36.07975006103516 32.49740982055664 37.48590850830078 30.41189956665039 38.46799850463867 28.08996963500977 C 39.48455810546875 25.68655967712402 40 23.13291931152344 40 20.5 C 40 17.86708068847656 39.48455810546875 15.31344032287598 38.46799850463867 12.91003036499023 C 37.48590850830078 10.58810043334961 36.07975006103516 8.502590179443359 34.28858184814453 6.711418151855469 C 32.49740982055664 4.920249938964844 30.41189956665039 3.514091491699219 28.08996963500977 2.532001495361328 C 25.68655967712402 1.51544189453125 23.13291931152344 1 20.5 1 M 20.5 0 C 31.82184028625488 0 41 9.178159713745117 41 20.5 C 41 31.82184028625488 31.82184028625488 41 20.5 41 C 9.178159713745117 41 0 31.82184028625488 0 20.5 C 0 9.178159713745117 9.178159713745117 0 20.5 0 Z" stroke="none" fill="#273a89"/>
    </g>
    <g id="Trazado_830477" data-name="Trazado 830477" transform="translate(-6583 -10353)" fill="#fff">
      <path d="M 20.5 40.5 C 17.79980087280273 40.5 15.18062973022461 39.97127151489258 12.71525001525879 38.92850875854492 C 10.33372020721436 37.92121124267578 8.194789886474609 36.47906112670898 6.357860088348389 34.64213943481445 C 4.520939826965332 32.80521011352539 3.078789949417114 30.66628074645996 2.071490049362183 28.28474998474121 C 1.028730034828186 25.81937026977539 0.5 23.20019912719727 0.5 20.5 C 0.5 17.79980087280273 1.028730034828186 15.18062973022461 2.071490049362183 12.71525001525879 C 3.078789949417114 10.33372020721436 4.520939826965332 8.194789886474609 6.357860088348389 6.357860088348389 C 8.194789886474609 4.520939826965332 10.33372020721436 3.078789949417114 12.71525001525879 2.071490049362183 C 15.18062973022461 1.028730034828186 17.79980087280273 0.5 20.5 0.5 C 23.20019912719727 0.5 25.81937026977539 1.028730034828186 28.28474998474121 2.071490049362183 C 30.66628074645996 3.078789949417114 32.80521011352539 4.520939826965332 34.64213943481445 6.357860088348389 C 36.47906112670898 8.194789886474609 37.92121124267578 10.33372020721436 38.92850875854492 12.71525001525879 C 39.97127151489258 15.18062973022461 40.5 17.79980087280273 40.5 20.5 C 40.5 23.20019912719727 39.97127151489258 25.81937026977539 38.92850875854492 28.28474998474121 C 37.92121124267578 30.66628074645996 36.47906112670898 32.80521011352539 34.64213943481445 34.64213943481445 C 32.80521011352539 36.47906112670898 30.66628074645996 37.92121124267578 28.28474998474121 38.92850875854492 C 25.81937026977539 39.97127151489258 23.20019912719727 40.5 20.5 40.5 Z" stroke="none"/>
      <path d="M 20.5 1 C 17.86708068847656 1 15.31344032287598 1.51544189453125 12.91003036499023 2.532001495361328 C 10.58810043334961 3.514091491699219 8.502590179443359 4.920249938964844 6.711418151855469 6.711418151855469 C 4.920249938964844 8.502590179443359 3.514091491699219 10.58810043334961 2.532001495361328 12.91003036499023 C 1.51544189453125 15.31344032287598 1 17.86708068847656 1 20.5 C 1 23.13291931152344 1.51544189453125 25.68655967712402 2.532001495361328 28.08996963500977 C 3.514091491699219 30.41189956665039 4.920249938964844 32.49740982055664 6.711418151855469 34.28858184814453 C 8.502590179443359 36.07975006103516 10.58810043334961 37.48590850830078 12.91003036499023 38.46799850463867 C 15.31344032287598 39.48455810546875 17.86708068847656 40 20.5 40 C 23.13291931152344 40 25.68655967712402 39.48455810546875 28.08996963500977 38.46799850463867 C 30.41189956665039 37.48590850830078 32.49740982055664 36.07975006103516 34.28858184814453 34.28858184814453 C 36.07975006103516 32.49740982055664 37.48590850830078 30.41189956665039 38.46799850463867 28.08996963500977 C 39.48455810546875 25.68655967712402 40 23.13291931152344 40 20.5 C 40 17.86708068847656 39.48455810546875 15.31344032287598 38.46799850463867 12.91003036499023 C 37.48590850830078 10.58810043334961 36.07975006103516 8.502590179443359 34.28858184814453 6.711418151855469 C 32.49740982055664 4.920249938964844 30.41189956665039 3.514091491699219 28.08996963500977 2.532001495361328 C 25.68655967712402 1.51544189453125 23.13291931152344 1 20.5 1 M 20.5 0 C 31.82184028625488 0 41 9.178159713745117 41 20.5 C 41 31.82184028625488 31.82184028625488 41 20.5 41 C 9.178159713745117 41 0 31.82184028625488 0 20.5 C 0 9.178159713745117 9.178159713745117 0 20.5 0 Z" stroke="none" fill="#273a89"/>
    </g>
    <g id="Trazado_830478" data-name="Trazado 830478" transform="translate(-6959 -10353)" fill="#fff">
      <path d="M 20.5 40.5 C 17.79980087280273 40.5 15.18062973022461 39.97127151489258 12.71525001525879 38.92850875854492 C 10.33372020721436 37.92121124267578 8.194789886474609 36.47906112670898 6.357860088348389 34.64213943481445 C 4.520939826965332 32.80521011352539 3.078789949417114 30.66628074645996 2.071490049362183 28.28474998474121 C 1.028730034828186 25.81937026977539 0.5 23.20019912719727 0.5 20.5 C 0.5 17.79980087280273 1.028730034828186 15.18062973022461 2.071490049362183 12.71525001525879 C 3.078789949417114 10.33372020721436 4.520939826965332 8.194789886474609 6.357860088348389 6.357860088348389 C 8.194789886474609 4.520939826965332 10.33372020721436 3.078789949417114 12.71525001525879 2.071490049362183 C 15.18062973022461 1.028730034828186 17.79980087280273 0.5 20.5 0.5 C 23.20019912719727 0.5 25.81937026977539 1.028730034828186 28.28474998474121 2.071490049362183 C 30.66628074645996 3.078789949417114 32.80521011352539 4.520939826965332 34.64213943481445 6.357860088348389 C 36.47906112670898 8.194789886474609 37.92121124267578 10.33372020721436 38.92850875854492 12.71525001525879 C 39.97127151489258 15.18062973022461 40.5 17.79980087280273 40.5 20.5 C 40.5 23.20019912719727 39.97127151489258 25.81937026977539 38.92850875854492 28.28474998474121 C 37.92121124267578 30.66628074645996 36.47906112670898 32.80521011352539 34.64213943481445 34.64213943481445 C 32.80521011352539 36.47906112670898 30.66628074645996 37.92121124267578 28.28474998474121 38.92850875854492 C 25.81937026977539 39.97127151489258 23.20019912719727 40.5 20.5 40.5 Z" stroke="none"/>
      <path d="M 20.5 1 C 17.86708068847656 1 15.31344032287598 1.51544189453125 12.91003036499023 2.532001495361328 C 10.58810043334961 3.514091491699219 8.502590179443359 4.920249938964844 6.711418151855469 6.711418151855469 C 4.920249938964844 8.502590179443359 3.514091491699219 10.58810043334961 2.532001495361328 12.91003036499023 C 1.51544189453125 15.31344032287598 1 17.86708068847656 1 20.5 C 1 23.13291931152344 1.51544189453125 25.68655967712402 2.532001495361328 28.08996963500977 C 3.514091491699219 30.41189956665039 4.920249938964844 32.49740982055664 6.711418151855469 34.28858184814453 C 8.502590179443359 36.07975006103516 10.58810043334961 37.48590850830078 12.91003036499023 38.46799850463867 C 15.31344032287598 39.48455810546875 17.86708068847656 40 20.5 40 C 23.13291931152344 40 25.68655967712402 39.48455810546875 28.08996963500977 38.46799850463867 C 30.41189956665039 37.48590850830078 32.49740982055664 36.07975006103516 34.28858184814453 34.28858184814453 C 36.07975006103516 32.49740982055664 37.48590850830078 30.41189956665039 38.46799850463867 28.08996963500977 C 39.48455810546875 25.68655967712402 40 23.13291931152344 40 20.5 C 40 17.86708068847656 39.48455810546875 15.31344032287598 38.46799850463867 12.91003036499023 C 37.48590850830078 10.58810043334961 36.07975006103516 8.502590179443359 34.28858184814453 6.711418151855469 C 32.49740982055664 4.920249938964844 30.41189956665039 3.514091491699219 28.08996963500977 2.532001495361328 C 25.68655967712402 1.51544189453125 23.13291931152344 1 20.5 1 M 20.5 0 C 31.82184028625488 0 41 9.178159713745117 41 20.5 C 41 31.82184028625488 31.82184028625488 41 20.5 41 C 9.178159713745117 41 0 31.82184028625488 0 20.5 C 0 9.178159713745117 9.178159713745117 0 20.5 0 Z" stroke="none" fill="#273a89"/>
    </g>
    <g id="Trazado_830479" data-name="Trazado 830479" transform="translate(-6826 -10353)" fill="#fff">
      <path d="M 20.5 40.5 C 17.79980087280273 40.5 15.18062973022461 39.97127151489258 12.71525001525879 38.92850875854492 C 10.33372020721436 37.92121124267578 8.194789886474609 36.47906112670898 6.357860088348389 34.64213943481445 C 4.520939826965332 32.80521011352539 3.078789949417114 30.66628074645996 2.071490049362183 28.28474998474121 C 1.028730034828186 25.81937026977539 0.5 23.20019912719727 0.5 20.5 C 0.5 17.79980087280273 1.028730034828186 15.18062973022461 2.071490049362183 12.71525001525879 C 3.078789949417114 10.33372020721436 4.520939826965332 8.194789886474609 6.357860088348389 6.357860088348389 C 8.194789886474609 4.520939826965332 10.33372020721436 3.078789949417114 12.71525001525879 2.071490049362183 C 15.18062973022461 1.028730034828186 17.79980087280273 0.5 20.5 0.5 C 23.20019912719727 0.5 25.81937026977539 1.028730034828186 28.28474998474121 2.071490049362183 C 30.66628074645996 3.078789949417114 32.80521011352539 4.520939826965332 34.64213943481445 6.357860088348389 C 36.47906112670898 8.194789886474609 37.92121124267578 10.33372020721436 38.92850875854492 12.71525001525879 C 39.97127151489258 15.18062973022461 40.5 17.79980087280273 40.5 20.5 C 40.5 23.20019912719727 39.97127151489258 25.81937026977539 38.92850875854492 28.28474998474121 C 37.92121124267578 30.66628074645996 36.47906112670898 32.80521011352539 34.64213943481445 34.64213943481445 C 32.80521011352539 36.47906112670898 30.66628074645996 37.92121124267578 28.28474998474121 38.92850875854492 C 25.81937026977539 39.97127151489258 23.20019912719727 40.5 20.5 40.5 Z" stroke="none"/>
      <path d="M 20.5 1 C 17.86708068847656 1 15.31344032287598 1.51544189453125 12.91003036499023 2.532001495361328 C 10.58810043334961 3.514091491699219 8.502590179443359 4.920249938964844 6.711418151855469 6.711418151855469 C 4.920249938964844 8.502590179443359 3.514091491699219 10.58810043334961 2.532001495361328 12.91003036499023 C 1.51544189453125 15.31344032287598 1 17.86708068847656 1 20.5 C 1 23.13291931152344 1.51544189453125 25.68655967712402 2.532001495361328 28.08996963500977 C 3.514091491699219 30.41189956665039 4.920249938964844 32.49740982055664 6.711418151855469 34.28858184814453 C 8.502590179443359 36.07975006103516 10.58810043334961 37.48590850830078 12.91003036499023 38.46799850463867 C 15.31344032287598 39.48455810546875 17.86708068847656 40 20.5 40 C 23.13291931152344 40 25.68655967712402 39.48455810546875 28.08996963500977 38.46799850463867 C 30.41189956665039 37.48590850830078 32.49740982055664 36.07975006103516 34.28858184814453 34.28858184814453 C 36.07975006103516 32.49740982055664 37.48590850830078 30.41189956665039 38.46799850463867 28.08996963500977 C 39.48455810546875 25.68655967712402 40 23.13291931152344 40 20.5 C 40 17.86708068847656 39.48455810546875 15.31344032287598 38.46799850463867 12.91003036499023 C 37.48590850830078 10.58810043334961 36.07975006103516 8.502590179443359 34.28858184814453 6.711418151855469 C 32.49740982055664 4.920249938964844 30.41189956665039 3.514091491699219 28.08996963500977 2.532001495361328 C 25.68655967712402 1.51544189453125 23.13291931152344 1 20.5 1 M 20.5 0 C 31.82184028625488 0 41 9.178159713745117 41 20.5 C 41 31.82184028625488 31.82184028625488 41 20.5 41 C 9.178159713745117 41 0 31.82184028625488 0 20.5 C 0 9.178159713745117 9.178159713745117 0 20.5 0 Z" stroke="none" fill="#273a89"/>
    </g>
    <g id="Trazado_830480" data-name="Trazado 830480" transform="translate(-6630 -10286)" fill="#fff">
      <path d="M 20.5 41.5 C 17.80130004882812 41.5 15.18348026275635 40.9586296081543 12.71926021575928 39.89093017578125 C 10.33804035186768 38.85919189453125 8.199179649353027 37.38185882568359 6.362100124359131 35.49996948242188 C 4.524199962615967 33.61724853515625 3.08119010925293 31.42473030090332 2.073149919509888 28.98332977294922 C 1.029279947280884 26.45516014099121 0.5 23.76918029785156 0.5 21 C 0.5 18.23081970214844 1.029279947280884 15.54483985900879 2.073149919509888 13.01667022705078 C 3.08119010925293 10.57526969909668 4.524199962615967 8.382749557495117 6.362100124359131 6.500030040740967 C 8.199179649353027 4.61814022064209 10.33804035186768 3.140810012817383 12.71926021575928 2.109070062637329 C 15.18348026275635 1.041370034217834 17.80130004882812 0.5 20.5 0.5 C 23.19869995117188 0.5 25.81652069091797 1.041370034217834 28.28074073791504 2.109070062637329 C 30.66196060180664 3.140810012817383 32.80081939697266 4.61814022064209 34.63790130615234 6.500030040740967 C 36.47579956054688 8.382749557495117 37.9188117980957 10.57526969909668 38.92684936523438 13.01667022705078 C 39.97071838378906 15.54483985900879 40.5 18.23081970214844 40.5 21 C 40.5 23.76918029785156 39.97071838378906 26.45516014099121 38.92684936523438 28.98332977294922 C 37.9188117980957 31.42473030090332 36.47579956054688 33.61724853515625 34.63790130615234 35.49996948242188 C 32.80081939697266 37.38185882568359 30.66196060180664 38.85919189453125 28.28074073791504 39.89093017578125 C 25.81652069091797 40.9586296081543 23.19869995117188 41.5 20.5 41.5 Z" stroke="none"/>
      <path d="M 20.5 1 C 17.87009048461914 1 15.31915092468262 1.527500152587891 12.91803932189941 2.567859649658203 C 10.59671974182129 3.573638916015625 8.511360168457031 5.014118194580078 6.719879150390625 6.849288940429688 C 4.926769256591797 8.686138153076172 3.518871307373047 10.82534980773926 2.535301208496094 13.20749092102051 C 1.516548156738281 15.67484092712402 1 18.2966194152832 1 21 C 1 23.7033805847168 1.516548156738281 26.32516098022461 2.535301208496094 28.79251098632812 C 3.518871307373047 31.17465019226074 4.926769256591797 33.31385803222656 6.719879150390625 35.15071105957031 C 8.511360168457031 36.98587799072266 10.59671974182129 38.42636108398438 12.91803932189941 39.4321403503418 C 15.31915092468262 40.47249984741211 17.87009048461914 41 20.5 41 C 23.12990951538086 41 25.68085098266602 40.47249984741211 28.08195877075195 39.4321403503418 C 30.40328025817871 38.42636108398438 32.48863983154297 36.98587799072266 34.28012084960938 35.15071105957031 C 36.0732307434082 33.31385803222656 37.48112869262695 31.17465019226074 38.46469879150391 28.79251098632812 C 39.48345184326172 26.32516098022461 40 23.7033805847168 40 21 C 40 18.2966194152832 39.48345184326172 15.67484092712402 38.46469879150391 13.20749092102051 C 37.48112869262695 10.82534980773926 36.0732307434082 8.686138153076172 34.28012084960938 6.849288940429688 C 32.48863983154297 5.014118194580078 30.40328025817871 3.573638916015625 28.08195877075195 2.567859649658203 C 25.68085098266602 1.527500152587891 23.12990951538086 1 20.5 1 M 20.5 0 C 31.82184028625488 0 41 9.402019500732422 41 21 C 41 32.59798049926758 31.82184028625488 42 20.5 42 C 9.178159713745117 42 0 32.59798049926758 0 21 C 0 9.402019500732422 9.178159713745117 0 20.5 0 Z" stroke="none" fill="#273a89"/>
    </g>
    <g id="Trazado_830481" data-name="Trazado 830481" transform="translate(-6891 -10286)" fill="#fff">
      <path d="M 21 41.5 C 18.2322998046875 41.5 15.54765033721924 40.95804977416992 13.0206298828125 39.88920974731445 C 10.57956027984619 38.85673141479492 8.387160301208496 37.3785285949707 6.504310131072998 35.49568939208984 C 4.621469974517822 33.61283874511719 3.143270015716553 31.42044067382812 2.110790014266968 28.9793701171875 C 1.041949987411499 26.45235061645508 0.5 23.7677001953125 0.5 21 C 0.5 18.2322998046875 1.041949987411499 15.54765033721924 2.110790014266968 13.0206298828125 C 3.143270015716553 10.57956027984619 4.621469974517822 8.387160301208496 6.504310131072998 6.504310131072998 C 8.387160301208496 4.621469974517822 10.57956027984619 3.143270015716553 13.0206298828125 2.110790014266968 C 15.54765033721924 1.041949987411499 18.2322998046875 0.5 21 0.5 C 23.7677001953125 0.5 26.45235061645508 1.041949987411499 28.9793701171875 2.110790014266968 C 31.42044067382812 3.143270015716553 33.61283874511719 4.621469974517822 35.49568939208984 6.504310131072998 C 37.3785285949707 8.387160301208496 38.85673141479492 10.57956027984619 39.88920974731445 13.0206298828125 C 40.95804977416992 15.54765033721924 41.5 18.2322998046875 41.5 21 C 41.5 23.7677001953125 40.95804977416992 26.45235061645508 39.88920974731445 28.9793701171875 C 38.85673141479492 31.42044067382812 37.3785285949707 33.61283874511719 35.49568939208984 35.49568939208984 C 33.61283874511719 37.3785285949707 31.42044067382812 38.85673141479492 28.9793701171875 39.88920974731445 C 26.45235061645508 40.95804977416992 23.7677001953125 41.5 21 41.5 Z" stroke="none"/>
      <path d="M 21 1 C 18.29957962036133 1 15.68045997619629 1.528659820556641 13.21540069580078 2.5712890625 C 10.83394050598145 3.578559875488281 8.694950103759766 5.020778656005859 6.857860565185547 6.857860565185547 C 5.020778656005859 8.694950103759766 3.578559875488281 10.83394050598145 2.5712890625 13.21540069580078 C 1.528659820556641 15.68045997619629 1 18.29957962036133 1 21 C 1 23.70042037963867 1.528659820556641 26.31954002380371 2.5712890625 28.78459930419922 C 3.578559875488281 31.16606140136719 5.020778656005859 33.30504989624023 6.857860565185547 35.14213943481445 C 8.694950103759766 36.97922134399414 10.83394050598145 38.42144012451172 13.21540069580078 39.4287109375 C 15.68045997619629 40.47134017944336 18.29957962036133 41 21 41 C 23.70042037963867 41 26.31954002380371 40.47134017944336 28.78459930419922 39.4287109375 C 31.16606140136719 38.42144012451172 33.30504989624023 36.97922134399414 35.14213943481445 35.14213943481445 C 36.97922134399414 33.30504989624023 38.42144012451172 31.16606140136719 39.4287109375 28.78459930419922 C 40.47134017944336 26.31954002380371 41 23.70042037963867 41 21 C 41 18.29957962036133 40.47134017944336 15.68045997619629 39.4287109375 13.21540069580078 C 38.42144012451172 10.83394050598145 36.97922134399414 8.694950103759766 35.14213943481445 6.857860565185547 C 33.30504989624023 5.020778656005859 31.16606140136719 3.578559875488281 28.78459930419922 2.5712890625 C 26.31954002380371 1.528659820556641 23.70042037963867 1 21 1 M 21 0 C 32.59798049926758 0 42 9.402019500732422 42 21 C 42 32.59798049926758 32.59798049926758 42 21 42 C 9.402019500732422 42 0 32.59798049926758 0 21 C 0 9.402019500732422 9.402019500732422 0 21 0 Z" stroke="none" fill="#273a89"/>
    </g>
    <g id="Trazado_830482" data-name="Trazado 830482" transform="translate(-6767 -10286)" fill="#fff">
      <path d="M 21 41.5 C 18.2322998046875 41.5 15.54765033721924 40.95804977416992 13.0206298828125 39.88920974731445 C 10.57956027984619 38.85673141479492 8.387160301208496 37.3785285949707 6.504310131072998 35.49568939208984 C 4.621469974517822 33.61283874511719 3.143270015716553 31.42044067382812 2.110790014266968 28.9793701171875 C 1.041949987411499 26.45235061645508 0.5 23.7677001953125 0.5 21 C 0.5 18.2322998046875 1.041949987411499 15.54765033721924 2.110790014266968 13.0206298828125 C 3.143270015716553 10.57956027984619 4.621469974517822 8.387160301208496 6.504310131072998 6.504310131072998 C 8.387160301208496 4.621469974517822 10.57956027984619 3.143270015716553 13.0206298828125 2.110790014266968 C 15.54765033721924 1.041949987411499 18.2322998046875 0.5 21 0.5 C 23.7677001953125 0.5 26.45235061645508 1.041949987411499 28.9793701171875 2.110790014266968 C 31.42044067382812 3.143270015716553 33.61283874511719 4.621469974517822 35.49568939208984 6.504310131072998 C 37.3785285949707 8.387160301208496 38.85673141479492 10.57956027984619 39.88920974731445 13.0206298828125 C 40.95804977416992 15.54765033721924 41.5 18.2322998046875 41.5 21 C 41.5 23.7677001953125 40.95804977416992 26.45235061645508 39.88920974731445 28.9793701171875 C 38.85673141479492 31.42044067382812 37.3785285949707 33.61283874511719 35.49568939208984 35.49568939208984 C 33.61283874511719 37.3785285949707 31.42044067382812 38.85673141479492 28.9793701171875 39.88920974731445 C 26.45235061645508 40.95804977416992 23.7677001953125 41.5 21 41.5 Z" stroke="none"/>
      <path d="M 21 1 C 18.29957962036133 1 15.68045997619629 1.528659820556641 13.21540069580078 2.5712890625 C 10.83394050598145 3.578559875488281 8.694950103759766 5.020778656005859 6.857860565185547 6.857860565185547 C 5.020778656005859 8.694950103759766 3.578559875488281 10.83394050598145 2.5712890625 13.21540069580078 C 1.528659820556641 15.68045997619629 1 18.29957962036133 1 21 C 1 23.70042037963867 1.528659820556641 26.31954002380371 2.5712890625 28.78459930419922 C 3.578559875488281 31.16606140136719 5.020778656005859 33.30504989624023 6.857860565185547 35.14213943481445 C 8.694950103759766 36.97922134399414 10.83394050598145 38.42144012451172 13.21540069580078 39.4287109375 C 15.68045997619629 40.47134017944336 18.29957962036133 41 21 41 C 23.70042037963867 41 26.31954002380371 40.47134017944336 28.78459930419922 39.4287109375 C 31.16606140136719 38.42144012451172 33.30504989624023 36.97922134399414 35.14213943481445 35.14213943481445 C 36.97922134399414 33.30504989624023 38.42144012451172 31.16606140136719 39.4287109375 28.78459930419922 C 40.47134017944336 26.31954002380371 41 23.70042037963867 41 21 C 41 18.29957962036133 40.47134017944336 15.68045997619629 39.4287109375 13.21540069580078 C 38.42144012451172 10.83394050598145 36.97922134399414 8.694950103759766 35.14213943481445 6.857860565185547 C 33.30504989624023 5.020778656005859 31.16606140136719 3.578559875488281 28.78459930419922 2.5712890625 C 26.31954002380371 1.528659820556641 23.70042037963867 1 21 1 M 21 0 C 32.59798049926758 0 42 9.402019500732422 42 21 C 42 32.59798049926758 32.59798049926758 42 21 42 C 9.402019500732422 42 0 32.59798049926758 0 21 C 0 9.402019500732422 9.402019500732422 0 21 0 Z" stroke="none" fill="#707070"/>
    </g>
    <path id="Trazado_830483" data-name="Trazado 830483" d="M-4.555-6.918l.9-8.723H4.6v2.256h-6.08L-1.955-9.4a4.345,4.345,0,0,1,1.1-.559,4.406,4.406,0,0,1,1.413-.236A4.215,4.215,0,0,1,3.953-8.83,5.625,5.625,0,0,1,5.167-5,5.492,5.492,0,0,1,3.889-1.225,4.83,4.83,0,0,1,.064.226,5.49,5.49,0,0,1-3.421-.886a3.66,3.66,0,0,1-1.37-3.174l.021-.054,2.449-.075A2.231,2.231,0,0,0-1.66-2.476a2.423,2.423,0,0,0,1.724.618,2.2,2.2,0,0,0,1.858-.827,3.681,3.681,0,0,0,.634-2.288A3.617,3.617,0,0,0,1.9-7.235,2.216,2.216,0,0,0,.032-8.089a2.94,2.94,0,0,0-1.6.344,1.942,1.942,0,0,0-.757,1.01Z" transform="translate(-6631 -10376)" fill="#12263f"/>
    <path id="Trazado_830484" data-name="Trazado 830484" d="M5.328-13.546a21.828,21.828,0,0,0-3.819,5.9A16,16,0,0,0,.516-1.837V0h-2.61V-1.837A14.6,14.6,0,0,1-.843-7.965a24.7,24.7,0,0,1,3.636-5.581H-5.339v-2.095H5.328Z" transform="translate(-6873 -10376)" fill="#12263f"/>
    <path id="Trazado_830485" data-name="Trazado 830485" d="M5.274,0H-4.812V-1.794L.075-7.444a12.949,12.949,0,0,0,1.654-2.32,3.879,3.879,0,0,0,.462-1.751,2.358,2.358,0,0,0-.559-1.627,2.029,2.029,0,0,0-1.6-.628,2.268,2.268,0,0,0-1.858.784,3.01,3.01,0,0,0-.645,1.977H-5l-.021-.064a4.462,4.462,0,0,1,1.327-3.4A5.008,5.008,0,0,1,.032-15.866a4.877,4.877,0,0,1,3.507,1.2A4.163,4.163,0,0,1,4.8-11.5a4.7,4.7,0,0,1-.7,2.481,28.333,28.333,0,0,1-2.315,3.1l-3.3,3.781.021.054H5.274Z" transform="translate(-6939 -10325)" fill="#12263f"/>
    <path id="Trazado_830486" data-name="Trazado 830486" d="M.773-15.866a8.6,8.6,0,0,1,1.762.177,8.051,8.051,0,0,1,1.525.467l-.5,2.02a9.016,9.016,0,0,0-1.289-.4A6.7,6.7,0,0,0,.784-13.75,2.759,2.759,0,0,0-1.52-12.6,4.888,4.888,0,0,0-2.4-9.561v.816A4.49,4.49,0,0,1-.886-9.732a5.092,5.092,0,0,1,1.928-.354A3.9,3.9,0,0,1,4.206-8.7,5.485,5.485,0,0,1,5.36-5.07,5.343,5.343,0,0,1,3.975-1.235,4.814,4.814,0,0,1,.312.226,4.9,4.9,0,0,1-3.5-1.439,6.559,6.559,0,0,1-5-5.994V-9.4a6.634,6.634,0,0,1,1.649-4.673A5.363,5.363,0,0,1,.773-15.866Zm-.58,7.81a3.4,3.4,0,0,0-1.584.338,2.473,2.473,0,0,0-1,.929v.935a4.953,4.953,0,0,0,.763,2.933A2.305,2.305,0,0,0,.312-1.858a2.1,2.1,0,0,0,1.8-.9,3.856,3.856,0,0,0,.65-2.31,3.266,3.266,0,0,0-.682-2.181A2.338,2.338,0,0,0,.193-8.057Z" transform="translate(-6806 -10325)" fill="#12263f"/>
    <path id="Trazado_830487" data-name="Trazado 830487" d="M3.652-5.575H5.629V-3.47H3.652V0h-2.6V-3.47H-5.489l-.064-1.6L.978-15.641H3.652Zm-6.66,0H1.053v-6.381l-.064-.011-.247.6Z" transform="translate(-6610 -10257)" fill="#12263f"/>
    <path id="Trazado_830488" data-name="Trazado 830488" d="M-4.555-6.918l.9-8.723H4.6v2.256h-6.08L-1.955-9.4a4.345,4.345,0,0,1,1.1-.559,4.406,4.406,0,0,1,1.413-.236A4.215,4.215,0,0,1,3.953-8.83,5.625,5.625,0,0,1,5.167-5,5.492,5.492,0,0,1,3.889-1.225,4.83,4.83,0,0,1,.064.226,5.49,5.49,0,0,1-3.421-.886a3.66,3.66,0,0,1-1.37-3.174l.021-.054,2.449-.075A2.231,2.231,0,0,0-1.66-2.476a2.423,2.423,0,0,0,1.724.618,2.2,2.2,0,0,0,1.858-.827,3.681,3.681,0,0,0,.634-2.288A3.617,3.617,0,0,0,1.9-7.235,2.216,2.216,0,0,0,.032-8.089a2.94,2.94,0,0,0-1.6.344,1.942,1.942,0,0,0-.757,1.01Z" transform="translate(-6871 -10257)" fill="#12263f"/>
    <path id="Trazado_830489" data-name="Trazado 830489" d="M-4.638,0H-7.367V-13.836h-3.47V-16l6.2-.584ZM8.434,0H5.705V-13.836H2.235V-16l6.2-.584Z" transform="translate(-6746 -10256)" fill="#12263f"/>
    <path id="Trazado_830490" data-name="Trazado 830490" d="M-.72-1.858a2.791,2.791,0,0,0,2.2-.956A3.926,3.926,0,0,0,2.32-5.5V-6.628A3.366,3.366,0,0,1,1.063-5.543a3.6,3.6,0,0,1-1.611.365A4.443,4.443,0,0,1-4.034-6.585,5.6,5.6,0,0,1-5.3-10.463a5.484,5.484,0,0,1,1.413-3.878,4.634,4.634,0,0,1,3.55-1.525A5.005,5.005,0,0,1,3.475-14.33a6,6,0,0,1,1.456,4.3V-5.6a5.7,5.7,0,0,1-1.584,4.27A5.566,5.566,0,0,1-.72.226,8.667,8.667,0,0,1-2.412.054a7.674,7.674,0,0,1-1.617-.5l.419-1.987a6.514,6.514,0,0,0,1.364.446A7.771,7.771,0,0,0-.72-1.858ZM-.3-7.208A3.1,3.1,0,0,0,1.3-7.6,2.724,2.724,0,0,0,2.32-8.626v-1.858a3.773,3.773,0,0,0-.693-2.433A2.333,2.333,0,0,0-.29-13.771a2.056,2.056,0,0,0-1.724.94A3.929,3.929,0,0,0-2.7-10.463,4.075,4.075,0,0,0-2.079-8.1,2.031,2.031,0,0,0-.3-7.208Z" transform="translate(-6562 -10325)" fill="#12263f"/>
    <path id="Trazado_826126" data-name="Trazado 826126" d="M-8356.814-10071.293l71.839-27.877" transform="translate(1510.915 -320)" fill="none" stroke="#273a89" stroke-width="1"/>
    <path id="Trazado_826135" data-name="Trazado 826135" d="M-8284.976-10071.293l-71.84-27.877" transform="translate(1629.032 -320)" fill="none" stroke="#273a89" stroke-width="1"/>
    <path id="Trazado_825100" data-name="Trazado 825100" d="M4.569,1.3,0,0,4.558,7.068l.011-.014.011.014L9.137,0Z" transform="translate(-6844.142 -10396.795) rotate(70)" fill="#273a89"/>
    <path id="Trazado_826136" data-name="Trazado 826136" d="M4.569,5.764,0,7.068,4.558,0l.011.014L4.58,0,9.137,7.068Z" transform="translate(-6651.061 -10394.378) rotate(110)" fill="#273a89"/>
    <path id="Trazado_826128" data-name="Trazado 826128" d="M-8361.151-10050c1.025,1.208,29.043,22.734,29.043,22.734" transform="translate(1506 -320)" fill="none" stroke="#273a89" stroke-width="1"/>
    <path id="Trazado_826131" data-name="Trazado 826131" d="M-8361.151-10050c1.025,1.208,29.043,22.734,29.043,22.734" transform="translate(284.392 683.344) rotate(7)" fill="none" stroke="#273a89" stroke-width="1"/>
    <path id="Trazado_826133" data-name="Trazado 826133" d="M0,22.733C1.025,21.525,29.043,0,29.043,0" transform="translate(-6820 -10288.149) rotate(173)" fill="none" stroke="#273a89" stroke-width="1"/>
    <path id="Trazado_826130" data-name="Trazado 826130" d="M-8332.108-10050c-1.025,1.208-29.043,22.734-29.043,22.734" transform="translate(1440.39 -320)" fill="none" stroke="#273a89" stroke-width="1"/>
    <path id="Trazado_826127" data-name="Trazado 826127" d="M4.568,5.765,0,7.068,4.557,0l.011.014L4.58,0,9.137,7.068Z" transform="translate(-6821.87 -10349.13) rotate(131)" fill="#273a89"/>
    <path id="Trazado_826132" data-name="Trazado 826132" d="M4.568,5.765,0,7.068,4.557,0l.011.014L4.58,0,9.137,7.068Z" transform="translate(-6759.159 -10285.941) rotate(138)" fill="#273a89"/>
    <path id="Trazado_826134" data-name="Trazado 826134" d="M4.569,1.3,0,0,4.557,7.068l.011-.014.011.014L9.137,0Z" transform="translate(-6848.531 -10291.195) rotate(42)" fill="#273a89"/>
    <g id="Grupo_1074428" data-name="Grupo 1074428" transform="translate(-7254 -12020)">
      <path id="Trazado_826139" data-name="Trazado 826139" d="M4.325,27C5.35,25.794,29.043,0,29.043,0" transform="translate(686.686 1731.573) rotate(172)" fill="none" stroke="#273a89" stroke-width="1"/>
      <path id="Trazado_826140" data-name="Trazado 826140" d="M4.569,1.3,0,0,4.557,7.068l.011-.014.011.014L9.137,0Z" transform="matrix(0.819, 0.574, -0.574, 0.819, 657.305, 1728.484)" fill="#273a89"/>
    </g>
    <path id="Trazado_826129" data-name="Trazado 826129" d="M4.568,1.3,0,0,4.557,7.068l.011-.014.011.014L9.137,0Z" transform="translate(-6919.666 -10353.767) rotate(49)" fill="#273a89"/>
    <g id="Grupo_1074429" data-name="Grupo 1074429" transform="translate(-6615 -10367.325) rotate(-19)">
      <path id="Trazado_826139-2" data-name="Trazado 826139" d="M0,0C1.025,1.208,24.718,27,24.718,27" transform="translate(3.758 -0.001) rotate(8)" fill="none" stroke="#273a89" stroke-width="1"/>
      <path id="Trazado_826140-2" data-name="Trazado 826140" d="M4.568,5.764,0,7.067,4.557,0l.011.014L4.579,0,9.137,7.068Z" transform="matrix(-0.819, 0.574, -0.574, -0.819, 29.151, 28.838)" fill="#273a89"/>
    </g>
  </g>
</svg>
