<svg xmlns="http://www.w3.org/2000/svg" xmlns:xlink="http://www.w3.org/1999/xlink" width="646.217" height="361.714" viewBox="0 0 646.217 361.714">
  <defs>
    <clipPath id="clip-path">
      <path id="Exclusión_3" data-name="Exclusión 3" d="M623.217,361.714H23a23,23,0,0,1-23-23V23A23,23,0,0,1,23,0H623.217a23,23,0,0,1,23,23V338.713a23,23,0,0,1-23,23ZM48.9,20.2a23.026,23.026,0,0,0-23,23V321.4a23.026,23.026,0,0,0,23,23H597.316a23.026,23.026,0,0,0,23-23V43.2a23.026,23.026,0,0,0-23-23Z" transform="translate(0 0)" fill="#1789f7"/>
    </clipPath>
  </defs>
  <g id="Grupo_1075364" data-name="Grupo 1075364" transform="translate(-218 -3651)">
    <path id="Trazado_830509" data-name="Trazado 830509" d="M23,0H623.217a23,23,0,0,1,23,23V338.714a23,23,0,0,1-23,23H23a23,23,0,0,1-23-23V23A23,23,0,0,1,23,0Z" transform="translate(218 3651)" fill="#0082ff"/>
    <g id="Enmascarar_grupo_124" data-name="Enmascarar grupo 124" transform="translate(218 3651)" clip-path="url(#clip-path)">
      <ellipse id="Elipse_9726" data-name="Elipse 9726" cx="224.686" cy="166.908" rx="224.686" ry="166.908" transform="translate(-137.272 137.566)" fill="#ffce00"/>
      <ellipse id="Elipse_9727" data-name="Elipse 9727" cx="224.686" cy="166.908" rx="224.686" ry="166.908" transform="translate(347.066 -159.693)" fill="#3ee2a8"/>
    </g>
    <path id="Trazado_830510" data-name="Trazado 830510" d="M22,0H593.4a22,22,0,0,1,22,22V310.269a22,22,0,0,1-22,22H22a22,22,0,0,1-22-22V22A22,22,0,0,1,22,0Z" transform="translate(233 3667)" fill="#fff"/>
    <path id="Trazado_830511" data-name="Trazado 830511" d="M6.977-2.453H3.289L2.523,0H.141L3.977-11.375H6.313L10.133,0H7.75ZM3.852-4.242h2.57L5.164-8.25H5.117ZM13.453,0H11.172V-12.187h2.281Zm1.539-4.156a5.474,5.474,0,0,1,.867-3.227A2.813,2.813,0,0,1,18.3-8.609a2.4,2.4,0,0,1,1.25.32,2.806,2.806,0,0,1,.922.914l.18-1.078h1.961V-.039a3.142,3.142,0,0,1-1.078,2.551,4.552,4.552,0,0,1-3.008.9,5.73,5.73,0,0,1-1.359-.176,6.313,6.313,0,0,1-1.328-.48l.383-1.7a5.235,5.235,0,0,0,1.082.379,5.362,5.362,0,0,0,1.207.129,2.042,2.042,0,0,0,1.379-.391,1.546,1.546,0,0,0,.441-1.219V-.812a2.552,2.552,0,0,1-.883.727,2.6,2.6,0,0,1-1.164.25A2.869,2.869,0,0,1,15.859-.977a4.855,4.855,0,0,1-.867-3.016Zm2.281.164a3.473,3.473,0,0,0,.371,1.746,1.3,1.3,0,0,0,1.215.637,1.883,1.883,0,0,0,.887-.191,1.462,1.462,0,0,0,.582-.559V-6.023a1.559,1.559,0,0,0-.582-.6,1.706,1.706,0,0,0-.871-.211,1.279,1.279,0,0,0-1.219.742,4.231,4.231,0,0,0-.383,1.938ZM24.008-4.3a4.536,4.536,0,0,1,1.055-3.1,3.676,3.676,0,0,1,2.922-1.207,3.715,3.715,0,0,1,2.938,1.2,4.512,4.512,0,0,1,1.063,3.1v.164a4.519,4.519,0,0,1-1.059,3.105A3.7,3.7,0,0,1,28,.164a3.709,3.709,0,0,1-2.934-1.2,4.519,4.519,0,0,1-1.059-3.105Zm2.273.164a3.677,3.677,0,0,0,.406,1.855,1.4,1.4,0,0,0,1.313.7,1.389,1.389,0,0,0,1.293-.7,3.653,3.653,0,0,0,.41-1.852V-4.3a3.616,3.616,0,0,0-.414-1.836,1.4,1.4,0,0,0-1.3-.711,1.384,1.384,0,0,0-1.293.715,3.648,3.648,0,0,0-.41,1.832ZM37.836-6.492,37-6.516a1.519,1.519,0,0,0-.836.211,1.337,1.337,0,0,0-.5.594V0H33.391V-8.453h2.117l.1,1.25a2.667,2.667,0,0,1,.77-1.035,1.715,1.715,0,0,1,1.09-.371,1.705,1.705,0,0,1,.316.027q.145.027.293.066ZM41.422,0H39.141V-8.453h2.281Zm0-10.477H39.141v-1.711h2.281Zm4.609-.047v2.07h1.43v1.6h-1.43v4.3a.982.982,0,0,0,.207.7.727.727,0,0,0,.543.211,2.178,2.178,0,0,0,.313-.02,2.632,2.632,0,0,0,.3-.066L47.586-.07a4.618,4.618,0,0,1-.668.176,3.982,3.982,0,0,1-.707.059,2.431,2.431,0,0,1-1.816-.648,2.843,2.843,0,0,1-.637-2.055V-6.852H42.523v-1.6h1.234v-2.07Zm4.953,2.07.094,1.117a2.84,2.84,0,0,1,1.02-.941,2.932,2.932,0,0,1,1.418-.332,2.582,2.582,0,0,1,1.391.359,2.217,2.217,0,0,1,.875,1.086A2.93,2.93,0,0,1,56.8-8.227a2.756,2.756,0,0,1,1.469-.383,2.408,2.408,0,0,1,1.973.887,4.233,4.233,0,0,1,.723,2.707V0H58.68V-5.023a2.369,2.369,0,0,0-.312-1.414,1.109,1.109,0,0,0-.93-.4,1.592,1.592,0,0,0-.84.215,1.565,1.565,0,0,0-.566.6q0,.148.008.254t.008.215V0H53.773V-5.023a2.376,2.376,0,0,0-.312-1.4,1.1,1.1,0,0,0-.937-.41,1.769,1.769,0,0,0-.809.176,1.551,1.551,0,0,0-.574.5V0H48.867V-8.453ZM62.359-4.3a4.536,4.536,0,0,1,1.055-3.1,3.676,3.676,0,0,1,2.922-1.207,3.715,3.715,0,0,1,2.938,1.2,4.512,4.512,0,0,1,1.063,3.1v.164a4.519,4.519,0,0,1-1.059,3.105,3.7,3.7,0,0,1-2.926,1.2,3.709,3.709,0,0,1-2.934-1.2,4.519,4.519,0,0,1-1.059-3.105Zm2.273.164a3.677,3.677,0,0,0,.406,1.855,1.4,1.4,0,0,0,1.313.7,1.389,1.389,0,0,0,1.293-.7,3.653,3.653,0,0,0,.41-1.852V-4.3a3.616,3.616,0,0,0-.414-1.836,1.4,1.4,0,0,0-1.3-.711,1.384,1.384,0,0,0-1.293.715,3.648,3.648,0,0,0-.41,1.832Zm10.742-.016a5.493,5.493,0,0,1,.863-3.227,2.8,2.8,0,0,1,2.434-1.227,2.367,2.367,0,0,1,1.141.273,2.744,2.744,0,0,1,.891.781v-4.633h2.289V0H81.047l-.2-1.039a2.826,2.826,0,0,1-.945.895,2.5,2.5,0,0,1-1.25.309A2.858,2.858,0,0,1,76.238-.977a4.871,4.871,0,0,1-.863-3.016Zm2.273.164a3.443,3.443,0,0,0,.375,1.746,1.306,1.306,0,0,0,1.219.637,1.775,1.775,0,0,0,.859-.2,1.589,1.589,0,0,0,.6-.582v-3.6a1.756,1.756,0,0,0-.6-.621,1.589,1.589,0,0,0-.848-.223,1.287,1.287,0,0,0-1.223.742,4.194,4.194,0,0,0-.387,1.938ZM88.422.164A3.8,3.8,0,0,1,85.469-1a4.252,4.252,0,0,1-1.062-2.988V-4.3a4.628,4.628,0,0,1,1.031-3.109,3.506,3.506,0,0,1,2.836-1.2,3.282,3.282,0,0,1,2.613,1.043,4.122,4.122,0,0,1,.91,2.809v1.18H86.758l-.023.047a2.284,2.284,0,0,0,.527,1.406,1.766,1.766,0,0,0,1.4.539,4.692,4.692,0,0,0,1.3-.156,5.307,5.307,0,0,0,1.105-.477l.617,1.406a4.234,4.234,0,0,1-1.375.7A6.1,6.1,0,0,1,88.422.164Zm-.148-7.016a1.267,1.267,0,0,0-1.059.473,2.371,2.371,0,0,0-.449,1.254l.016.039h2.781v-.172a1.974,1.974,0,0,0-.3-1.168A1.127,1.127,0,0,0,88.273-6.852ZM99.508,0H97.227V-12.187h2.281Zm6.859,0a4.8,4.8,0,0,1-.215-.609,4.238,4.238,0,0,1-.129-.656,3.127,3.127,0,0,1-.93,1.023,2.33,2.33,0,0,1-1.375.406,2.855,2.855,0,0,1-2.047-.684,2.449,2.449,0,0,1-.719-1.863,2.229,2.229,0,0,1,.957-1.926,4.78,4.78,0,0,1,2.793-.684h1.281v-.672a1.315,1.315,0,0,0-.32-.945,1.257,1.257,0,0,0-.953-.336,1.239,1.239,0,0,0-.855.27.941.941,0,0,0-.3.738h-2.2l-.016-.047a2.144,2.144,0,0,1,.934-1.848,4.055,4.055,0,0,1,2.582-.777,3.784,3.784,0,0,1,2.465.766,2.667,2.667,0,0,1,.941,2.2v3.492a6.6,6.6,0,0,0,.09,1.117A5.606,5.606,0,0,0,108.641,0Zm-2.086-1.523a1.944,1.944,0,0,0,1.063-.3,1.6,1.6,0,0,0,.641-.687V-3.7H104.7a1.519,1.519,0,0,0-1.1.359,1.181,1.181,0,0,0-.371.883.881.881,0,0,0,.277.684A1.1,1.1,0,0,0,104.281-1.523Zm17.3-2.469a4.945,4.945,0,0,1-.844,3.023A2.854,2.854,0,0,1,118.3.164a2.576,2.576,0,0,1-1.293-.312,2.672,2.672,0,0,1-.934-.914L115.891,0h-1.93V-12.187h2.273v4.633a2.582,2.582,0,0,1,.879-.781,2.457,2.457,0,0,1,1.176-.273,2.8,2.8,0,0,1,2.453,1.215,5.577,5.577,0,0,1,.844,3.238Zm-2.273-.164a4.4,4.4,0,0,0-.363-1.957,1.275,1.275,0,0,0-1.238-.723,1.7,1.7,0,0,0-.9.223,1.543,1.543,0,0,0-.578.637V-2.4a1.449,1.449,0,0,0,.582.586,1.874,1.874,0,0,0,.91.2,1.3,1.3,0,0,0,1.234-.621,3.618,3.618,0,0,0,.352-1.762Zm8.859,2.906A2.87,2.87,0,0,1,127.18-.2a2.63,2.63,0,0,1-1.4.367,2.57,2.57,0,0,1-2.09-.906,4.347,4.347,0,0,1-.754-2.812v-4.9h2.273v4.914a2.729,2.729,0,0,0,.3,1.52,1.081,1.081,0,0,0,.934.41,2.273,2.273,0,0,0,.938-.176,1.58,1.58,0,0,0,.641-.52V-8.453H130.3V0h-1.891Zm8.3-5.242-.836-.023a1.519,1.519,0,0,0-.836.211,1.337,1.337,0,0,0-.5.594V0h-2.273V-8.453h2.117l.1,1.25a2.667,2.667,0,0,1,.77-1.035,1.715,1.715,0,0,1,1.09-.371,1.705,1.705,0,0,1,.316.027q.145.027.293.066Zm8.813,2.5a4.945,4.945,0,0,1-.844,3.023A2.854,2.854,0,0,1,142,.164a2.576,2.576,0,0,1-1.293-.312,2.672,2.672,0,0,1-.934-.914L139.586,0h-1.93V-12.187h2.273v4.633a2.582,2.582,0,0,1,.879-.781,2.457,2.457,0,0,1,1.176-.273,2.8,2.8,0,0,1,2.453,1.215,5.577,5.577,0,0,1,.844,3.238Zm-2.273-.164a4.4,4.4,0,0,0-.363-1.957,1.275,1.275,0,0,0-1.238-.723,1.7,1.7,0,0,0-.9.223,1.543,1.543,0,0,0-.578.637V-2.4a1.449,1.449,0,0,0,.582.586,1.874,1.874,0,0,0,.91.2,1.3,1.3,0,0,0,1.234-.621,3.618,3.618,0,0,0,.352-1.762Zm8.859,2.906A2.87,2.87,0,0,1,150.875-.2a2.63,2.63,0,0,1-1.4.367,2.57,2.57,0,0,1-2.09-.906,4.347,4.347,0,0,1-.754-2.812v-4.9h2.273v4.914a2.729,2.729,0,0,0,.3,1.52,1.081,1.081,0,0,0,.934.41,2.273,2.273,0,0,0,.938-.176,1.58,1.58,0,0,0,.641-.52V-8.453H154V0h-1.891Zm6.313-7.2V.313a3.147,3.147,0,0,1-.789,2.293,2.926,2.926,0,0,1-2.2.809,4.764,4.764,0,0,1-.57-.031,4.729,4.729,0,0,1-.547-.1l.109-1.742a2.918,2.918,0,0,0,.359.07,2.963,2.963,0,0,0,.383.023.845.845,0,0,0,.711-.324,1.625,1.625,0,0,0,.25-1V-8.453Zm-.047-2.039h-2.289v-1.7h2.289ZM164.945,0a4.8,4.8,0,0,1-.215-.609,4.24,4.24,0,0,1-.129-.656,3.127,3.127,0,0,1-.93,1.023A2.33,2.33,0,0,1,162.3.164,2.855,2.855,0,0,1,160.25-.52a2.449,2.449,0,0,1-.719-1.863,2.229,2.229,0,0,1,.957-1.926,4.78,4.78,0,0,1,2.793-.684h1.281v-.672a1.315,1.315,0,0,0-.32-.945,1.257,1.257,0,0,0-.953-.336,1.239,1.239,0,0,0-.855.27.941.941,0,0,0-.3.738h-2.2l-.016-.047a2.144,2.144,0,0,1,.934-1.848,4.055,4.055,0,0,1,2.582-.777,3.784,3.784,0,0,1,2.465.766,2.667,2.667,0,0,1,.941,2.2v3.492a6.605,6.605,0,0,0,.09,1.117A5.606,5.606,0,0,0,167.219,0Zm-2.086-1.523a1.944,1.944,0,0,0,1.063-.3,1.6,1.6,0,0,0,.641-.687V-3.7h-1.281a1.519,1.519,0,0,0-1.1.359,1.181,1.181,0,0,0-.371.883.881.881,0,0,0,.277.684A1.1,1.1,0,0,0,162.859-1.523Z" transform="translate(457 3709)" fill="#12263f"/>
    <path id="Trazado_830512" data-name="Trazado 830512" d="M2.441-12.539a1.015,1.015,0,0,1-.732-.293.989.989,0,0,1-.3-.742,1,1,0,0,1,.3-.747,1.006,1.006,0,0,1,.732-.3,1.034,1.034,0,0,1,.747.3,1,1,0,0,1,.308.747.99.99,0,0,1-.308.732A1.025,1.025,0,0,1,2.441-12.539ZM3.223,0h-1.6V-10h1.6Z" transform="translate(821.405 3885)" fill="#12263f"/>
    <g id="Trazado_830513" data-name="Trazado 830513" transform="translate(270 3733)" fill="#dcecfe">
      <path d="M 29.5 161.5 L 0.5 161.5 L 0.5 0.5 L 29.5 0.5 L 29.5 161.5 Z" stroke="none"/>
      <path d="M 1 1 L 1 161 L 29 161 L 29 1 L 1 1 M 0 0 L 30 0 L 30 162 L 0 162 L 0 0 Z" stroke="none" fill="#273a89"/>
    </g>
    <g id="Trazado_830514" data-name="Trazado 830514" transform="translate(368 3733)" fill="#dcecfe">
      <path d="M 29.5 161.5 L 0.5 161.5 L 0.5 0.5 L 29.5 0.5 L 29.5 161.5 Z" stroke="none"/>
      <path d="M 1 1 L 1 161 L 29 161 L 29 1 L 1 1 M 0 0 L 30 0 L 30 162 L 0 162 L 0 0 Z" stroke="none" fill="#273a89"/>
    </g>
    <g id="Trazado_830515" data-name="Trazado 830515" transform="translate(467 3733)" fill="#dcecfe">
      <path d="M 29.5 161.5 L 0.5 161.5 L 0.5 0.5 L 29.5 0.5 L 29.5 161.5 Z" stroke="none"/>
      <path d="M 1 1 L 1 161 L 29 161 L 29 1 L 1 1 M 0 0 L 30 0 L 30 162 L 0 162 L 0 0 Z" stroke="none" fill="#273a89"/>
    </g>
    <g id="Trazado_830516" data-name="Trazado 830516" transform="translate(565 3733)" fill="#dcecfe">
      <path d="M 29.5 161.5 L 0.5 161.5 L 0.5 0.5 L 29.5 0.5 L 29.5 161.5 Z" stroke="none"/>
      <path d="M 1 1 L 1 161 L 29 161 L 29 1 L 1 1 M 0 0 L 30 0 L 30 162 L 0 162 L 0 0 Z" stroke="none" fill="#273a89"/>
    </g>
    <g id="Trazado_830517" data-name="Trazado 830517" transform="translate(663 3733)" fill="#dcecfe">
      <path d="M 29.5 161.5 L 0.5 161.5 L 0.5 0.5 L 29.5 0.5 L 29.5 161.5 Z" stroke="none"/>
      <path d="M 1 1 L 1 161 L 29 161 L 29 1 L 1 1 M 0 0 L 30 0 L 30 162 L 0 162 L 0 0 Z" stroke="none" fill="#273a89"/>
    </g>
    <g id="Trazado_830518" data-name="Trazado 830518" transform="translate(761 3733)" fill="#dcecfe">
      <path d="M 29.5 161.5 L 0.5 161.5 L 0.5 0.5 L 29.5 0.5 L 29.5 161.5 Z" stroke="none"/>
      <path d="M 1 1 L 1 161 L 29 161 L 29 1 L 1 1 M 0 0 L 30 0 L 30 162 L 0 162 L 0 0 Z" stroke="none" fill="#273a89"/>
    </g>
    <path id="Trazado_830519" data-name="Trazado 830519" d="M1.282-4.739,1.9-10.664H7.236v1.282H3.113L2.769-6.313a3.292,3.292,0,0,1,.762-.421,2.679,2.679,0,0,1,.952-.172A2.9,2.9,0,0,1,6.8-5.98,3.742,3.742,0,0,1,7.639-3.4,3.751,3.751,0,0,1,6.779-.82,3.17,3.17,0,0,1,4.27.154a3.437,3.437,0,0,1-2.256-.74A2.56,2.56,0,0,1,1.15-2.761l.015-.044h1.3a1.781,1.781,0,0,0,.5,1.351,1.8,1.8,0,0,0,1.3.48,1.7,1.7,0,0,0,1.421-.645A2.79,2.79,0,0,0,6.2-3.384a2.541,2.541,0,0,0-.509-1.648,1.721,1.721,0,0,0-1.417-.63,2.265,2.265,0,0,0-1.23.256,1.5,1.5,0,0,0-.564.791Z" transform="translate(281 3757)" fill="#12263f"/>
    <path id="Trazado_830520" data-name="Trazado 830520" d="M1.282-4.739,1.9-10.664H7.236v1.282H3.113L2.769-6.313a3.292,3.292,0,0,1,.762-.421,2.679,2.679,0,0,1,.952-.172A2.9,2.9,0,0,1,6.8-5.98,3.742,3.742,0,0,1,7.639-3.4,3.751,3.751,0,0,1,6.779-.82,3.17,3.17,0,0,1,4.27.154a3.437,3.437,0,0,1-2.256-.74A2.56,2.56,0,0,1,1.15-2.761l.015-.044h1.3a1.781,1.781,0,0,0,.5,1.351,1.8,1.8,0,0,0,1.3.48,1.7,1.7,0,0,0,1.421-.645A2.79,2.79,0,0,0,6.2-3.384a2.541,2.541,0,0,0-.509-1.648,1.721,1.721,0,0,0-1.417-.63,2.265,2.265,0,0,0-1.23.256,1.5,1.5,0,0,0-.564.791Z" transform="translate(379 3757)" fill="#12263f"/>
    <path id="Trazado_830521" data-name="Trazado 830521" d="M1.282-4.739,1.9-10.664H7.236v1.282H3.113L2.769-6.313a3.292,3.292,0,0,1,.762-.421,2.679,2.679,0,0,1,.952-.172A2.9,2.9,0,0,1,6.8-5.98,3.742,3.742,0,0,1,7.639-3.4,3.751,3.751,0,0,1,6.779-.82,3.17,3.17,0,0,1,4.27.154a3.437,3.437,0,0,1-2.256-.74A2.56,2.56,0,0,1,1.15-2.761l.015-.044h1.3a1.781,1.781,0,0,0,.5,1.351,1.8,1.8,0,0,0,1.3.48,1.7,1.7,0,0,0,1.421-.645A2.79,2.79,0,0,0,6.2-3.384a2.541,2.541,0,0,0-.509-1.648,1.721,1.721,0,0,0-1.417-.63,2.265,2.265,0,0,0-1.23.256,1.5,1.5,0,0,0-.564.791Z" transform="translate(478 3757)" fill="#12263f"/>
    <path id="Trazado_830522" data-name="Trazado 830522" d="M1.282-4.739,1.9-10.664H7.236v1.282H3.113L2.769-6.313a3.292,3.292,0,0,1,.762-.421,2.679,2.679,0,0,1,.952-.172A2.9,2.9,0,0,1,6.8-5.98,3.742,3.742,0,0,1,7.639-3.4,3.751,3.751,0,0,1,6.779-.82,3.17,3.17,0,0,1,4.27.154a3.437,3.437,0,0,1-2.256-.74A2.56,2.56,0,0,1,1.15-2.761l.015-.044h1.3a1.781,1.781,0,0,0,.5,1.351,1.8,1.8,0,0,0,1.3.48,1.7,1.7,0,0,0,1.421-.645A2.79,2.79,0,0,0,6.2-3.384a2.541,2.541,0,0,0-.509-1.648,1.721,1.721,0,0,0-1.417-.63,2.265,2.265,0,0,0-1.23.256,1.5,1.5,0,0,0-.564.791Z" transform="translate(576 3757)" fill="#12263f"/>
    <path id="Trazado_830523" data-name="Trazado 830523" d="M1.282-4.739,1.9-10.664H7.236v1.282H3.113L2.769-6.313a3.292,3.292,0,0,1,.762-.421,2.679,2.679,0,0,1,.952-.172A2.9,2.9,0,0,1,6.8-5.98,3.742,3.742,0,0,1,7.639-3.4,3.751,3.751,0,0,1,6.779-.82,3.17,3.17,0,0,1,4.27.154a3.437,3.437,0,0,1-2.256-.74A2.56,2.56,0,0,1,1.15-2.761l.015-.044h1.3a1.781,1.781,0,0,0,.5,1.351,1.8,1.8,0,0,0,1.3.48,1.7,1.7,0,0,0,1.421-.645A2.79,2.79,0,0,0,6.2-3.384a2.541,2.541,0,0,0-.509-1.648,1.721,1.721,0,0,0-1.417-.63,2.265,2.265,0,0,0-1.23.256,1.5,1.5,0,0,0-.564.791Z" transform="translate(674 3757)" fill="#12263f"/>
    <path id="Trazado_830524" data-name="Trazado 830524" d="M1.282-4.739,1.9-10.664H7.236v1.282H3.113L2.769-6.313a3.292,3.292,0,0,1,.762-.421,2.679,2.679,0,0,1,.952-.172A2.9,2.9,0,0,1,6.8-5.98,3.742,3.742,0,0,1,7.639-3.4,3.751,3.751,0,0,1,6.779-.82,3.17,3.17,0,0,1,4.27.154a3.437,3.437,0,0,1-2.256-.74A2.56,2.56,0,0,1,1.15-2.761l.015-.044h1.3a1.781,1.781,0,0,0,.5,1.351,1.8,1.8,0,0,0,1.3.48,1.7,1.7,0,0,0,1.421-.645A2.79,2.79,0,0,0,6.2-3.384a2.541,2.541,0,0,0-.509-1.648,1.721,1.721,0,0,0-1.417-.63,2.265,2.265,0,0,0-1.23.256,1.5,1.5,0,0,0-.564.791Z" transform="translate(772 3757)" fill="#12263f"/>
    <path id="Trazado_830525" data-name="Trazado 830525" d="M2.441-12.539a1.015,1.015,0,0,1-.732-.293.989.989,0,0,1-.3-.742,1,1,0,0,1,.3-.747,1.006,1.006,0,0,1,.732-.3,1.034,1.034,0,0,1,.747.3,1,1,0,0,1,.308.747.99.99,0,0,1-.308.732A1.025,1.025,0,0,1,2.441-12.539ZM3.223,0h-1.6V-10h1.6Z" transform="translate(325 3758)" fill="#12263f"/>
    <path id="Trazado_830526" data-name="Trazado 830526" d="M2.441-12.539a1.015,1.015,0,0,1-.732-.293.989.989,0,0,1-.3-.742,1,1,0,0,1,.3-.747,1.006,1.006,0,0,1,.732-.3,1.034,1.034,0,0,1,.747.3,1,1,0,0,1,.308.747.99.99,0,0,1-.308.732A1.025,1.025,0,0,1,2.441-12.539ZM3.223,0h-1.6V-10h1.6Z" transform="translate(423 3784.145)" fill="#12263f"/>
    <path id="Trazado_830527" data-name="Trazado 830527" d="M2.441-12.539a1.015,1.015,0,0,1-.732-.293.989.989,0,0,1-.3-.742,1,1,0,0,1,.3-.747,1.006,1.006,0,0,1,.732-.3,1.034,1.034,0,0,1,.747.3,1,1,0,0,1,.308.747.99.99,0,0,1-.308.732A1.025,1.025,0,0,1,2.441-12.539ZM3.223,0h-1.6V-10h1.6Z" transform="translate(522 3812.145)" fill="#12263f"/>
    <path id="Trazado_830528" data-name="Trazado 830528" d="M2.441-12.539a1.015,1.015,0,0,1-.732-.293.989.989,0,0,1-.3-.742,1,1,0,0,1,.3-.747,1.006,1.006,0,0,1,.732-.3,1.034,1.034,0,0,1,.747.3,1,1,0,0,1,.308.747.99.99,0,0,1-.308.732A1.025,1.025,0,0,1,2.441-12.539ZM3.223,0h-1.6V-10h1.6Z" transform="translate(620 3835.5)" fill="#12263f"/>
    <path id="Trazado_830529" data-name="Trazado 830529" d="M2.441-12.539a1.015,1.015,0,0,1-.732-.293.989.989,0,0,1-.3-.742,1,1,0,0,1,.3-.747,1.006,1.006,0,0,1,.732-.3,1.034,1.034,0,0,1,.747.3,1,1,0,0,1,.308.747.99.99,0,0,1-.308.732A1.025,1.025,0,0,1,2.441-12.539ZM3.223,0h-1.6V-10h1.6Z" transform="translate(718 3859)" fill="#12263f"/>
    <path id="Trazado_830530" data-name="Trazado 830530" d="M7.617-3.765A4.208,4.208,0,0,1,6.7-.9,3.113,3.113,0,0,1,4.226.154,3.127,3.127,0,0,1,1.754-.9,4.187,4.187,0,0,1,.828-3.765V-6.9a4.214,4.214,0,0,1,.919-2.856,3.1,3.1,0,0,1,2.465-1.062A3.125,3.125,0,0,1,6.691-9.756,4.193,4.193,0,0,1,7.617-6.9ZM6.174-7.2a2.909,2.909,0,0,0-.513-1.816,1.723,1.723,0,0,0-1.45-.667,1.7,1.7,0,0,0-1.436.667A2.939,2.939,0,0,0,2.271-7.2v3.728a2.926,2.926,0,0,0,.516,1.824,1.71,1.71,0,0,0,1.439.674,1.7,1.7,0,0,0,1.443-.67,2.969,2.969,0,0,0,.505-1.827Z" transform="translate(254 3757)" fill="#12263f"/>
    <path id="Trazado_830531" data-name="Trazado 830531" d="M7.617-3.765A4.208,4.208,0,0,1,6.7-.9,3.113,3.113,0,0,1,4.226.154,3.127,3.127,0,0,1,1.754-.9,4.187,4.187,0,0,1,.828-3.765V-6.9a4.214,4.214,0,0,1,.919-2.856,3.1,3.1,0,0,1,2.465-1.062A3.125,3.125,0,0,1,6.691-9.756,4.193,4.193,0,0,1,7.617-6.9ZM6.174-7.2a2.909,2.909,0,0,0-.513-1.816,1.723,1.723,0,0,0-1.45-.667,1.7,1.7,0,0,0-1.436.667A2.939,2.939,0,0,0,2.271-7.2v3.728a2.926,2.926,0,0,0,.516,1.824,1.71,1.71,0,0,0,1.439.674,1.7,1.7,0,0,0,1.443-.67,2.969,2.969,0,0,0,.505-1.827Z" transform="translate(352 3757)" fill="#12263f"/>
    <path id="Trazado_830532" data-name="Trazado 830532" d="M7.617-3.765A4.208,4.208,0,0,1,6.7-.9,3.113,3.113,0,0,1,4.226.154,3.127,3.127,0,0,1,1.754-.9,4.187,4.187,0,0,1,.828-3.765V-6.9a4.214,4.214,0,0,1,.919-2.856,3.1,3.1,0,0,1,2.465-1.062A3.125,3.125,0,0,1,6.691-9.756,4.193,4.193,0,0,1,7.617-6.9ZM6.174-7.2a2.909,2.909,0,0,0-.513-1.816,1.723,1.723,0,0,0-1.45-.667,1.7,1.7,0,0,0-1.436.667A2.939,2.939,0,0,0,2.271-7.2v3.728a2.926,2.926,0,0,0,.516,1.824,1.71,1.71,0,0,0,1.439.674,1.7,1.7,0,0,0,1.443-.67,2.969,2.969,0,0,0,.505-1.827Z" transform="translate(451 3757)" fill="#12263f"/>
    <path id="Trazado_830533" data-name="Trazado 830533" d="M7.617-3.765A4.208,4.208,0,0,1,6.7-.9,3.113,3.113,0,0,1,4.226.154,3.127,3.127,0,0,1,1.754-.9,4.187,4.187,0,0,1,.828-3.765V-6.9a4.214,4.214,0,0,1,.919-2.856,3.1,3.1,0,0,1,2.465-1.062A3.125,3.125,0,0,1,6.691-9.756,4.193,4.193,0,0,1,7.617-6.9ZM6.174-7.2a2.909,2.909,0,0,0-.513-1.816,1.723,1.723,0,0,0-1.45-.667,1.7,1.7,0,0,0-1.436.667A2.939,2.939,0,0,0,2.271-7.2v3.728a2.926,2.926,0,0,0,.516,1.824,1.71,1.71,0,0,0,1.439.674,1.7,1.7,0,0,0,1.443-.67,2.969,2.969,0,0,0,.505-1.827Z" transform="translate(549 3757)" fill="#12263f"/>
    <path id="Trazado_830534" data-name="Trazado 830534" d="M7.617-3.765A4.208,4.208,0,0,1,6.7-.9,3.113,3.113,0,0,1,4.226.154,3.127,3.127,0,0,1,1.754-.9,4.187,4.187,0,0,1,.828-3.765V-6.9a4.214,4.214,0,0,1,.919-2.856,3.1,3.1,0,0,1,2.465-1.062A3.125,3.125,0,0,1,6.691-9.756,4.193,4.193,0,0,1,7.617-6.9ZM6.174-7.2a2.909,2.909,0,0,0-.513-1.816,1.723,1.723,0,0,0-1.45-.667,1.7,1.7,0,0,0-1.436.667A2.939,2.939,0,0,0,2.271-7.2v3.728a2.926,2.926,0,0,0,.516,1.824,1.71,1.71,0,0,0,1.439.674,1.7,1.7,0,0,0,1.443-.67,2.969,2.969,0,0,0,.505-1.827Z" transform="translate(647 3757)" fill="#12263f"/>
    <path id="Trazado_830535" data-name="Trazado 830535" d="M7.617-3.765A4.208,4.208,0,0,1,6.7-.9,3.113,3.113,0,0,1,4.226.154,3.127,3.127,0,0,1,1.754-.9,4.187,4.187,0,0,1,.828-3.765V-6.9a4.214,4.214,0,0,1,.919-2.856,3.1,3.1,0,0,1,2.465-1.062A3.125,3.125,0,0,1,6.691-9.756,4.193,4.193,0,0,1,7.617-6.9ZM6.174-7.2a2.909,2.909,0,0,0-.513-1.816,1.723,1.723,0,0,0-1.45-.667,1.7,1.7,0,0,0-1.436.667A2.939,2.939,0,0,0,2.271-7.2v3.728a2.926,2.926,0,0,0,.516,1.824,1.71,1.71,0,0,0,1.439.674,1.7,1.7,0,0,0,1.443-.67,2.969,2.969,0,0,0,.505-1.827Z" transform="translate(745 3757)" fill="#12263f"/>
    <path id="Trazado_830536" data-name="Trazado 830536" d="M7.4-7.939a2.4,2.4,0,0,1-.469,1.469,2.839,2.839,0,0,1-1.245.948,3.125,3.125,0,0,1,1.458,1A2.476,2.476,0,0,1,7.69-2.93,2.815,2.815,0,0,1,6.735-.652,3.649,3.649,0,0,1,4.3.154,3.932,3.932,0,0,1,1.74-.652,2.767,2.767,0,0,1,.747-2.93a2.445,2.445,0,0,1,.56-1.589A3.23,3.23,0,0,1,2.82-5.53a2.81,2.81,0,0,1-1.3-.941,2.378,2.378,0,0,1-.476-1.469,2.613,2.613,0,0,1,.9-2.139,3.559,3.559,0,0,1,2.34-.74,3.336,3.336,0,0,1,2.238.743A2.646,2.646,0,0,1,7.4-7.939ZM6.255-2.959a1.938,1.938,0,0,0-.568-1.436,1.912,1.912,0,0,0-1.4-.564,2.092,2.092,0,0,0-1.5.564A1.9,1.9,0,0,0,2.19-2.959a1.866,1.866,0,0,0,.59,1.443A2.158,2.158,0,0,0,4.3-.974a1.921,1.921,0,0,0,1.4-.546A1.918,1.918,0,0,0,6.255-2.959Zm-.3-4.958a1.752,1.752,0,0,0-.48-1.267,1.586,1.586,0,0,0-1.19-.5A1.8,1.8,0,0,0,3-9.2,1.689,1.689,0,0,0,2.49-7.917,1.769,1.769,0,0,0,3-6.6a1.771,1.771,0,0,0,1.3.505A1.552,1.552,0,0,0,5.482-6.6,1.853,1.853,0,0,0,5.955-7.917Z" transform="translate(281 3783)" fill="#12263f"/>
    <path id="Trazado_830537" data-name="Trazado 830537" d="M7.4-7.939a2.4,2.4,0,0,1-.469,1.469,2.839,2.839,0,0,1-1.245.948,3.125,3.125,0,0,1,1.458,1A2.476,2.476,0,0,1,7.69-2.93,2.815,2.815,0,0,1,6.735-.652,3.649,3.649,0,0,1,4.3.154,3.932,3.932,0,0,1,1.74-.652,2.767,2.767,0,0,1,.747-2.93a2.445,2.445,0,0,1,.56-1.589A3.23,3.23,0,0,1,2.82-5.53a2.81,2.81,0,0,1-1.3-.941,2.378,2.378,0,0,1-.476-1.469,2.613,2.613,0,0,1,.9-2.139,3.559,3.559,0,0,1,2.34-.74,3.336,3.336,0,0,1,2.238.743A2.646,2.646,0,0,1,7.4-7.939ZM6.255-2.959a1.938,1.938,0,0,0-.568-1.436,1.912,1.912,0,0,0-1.4-.564,2.092,2.092,0,0,0-1.5.564A1.9,1.9,0,0,0,2.19-2.959a1.866,1.866,0,0,0,.59,1.443A2.158,2.158,0,0,0,4.3-.974a1.921,1.921,0,0,0,1.4-.546A1.918,1.918,0,0,0,6.255-2.959Zm-.3-4.958a1.752,1.752,0,0,0-.48-1.267,1.586,1.586,0,0,0-1.19-.5A1.8,1.8,0,0,0,3-9.2,1.689,1.689,0,0,0,2.49-7.917,1.769,1.769,0,0,0,3-6.6a1.771,1.771,0,0,0,1.3.505A1.552,1.552,0,0,0,5.482-6.6,1.853,1.853,0,0,0,5.955-7.917Z" transform="translate(379 3783)" fill="#12263f"/>
    <path id="Trazado_830538" data-name="Trazado 830538" d="M7.786-9.529A15.853,15.853,0,0,0,5.054-5.288a11.362,11.362,0,0,0-.71,4.124V0H2.9V-1.165a10.313,10.313,0,0,1,.89-4.354,19.079,19.079,0,0,1,2.574-4.01H.71v-1.135H7.786Z" transform="translate(478 3783)" fill="#12263f"/>
    <path id="Trazado_830539" data-name="Trazado 830539" d="M7.786-9.529A15.853,15.853,0,0,0,5.054-5.288a11.362,11.362,0,0,0-.71,4.124V0H2.9V-1.165a10.313,10.313,0,0,1,.89-4.354,19.079,19.079,0,0,1,2.574-4.01H.71v-1.135H7.786Z" transform="translate(576 3783)" fill="#12263f"/>
    <path id="Trazado_830540" data-name="Trazado 830540" d="M7.786-9.529A15.853,15.853,0,0,0,5.054-5.288a11.362,11.362,0,0,0-.71,4.124V0H2.9V-1.165a10.313,10.313,0,0,1,.89-4.354,19.079,19.079,0,0,1,2.574-4.01H.71v-1.135H7.786Z" transform="translate(674 3783)" fill="#12263f"/>
    <path id="Trazado_830541" data-name="Trazado 830541" d="M7.786-9.529A15.853,15.853,0,0,0,5.054-5.288a11.362,11.362,0,0,0-.71,4.124V0H2.9V-1.165a10.313,10.313,0,0,1,.89-4.354,19.079,19.079,0,0,1,2.574-4.01H.71v-1.135H7.786Z" transform="translate(772 3783)" fill="#12263f"/>
    <path id="Trazado_830542" data-name="Trazado 830542" d="M5.2,0H3.75V-9.331l-2.322.022v-1.113l3.772-.4Z" transform="translate(254 3783)" fill="#12263f"/>
    <path id="Trazado_830543" data-name="Trazado 830543" d="M5.2,0H3.75V-9.331l-2.322.022v-1.113l3.772-.4Z" transform="translate(352 3783)" fill="#12263f"/>
    <path id="Trazado_830544" data-name="Trazado 830544" d="M5.2,0H3.75V-9.331l-2.322.022v-1.113l3.772-.4Z" transform="translate(451 3783)" fill="#12263f"/>
    <path id="Trazado_830545" data-name="Trazado 830545" d="M5.2,0H3.75V-9.331l-2.322.022v-1.113l3.772-.4Z" transform="translate(549 3783)" fill="#12263f"/>
    <path id="Trazado_830546" data-name="Trazado 830546" d="M5.2,0H3.75V-9.331l-2.322.022v-1.113l3.772-.4Z" transform="translate(647 3783)" fill="#12263f"/>
    <path id="Trazado_830547" data-name="Trazado 830547" d="M5.2,0H3.75V-9.331l-2.322.022v-1.113l3.772-.4Z" transform="translate(745 3783)" fill="#12263f"/>
    <path id="Trazado_830548" data-name="Trazado 830548" d="M7.786-9.529A15.853,15.853,0,0,0,5.054-5.288a11.362,11.362,0,0,0-.71,4.124V0H2.9V-1.165a10.313,10.313,0,0,1,.89-4.354,19.079,19.079,0,0,1,2.574-4.01H.71v-1.135H7.786Z" transform="translate(281 3809)" fill="#12263f"/>
    <path id="Trazado_830549" data-name="Trazado 830549" d="M7.786-9.529A15.853,15.853,0,0,0,5.054-5.288a11.362,11.362,0,0,0-.71,4.124V0H2.9V-1.165a10.313,10.313,0,0,1,.89-4.354,19.079,19.079,0,0,1,2.574-4.01H.71v-1.135H7.786Z" transform="translate(379 3809)" fill="#12263f"/>
    <path id="Trazado_830550" data-name="Trazado 830550" d="M7.4-7.939a2.4,2.4,0,0,1-.469,1.469,2.839,2.839,0,0,1-1.245.948,3.125,3.125,0,0,1,1.458,1A2.476,2.476,0,0,1,7.69-2.93,2.815,2.815,0,0,1,6.735-.652,3.649,3.649,0,0,1,4.3.154,3.932,3.932,0,0,1,1.74-.652,2.767,2.767,0,0,1,.747-2.93a2.445,2.445,0,0,1,.56-1.589A3.23,3.23,0,0,1,2.82-5.53a2.81,2.81,0,0,1-1.3-.941,2.378,2.378,0,0,1-.476-1.469,2.613,2.613,0,0,1,.9-2.139,3.559,3.559,0,0,1,2.34-.74,3.336,3.336,0,0,1,2.238.743A2.646,2.646,0,0,1,7.4-7.939ZM6.255-2.959a1.938,1.938,0,0,0-.568-1.436,1.912,1.912,0,0,0-1.4-.564,2.092,2.092,0,0,0-1.5.564A1.9,1.9,0,0,0,2.19-2.959a1.866,1.866,0,0,0,.59,1.443A2.158,2.158,0,0,0,4.3-.974a1.921,1.921,0,0,0,1.4-.546A1.918,1.918,0,0,0,6.255-2.959Zm-.3-4.958a1.752,1.752,0,0,0-.48-1.267,1.586,1.586,0,0,0-1.19-.5A1.8,1.8,0,0,0,3-9.2,1.689,1.689,0,0,0,2.49-7.917,1.769,1.769,0,0,0,3-6.6a1.771,1.771,0,0,0,1.3.505A1.552,1.552,0,0,0,5.482-6.6,1.853,1.853,0,0,0,5.955-7.917Z" transform="translate(478 3809)" fill="#12263f"/>
    <path id="Trazado_830551" data-name="Trazado 830551" d="M5.2,0H3.75V-9.331l-2.322.022v-1.113l3.772-.4Z" transform="translate(576 3809)" fill="#12263f"/>
    <path id="Trazado_830552" data-name="Trazado 830552" d="M5.2,0H3.75V-9.331l-2.322.022v-1.113l3.772-.4Z" transform="translate(674 3809)" fill="#12263f"/>
    <path id="Trazado_830553" data-name="Trazado 830553" d="M5.2,0H3.75V-9.331l-2.322.022v-1.113l3.772-.4Z" transform="translate(772 3809)" fill="#12263f"/>
    <path id="Trazado_830554" data-name="Trazado 830554" d="M7.786-9.529A15.853,15.853,0,0,0,5.054-5.288a11.362,11.362,0,0,0-.71,4.124V0H2.9V-1.165a10.313,10.313,0,0,1,.89-4.354,19.079,19.079,0,0,1,2.574-4.01H.71v-1.135H7.786Z" transform="translate(254 3809)" fill="#12263f"/>
    <path id="Trazado_830555" data-name="Trazado 830555" d="M7.786-9.529A15.853,15.853,0,0,0,5.054-5.288a11.362,11.362,0,0,0-.71,4.124V0H2.9V-1.165a10.313,10.313,0,0,1,.89-4.354,19.079,19.079,0,0,1,2.574-4.01H.71v-1.135H7.786Z" transform="translate(352 3809)" fill="#12263f"/>
    <path id="Trazado_830556" data-name="Trazado 830556" d="M7.786-9.529A15.853,15.853,0,0,0,5.054-5.288a11.362,11.362,0,0,0-.71,4.124V0H2.9V-1.165a10.313,10.313,0,0,1,.89-4.354,19.079,19.079,0,0,1,2.574-4.01H.71v-1.135H7.786Z" transform="translate(451 3809)" fill="#12263f"/>
    <path id="Trazado_830557" data-name="Trazado 830557" d="M7.786-9.529A15.853,15.853,0,0,0,5.054-5.288a11.362,11.362,0,0,0-.71,4.124V0H2.9V-1.165a10.313,10.313,0,0,1,.89-4.354,19.079,19.079,0,0,1,2.574-4.01H.71v-1.135H7.786Z" transform="translate(549 3809)" fill="#12263f"/>
    <path id="Trazado_830558" data-name="Trazado 830558" d="M7.786-9.529A15.853,15.853,0,0,0,5.054-5.288a11.362,11.362,0,0,0-.71,4.124V0H2.9V-1.165a10.313,10.313,0,0,1,.89-4.354,19.079,19.079,0,0,1,2.574-4.01H.71v-1.135H7.786Z" transform="translate(647 3809)" fill="#12263f"/>
    <path id="Trazado_830559" data-name="Trazado 830559" d="M7.786-9.529A15.853,15.853,0,0,0,5.054-5.288a11.362,11.362,0,0,0-.71,4.124V0H2.9V-1.165a10.313,10.313,0,0,1,.89-4.354,19.079,19.079,0,0,1,2.574-4.01H.71v-1.135H7.786Z" transform="translate(745 3809)" fill="#12263f"/>
    <path id="Trazado_830560" data-name="Trazado 830560" d="M5.2,0H3.75V-9.331l-2.322.022v-1.113l3.772-.4Z" transform="translate(281 3834)" fill="#12263f"/>
    <path id="Trazado_830561" data-name="Trazado 830561" d="M5.2,0H3.75V-9.331l-2.322.022v-1.113l3.772-.4Z" transform="translate(379 3834)" fill="#12263f"/>
    <path id="Trazado_830562" data-name="Trazado 830562" d="M5.2,0H3.75V-9.331l-2.322.022v-1.113l3.772-.4Z" transform="translate(478 3834)" fill="#12263f"/>
    <path id="Trazado_830563" data-name="Trazado 830563" d="M7.4-7.939a2.4,2.4,0,0,1-.469,1.469,2.839,2.839,0,0,1-1.245.948,3.125,3.125,0,0,1,1.458,1A2.476,2.476,0,0,1,7.69-2.93,2.815,2.815,0,0,1,6.735-.652,3.649,3.649,0,0,1,4.3.154,3.932,3.932,0,0,1,1.74-.652,2.767,2.767,0,0,1,.747-2.93a2.445,2.445,0,0,1,.56-1.589A3.23,3.23,0,0,1,2.82-5.53a2.81,2.81,0,0,1-1.3-.941,2.378,2.378,0,0,1-.476-1.469,2.613,2.613,0,0,1,.9-2.139,3.559,3.559,0,0,1,2.34-.74,3.336,3.336,0,0,1,2.238.743A2.646,2.646,0,0,1,7.4-7.939ZM6.255-2.959a1.938,1.938,0,0,0-.568-1.436,1.912,1.912,0,0,0-1.4-.564,2.092,2.092,0,0,0-1.5.564A1.9,1.9,0,0,0,2.19-2.959a1.866,1.866,0,0,0,.59,1.443A2.158,2.158,0,0,0,4.3-.974a1.921,1.921,0,0,0,1.4-.546A1.918,1.918,0,0,0,6.255-2.959Zm-.3-4.958a1.752,1.752,0,0,0-.48-1.267,1.586,1.586,0,0,0-1.19-.5A1.8,1.8,0,0,0,3-9.2,1.689,1.689,0,0,0,2.49-7.917,1.769,1.769,0,0,0,3-6.6a1.771,1.771,0,0,0,1.3.505A1.552,1.552,0,0,0,5.482-6.6,1.853,1.853,0,0,0,5.955-7.917Z" transform="translate(576 3834)" fill="#12263f"/>
    <path id="Trazado_830564" data-name="Trazado 830564" d="M4.241-6.064a1.691,1.691,0,0,0,1.366-.48,2.043,2.043,0,0,0,.4-1.344,1.894,1.894,0,0,0-.436-1.3,1.632,1.632,0,0,0-1.293-.494A1.929,1.929,0,0,0,2.9-9.166a1.706,1.706,0,0,0-.546,1.293H.974L.952-7.917A2.548,2.548,0,0,1,1.86-9.968a3.478,3.478,0,0,1,2.417-.85,3.377,3.377,0,0,1,2.329.751,2.8,2.8,0,0,1,.842,2.208A2.484,2.484,0,0,1,7.057-6.5a2.642,2.642,0,0,1-1.095.959,2.52,2.52,0,0,1,1.227.978A2.872,2.872,0,0,1,7.61-2.974a2.927,2.927,0,0,1-.927,2.3A3.466,3.466,0,0,1,4.277.154a3.81,3.81,0,0,1-2.4-.8,2.456,2.456,0,0,1-1-2.12l.015-.044H2.271a1.73,1.73,0,0,0,.56,1.307,2.017,2.017,0,0,0,1.447.531A1.794,1.794,0,0,0,5.662-1.52a2.013,2.013,0,0,0,.505-1.425,2.131,2.131,0,0,0-.465-1.5,1.913,1.913,0,0,0-1.461-.5H3.054V-6.064Z" transform="translate(674 3834)" fill="#12263f"/>
    <path id="Trazado_830565" data-name="Trazado 830565" d="M4.241-6.064a1.691,1.691,0,0,0,1.366-.48,2.043,2.043,0,0,0,.4-1.344,1.894,1.894,0,0,0-.436-1.3,1.632,1.632,0,0,0-1.293-.494A1.929,1.929,0,0,0,2.9-9.166a1.706,1.706,0,0,0-.546,1.293H.974L.952-7.917A2.548,2.548,0,0,1,1.86-9.968a3.478,3.478,0,0,1,2.417-.85,3.377,3.377,0,0,1,2.329.751,2.8,2.8,0,0,1,.842,2.208A2.484,2.484,0,0,1,7.057-6.5a2.642,2.642,0,0,1-1.095.959,2.52,2.52,0,0,1,1.227.978A2.872,2.872,0,0,1,7.61-2.974a2.927,2.927,0,0,1-.927,2.3A3.466,3.466,0,0,1,4.277.154a3.81,3.81,0,0,1-2.4-.8,2.456,2.456,0,0,1-1-2.12l.015-.044H2.271a1.73,1.73,0,0,0,.56,1.307,2.017,2.017,0,0,0,1.447.531A1.794,1.794,0,0,0,5.662-1.52a2.013,2.013,0,0,0,.505-1.425,2.131,2.131,0,0,0-.465-1.5,1.913,1.913,0,0,0-1.461-.5H3.054V-6.064Z" transform="translate(772 3834)" fill="#12263f"/>
    <path id="Trazado_830566" data-name="Trazado 830566" d="M5.2,0H3.75V-9.331l-2.322.022v-1.113l3.772-.4Z" transform="translate(254 3834)" fill="#12263f"/>
    <path id="Trazado_830567" data-name="Trazado 830567" d="M5.2,0H3.75V-9.331l-2.322.022v-1.113l3.772-.4Z" transform="translate(352 3834)" fill="#12263f"/>
    <path id="Trazado_830568" data-name="Trazado 830568" d="M5.2,0H3.75V-9.331l-2.322.022v-1.113l3.772-.4Z" transform="translate(451 3834)" fill="#12263f"/>
    <path id="Trazado_830569" data-name="Trazado 830569" d="M5.2,0H3.75V-9.331l-2.322.022v-1.113l3.772-.4Z" transform="translate(549 3834)" fill="#12263f"/>
    <path id="Trazado_830570" data-name="Trazado 830570" d="M5.2,0H3.75V-9.331l-2.322.022v-1.113l3.772-.4Z" transform="translate(647 3834)" fill="#12263f"/>
    <path id="Trazado_830571" data-name="Trazado 830571" d="M5.2,0H3.75V-9.331l-2.322.022v-1.113l3.772-.4Z" transform="translate(745 3834)" fill="#12263f"/>
    <path id="Trazado_830572" data-name="Trazado 830572" d="M4.241-6.064a1.691,1.691,0,0,0,1.366-.48,2.043,2.043,0,0,0,.4-1.344,1.894,1.894,0,0,0-.436-1.3,1.632,1.632,0,0,0-1.293-.494A1.929,1.929,0,0,0,2.9-9.166a1.706,1.706,0,0,0-.546,1.293H.974L.952-7.917A2.548,2.548,0,0,1,1.86-9.968a3.478,3.478,0,0,1,2.417-.85,3.377,3.377,0,0,1,2.329.751,2.8,2.8,0,0,1,.842,2.208A2.484,2.484,0,0,1,7.057-6.5a2.642,2.642,0,0,1-1.095.959,2.52,2.52,0,0,1,1.227.978A2.872,2.872,0,0,1,7.61-2.974a2.927,2.927,0,0,1-.927,2.3A3.466,3.466,0,0,1,4.277.154a3.81,3.81,0,0,1-2.4-.8,2.456,2.456,0,0,1-1-2.12l.015-.044H2.271a1.73,1.73,0,0,0,.56,1.307,2.017,2.017,0,0,0,1.447.531A1.794,1.794,0,0,0,5.662-1.52a2.013,2.013,0,0,0,.505-1.425,2.131,2.131,0,0,0-.465-1.5,1.913,1.913,0,0,0-1.461-.5H3.054V-6.064Z" transform="translate(281 3860)" fill="#12263f"/>
    <path id="Trazado_830573" data-name="Trazado 830573" d="M4.241-6.064a1.691,1.691,0,0,0,1.366-.48,2.043,2.043,0,0,0,.4-1.344,1.894,1.894,0,0,0-.436-1.3,1.632,1.632,0,0,0-1.293-.494A1.929,1.929,0,0,0,2.9-9.166a1.706,1.706,0,0,0-.546,1.293H.974L.952-7.917A2.548,2.548,0,0,1,1.86-9.968a3.478,3.478,0,0,1,2.417-.85,3.377,3.377,0,0,1,2.329.751,2.8,2.8,0,0,1,.842,2.208A2.484,2.484,0,0,1,7.057-6.5a2.642,2.642,0,0,1-1.095.959,2.52,2.52,0,0,1,1.227.978A2.872,2.872,0,0,1,7.61-2.974a2.927,2.927,0,0,1-.927,2.3A3.466,3.466,0,0,1,4.277.154a3.81,3.81,0,0,1-2.4-.8,2.456,2.456,0,0,1-1-2.12l.015-.044H2.271a1.73,1.73,0,0,0,.56,1.307,2.017,2.017,0,0,0,1.447.531A1.794,1.794,0,0,0,5.662-1.52a2.013,2.013,0,0,0,.505-1.425,2.131,2.131,0,0,0-.465-1.5,1.913,1.913,0,0,0-1.461-.5H3.054V-6.064Z" transform="translate(379 3860)" fill="#12263f"/>
    <path id="Trazado_830574" data-name="Trazado 830574" d="M4.241-6.064a1.691,1.691,0,0,0,1.366-.48,2.043,2.043,0,0,0,.4-1.344,1.894,1.894,0,0,0-.436-1.3,1.632,1.632,0,0,0-1.293-.494A1.929,1.929,0,0,0,2.9-9.166a1.706,1.706,0,0,0-.546,1.293H.974L.952-7.917A2.548,2.548,0,0,1,1.86-9.968a3.478,3.478,0,0,1,2.417-.85,3.377,3.377,0,0,1,2.329.751,2.8,2.8,0,0,1,.842,2.208A2.484,2.484,0,0,1,7.057-6.5a2.642,2.642,0,0,1-1.095.959,2.52,2.52,0,0,1,1.227.978A2.872,2.872,0,0,1,7.61-2.974a2.927,2.927,0,0,1-.927,2.3A3.466,3.466,0,0,1,4.277.154a3.81,3.81,0,0,1-2.4-.8,2.456,2.456,0,0,1-1-2.12l.015-.044H2.271a1.73,1.73,0,0,0,.56,1.307,2.017,2.017,0,0,0,1.447.531A1.794,1.794,0,0,0,5.662-1.52a2.013,2.013,0,0,0,.505-1.425,2.131,2.131,0,0,0-.465-1.5,1.913,1.913,0,0,0-1.461-.5H3.054V-6.064Z" transform="translate(478 3860)" fill="#12263f"/>
    <path id="Trazado_830575" data-name="Trazado 830575" d="M4.241-6.064a1.691,1.691,0,0,0,1.366-.48,2.043,2.043,0,0,0,.4-1.344,1.894,1.894,0,0,0-.436-1.3,1.632,1.632,0,0,0-1.293-.494A1.929,1.929,0,0,0,2.9-9.166a1.706,1.706,0,0,0-.546,1.293H.974L.952-7.917A2.548,2.548,0,0,1,1.86-9.968a3.478,3.478,0,0,1,2.417-.85,3.377,3.377,0,0,1,2.329.751,2.8,2.8,0,0,1,.842,2.208A2.484,2.484,0,0,1,7.057-6.5a2.642,2.642,0,0,1-1.095.959,2.52,2.52,0,0,1,1.227.978A2.872,2.872,0,0,1,7.61-2.974a2.927,2.927,0,0,1-.927,2.3A3.466,3.466,0,0,1,4.277.154a3.81,3.81,0,0,1-2.4-.8,2.456,2.456,0,0,1-1-2.12l.015-.044H2.271a1.73,1.73,0,0,0,.56,1.307,2.017,2.017,0,0,0,1.447.531A1.794,1.794,0,0,0,5.662-1.52a2.013,2.013,0,0,0,.505-1.425,2.131,2.131,0,0,0-.465-1.5,1.913,1.913,0,0,0-1.461-.5H3.054V-6.064Z" transform="translate(576 3860)" fill="#12263f"/>
    <path id="Trazado_830576" data-name="Trazado 830576" d="M7.4-7.939a2.4,2.4,0,0,1-.469,1.469,2.839,2.839,0,0,1-1.245.948,3.125,3.125,0,0,1,1.458,1A2.476,2.476,0,0,1,7.69-2.93,2.815,2.815,0,0,1,6.735-.652,3.649,3.649,0,0,1,4.3.154,3.932,3.932,0,0,1,1.74-.652,2.767,2.767,0,0,1,.747-2.93a2.445,2.445,0,0,1,.56-1.589A3.23,3.23,0,0,1,2.82-5.53a2.81,2.81,0,0,1-1.3-.941,2.378,2.378,0,0,1-.476-1.469,2.613,2.613,0,0,1,.9-2.139,3.559,3.559,0,0,1,2.34-.74,3.336,3.336,0,0,1,2.238.743A2.646,2.646,0,0,1,7.4-7.939ZM6.255-2.959a1.938,1.938,0,0,0-.568-1.436,1.912,1.912,0,0,0-1.4-.564,2.092,2.092,0,0,0-1.5.564A1.9,1.9,0,0,0,2.19-2.959a1.866,1.866,0,0,0,.59,1.443A2.158,2.158,0,0,0,4.3-.974a1.921,1.921,0,0,0,1.4-.546A1.918,1.918,0,0,0,6.255-2.959Zm-.3-4.958a1.752,1.752,0,0,0-.48-1.267,1.586,1.586,0,0,0-1.19-.5A1.8,1.8,0,0,0,3-9.2,1.689,1.689,0,0,0,2.49-7.917,1.769,1.769,0,0,0,3-6.6a1.771,1.771,0,0,0,1.3.505A1.552,1.552,0,0,0,5.482-6.6,1.853,1.853,0,0,0,5.955-7.917Z" transform="translate(674 3860)" fill="#12263f"/>
    <path id="Trazado_830577" data-name="Trazado 830577" d="M4.695-10.818a6.261,6.261,0,0,1,1.245.125,4.5,4.5,0,0,1,1.018.315L6.65-9.272a5.389,5.389,0,0,0-.879-.3,4.539,4.539,0,0,0-1.077-.114,1.931,1.931,0,0,0-1.63.857,3.579,3.579,0,0,0-.626,2.168v.828a3.262,3.262,0,0,1,1.058-.7A3.366,3.366,0,0,1,4.812-6.79a2.738,2.738,0,0,1,2.179.923,3.564,3.564,0,0,1,.8,2.424A3.722,3.722,0,0,1,6.9-.824,3.124,3.124,0,0,1,4.475.154,3.174,3.174,0,0,1,2-.97,4.469,4.469,0,0,1,1-4.043V-6.5a4.546,4.546,0,0,1,1.066-3.1A3.349,3.349,0,0,1,4.695-10.818Zm-.344,5.1a2.247,2.247,0,0,0-1.168.289,1.936,1.936,0,0,0-.743.78v.74a3.5,3.5,0,0,0,.59,2.142,1.755,1.755,0,0,0,1.447.787,1.6,1.6,0,0,0,1.388-.685A3.009,3.009,0,0,0,6.35-3.442,2.469,2.469,0,0,0,5.826-5.1,1.832,1.832,0,0,0,4.351-5.713Z" transform="translate(772 3860)" fill="#12263f"/>
    <path id="Trazado_830578" data-name="Trazado 830578" d="M6.541-3.589H8.013v1.128H6.541V0H5.1V-2.461H.527v-.813l4.49-7.39H6.541Zm-4.468,0H5.1v-5L5.061-8.6l-.139.366Z" transform="translate(254 3860)" fill="#12263f"/>
    <path id="Trazado_830579" data-name="Trazado 830579" d="M6.541-3.589H8.013v1.128H6.541V0H5.1V-2.461H.527v-.813l4.49-7.39H6.541Zm-4.468,0H5.1v-5L5.061-8.6l-.139.366Z" transform="translate(352 3860)" fill="#12263f"/>
    <path id="Trazado_830580" data-name="Trazado 830580" d="M6.541-3.589H8.013v1.128H6.541V0H5.1V-2.461H.527v-.813l4.49-7.39H6.541Zm-4.468,0H5.1v-5L5.061-8.6l-.139.366Z" transform="translate(451 3860)" fill="#12263f"/>
    <path id="Trazado_830581" data-name="Trazado 830581" d="M6.541-3.589H8.013v1.128H6.541V0H5.1V-2.461H.527v-.813l4.49-7.39H6.541Zm-4.468,0H5.1v-5L5.061-8.6l-.139.366Z" transform="translate(549 3860)" fill="#12263f"/>
    <path id="Trazado_830582" data-name="Trazado 830582" d="M6.541-3.589H8.013v1.128H6.541V0H5.1V-2.461H.527v-.813l4.49-7.39H6.541Zm-4.468,0H5.1v-5L5.061-8.6l-.139.366Z" transform="translate(647 3860)" fill="#12263f"/>
    <path id="Trazado_830583" data-name="Trazado 830583" d="M6.541-3.589H8.013v1.128H6.541V0H5.1V-2.461H.527v-.813l4.49-7.39H6.541Zm-4.468,0H5.1v-5L5.061-8.6l-.139.366Z" transform="translate(745 3860)" fill="#12263f"/>
    <path id="Trazado_830584" data-name="Trazado 830584" d="M4.695-10.818a6.261,6.261,0,0,1,1.245.125,4.5,4.5,0,0,1,1.018.315L6.65-9.272a5.389,5.389,0,0,0-.879-.3,4.539,4.539,0,0,0-1.077-.114,1.931,1.931,0,0,0-1.63.857,3.579,3.579,0,0,0-.626,2.168v.828a3.262,3.262,0,0,1,1.058-.7A3.366,3.366,0,0,1,4.812-6.79a2.738,2.738,0,0,1,2.179.923,3.564,3.564,0,0,1,.8,2.424A3.722,3.722,0,0,1,6.9-.824,3.124,3.124,0,0,1,4.475.154,3.174,3.174,0,0,1,2-.97,4.469,4.469,0,0,1,1-4.043V-6.5a4.546,4.546,0,0,1,1.066-3.1A3.349,3.349,0,0,1,4.695-10.818Zm-.344,5.1a2.247,2.247,0,0,0-1.168.289,1.936,1.936,0,0,0-.743.78v.74a3.5,3.5,0,0,0,.59,2.142,1.755,1.755,0,0,0,1.447.787,1.6,1.6,0,0,0,1.388-.685A3.009,3.009,0,0,0,6.35-3.442,2.469,2.469,0,0,0,5.826-5.1,1.832,1.832,0,0,0,4.351-5.713Z" transform="translate(281 3886)" fill="#12263f"/>
    <path id="Trazado_830585" data-name="Trazado 830585" d="M4.695-10.818a6.261,6.261,0,0,1,1.245.125,4.5,4.5,0,0,1,1.018.315L6.65-9.272a5.389,5.389,0,0,0-.879-.3,4.539,4.539,0,0,0-1.077-.114,1.931,1.931,0,0,0-1.63.857,3.579,3.579,0,0,0-.626,2.168v.828a3.262,3.262,0,0,1,1.058-.7A3.366,3.366,0,0,1,4.812-6.79a2.738,2.738,0,0,1,2.179.923,3.564,3.564,0,0,1,.8,2.424A3.722,3.722,0,0,1,6.9-.824,3.124,3.124,0,0,1,4.475.154,3.174,3.174,0,0,1,2-.97,4.469,4.469,0,0,1,1-4.043V-6.5a4.546,4.546,0,0,1,1.066-3.1A3.349,3.349,0,0,1,4.695-10.818Zm-.344,5.1a2.247,2.247,0,0,0-1.168.289,1.936,1.936,0,0,0-.743.78v.74a3.5,3.5,0,0,0,.59,2.142,1.755,1.755,0,0,0,1.447.787,1.6,1.6,0,0,0,1.388-.685A3.009,3.009,0,0,0,6.35-3.442,2.469,2.469,0,0,0,5.826-5.1,1.832,1.832,0,0,0,4.351-5.713Z" transform="translate(379 3886)" fill="#12263f"/>
    <path id="Trazado_830586" data-name="Trazado 830586" d="M4.695-10.818a6.261,6.261,0,0,1,1.245.125,4.5,4.5,0,0,1,1.018.315L6.65-9.272a5.389,5.389,0,0,0-.879-.3,4.539,4.539,0,0,0-1.077-.114,1.931,1.931,0,0,0-1.63.857,3.579,3.579,0,0,0-.626,2.168v.828a3.262,3.262,0,0,1,1.058-.7A3.366,3.366,0,0,1,4.812-6.79a2.738,2.738,0,0,1,2.179.923,3.564,3.564,0,0,1,.8,2.424A3.722,3.722,0,0,1,6.9-.824,3.124,3.124,0,0,1,4.475.154,3.174,3.174,0,0,1,2-.97,4.469,4.469,0,0,1,1-4.043V-6.5a4.546,4.546,0,0,1,1.066-3.1A3.349,3.349,0,0,1,4.695-10.818Zm-.344,5.1a2.247,2.247,0,0,0-1.168.289,1.936,1.936,0,0,0-.743.78v.74a3.5,3.5,0,0,0,.59,2.142,1.755,1.755,0,0,0,1.447.787,1.6,1.6,0,0,0,1.388-.685A3.009,3.009,0,0,0,6.35-3.442,2.469,2.469,0,0,0,5.826-5.1,1.832,1.832,0,0,0,4.351-5.713Z" transform="translate(478 3886)" fill="#12263f"/>
    <path id="Trazado_830587" data-name="Trazado 830587" d="M4.695-10.818a6.261,6.261,0,0,1,1.245.125,4.5,4.5,0,0,1,1.018.315L6.65-9.272a5.389,5.389,0,0,0-.879-.3,4.539,4.539,0,0,0-1.077-.114,1.931,1.931,0,0,0-1.63.857,3.579,3.579,0,0,0-.626,2.168v.828a3.262,3.262,0,0,1,1.058-.7A3.366,3.366,0,0,1,4.812-6.79a2.738,2.738,0,0,1,2.179.923,3.564,3.564,0,0,1,.8,2.424A3.722,3.722,0,0,1,6.9-.824,3.124,3.124,0,0,1,4.475.154,3.174,3.174,0,0,1,2-.97,4.469,4.469,0,0,1,1-4.043V-6.5a4.546,4.546,0,0,1,1.066-3.1A3.349,3.349,0,0,1,4.695-10.818Zm-.344,5.1a2.247,2.247,0,0,0-1.168.289,1.936,1.936,0,0,0-.743.78v.74a3.5,3.5,0,0,0,.59,2.142,1.755,1.755,0,0,0,1.447.787,1.6,1.6,0,0,0,1.388-.685A3.009,3.009,0,0,0,6.35-3.442,2.469,2.469,0,0,0,5.826-5.1,1.832,1.832,0,0,0,4.351-5.713Z" transform="translate(576 3886)" fill="#12263f"/>
    <path id="Trazado_830588" data-name="Trazado 830588" d="M4.695-10.818a6.261,6.261,0,0,1,1.245.125,4.5,4.5,0,0,1,1.018.315L6.65-9.272a5.389,5.389,0,0,0-.879-.3,4.539,4.539,0,0,0-1.077-.114,1.931,1.931,0,0,0-1.63.857,3.579,3.579,0,0,0-.626,2.168v.828a3.262,3.262,0,0,1,1.058-.7A3.366,3.366,0,0,1,4.812-6.79a2.738,2.738,0,0,1,2.179.923,3.564,3.564,0,0,1,.8,2.424A3.722,3.722,0,0,1,6.9-.824,3.124,3.124,0,0,1,4.475.154,3.174,3.174,0,0,1,2-.97,4.469,4.469,0,0,1,1-4.043V-6.5a4.546,4.546,0,0,1,1.066-3.1A3.349,3.349,0,0,1,4.695-10.818Zm-.344,5.1a2.247,2.247,0,0,0-1.168.289,1.936,1.936,0,0,0-.743.78v.74a3.5,3.5,0,0,0,.59,2.142,1.755,1.755,0,0,0,1.447.787,1.6,1.6,0,0,0,1.388-.685A3.009,3.009,0,0,0,6.35-3.442,2.469,2.469,0,0,0,5.826-5.1,1.832,1.832,0,0,0,4.351-5.713Z" transform="translate(674 3886)" fill="#12263f"/>
    <path id="Trazado_830589" data-name="Trazado 830589" d="M7.4-7.939a2.4,2.4,0,0,1-.469,1.469,2.839,2.839,0,0,1-1.245.948,3.125,3.125,0,0,1,1.458,1A2.476,2.476,0,0,1,7.69-2.93,2.815,2.815,0,0,1,6.735-.652,3.649,3.649,0,0,1,4.3.154,3.932,3.932,0,0,1,1.74-.652,2.767,2.767,0,0,1,.747-2.93a2.445,2.445,0,0,1,.56-1.589A3.23,3.23,0,0,1,2.82-5.53a2.81,2.81,0,0,1-1.3-.941,2.378,2.378,0,0,1-.476-1.469,2.613,2.613,0,0,1,.9-2.139,3.559,3.559,0,0,1,2.34-.74,3.336,3.336,0,0,1,2.238.743A2.646,2.646,0,0,1,7.4-7.939ZM6.255-2.959a1.938,1.938,0,0,0-.568-1.436,1.912,1.912,0,0,0-1.4-.564,2.092,2.092,0,0,0-1.5.564A1.9,1.9,0,0,0,2.19-2.959a1.866,1.866,0,0,0,.59,1.443A2.158,2.158,0,0,0,4.3-.974a1.921,1.921,0,0,0,1.4-.546A1.918,1.918,0,0,0,6.255-2.959Zm-.3-4.958a1.752,1.752,0,0,0-.48-1.267,1.586,1.586,0,0,0-1.19-.5A1.8,1.8,0,0,0,3-9.2,1.689,1.689,0,0,0,2.49-7.917,1.769,1.769,0,0,0,3-6.6a1.771,1.771,0,0,0,1.3.505A1.552,1.552,0,0,0,5.482-6.6,1.853,1.853,0,0,0,5.955-7.917Z" transform="translate(772 3886)" fill="#12263f"/>
    <path id="Trazado_830590" data-name="Trazado 830590" d="M1.282-4.739,1.9-10.664H7.236v1.282H3.113L2.769-6.313a3.292,3.292,0,0,1,.762-.421,2.679,2.679,0,0,1,.952-.172A2.9,2.9,0,0,1,6.8-5.98,3.742,3.742,0,0,1,7.639-3.4,3.751,3.751,0,0,1,6.779-.82,3.17,3.17,0,0,1,4.27.154a3.437,3.437,0,0,1-2.256-.74A2.56,2.56,0,0,1,1.15-2.761l.015-.044h1.3a1.781,1.781,0,0,0,.5,1.351,1.8,1.8,0,0,0,1.3.48,1.7,1.7,0,0,0,1.421-.645A2.79,2.79,0,0,0,6.2-3.384a2.541,2.541,0,0,0-.509-1.648,1.721,1.721,0,0,0-1.417-.63,2.265,2.265,0,0,0-1.23.256,1.5,1.5,0,0,0-.564.791Z" transform="translate(254 3886)" fill="#12263f"/>
    <path id="Trazado_830591" data-name="Trazado 830591" d="M1.282-4.739,1.9-10.664H7.236v1.282H3.113L2.769-6.313a3.292,3.292,0,0,1,.762-.421,2.679,2.679,0,0,1,.952-.172A2.9,2.9,0,0,1,6.8-5.98,3.742,3.742,0,0,1,7.639-3.4,3.751,3.751,0,0,1,6.779-.82,3.17,3.17,0,0,1,4.27.154a3.437,3.437,0,0,1-2.256-.74A2.56,2.56,0,0,1,1.15-2.761l.015-.044h1.3a1.781,1.781,0,0,0,.5,1.351,1.8,1.8,0,0,0,1.3.48,1.7,1.7,0,0,0,1.421-.645A2.79,2.79,0,0,0,6.2-3.384a2.541,2.541,0,0,0-.509-1.648,1.721,1.721,0,0,0-1.417-.63,2.265,2.265,0,0,0-1.23.256,1.5,1.5,0,0,0-.564.791Z" transform="translate(352 3886)" fill="#12263f"/>
    <path id="Trazado_830592" data-name="Trazado 830592" d="M1.282-4.739,1.9-10.664H7.236v1.282H3.113L2.769-6.313a3.292,3.292,0,0,1,.762-.421,2.679,2.679,0,0,1,.952-.172A2.9,2.9,0,0,1,6.8-5.98,3.742,3.742,0,0,1,7.639-3.4,3.751,3.751,0,0,1,6.779-.82,3.17,3.17,0,0,1,4.27.154a3.437,3.437,0,0,1-2.256-.74A2.56,2.56,0,0,1,1.15-2.761l.015-.044h1.3a1.781,1.781,0,0,0,.5,1.351,1.8,1.8,0,0,0,1.3.48,1.7,1.7,0,0,0,1.421-.645A2.79,2.79,0,0,0,6.2-3.384a2.541,2.541,0,0,0-.509-1.648,1.721,1.721,0,0,0-1.417-.63,2.265,2.265,0,0,0-1.23.256,1.5,1.5,0,0,0-.564.791Z" transform="translate(451 3886)" fill="#12263f"/>
    <path id="Trazado_830593" data-name="Trazado 830593" d="M1.282-4.739,1.9-10.664H7.236v1.282H3.113L2.769-6.313a3.292,3.292,0,0,1,.762-.421,2.679,2.679,0,0,1,.952-.172A2.9,2.9,0,0,1,6.8-5.98,3.742,3.742,0,0,1,7.639-3.4,3.751,3.751,0,0,1,6.779-.82,3.17,3.17,0,0,1,4.27.154a3.437,3.437,0,0,1-2.256-.74A2.56,2.56,0,0,1,1.15-2.761l.015-.044h1.3a1.781,1.781,0,0,0,.5,1.351,1.8,1.8,0,0,0,1.3.48,1.7,1.7,0,0,0,1.421-.645A2.79,2.79,0,0,0,6.2-3.384a2.541,2.541,0,0,0-.509-1.648,1.721,1.721,0,0,0-1.417-.63,2.265,2.265,0,0,0-1.23.256,1.5,1.5,0,0,0-.564.791Z" transform="translate(549 3886)" fill="#12263f"/>
    <path id="Trazado_830594" data-name="Trazado 830594" d="M1.282-4.739,1.9-10.664H7.236v1.282H3.113L2.769-6.313a3.292,3.292,0,0,1,.762-.421,2.679,2.679,0,0,1,.952-.172A2.9,2.9,0,0,1,6.8-5.98,3.742,3.742,0,0,1,7.639-3.4,3.751,3.751,0,0,1,6.779-.82,3.17,3.17,0,0,1,4.27.154a3.437,3.437,0,0,1-2.256-.74A2.56,2.56,0,0,1,1.15-2.761l.015-.044h1.3a1.781,1.781,0,0,0,.5,1.351,1.8,1.8,0,0,0,1.3.48,1.7,1.7,0,0,0,1.421-.645A2.79,2.79,0,0,0,6.2-3.384a2.541,2.541,0,0,0-.509-1.648,1.721,1.721,0,0,0-1.417-.63,2.265,2.265,0,0,0-1.23.256,1.5,1.5,0,0,0-.564.791Z" transform="translate(647 3886)" fill="#12263f"/>
    <path id="Trazado_830595" data-name="Trazado 830595" d="M1.282-4.739,1.9-10.664H7.236v1.282H3.113L2.769-6.313a3.292,3.292,0,0,1,.762-.421,2.679,2.679,0,0,1,.952-.172A2.9,2.9,0,0,1,6.8-5.98,3.742,3.742,0,0,1,7.639-3.4,3.751,3.751,0,0,1,6.779-.82,3.17,3.17,0,0,1,4.27.154a3.437,3.437,0,0,1-2.256-.74A2.56,2.56,0,0,1,1.15-2.761l.015-.044h1.3a1.781,1.781,0,0,0,.5,1.351,1.8,1.8,0,0,0,1.3.48,1.7,1.7,0,0,0,1.421-.645A2.79,2.79,0,0,0,6.2-3.384a2.541,2.541,0,0,0-.509-1.648,1.721,1.721,0,0,0-1.417-.63,2.265,2.265,0,0,0-1.23.256,1.5,1.5,0,0,0-.564.791Z" transform="translate(745 3886)" fill="#12263f"/>
    <path id="Trazado_826253" data-name="Trazado 826253" d="M-8480-7938.856h29.228" transform="translate(8750.5 11704)" fill="none" stroke="#273a89" stroke-width="1"/>
    <path id="Trazado_826264" data-name="Trazado 826264" d="M-8480-7938.856h29.228" transform="translate(8848.5 11704)" fill="none" stroke="#273a89" stroke-width="1"/>
    <path id="Trazado_826273" data-name="Trazado 826273" d="M-8480-7938.856h29.228" transform="translate(8947.5 11704)" fill="none" stroke="#273a89" stroke-width="1"/>
    <path id="Trazado_826280" data-name="Trazado 826280" d="M-8480-7938.856h29.228" transform="translate(9045.5 11704)" fill="none" stroke="#273a89" stroke-width="1"/>
    <path id="Trazado_826283" data-name="Trazado 826283" d="M-8480-7938.856h29.228" transform="translate(9143.5 11704)" fill="none" stroke="#273a89" stroke-width="1"/>
    <path id="Trazado_826290" data-name="Trazado 826290" d="M-8480-7938.856h29.228" transform="translate(9241.5 11704)" fill="none" stroke="#273a89" stroke-width="1"/>
    <path id="Trazado_826254" data-name="Trazado 826254" d="M-8480-7938.856h29.228" transform="translate(8750.5 11727.713)" fill="none" stroke="#273a89" stroke-width="1"/>
    <path id="Trazado_826261" data-name="Trazado 826261" d="M-8480-7938.856h29.228" transform="translate(8848.5 11727.713)" fill="none" stroke="#273a89" stroke-width="1"/>
    <path id="Trazado_826268" data-name="Trazado 826268" d="M-8480-7938.856h29.228" transform="translate(8947.5 11727.713)" fill="none" stroke="#273a89" stroke-width="1"/>
    <path id="Trazado_826276" data-name="Trazado 826276" d="M-8480-7938.856h29.228" transform="translate(9045.5 11727.713)" fill="none" stroke="#273a89" stroke-width="1"/>
    <path id="Trazado_826284" data-name="Trazado 826284" d="M-8480-7938.856h29.228" transform="translate(9143.5 11727.713)" fill="none" stroke="#273a89" stroke-width="1"/>
    <path id="Trazado_826291" data-name="Trazado 826291" d="M-8480-7938.856h29.228" transform="translate(9241.5 11727.713)" fill="none" stroke="#273a89" stroke-width="1"/>
    <path id="Trazado_826255" data-name="Trazado 826255" d="M-8480-7938.856h29.228" transform="translate(8750.5 11753.713)" fill="none" stroke="#273a89" stroke-width="1"/>
    <path id="Trazado_826262" data-name="Trazado 826262" d="M-8480-7938.856h29.228" transform="translate(8848.5 11753.713)" fill="none" stroke="#273a89" stroke-width="1"/>
    <path id="Trazado_826269" data-name="Trazado 826269" d="M-8480-7938.856h29.228" transform="translate(8947.5 11753.713)" fill="none" stroke="#273a89" stroke-width="1"/>
    <path id="Trazado_826277" data-name="Trazado 826277" d="M-8480-7938.856h29.228" transform="translate(9045.5 11753.713)" fill="none" stroke="#273a89" stroke-width="1"/>
    <path id="Trazado_826285" data-name="Trazado 826285" d="M-8480-7938.856h29.228" transform="translate(9143.5 11753.713)" fill="none" stroke="#273a89" stroke-width="1"/>
    <path id="Trazado_826292" data-name="Trazado 826292" d="M-8480-7938.856h29.228" transform="translate(9241.5 11753.713)" fill="none" stroke="#273a89" stroke-width="1"/>
    <path id="Trazado_826256" data-name="Trazado 826256" d="M-8480-7938.856h29.228" transform="translate(8750.5 11776.855)" fill="none" stroke="#273a89" stroke-width="1"/>
    <path id="Trazado_826263" data-name="Trazado 826263" d="M-8480-7938.856h29.228" transform="translate(8848.5 11776.855)" fill="none" stroke="#273a89" stroke-width="1"/>
    <path id="Trazado_826270" data-name="Trazado 826270" d="M-8480-7938.856h29.228" transform="translate(8947.5 11776.855)" fill="none" stroke="#273a89" stroke-width="1"/>
    <path id="Trazado_826274" data-name="Trazado 826274" d="M-8480-7938.856h29.228" transform="translate(9045.5 11776.855)" fill="none" stroke="#273a89" stroke-width="1"/>
    <path id="Trazado_826286" data-name="Trazado 826286" d="M-8480-7938.856h29.228" transform="translate(9143.5 11776.855)" fill="none" stroke="#273a89" stroke-width="1"/>
    <path id="Trazado_826293" data-name="Trazado 826293" d="M-8480-7938.856h29.228" transform="translate(9241.5 11776.855)" fill="none" stroke="#273a89" stroke-width="1"/>
    <path id="Trazado_826257" data-name="Trazado 826257" d="M-8480-7938.856h29.228" transform="translate(8750.5 11804.713)" fill="none" stroke="#273a89" stroke-width="1"/>
    <path id="Trazado_826260" data-name="Trazado 826260" d="M-8480-7938.856h29.228" transform="translate(8848.5 11804.713)" fill="none" stroke="#273a89" stroke-width="1"/>
    <path id="Trazado_826267" data-name="Trazado 826267" d="M-8480-7938.856h29.228" transform="translate(8947.5 11804.713)" fill="none" stroke="#273a89" stroke-width="1"/>
    <path id="Trazado_826275" data-name="Trazado 826275" d="M-8480-7938.856h29.228" transform="translate(9045.5 11804.713)" fill="none" stroke="#273a89" stroke-width="1"/>
    <path id="Trazado_826287" data-name="Trazado 826287" d="M-8480-7938.856h29.228" transform="translate(9143.5 11804.713)" fill="none" stroke="#273a89" stroke-width="1"/>
    <path id="Trazado_826294" data-name="Trazado 826294" d="M-8480-7938.856h29.228" transform="translate(9241.5 11804.713)" fill="none" stroke="#273a89" stroke-width="1"/>
    <path id="Trazado_826259" data-name="Trazado 826259" d="M-8431.854-7962h13.906" transform="translate(8740.354 11713)" fill="none" stroke="#273a89" stroke-width="1"/>
    <path id="Trazado_826266" data-name="Trazado 826266" d="M-8431.854-7962h13.906" transform="translate(8838.354 11739.145)" fill="none" stroke="#273a89" stroke-width="1"/>
    <path id="Trazado_826271" data-name="Trazado 826271" d="M-8431.854-7962h13.906" transform="translate(8937.354 11767.145)" fill="none" stroke="#273a89" stroke-width="1"/>
    <path id="Trazado_826278" data-name="Trazado 826278" d="M-8431.854-7962h13.906" transform="translate(9035.354 11790.5)" fill="none" stroke="#273a89" stroke-width="1"/>
    <path id="Trazado_826281" data-name="Trazado 826281" d="M-8431.854-7962h13.906" transform="translate(9133.354 11814)" fill="none" stroke="#273a89" stroke-width="1"/>
    <path id="Trazado_826288" data-name="Trazado 826288" d="M-8431.854-7962h13.906" transform="translate(9231.354 11841.644)" fill="none" stroke="#273a89" stroke-width="1"/>
    <path id="Trazado_826258" data-name="Trazado 826258" d="M4.569,1.3,0,0,4.557,7.068l.011-.014.011.014L9.137,0Z" transform="translate(312.033 3746.432) rotate(90)" fill="#273a89"/>
    <path id="Trazado_826265" data-name="Trazado 826265" d="M4.569,1.3,0,0,4.557,7.068l.011-.014.011.014L9.137,0Z" transform="translate(410.033 3772.576) rotate(90)" fill="#273a89"/>
    <path id="Trazado_826272" data-name="Trazado 826272" d="M4.569,1.3,0,0,4.557,7.068l.011-.014.011.014L9.137,0Z" transform="translate(509.033 3800.576) rotate(90)" fill="#273a89"/>
    <path id="Trazado_826279" data-name="Trazado 826279" d="M4.569,1.3,0,0,4.557,7.068l.011-.014.011.014L9.137,0Z" transform="translate(607.033 3823.932) rotate(90)" fill="#273a89"/>
    <path id="Trazado_826282" data-name="Trazado 826282" d="M4.569,1.3,0,0,4.557,7.068l.011-.014.011.014L9.137,0Z" transform="translate(705.033 3847.432) rotate(90)" fill="#273a89"/>
    <path id="Trazado_826289" data-name="Trazado 826289" d="M4.569,1.3,0,0,4.557,7.068l.011-.014.011.014L9.137,0Z" transform="translate(803.033 3875.075) rotate(90)" fill="#273a89"/>
    <path id="Trazado_830596" data-name="Trazado 830596" d="M-39.125,0h-1.354V-9.953h1.354Zm3.486-7.4.1,1.1a2.686,2.686,0,0,1,.926-.913,2.471,2.471,0,0,1,1.268-.325,2.414,2.414,0,0,1,1.853.7,3.076,3.076,0,0,1,.656,2.164V0h-1.347V-4.642a2,2,0,0,0-.386-1.388,1.547,1.547,0,0,0-1.179-.41,2.088,2.088,0,0,0-1.056.25,1.813,1.813,0,0,0-.687.7V0h-1.347V-7.4Zm8.627-1.784V-7.4h1.4v1h-1.4v4.491a1.006,1.006,0,0,0,.215.731.779.779,0,0,0,.571.212,1.251,1.251,0,0,0,.26-.031,1.927,1.927,0,0,0,.239-.065l.185.923a1.19,1.19,0,0,1-.444.2,2.242,2.242,0,0,1-.581.079,1.744,1.744,0,0,1-1.306-.5,2.152,2.152,0,0,1-.485-1.555V-6.4h-1.176v-1h1.176V-9.181ZM-21.106.144A3.129,3.129,0,0,1-23.591-.875a3.92,3.92,0,0,1-.892-2.68v-.3a3.838,3.838,0,0,1,.919-2.635,2.883,2.883,0,0,1,2.246-1.042,2.684,2.684,0,0,1,2.225.923,3.8,3.8,0,0,1,.742,2.454v.711h-4.73l-.021.034A3.057,3.057,0,0,0-22.61-1.6a1.72,1.72,0,0,0,1.5.694,3.388,3.388,0,0,0,1.2-.195,2.678,2.678,0,0,0,.885-.537l.526.875a3.237,3.237,0,0,1-1.046.646A4.167,4.167,0,0,1-21.106.144Zm-.212-6.617a1.464,1.464,0,0,0-1.166.543,2.571,2.571,0,0,0-.564,1.391l.014.034H-19.7v-.109a2.154,2.154,0,0,0-.4-1.333A1.433,1.433,0,0,0-21.318-6.474Zm7.978.267-.69-.041a1.542,1.542,0,0,0-.9.253,1.623,1.623,0,0,0-.564.711V0H-16.84V-7.4h1.2l.13,1.08a2.568,2.568,0,0,1,.776-.9,1.814,1.814,0,0,1,1.063-.321,1.664,1.664,0,0,1,.287.024,1.9,1.9,0,0,1,.226.051Zm4.211,5.3a1.584,1.584,0,0,0,1.087-.414,1.307,1.307,0,0,0,.465-1.015h1.217l.021.041a2.124,2.124,0,0,1-.82,1.7A2.9,2.9,0,0,1-9.129.144a2.9,2.9,0,0,1-2.406-1.06,4.09,4.09,0,0,1-.848-2.639v-.287a4.072,4.072,0,0,1,.851-2.628,2.9,2.9,0,0,1,2.4-1.063A2.791,2.791,0,0,1-7.1-6.768a2.428,2.428,0,0,1,.762,1.88l-.014.041H-7.578A1.632,1.632,0,0,0-8.019-6a1.451,1.451,0,0,0-1.111-.475,1.555,1.555,0,0,0-1.446.769,3.6,3.6,0,0,0-.455,1.863v.287a3.668,3.668,0,0,0,.448,1.88A1.554,1.554,0,0,0-9.129-.909ZM-.195,0Q-.263-.335-.3-.591a4.34,4.34,0,0,1-.044-.516,3.14,3.14,0,0,1-.981.892,2.509,2.509,0,0,1-1.3.359,2.418,2.418,0,0,1-1.76-.591,2.175,2.175,0,0,1-.6-1.63,1.91,1.91,0,0,1,.858-1.658,4.007,4.007,0,0,1,2.328-.6H-.345v-.731a1.357,1.357,0,0,0-.4-1.029,1.557,1.557,0,0,0-1.121-.379,1.627,1.627,0,0,0-1.06.328.985.985,0,0,0-.4.786L-4.6-5.346l-.014-.041a1.77,1.77,0,0,1,.755-1.477,3.131,3.131,0,0,1,2.075-.67,3.054,3.054,0,0,1,2.023.639A2.264,2.264,0,0,1,1-5.052V-1.49a6.933,6.933,0,0,0,.041.766A3.937,3.937,0,0,0,1.193,0ZM-2.43-.984A2.4,2.4,0,0,0-1.111-1.36a1.787,1.787,0,0,0,.766-.861v-1.2H-1.856a1.96,1.96,0,0,0-1.3.41,1.227,1.227,0,0,0-.489.964,1.014,1.014,0,0,0,.308.779A1.288,1.288,0,0,0-2.43-.984ZM4.16-7.4l.1.971a2.512,2.512,0,0,1,.919-.817,2.763,2.763,0,0,1,1.3-.291,2.288,2.288,0,0,1,1.268.342,2.068,2.068,0,0,1,.8,1.025,2.767,2.767,0,0,1,.926-1A2.423,2.423,0,0,1,10.8-7.533a2.214,2.214,0,0,1,1.784.776,3.545,3.545,0,0,1,.656,2.334V0H11.891V-4.437a2.459,2.459,0,0,0-.376-1.548,1.371,1.371,0,0,0-1.121-.455,1.427,1.427,0,0,0-1.118.479,2.083,2.083,0,0,0-.5,1.21V0H7.42V-4.437a2.425,2.425,0,0,0-.386-1.521,1.34,1.34,0,0,0-1.111-.482,1.85,1.85,0,0,0-1.012.253,1.634,1.634,0,0,0-.608.711V0H2.957V-7.4Zm17.35,3.979A4.064,4.064,0,0,1,20.74-.837a2.541,2.541,0,0,1-2.116.981,2.681,2.681,0,0,1-1.282-.291,2.379,2.379,0,0,1-.9-.858l-.219,1H15.193V-10.664H16.54v4.143a2.337,2.337,0,0,1,.865-.752,2.651,2.651,0,0,1,1.207-.26,2.458,2.458,0,0,1,2.133,1.094,4.92,4.92,0,0,1,.766,2.878Zm-1.347-.144a4.083,4.083,0,0,0-.468-2.075,1.542,1.542,0,0,0-1.425-.8,1.762,1.762,0,0,0-1.049.3,2.145,2.145,0,0,0-.68.817v3.206a2.2,2.2,0,0,0,.68.854,1.753,1.753,0,0,0,1.063.308A1.6,1.6,0,0,0,19.7-1.627a3.108,3.108,0,0,0,.465-1.791ZM24.606,0H23.259V-7.4h1.347Zm0-9.29H23.259v-1.374h1.347ZM31.223,0q-.068-.335-.106-.591a4.34,4.34,0,0,1-.044-.516,3.14,3.14,0,0,1-.981.892,2.509,2.509,0,0,1-1.3.359,2.418,2.418,0,0,1-1.76-.591,2.175,2.175,0,0,1-.6-1.63,1.91,1.91,0,0,1,.858-1.658,4.007,4.007,0,0,1,2.328-.6h1.463v-.731a1.357,1.357,0,0,0-.4-1.029,1.557,1.557,0,0,0-1.121-.379,1.627,1.627,0,0,0-1.06.328.985.985,0,0,0-.4.786l-1.278.014L26.8-5.387a1.77,1.77,0,0,1,.755-1.477,3.131,3.131,0,0,1,2.075-.67,3.054,3.054,0,0,1,2.023.639,2.264,2.264,0,0,1,.766,1.842V-1.49a6.933,6.933,0,0,0,.041.766,3.937,3.937,0,0,0,.15.725ZM28.988-.984a2.4,2.4,0,0,0,1.319-.376,1.787,1.787,0,0,0,.766-.861v-1.2H29.562a1.96,1.96,0,0,0-1.3.41,1.227,1.227,0,0,0-.489.964,1.014,1.014,0,0,0,.308.779A1.288,1.288,0,0,0,28.988-.984Zm8.887-5.223-.69-.041a1.542,1.542,0,0,0-.9.253,1.623,1.623,0,0,0-.564.711V0H34.375V-7.4h1.2l.13,1.08a2.568,2.568,0,0,1,.776-.9,1.814,1.814,0,0,1,1.063-.321,1.664,1.664,0,0,1,.287.024,1.9,1.9,0,0,1,.226.051ZM-38.107,16q-.068-.335-.106-.591a4.34,4.34,0,0,1-.044-.516,3.14,3.14,0,0,1-.981.892,2.509,2.509,0,0,1-1.3.359,2.418,2.418,0,0,1-1.76-.591,2.175,2.175,0,0,1-.6-1.63,1.91,1.91,0,0,1,.858-1.658,4.007,4.007,0,0,1,2.328-.6h1.463v-.731a1.357,1.357,0,0,0-.4-1.029,1.557,1.557,0,0,0-1.121-.379,1.627,1.627,0,0,0-1.06.328.985.985,0,0,0-.4.786l-1.278.014-.014-.041a1.77,1.77,0,0,1,.755-1.477,3.131,3.131,0,0,1,2.075-.67,3.054,3.054,0,0,1,2.023.639,2.264,2.264,0,0,1,.766,1.842V14.51a6.933,6.933,0,0,0,.041.766,3.937,3.937,0,0,0,.15.725Zm-2.235-.984a2.4,2.4,0,0,0,1.319-.376,1.787,1.787,0,0,0,.766-.861v-1.2h-1.511a1.96,1.96,0,0,0-1.3.41,1.227,1.227,0,0,0-.489.964,1.014,1.014,0,0,0,.308.779A1.288,1.288,0,0,0-40.342,15.016Zm8.791-3.056a9.15,9.15,0,0,1,1.087-4.6,6.292,6.292,0,0,1,2.283-2.543l.041.007.26.793a5.832,5.832,0,0,0-1.63,2.345,10.1,10.1,0,0,0-.694,3.985v.089a10.142,10.142,0,0,0,.69,3.985,6.344,6.344,0,0,0,1.634,2.406l-.26.738h-.041a6.294,6.294,0,0,1-2.283-2.54,9.146,9.146,0,0,1-1.087-4.6ZM-22.958,16h-1.354V7.291l-2.167.021V6.272l3.521-.369Zm6.74-3.979a9.123,9.123,0,0,1-1.09,4.6,6.338,6.338,0,0,1-2.28,2.54h-.041l-.26-.738a5.821,5.821,0,0,0,1.624-2.362,10.28,10.28,0,0,0,.7-4.03v-.089a9.935,9.935,0,0,0-.721-3.989,6.591,6.591,0,0,0-1.6-2.4l.26-.738h.041a6.336,6.336,0,0,1,2.28,2.543,9.127,9.127,0,0,1,1.09,4.6Zm8.381,3.069a1.584,1.584,0,0,0,1.087-.414,1.307,1.307,0,0,0,.465-1.015h1.217l.021.041a2.124,2.124,0,0,1-.82,1.7,2.9,2.9,0,0,1-1.969.742,2.9,2.9,0,0,1-2.406-1.06,4.09,4.09,0,0,1-.848-2.639v-.287A4.072,4.072,0,0,1-10.24,9.53a2.9,2.9,0,0,1,2.4-1.063,2.791,2.791,0,0,1,2.027.766,2.428,2.428,0,0,1,.762,1.88l-.014.041H-6.286A1.632,1.632,0,0,0-6.727,10a1.451,1.451,0,0,0-1.111-.475,1.555,1.555,0,0,0-1.446.769,3.6,3.6,0,0,0-.455,1.863v.287a3.668,3.668,0,0,0,.448,1.88A1.554,1.554,0,0,0-7.837,15.091Zm4.074-2.857a4.072,4.072,0,0,1,.889-2.7A2.98,2.98,0,0,1-.461,8.467a3.009,3.009,0,0,1,2.43,1.06,4.059,4.059,0,0,1,.892,2.707v.15a4.052,4.052,0,0,1-.889,2.707,3,3,0,0,1-2.42,1.053,3.006,3.006,0,0,1-2.423-1.056,4.045,4.045,0,0,1-.892-2.7Zm1.347.15a3.508,3.508,0,0,0,.5,1.941,1.641,1.641,0,0,0,1.473.766,1.636,1.636,0,0,0,1.463-.766,3.49,3.49,0,0,0,.5-1.941v-.15a3.479,3.479,0,0,0-.5-1.935A1.647,1.647,0,0,0-.461,9.526a1.624,1.624,0,0,0-1.459.772,3.516,3.516,0,0,0-.5,1.935ZM5.711,8.6l.1,1.1a2.686,2.686,0,0,1,.926-.913A2.471,2.471,0,0,1,8,8.467a2.414,2.414,0,0,1,1.853.7,3.076,3.076,0,0,1,.656,2.164V16H9.164V11.358a2,2,0,0,0-.386-1.388A1.547,1.547,0,0,0,7.6,9.561a2.088,2.088,0,0,0-1.056.25,1.813,1.813,0,0,0-.687.7V16H4.508V8.6ZM20.491,16q-.068-.335-.106-.591a4.34,4.34,0,0,1-.044-.516,3.14,3.14,0,0,1-.981.892,2.509,2.509,0,0,1-1.3.359,2.418,2.418,0,0,1-1.76-.591,2.175,2.175,0,0,1-.6-1.63,1.91,1.91,0,0,1,.858-1.658,4.007,4.007,0,0,1,2.328-.6H20.34v-.731a1.357,1.357,0,0,0-.4-1.029,1.557,1.557,0,0,0-1.121-.379,1.627,1.627,0,0,0-1.06.328.985.985,0,0,0-.4.786l-1.278.014-.014-.041a1.77,1.77,0,0,1,.755-1.477,3.131,3.131,0,0,1,2.075-.67,3.054,3.054,0,0,1,2.023.639,2.264,2.264,0,0,1,.766,1.842V14.51a6.933,6.933,0,0,0,.041.766,3.937,3.937,0,0,0,.15.725Zm-2.235-.984a2.4,2.4,0,0,0,1.319-.376,1.787,1.787,0,0,0,.766-.861v-1.2H18.83a1.96,1.96,0,0,0-1.3.41,1.227,1.227,0,0,0-.489.964,1.014,1.014,0,0,0,.308.779A1.288,1.288,0,0,0,18.255,15.016Zm5.312-3.056a9.15,9.15,0,0,1,1.087-4.6,6.292,6.292,0,0,1,2.283-2.543l.041.007.26.793a5.832,5.832,0,0,0-1.63,2.345,10.1,10.1,0,0,0-.694,3.985v.089a10.142,10.142,0,0,0,.69,3.985,6.344,6.344,0,0,0,1.634,2.406l-.26.738h-.041a6.294,6.294,0,0,1-2.283-2.54,9.146,9.146,0,0,1-1.087-4.6ZM34.511,16h-6.18v-.923l3.124-3.726a9.386,9.386,0,0,0,1.131-1.61,2.686,2.686,0,0,0,.3-1.207,1.611,1.611,0,0,0-.4-1.131,1.434,1.434,0,0,0-1.114-.441,1.669,1.669,0,0,0-1.343.54,2,2,0,0,0-.461,1.347h-1.3l-.014-.041a2.685,2.685,0,0,1,.813-2.061,3.12,3.12,0,0,1,2.3-.844,2.9,2.9,0,0,1,2.1.738,2.532,2.532,0,0,1,.766,1.907,3.042,3.042,0,0,1-.434,1.538,17.16,17.16,0,0,1-1.323,1.887l-2.509,2.939.014.034h4.532ZM38.9,12.021a9.123,9.123,0,0,1-1.09,4.6,6.338,6.338,0,0,1-2.28,2.54h-.041l-.26-.738a5.821,5.821,0,0,0,1.624-2.362,10.28,10.28,0,0,0,.7-4.03v-.089a9.935,9.935,0,0,0-.721-3.989,6.591,6.591,0,0,0-1.6-2.4l.26-.738h.041a6.336,6.336,0,0,1,2.28,2.543,9.127,9.127,0,0,1,1.09,4.6ZM42.332,16H40.985V14.619h1.347Z" transform="translate(438.002 3951.768)" fill="#12263f"/>
    <path id="Trazado_830597" data-name="Trazado 830597" d="M-39.125,0h-1.354V-9.953h1.354Zm3.486-7.4.1,1.1a2.686,2.686,0,0,1,.926-.913,2.471,2.471,0,0,1,1.268-.325,2.414,2.414,0,0,1,1.853.7,3.076,3.076,0,0,1,.656,2.164V0h-1.347V-4.642a2,2,0,0,0-.386-1.388,1.547,1.547,0,0,0-1.179-.41,2.088,2.088,0,0,0-1.056.25,1.813,1.813,0,0,0-.687.7V0h-1.347V-7.4Zm8.627-1.784V-7.4h1.4v1h-1.4v4.491a1.006,1.006,0,0,0,.215.731.779.779,0,0,0,.571.212,1.251,1.251,0,0,0,.26-.031,1.927,1.927,0,0,0,.239-.065l.185.923a1.19,1.19,0,0,1-.444.2,2.242,2.242,0,0,1-.581.079,1.744,1.744,0,0,1-1.306-.5,2.152,2.152,0,0,1-.485-1.555V-6.4h-1.176v-1h1.176V-9.181ZM-21.106.144A3.129,3.129,0,0,1-23.591-.875a3.92,3.92,0,0,1-.892-2.68v-.3a3.838,3.838,0,0,1,.919-2.635,2.883,2.883,0,0,1,2.246-1.042,2.684,2.684,0,0,1,2.225.923,3.8,3.8,0,0,1,.742,2.454v.711h-4.73l-.021.034A3.057,3.057,0,0,0-22.61-1.6a1.72,1.72,0,0,0,1.5.694,3.388,3.388,0,0,0,1.2-.195,2.678,2.678,0,0,0,.885-.537l.526.875a3.237,3.237,0,0,1-1.046.646A4.167,4.167,0,0,1-21.106.144Zm-.212-6.617a1.464,1.464,0,0,0-1.166.543,2.571,2.571,0,0,0-.564,1.391l.014.034H-19.7v-.109a2.154,2.154,0,0,0-.4-1.333A1.433,1.433,0,0,0-21.318-6.474Zm7.978.267-.69-.041a1.542,1.542,0,0,0-.9.253,1.623,1.623,0,0,0-.564.711V0H-16.84V-7.4h1.2l.13,1.08a2.568,2.568,0,0,1,.776-.9,1.814,1.814,0,0,1,1.063-.321,1.664,1.664,0,0,1,.287.024,1.9,1.9,0,0,1,.226.051Zm4.211,5.3a1.584,1.584,0,0,0,1.087-.414,1.307,1.307,0,0,0,.465-1.015h1.217l.021.041a2.124,2.124,0,0,1-.82,1.7A2.9,2.9,0,0,1-9.129.144a2.9,2.9,0,0,1-2.406-1.06,4.09,4.09,0,0,1-.848-2.639v-.287a4.072,4.072,0,0,1,.851-2.628,2.9,2.9,0,0,1,2.4-1.063A2.791,2.791,0,0,1-7.1-6.768a2.428,2.428,0,0,1,.762,1.88l-.014.041H-7.578A1.632,1.632,0,0,0-8.019-6a1.451,1.451,0,0,0-1.111-.475,1.555,1.555,0,0,0-1.446.769,3.6,3.6,0,0,0-.455,1.863v.287a3.668,3.668,0,0,0,.448,1.88A1.554,1.554,0,0,0-9.129-.909ZM-.195,0Q-.263-.335-.3-.591a4.34,4.34,0,0,1-.044-.516,3.14,3.14,0,0,1-.981.892,2.509,2.509,0,0,1-1.3.359,2.418,2.418,0,0,1-1.76-.591,2.175,2.175,0,0,1-.6-1.63,1.91,1.91,0,0,1,.858-1.658,4.007,4.007,0,0,1,2.328-.6H-.345v-.731a1.357,1.357,0,0,0-.4-1.029,1.557,1.557,0,0,0-1.121-.379,1.627,1.627,0,0,0-1.06.328.985.985,0,0,0-.4.786L-4.6-5.346l-.014-.041a1.77,1.77,0,0,1,.755-1.477,3.131,3.131,0,0,1,2.075-.67,3.054,3.054,0,0,1,2.023.639A2.264,2.264,0,0,1,1-5.052V-1.49a6.933,6.933,0,0,0,.041.766A3.937,3.937,0,0,0,1.193,0ZM-2.43-.984A2.4,2.4,0,0,0-1.111-1.36a1.787,1.787,0,0,0,.766-.861v-1.2H-1.856a1.96,1.96,0,0,0-1.3.41,1.227,1.227,0,0,0-.489.964,1.014,1.014,0,0,0,.308.779A1.288,1.288,0,0,0-2.43-.984ZM4.16-7.4l.1.971a2.512,2.512,0,0,1,.919-.817,2.763,2.763,0,0,1,1.3-.291,2.288,2.288,0,0,1,1.268.342,2.068,2.068,0,0,1,.8,1.025,2.767,2.767,0,0,1,.926-1A2.423,2.423,0,0,1,10.8-7.533a2.214,2.214,0,0,1,1.784.776,3.545,3.545,0,0,1,.656,2.334V0H11.891V-4.437a2.459,2.459,0,0,0-.376-1.548,1.371,1.371,0,0,0-1.121-.455,1.427,1.427,0,0,0-1.118.479,2.083,2.083,0,0,0-.5,1.21V0H7.42V-4.437a2.425,2.425,0,0,0-.386-1.521,1.34,1.34,0,0,0-1.111-.482,1.85,1.85,0,0,0-1.012.253,1.634,1.634,0,0,0-.608.711V0H2.957V-7.4Zm17.35,3.979A4.064,4.064,0,0,1,20.74-.837a2.541,2.541,0,0,1-2.116.981,2.681,2.681,0,0,1-1.282-.291,2.379,2.379,0,0,1-.9-.858l-.219,1H15.193V-10.664H16.54v4.143a2.337,2.337,0,0,1,.865-.752,2.651,2.651,0,0,1,1.207-.26,2.458,2.458,0,0,1,2.133,1.094,4.92,4.92,0,0,1,.766,2.878Zm-1.347-.144a4.083,4.083,0,0,0-.468-2.075,1.542,1.542,0,0,0-1.425-.8,1.762,1.762,0,0,0-1.049.3,2.145,2.145,0,0,0-.68.817v3.206a2.2,2.2,0,0,0,.68.854,1.753,1.753,0,0,0,1.063.308A1.6,1.6,0,0,0,19.7-1.627a3.108,3.108,0,0,0,.465-1.791ZM24.606,0H23.259V-7.4h1.347Zm0-9.29H23.259v-1.374h1.347ZM31.223,0q-.068-.335-.106-.591a4.34,4.34,0,0,1-.044-.516,3.14,3.14,0,0,1-.981.892,2.509,2.509,0,0,1-1.3.359,2.418,2.418,0,0,1-1.76-.591,2.175,2.175,0,0,1-.6-1.63,1.91,1.91,0,0,1,.858-1.658,4.007,4.007,0,0,1,2.328-.6h1.463v-.731a1.357,1.357,0,0,0-.4-1.029,1.557,1.557,0,0,0-1.121-.379,1.627,1.627,0,0,0-1.06.328.985.985,0,0,0-.4.786l-1.278.014L26.8-5.387a1.77,1.77,0,0,1,.755-1.477,3.131,3.131,0,0,1,2.075-.67,3.054,3.054,0,0,1,2.023.639,2.264,2.264,0,0,1,.766,1.842V-1.49a6.933,6.933,0,0,0,.041.766,3.937,3.937,0,0,0,.15.725ZM28.988-.984a2.4,2.4,0,0,0,1.319-.376,1.787,1.787,0,0,0,.766-.861v-1.2H29.562a1.96,1.96,0,0,0-1.3.41,1.227,1.227,0,0,0-.489.964,1.014,1.014,0,0,0,.308.779A1.288,1.288,0,0,0,28.988-.984Zm8.887-5.223-.69-.041a1.542,1.542,0,0,0-.9.253,1.623,1.623,0,0,0-.564.711V0H34.375V-7.4h1.2l.13,1.08a2.568,2.568,0,0,1,.776-.9,1.814,1.814,0,0,1,1.063-.321,1.664,1.664,0,0,1,.287.024,1.9,1.9,0,0,1,.226.051ZM-36.367,16q-.068-.335-.106-.591a4.34,4.34,0,0,1-.044-.516,3.14,3.14,0,0,1-.981.892,2.509,2.509,0,0,1-1.3.359,2.418,2.418,0,0,1-1.76-.591,2.175,2.175,0,0,1-.6-1.63,1.91,1.91,0,0,1,.858-1.658,4.007,4.007,0,0,1,2.328-.6h1.463v-.731a1.357,1.357,0,0,0-.4-1.029,1.557,1.557,0,0,0-1.121-.379,1.627,1.627,0,0,0-1.06.328.985.985,0,0,0-.4.786l-1.278.014-.014-.041a1.77,1.77,0,0,1,.755-1.477,3.131,3.131,0,0,1,2.075-.67,3.054,3.054,0,0,1,2.023.639,2.264,2.264,0,0,1,.766,1.842V14.51a6.933,6.933,0,0,0,.041.766,3.937,3.937,0,0,0,.15.725Zm-2.235-.984a2.4,2.4,0,0,0,1.319-.376,1.787,1.787,0,0,0,.766-.861v-1.2h-1.511a1.96,1.96,0,0,0-1.3.41,1.227,1.227,0,0,0-.489.964,1.014,1.014,0,0,0,.308.779A1.288,1.288,0,0,0-38.6,15.016Zm5.312-3.056a9.15,9.15,0,0,1,1.087-4.6,6.292,6.292,0,0,1,2.283-2.543l.041.007.26.793a5.832,5.832,0,0,0-1.63,2.345,10.1,10.1,0,0,0-.694,3.985v.089a10.142,10.142,0,0,0,.69,3.985,6.344,6.344,0,0,0,1.634,2.406l-.26.738h-.041a6.294,6.294,0,0,1-2.283-2.54,9.146,9.146,0,0,1-1.087-4.6ZM-22.347,16h-6.18v-.923l3.124-3.726a9.385,9.385,0,0,0,1.131-1.61,2.686,2.686,0,0,0,.3-1.207,1.611,1.611,0,0,0-.4-1.131,1.434,1.434,0,0,0-1.114-.441,1.669,1.669,0,0,0-1.343.54A2,2,0,0,0-27.3,8.85h-1.3l-.014-.041a2.685,2.685,0,0,1,.813-2.061,3.12,3.12,0,0,1,2.3-.844,2.9,2.9,0,0,1,2.1.738,2.532,2.532,0,0,1,.766,1.907,3.042,3.042,0,0,1-.434,1.538,17.161,17.161,0,0,1-1.323,1.887l-2.509,2.939.014.034h4.532Zm4.389-3.979a9.123,9.123,0,0,1-1.09,4.6,6.338,6.338,0,0,1-2.28,2.54h-.041l-.26-.738a5.821,5.821,0,0,0,1.624-2.362,10.28,10.28,0,0,0,.7-4.03v-.089a9.935,9.935,0,0,0-.721-3.989,6.591,6.591,0,0,0-1.6-2.4l.26-.738h.041a6.336,6.336,0,0,1,2.28,2.543,9.127,9.127,0,0,1,1.09,4.6Zm8.381,3.069a1.584,1.584,0,0,0,1.087-.414,1.307,1.307,0,0,0,.465-1.015h1.217l.021.041a2.124,2.124,0,0,1-.82,1.7,2.9,2.9,0,0,1-1.969.742,2.9,2.9,0,0,1-2.406-1.06,4.09,4.09,0,0,1-.848-2.639v-.287A4.072,4.072,0,0,1-11.98,9.53a2.9,2.9,0,0,1,2.4-1.063,2.791,2.791,0,0,1,2.027.766,2.428,2.428,0,0,1,.762,1.88l-.014.041H-8.025A1.632,1.632,0,0,0-8.466,10a1.451,1.451,0,0,0-1.111-.475,1.555,1.555,0,0,0-1.446.769,3.6,3.6,0,0,0-.455,1.863v.287a3.668,3.668,0,0,0,.448,1.88A1.554,1.554,0,0,0-9.577,15.091ZM-5.5,12.233a4.072,4.072,0,0,1,.889-2.7A2.98,2.98,0,0,1-2.2,8.467a3.009,3.009,0,0,1,2.43,1.06,4.059,4.059,0,0,1,.892,2.707v.15a4.052,4.052,0,0,1-.889,2.707,3,3,0,0,1-2.42,1.053,3.006,3.006,0,0,1-2.423-1.056,4.045,4.045,0,0,1-.892-2.7Zm1.347.15a3.508,3.508,0,0,0,.5,1.941,1.641,1.641,0,0,0,1.473.766,1.636,1.636,0,0,0,1.463-.766,3.49,3.49,0,0,0,.5-1.941v-.15a3.479,3.479,0,0,0-.5-1.935A1.647,1.647,0,0,0-2.2,9.526a1.624,1.624,0,0,0-1.459.772,3.516,3.516,0,0,0-.5,1.935ZM3.972,8.6l.1,1.1a2.686,2.686,0,0,1,.926-.913,2.471,2.471,0,0,1,1.268-.325,2.414,2.414,0,0,1,1.853.7,3.076,3.076,0,0,1,.656,2.164V16H7.424V11.358a2,2,0,0,0-.386-1.388,1.547,1.547,0,0,0-1.179-.41A2.088,2.088,0,0,0,4.8,9.81a1.813,1.813,0,0,0-.687.7V16H2.769V8.6ZM18.751,16q-.068-.335-.106-.591a4.34,4.34,0,0,1-.044-.516,3.14,3.14,0,0,1-.981.892,2.509,2.509,0,0,1-1.3.359,2.418,2.418,0,0,1-1.76-.591,2.175,2.175,0,0,1-.6-1.63,1.91,1.91,0,0,1,.858-1.658,4.007,4.007,0,0,1,2.328-.6H18.6v-.731a1.357,1.357,0,0,0-.4-1.029,1.557,1.557,0,0,0-1.121-.379,1.627,1.627,0,0,0-1.06.328.985.985,0,0,0-.4.786l-1.278.014-.014-.041a1.77,1.77,0,0,1,.755-1.477,3.131,3.131,0,0,1,2.075-.67,3.054,3.054,0,0,1,2.023.639,2.264,2.264,0,0,1,.766,1.842V14.51a6.933,6.933,0,0,0,.041.766,3.937,3.937,0,0,0,.15.725Zm-2.235-.984a2.4,2.4,0,0,0,1.319-.376,1.787,1.787,0,0,0,.766-.861v-1.2H17.09a1.96,1.96,0,0,0-1.3.41,1.227,1.227,0,0,0-.489.964,1.014,1.014,0,0,0,.308.779A1.288,1.288,0,0,0,16.516,15.016Zm5.312-3.056a9.15,9.15,0,0,1,1.087-4.6A6.292,6.292,0,0,1,25.2,4.816l.041.007.26.793a5.832,5.832,0,0,0-1.63,2.345,10.1,10.1,0,0,0-.694,3.985v.089a10.142,10.142,0,0,0,.69,3.985A6.344,6.344,0,0,0,25.5,18.427l-.26.738H25.2a6.294,6.294,0,0,1-2.283-2.54,9.146,9.146,0,0,1-1.087-4.6Zm7.7-1.62A1.578,1.578,0,0,0,30.8,9.892a1.907,1.907,0,0,0,.373-1.254,1.768,1.768,0,0,0-.407-1.213,1.523,1.523,0,0,0-1.207-.461,1.8,1.8,0,0,0-1.289.482,1.592,1.592,0,0,0-.509,1.207H26.476l-.021-.041A2.379,2.379,0,0,1,27.3,6.7,3.246,3.246,0,0,1,29.559,5.9a3.152,3.152,0,0,1,2.174.7,2.617,2.617,0,0,1,.786,2.061,2.318,2.318,0,0,1-.366,1.271,2.465,2.465,0,0,1-1.022.9,2.352,2.352,0,0,1,1.145.913,2.68,2.68,0,0,1,.393,1.48,2.732,2.732,0,0,1-.865,2.143,3.235,3.235,0,0,1-2.246.776A3.556,3.556,0,0,1,27.32,15.4a2.293,2.293,0,0,1-.933-1.979l.014-.041h1.285a1.615,1.615,0,0,0,.523,1.22,1.883,1.883,0,0,0,1.35.5,1.674,1.674,0,0,0,1.292-.509,1.879,1.879,0,0,0,.472-1.33,1.989,1.989,0,0,0-.434-1.4,1.786,1.786,0,0,0-1.364-.465H28.417V10.34Zm7.636,1.682a9.123,9.123,0,0,1-1.09,4.6,6.338,6.338,0,0,1-2.28,2.54h-.041l-.26-.738a5.821,5.821,0,0,0,1.624-2.362,10.28,10.28,0,0,0,.7-4.03v-.089a9.935,9.935,0,0,0-.721-3.989,6.591,6.591,0,0,0-1.6-2.4l.26-.738h.041a6.336,6.336,0,0,1,2.28,2.543,9.127,9.127,0,0,1,1.09,4.6ZM40.592,16H39.245V14.619h1.347Z" transform="translate(535.114 3951.768)" fill="#12263f"/>
    <path id="Trazado_830598" data-name="Trazado 830598" d="M-39.125,0h-1.354V-9.953h1.354Zm3.486-7.4.1,1.1a2.686,2.686,0,0,1,.926-.913,2.471,2.471,0,0,1,1.268-.325,2.414,2.414,0,0,1,1.853.7,3.076,3.076,0,0,1,.656,2.164V0h-1.347V-4.642a2,2,0,0,0-.386-1.388,1.547,1.547,0,0,0-1.179-.41,2.088,2.088,0,0,0-1.056.25,1.813,1.813,0,0,0-.687.7V0h-1.347V-7.4Zm8.627-1.784V-7.4h1.4v1h-1.4v4.491a1.006,1.006,0,0,0,.215.731.779.779,0,0,0,.571.212,1.251,1.251,0,0,0,.26-.031,1.927,1.927,0,0,0,.239-.065l.185.923a1.19,1.19,0,0,1-.444.2,2.242,2.242,0,0,1-.581.079,1.744,1.744,0,0,1-1.306-.5,2.152,2.152,0,0,1-.485-1.555V-6.4h-1.176v-1h1.176V-9.181ZM-21.106.144A3.129,3.129,0,0,1-23.591-.875a3.92,3.92,0,0,1-.892-2.68v-.3a3.838,3.838,0,0,1,.919-2.635,2.883,2.883,0,0,1,2.246-1.042,2.684,2.684,0,0,1,2.225.923,3.8,3.8,0,0,1,.742,2.454v.711h-4.73l-.021.034A3.057,3.057,0,0,0-22.61-1.6a1.72,1.72,0,0,0,1.5.694,3.388,3.388,0,0,0,1.2-.195,2.678,2.678,0,0,0,.885-.537l.526.875a3.237,3.237,0,0,1-1.046.646A4.167,4.167,0,0,1-21.106.144Zm-.212-6.617a1.464,1.464,0,0,0-1.166.543,2.571,2.571,0,0,0-.564,1.391l.014.034H-19.7v-.109a2.154,2.154,0,0,0-.4-1.333A1.433,1.433,0,0,0-21.318-6.474Zm7.978.267-.69-.041a1.542,1.542,0,0,0-.9.253,1.623,1.623,0,0,0-.564.711V0H-16.84V-7.4h1.2l.13,1.08a2.568,2.568,0,0,1,.776-.9,1.814,1.814,0,0,1,1.063-.321,1.664,1.664,0,0,1,.287.024,1.9,1.9,0,0,1,.226.051Zm4.211,5.3a1.584,1.584,0,0,0,1.087-.414,1.307,1.307,0,0,0,.465-1.015h1.217l.021.041a2.124,2.124,0,0,1-.82,1.7A2.9,2.9,0,0,1-9.129.144a2.9,2.9,0,0,1-2.406-1.06,4.09,4.09,0,0,1-.848-2.639v-.287a4.072,4.072,0,0,1,.851-2.628,2.9,2.9,0,0,1,2.4-1.063A2.791,2.791,0,0,1-7.1-6.768a2.428,2.428,0,0,1,.762,1.88l-.014.041H-7.578A1.632,1.632,0,0,0-8.019-6a1.451,1.451,0,0,0-1.111-.475,1.555,1.555,0,0,0-1.446.769,3.6,3.6,0,0,0-.455,1.863v.287a3.668,3.668,0,0,0,.448,1.88A1.554,1.554,0,0,0-9.129-.909ZM-.195,0Q-.263-.335-.3-.591a4.34,4.34,0,0,1-.044-.516,3.14,3.14,0,0,1-.981.892,2.509,2.509,0,0,1-1.3.359,2.418,2.418,0,0,1-1.76-.591,2.175,2.175,0,0,1-.6-1.63,1.91,1.91,0,0,1,.858-1.658,4.007,4.007,0,0,1,2.328-.6H-.345v-.731a1.357,1.357,0,0,0-.4-1.029,1.557,1.557,0,0,0-1.121-.379,1.627,1.627,0,0,0-1.06.328.985.985,0,0,0-.4.786L-4.6-5.346l-.014-.041a1.77,1.77,0,0,1,.755-1.477,3.131,3.131,0,0,1,2.075-.67,3.054,3.054,0,0,1,2.023.639A2.264,2.264,0,0,1,1-5.052V-1.49a6.933,6.933,0,0,0,.041.766A3.937,3.937,0,0,0,1.193,0ZM-2.43-.984A2.4,2.4,0,0,0-1.111-1.36a1.787,1.787,0,0,0,.766-.861v-1.2H-1.856a1.96,1.96,0,0,0-1.3.41,1.227,1.227,0,0,0-.489.964,1.014,1.014,0,0,0,.308.779A1.288,1.288,0,0,0-2.43-.984ZM4.16-7.4l.1.971a2.512,2.512,0,0,1,.919-.817,2.763,2.763,0,0,1,1.3-.291,2.288,2.288,0,0,1,1.268.342,2.068,2.068,0,0,1,.8,1.025,2.767,2.767,0,0,1,.926-1A2.423,2.423,0,0,1,10.8-7.533a2.214,2.214,0,0,1,1.784.776,3.545,3.545,0,0,1,.656,2.334V0H11.891V-4.437a2.459,2.459,0,0,0-.376-1.548,1.371,1.371,0,0,0-1.121-.455,1.427,1.427,0,0,0-1.118.479,2.083,2.083,0,0,0-.5,1.21V0H7.42V-4.437a2.425,2.425,0,0,0-.386-1.521,1.34,1.34,0,0,0-1.111-.482,1.85,1.85,0,0,0-1.012.253,1.634,1.634,0,0,0-.608.711V0H2.957V-7.4Zm17.35,3.979A4.064,4.064,0,0,1,20.74-.837a2.541,2.541,0,0,1-2.116.981,2.681,2.681,0,0,1-1.282-.291,2.379,2.379,0,0,1-.9-.858l-.219,1H15.193V-10.664H16.54v4.143a2.337,2.337,0,0,1,.865-.752,2.651,2.651,0,0,1,1.207-.26,2.458,2.458,0,0,1,2.133,1.094,4.92,4.92,0,0,1,.766,2.878Zm-1.347-.144a4.083,4.083,0,0,0-.468-2.075,1.542,1.542,0,0,0-1.425-.8,1.762,1.762,0,0,0-1.049.3,2.145,2.145,0,0,0-.68.817v3.206a2.2,2.2,0,0,0,.68.854,1.753,1.753,0,0,0,1.063.308A1.6,1.6,0,0,0,19.7-1.627a3.108,3.108,0,0,0,.465-1.791ZM24.606,0H23.259V-7.4h1.347Zm0-9.29H23.259v-1.374h1.347ZM31.223,0q-.068-.335-.106-.591a4.34,4.34,0,0,1-.044-.516,3.14,3.14,0,0,1-.981.892,2.509,2.509,0,0,1-1.3.359,2.418,2.418,0,0,1-1.76-.591,2.175,2.175,0,0,1-.6-1.63,1.91,1.91,0,0,1,.858-1.658,4.007,4.007,0,0,1,2.328-.6h1.463v-.731a1.357,1.357,0,0,0-.4-1.029,1.557,1.557,0,0,0-1.121-.379,1.627,1.627,0,0,0-1.06.328.985.985,0,0,0-.4.786l-1.278.014L26.8-5.387a1.77,1.77,0,0,1,.755-1.477,3.131,3.131,0,0,1,2.075-.67,3.054,3.054,0,0,1,2.023.639,2.264,2.264,0,0,1,.766,1.842V-1.49a6.933,6.933,0,0,0,.041.766,3.937,3.937,0,0,0,.15.725ZM28.988-.984a2.4,2.4,0,0,0,1.319-.376,1.787,1.787,0,0,0,.766-.861v-1.2H29.562a1.96,1.96,0,0,0-1.3.41,1.227,1.227,0,0,0-.489.964,1.014,1.014,0,0,0,.308.779A1.288,1.288,0,0,0,28.988-.984Zm8.887-5.223-.69-.041a1.542,1.542,0,0,0-.9.253,1.623,1.623,0,0,0-.564.711V0H34.375V-7.4h1.2l.13,1.08a2.568,2.568,0,0,1,.776-.9,1.814,1.814,0,0,1,1.063-.321,1.664,1.664,0,0,1,.287.024,1.9,1.9,0,0,1,.226.051ZM-36.367,16q-.068-.335-.106-.591a4.34,4.34,0,0,1-.044-.516,3.14,3.14,0,0,1-.981.892,2.509,2.509,0,0,1-1.3.359,2.418,2.418,0,0,1-1.76-.591,2.175,2.175,0,0,1-.6-1.63,1.91,1.91,0,0,1,.858-1.658,4.007,4.007,0,0,1,2.328-.6h1.463v-.731a1.357,1.357,0,0,0-.4-1.029,1.557,1.557,0,0,0-1.121-.379,1.627,1.627,0,0,0-1.06.328.985.985,0,0,0-.4.786l-1.278.014-.014-.041a1.77,1.77,0,0,1,.755-1.477,3.131,3.131,0,0,1,2.075-.67,3.054,3.054,0,0,1,2.023.639,2.264,2.264,0,0,1,.766,1.842V14.51a6.933,6.933,0,0,0,.041.766,3.937,3.937,0,0,0,.15.725Zm-2.235-.984a2.4,2.4,0,0,0,1.319-.376,1.787,1.787,0,0,0,.766-.861v-1.2h-1.511a1.96,1.96,0,0,0-1.3.41,1.227,1.227,0,0,0-.489.964,1.014,1.014,0,0,0,.308.779A1.288,1.288,0,0,0-38.6,15.016Zm5.312-3.056a9.15,9.15,0,0,1,1.087-4.6,6.292,6.292,0,0,1,2.283-2.543l.041.007.26.793a5.832,5.832,0,0,0-1.63,2.345,10.1,10.1,0,0,0-.694,3.985v.089a10.142,10.142,0,0,0,.69,3.985,6.344,6.344,0,0,0,1.634,2.406l-.26.738h-.041a6.294,6.294,0,0,1-2.283-2.54,9.146,9.146,0,0,1-1.087-4.6Zm7.7-1.62a1.578,1.578,0,0,0,1.275-.448,1.907,1.907,0,0,0,.373-1.254,1.768,1.768,0,0,0-.407-1.213,1.523,1.523,0,0,0-1.207-.461,1.8,1.8,0,0,0-1.289.482,1.592,1.592,0,0,0-.509,1.207h-1.285l-.021-.041A2.379,2.379,0,0,1-27.815,6.7,3.246,3.246,0,0,1-25.56,5.9a3.152,3.152,0,0,1,2.174.7A2.617,2.617,0,0,1-22.6,8.665a2.319,2.319,0,0,1-.366,1.271,2.465,2.465,0,0,1-1.022.9,2.352,2.352,0,0,1,1.145.913,2.68,2.68,0,0,1,.393,1.48,2.732,2.732,0,0,1-.865,2.143,3.235,3.235,0,0,1-2.246.776A3.556,3.556,0,0,1-27.8,15.4a2.293,2.293,0,0,1-.933-1.979l.014-.041h1.285a1.615,1.615,0,0,0,.523,1.22,1.883,1.883,0,0,0,1.35.5,1.674,1.674,0,0,0,1.292-.509,1.879,1.879,0,0,0,.472-1.33,1.989,1.989,0,0,0-.434-1.4,1.786,1.786,0,0,0-1.364-.465H-26.7V10.34Zm7.636,1.682a9.123,9.123,0,0,1-1.09,4.6,6.338,6.338,0,0,1-2.28,2.54h-.041l-.26-.738a5.821,5.821,0,0,0,1.624-2.362,10.28,10.28,0,0,0,.7-4.03v-.089a9.935,9.935,0,0,0-.721-3.989,6.591,6.591,0,0,0-1.6-2.4l.26-.738h.041a6.336,6.336,0,0,1,2.28,2.543,9.127,9.127,0,0,1,1.09,4.6Zm8.381,3.069a1.584,1.584,0,0,0,1.087-.414,1.307,1.307,0,0,0,.465-1.015h1.217l.021.041a2.124,2.124,0,0,1-.82,1.7,2.9,2.9,0,0,1-1.969.742,2.9,2.9,0,0,1-2.406-1.06,4.09,4.09,0,0,1-.848-2.639v-.287A4.072,4.072,0,0,1-11.98,9.53a2.9,2.9,0,0,1,2.4-1.063,2.791,2.791,0,0,1,2.027.766,2.428,2.428,0,0,1,.762,1.88l-.014.041H-8.025A1.632,1.632,0,0,0-8.466,10a1.451,1.451,0,0,0-1.111-.475,1.555,1.555,0,0,0-1.446.769,3.6,3.6,0,0,0-.455,1.863v.287a3.668,3.668,0,0,0,.448,1.88A1.554,1.554,0,0,0-9.577,15.091ZM-5.5,12.233a4.072,4.072,0,0,1,.889-2.7A2.98,2.98,0,0,1-2.2,8.467a3.009,3.009,0,0,1,2.43,1.06,4.059,4.059,0,0,1,.892,2.707v.15a4.052,4.052,0,0,1-.889,2.707,3,3,0,0,1-2.42,1.053,3.006,3.006,0,0,1-2.423-1.056,4.045,4.045,0,0,1-.892-2.7Zm1.347.15a3.508,3.508,0,0,0,.5,1.941,1.641,1.641,0,0,0,1.473.766,1.636,1.636,0,0,0,1.463-.766,3.49,3.49,0,0,0,.5-1.941v-.15a3.479,3.479,0,0,0-.5-1.935A1.647,1.647,0,0,0-2.2,9.526a1.624,1.624,0,0,0-1.459.772,3.516,3.516,0,0,0-.5,1.935ZM3.972,8.6l.1,1.1a2.686,2.686,0,0,1,.926-.913,2.471,2.471,0,0,1,1.268-.325,2.414,2.414,0,0,1,1.853.7,3.076,3.076,0,0,1,.656,2.164V16H7.424V11.358a2,2,0,0,0-.386-1.388,1.547,1.547,0,0,0-1.179-.41A2.088,2.088,0,0,0,4.8,9.81a1.813,1.813,0,0,0-.687.7V16H2.769V8.6ZM18.751,16q-.068-.335-.106-.591a4.34,4.34,0,0,1-.044-.516,3.14,3.14,0,0,1-.981.892,2.509,2.509,0,0,1-1.3.359,2.418,2.418,0,0,1-1.76-.591,2.175,2.175,0,0,1-.6-1.63,1.91,1.91,0,0,1,.858-1.658,4.007,4.007,0,0,1,2.328-.6H18.6v-.731a1.357,1.357,0,0,0-.4-1.029,1.557,1.557,0,0,0-1.121-.379,1.627,1.627,0,0,0-1.06.328.985.985,0,0,0-.4.786l-1.278.014-.014-.041a1.77,1.77,0,0,1,.755-1.477,3.131,3.131,0,0,1,2.075-.67,3.054,3.054,0,0,1,2.023.639,2.264,2.264,0,0,1,.766,1.842V14.51a6.933,6.933,0,0,0,.041.766,3.937,3.937,0,0,0,.15.725Zm-2.235-.984a2.4,2.4,0,0,0,1.319-.376,1.787,1.787,0,0,0,.766-.861v-1.2H17.09a1.96,1.96,0,0,0-1.3.41,1.227,1.227,0,0,0-.489.964,1.014,1.014,0,0,0,.308.779A1.288,1.288,0,0,0,16.516,15.016Zm5.312-3.056a9.15,9.15,0,0,1,1.087-4.6A6.292,6.292,0,0,1,25.2,4.816l.041.007.26.793a5.832,5.832,0,0,0-1.63,2.345,10.1,10.1,0,0,0-.694,3.985v.089a10.142,10.142,0,0,0,.69,3.985A6.344,6.344,0,0,0,25.5,18.427l-.26.738H25.2a6.294,6.294,0,0,1-2.283-2.54,9.146,9.146,0,0,1-1.087-4.6Zm9.844.69h1.374V13.7H31.671V16h-1.34V13.7H26.059v-.759l4.19-6.9h1.422Zm-4.17,0h2.83V7.981l-.041-.007-.13.342Zm9.659-.629a9.123,9.123,0,0,1-1.09,4.6,6.338,6.338,0,0,1-2.28,2.54h-.041l-.26-.738a5.821,5.821,0,0,0,1.624-2.362,10.28,10.28,0,0,0,.7-4.03v-.089a9.935,9.935,0,0,0-.721-3.989,6.591,6.591,0,0,0-1.6-2.4l.26-.738h.041a6.336,6.336,0,0,1,2.28,2.543,9.127,9.127,0,0,1,1.09,4.6ZM40.592,16H39.245V14.619h1.347Z" transform="translate(632.226 3951.768)" fill="#12263f"/>
    <path id="Trazado_830599" data-name="Trazado 830599" d="M-39.125,0h-1.354V-9.953h1.354Zm3.486-7.4.1,1.1a2.686,2.686,0,0,1,.926-.913,2.471,2.471,0,0,1,1.268-.325,2.414,2.414,0,0,1,1.853.7,3.076,3.076,0,0,1,.656,2.164V0h-1.347V-4.642a2,2,0,0,0-.386-1.388,1.547,1.547,0,0,0-1.179-.41,2.088,2.088,0,0,0-1.056.25,1.813,1.813,0,0,0-.687.7V0h-1.347V-7.4Zm8.627-1.784V-7.4h1.4v1h-1.4v4.491a1.006,1.006,0,0,0,.215.731.779.779,0,0,0,.571.212,1.251,1.251,0,0,0,.26-.031,1.927,1.927,0,0,0,.239-.065l.185.923a1.19,1.19,0,0,1-.444.2,2.242,2.242,0,0,1-.581.079,1.744,1.744,0,0,1-1.306-.5,2.152,2.152,0,0,1-.485-1.555V-6.4h-1.176v-1h1.176V-9.181ZM-21.106.144A3.129,3.129,0,0,1-23.591-.875a3.92,3.92,0,0,1-.892-2.68v-.3a3.838,3.838,0,0,1,.919-2.635,2.883,2.883,0,0,1,2.246-1.042,2.684,2.684,0,0,1,2.225.923,3.8,3.8,0,0,1,.742,2.454v.711h-4.73l-.021.034A3.057,3.057,0,0,0-22.61-1.6a1.72,1.72,0,0,0,1.5.694,3.388,3.388,0,0,0,1.2-.195,2.678,2.678,0,0,0,.885-.537l.526.875a3.237,3.237,0,0,1-1.046.646A4.167,4.167,0,0,1-21.106.144Zm-.212-6.617a1.464,1.464,0,0,0-1.166.543,2.571,2.571,0,0,0-.564,1.391l.014.034H-19.7v-.109a2.154,2.154,0,0,0-.4-1.333A1.433,1.433,0,0,0-21.318-6.474Zm7.978.267-.69-.041a1.542,1.542,0,0,0-.9.253,1.623,1.623,0,0,0-.564.711V0H-16.84V-7.4h1.2l.13,1.08a2.568,2.568,0,0,1,.776-.9,1.814,1.814,0,0,1,1.063-.321,1.664,1.664,0,0,1,.287.024,1.9,1.9,0,0,1,.226.051Zm4.211,5.3a1.584,1.584,0,0,0,1.087-.414,1.307,1.307,0,0,0,.465-1.015h1.217l.021.041a2.124,2.124,0,0,1-.82,1.7A2.9,2.9,0,0,1-9.129.144a2.9,2.9,0,0,1-2.406-1.06,4.09,4.09,0,0,1-.848-2.639v-.287a4.072,4.072,0,0,1,.851-2.628,2.9,2.9,0,0,1,2.4-1.063A2.791,2.791,0,0,1-7.1-6.768a2.428,2.428,0,0,1,.762,1.88l-.014.041H-7.578A1.632,1.632,0,0,0-8.019-6a1.451,1.451,0,0,0-1.111-.475,1.555,1.555,0,0,0-1.446.769,3.6,3.6,0,0,0-.455,1.863v.287a3.668,3.668,0,0,0,.448,1.88A1.554,1.554,0,0,0-9.129-.909ZM-.195,0Q-.263-.335-.3-.591a4.34,4.34,0,0,1-.044-.516,3.14,3.14,0,0,1-.981.892,2.509,2.509,0,0,1-1.3.359,2.418,2.418,0,0,1-1.76-.591,2.175,2.175,0,0,1-.6-1.63,1.91,1.91,0,0,1,.858-1.658,4.007,4.007,0,0,1,2.328-.6H-.345v-.731a1.357,1.357,0,0,0-.4-1.029,1.557,1.557,0,0,0-1.121-.379,1.627,1.627,0,0,0-1.06.328.985.985,0,0,0-.4.786L-4.6-5.346l-.014-.041a1.77,1.77,0,0,1,.755-1.477,3.131,3.131,0,0,1,2.075-.67,3.054,3.054,0,0,1,2.023.639A2.264,2.264,0,0,1,1-5.052V-1.49a6.933,6.933,0,0,0,.041.766A3.937,3.937,0,0,0,1.193,0ZM-2.43-.984A2.4,2.4,0,0,0-1.111-1.36a1.787,1.787,0,0,0,.766-.861v-1.2H-1.856a1.96,1.96,0,0,0-1.3.41,1.227,1.227,0,0,0-.489.964,1.014,1.014,0,0,0,.308.779A1.288,1.288,0,0,0-2.43-.984ZM4.16-7.4l.1.971a2.512,2.512,0,0,1,.919-.817,2.763,2.763,0,0,1,1.3-.291,2.288,2.288,0,0,1,1.268.342,2.068,2.068,0,0,1,.8,1.025,2.767,2.767,0,0,1,.926-1A2.423,2.423,0,0,1,10.8-7.533a2.214,2.214,0,0,1,1.784.776,3.545,3.545,0,0,1,.656,2.334V0H11.891V-4.437a2.459,2.459,0,0,0-.376-1.548,1.371,1.371,0,0,0-1.121-.455,1.427,1.427,0,0,0-1.118.479,2.083,2.083,0,0,0-.5,1.21V0H7.42V-4.437a2.425,2.425,0,0,0-.386-1.521,1.34,1.34,0,0,0-1.111-.482,1.85,1.85,0,0,0-1.012.253,1.634,1.634,0,0,0-.608.711V0H2.957V-7.4Zm17.35,3.979A4.064,4.064,0,0,1,20.74-.837a2.541,2.541,0,0,1-2.116.981,2.681,2.681,0,0,1-1.282-.291,2.379,2.379,0,0,1-.9-.858l-.219,1H15.193V-10.664H16.54v4.143a2.337,2.337,0,0,1,.865-.752,2.651,2.651,0,0,1,1.207-.26,2.458,2.458,0,0,1,2.133,1.094,4.92,4.92,0,0,1,.766,2.878Zm-1.347-.144a4.083,4.083,0,0,0-.468-2.075,1.542,1.542,0,0,0-1.425-.8,1.762,1.762,0,0,0-1.049.3,2.145,2.145,0,0,0-.68.817v3.206a2.2,2.2,0,0,0,.68.854,1.753,1.753,0,0,0,1.063.308A1.6,1.6,0,0,0,19.7-1.627a3.108,3.108,0,0,0,.465-1.791ZM24.606,0H23.259V-7.4h1.347Zm0-9.29H23.259v-1.374h1.347ZM31.223,0q-.068-.335-.106-.591a4.34,4.34,0,0,1-.044-.516,3.14,3.14,0,0,1-.981.892,2.509,2.509,0,0,1-1.3.359,2.418,2.418,0,0,1-1.76-.591,2.175,2.175,0,0,1-.6-1.63,1.91,1.91,0,0,1,.858-1.658,4.007,4.007,0,0,1,2.328-.6h1.463v-.731a1.357,1.357,0,0,0-.4-1.029,1.557,1.557,0,0,0-1.121-.379,1.627,1.627,0,0,0-1.06.328.985.985,0,0,0-.4.786l-1.278.014L26.8-5.387a1.77,1.77,0,0,1,.755-1.477,3.131,3.131,0,0,1,2.075-.67,3.054,3.054,0,0,1,2.023.639,2.264,2.264,0,0,1,.766,1.842V-1.49a6.933,6.933,0,0,0,.041.766,3.937,3.937,0,0,0,.15.725ZM28.988-.984a2.4,2.4,0,0,0,1.319-.376,1.787,1.787,0,0,0,.766-.861v-1.2H29.562a1.96,1.96,0,0,0-1.3.41,1.227,1.227,0,0,0-.489.964,1.014,1.014,0,0,0,.308.779A1.288,1.288,0,0,0,28.988-.984Zm8.887-5.223-.69-.041a1.542,1.542,0,0,0-.9.253,1.623,1.623,0,0,0-.564.711V0H34.375V-7.4h1.2l.13,1.08a2.568,2.568,0,0,1,.776-.9,1.814,1.814,0,0,1,1.063-.321,1.664,1.664,0,0,1,.287.024,1.9,1.9,0,0,1,.226.051ZM-36.367,16q-.068-.335-.106-.591a4.34,4.34,0,0,1-.044-.516,3.14,3.14,0,0,1-.981.892,2.509,2.509,0,0,1-1.3.359,2.418,2.418,0,0,1-1.76-.591,2.175,2.175,0,0,1-.6-1.63,1.91,1.91,0,0,1,.858-1.658,4.007,4.007,0,0,1,2.328-.6h1.463v-.731a1.357,1.357,0,0,0-.4-1.029,1.557,1.557,0,0,0-1.121-.379,1.627,1.627,0,0,0-1.06.328.985.985,0,0,0-.4.786l-1.278.014-.014-.041a1.77,1.77,0,0,1,.755-1.477,3.131,3.131,0,0,1,2.075-.67,3.054,3.054,0,0,1,2.023.639,2.264,2.264,0,0,1,.766,1.842V14.51a6.933,6.933,0,0,0,.041.766,3.937,3.937,0,0,0,.15.725Zm-2.235-.984a2.4,2.4,0,0,0,1.319-.376,1.787,1.787,0,0,0,.766-.861v-1.2h-1.511a1.96,1.96,0,0,0-1.3.41,1.227,1.227,0,0,0-.489.964,1.014,1.014,0,0,0,.308.779A1.288,1.288,0,0,0-38.6,15.016Zm5.312-3.056a9.15,9.15,0,0,1,1.087-4.6,6.292,6.292,0,0,1,2.283-2.543l.041.007.26.793a5.832,5.832,0,0,0-1.63,2.345,10.1,10.1,0,0,0-.694,3.985v.089a10.142,10.142,0,0,0,.69,3.985,6.344,6.344,0,0,0,1.634,2.406l-.26.738h-.041a6.294,6.294,0,0,1-2.283-2.54,9.146,9.146,0,0,1-1.087-4.6Zm9.844.69h1.374V13.7h-1.374V16h-1.34V13.7H-29.06v-.759l4.19-6.9h1.422Zm-4.17,0h2.83V7.981l-.041-.007-.13.342Zm9.659-.629a9.123,9.123,0,0,1-1.09,4.6,6.338,6.338,0,0,1-2.28,2.54h-.041l-.26-.738a5.821,5.821,0,0,0,1.624-2.362,10.28,10.28,0,0,0,.7-4.03v-.089a9.935,9.935,0,0,0-.721-3.989,6.591,6.591,0,0,0-1.6-2.4l.26-.738h.041a6.336,6.336,0,0,1,2.28,2.543,9.127,9.127,0,0,1,1.09,4.6Zm8.381,3.069a1.584,1.584,0,0,0,1.087-.414,1.307,1.307,0,0,0,.465-1.015h1.217l.021.041a2.124,2.124,0,0,1-.82,1.7,2.9,2.9,0,0,1-1.969.742,2.9,2.9,0,0,1-2.406-1.06,4.09,4.09,0,0,1-.848-2.639v-.287A4.072,4.072,0,0,1-11.98,9.53a2.9,2.9,0,0,1,2.4-1.063,2.791,2.791,0,0,1,2.027.766,2.428,2.428,0,0,1,.762,1.88l-.014.041H-8.025A1.632,1.632,0,0,0-8.466,10a1.451,1.451,0,0,0-1.111-.475,1.555,1.555,0,0,0-1.446.769,3.6,3.6,0,0,0-.455,1.863v.287a3.668,3.668,0,0,0,.448,1.88A1.554,1.554,0,0,0-9.577,15.091ZM-5.5,12.233a4.072,4.072,0,0,1,.889-2.7A2.98,2.98,0,0,1-2.2,8.467a3.009,3.009,0,0,1,2.43,1.06,4.059,4.059,0,0,1,.892,2.707v.15a4.052,4.052,0,0,1-.889,2.707,3,3,0,0,1-2.42,1.053,3.006,3.006,0,0,1-2.423-1.056,4.045,4.045,0,0,1-.892-2.7Zm1.347.15a3.508,3.508,0,0,0,.5,1.941,1.641,1.641,0,0,0,1.473.766,1.636,1.636,0,0,0,1.463-.766,3.49,3.49,0,0,0,.5-1.941v-.15a3.479,3.479,0,0,0-.5-1.935A1.647,1.647,0,0,0-2.2,9.526a1.624,1.624,0,0,0-1.459.772,3.516,3.516,0,0,0-.5,1.935ZM3.972,8.6l.1,1.1a2.686,2.686,0,0,1,.926-.913,2.471,2.471,0,0,1,1.268-.325,2.414,2.414,0,0,1,1.853.7,3.076,3.076,0,0,1,.656,2.164V16H7.424V11.358a2,2,0,0,0-.386-1.388,1.547,1.547,0,0,0-1.179-.41A2.088,2.088,0,0,0,4.8,9.81a1.813,1.813,0,0,0-.687.7V16H2.769V8.6ZM18.751,16q-.068-.335-.106-.591a4.34,4.34,0,0,1-.044-.516,3.14,3.14,0,0,1-.981.892,2.509,2.509,0,0,1-1.3.359,2.418,2.418,0,0,1-1.76-.591,2.175,2.175,0,0,1-.6-1.63,1.91,1.91,0,0,1,.858-1.658,4.007,4.007,0,0,1,2.328-.6H18.6v-.731a1.357,1.357,0,0,0-.4-1.029,1.557,1.557,0,0,0-1.121-.379,1.627,1.627,0,0,0-1.06.328.985.985,0,0,0-.4.786l-1.278.014-.014-.041a1.77,1.77,0,0,1,.755-1.477,3.131,3.131,0,0,1,2.075-.67,3.054,3.054,0,0,1,2.023.639,2.264,2.264,0,0,1,.766,1.842V14.51a6.933,6.933,0,0,0,.041.766,3.937,3.937,0,0,0,.15.725Zm-2.235-.984a2.4,2.4,0,0,0,1.319-.376,1.787,1.787,0,0,0,.766-.861v-1.2H17.09a1.96,1.96,0,0,0-1.3.41,1.227,1.227,0,0,0-.489.964,1.014,1.014,0,0,0,.308.779A1.288,1.288,0,0,0,16.516,15.016Zm5.312-3.056a9.15,9.15,0,0,1,1.087-4.6A6.292,6.292,0,0,1,25.2,4.816l.041.007.26.793a5.832,5.832,0,0,0-1.63,2.345,10.1,10.1,0,0,0-.694,3.985v.089a10.142,10.142,0,0,0,.69,3.985A6.344,6.344,0,0,0,25.5,18.427l-.26.738H25.2a6.294,6.294,0,0,1-2.283-2.54,9.146,9.146,0,0,1-1.087-4.6Zm4.936-.383.574-5.53H32.32v1.2H28.472l-.321,2.864a3.072,3.072,0,0,1,.711-.393,2.5,2.5,0,0,1,.889-.161,2.71,2.71,0,0,1,2.164.865,3.493,3.493,0,0,1,.783,2.41,3.5,3.5,0,0,1-.8,2.406,2.959,2.959,0,0,1-2.341.909,3.208,3.208,0,0,1-2.105-.69,2.39,2.39,0,0,1-.807-2.03l.014-.041H27.87a1.662,1.662,0,0,0,.468,1.261,1.683,1.683,0,0,0,1.213.448,1.589,1.589,0,0,0,1.326-.6,2.6,2.6,0,0,0,.472-1.647,2.371,2.371,0,0,0-.475-1.538,1.606,1.606,0,0,0-1.323-.588,2.114,2.114,0,0,0-1.148.239,1.4,1.4,0,0,0-.526.738Zm10.4.444a9.123,9.123,0,0,1-1.09,4.6,6.338,6.338,0,0,1-2.28,2.54h-.041l-.26-.738a5.821,5.821,0,0,0,1.624-2.362,10.28,10.28,0,0,0,.7-4.03v-.089a9.935,9.935,0,0,0-.721-3.989,6.591,6.591,0,0,0-1.6-2.4l.26-.738h.041a6.336,6.336,0,0,1,2.28,2.543,9.127,9.127,0,0,1,1.09,4.6ZM40.592,16H39.245V14.619h1.347Z" transform="translate(735.313 3951.768)" fill="#12263f"/>
    <path id="Trazado_826713" data-name="Trazado 826713" d="M-8486.756-7726.089s20.021,10,40.043,10,40.043-10,40.043-10" transform="translate(8767.756 11637.857)" fill="none" stroke="#273a89" stroke-width="2"/>
    <path id="Trazado_826714" data-name="Trazado 826714" d="M5.413,6.83,0,8.373,5.4,0l.013.017L5.426,0l5.4,8.374Z" transform="translate(362.942 3903.609) rotate(56)" fill="#273a89"/>
    <path id="Trazado_826713-2" data-name="Trazado 826713" d="M-8486.756-7726.089s20.021,10,40.043,10,40.043-10,40.043-10" transform="translate(8880.76 11637.857)" fill="none" stroke="#273a89" stroke-width="2"/>
    <path id="Trazado_826714-2" data-name="Trazado 826714" d="M5.413,6.83,0,8.373,5.4,0l.013.017L5.426,0l5.4,8.374Z" transform="translate(475.946 3903.609) rotate(56)" fill="#273a89"/>
    <path id="Trazado_826713-3" data-name="Trazado 826713" d="M-8486.756-7726.089s20.021,10,40.043,10,40.043-10,40.043-10" transform="translate(8977.871 11637.857)" fill="none" stroke="#273a89" stroke-width="2"/>
    <path id="Trazado_826714-3" data-name="Trazado 826714" d="M5.413,6.83,0,8.373,5.4,0l.013.017L5.426,0l5.4,8.374Z" transform="translate(573.058 3903.609) rotate(56)" fill="#273a89"/>
    <path id="Trazado_826713-4" data-name="Trazado 826713" d="M-8486.756-7726.089s20.021,10,40.043,10,40.043-10,40.043-10" transform="translate(9074.983 11637.857)" fill="none" stroke="#273a89" stroke-width="2"/>
    <path id="Trazado_826714-4" data-name="Trazado 826714" d="M5.413,6.83,0,8.373,5.4,0l.013.017L5.426,0l5.4,8.374Z" transform="translate(670.17 3903.609) rotate(56)" fill="#273a89"/>
    <path id="Trazado_826713-5" data-name="Trazado 826713" d="M-8486.756-7726.089s20.021,10,40.043,10,40.043-10,40.043-10" transform="translate(9178.071 11637.857)" fill="none" stroke="#273a89" stroke-width="2"/>
    <path id="Trazado_826714-5" data-name="Trazado 826714" d="M5.413,6.83,0,8.373,5.4,0l.013.017L5.426,0l5.4,8.374Z" transform="translate(773.258 3903.609) rotate(56)" fill="#273a89"/>
  </g>
</svg>
