<svg xmlns="http://www.w3.org/2000/svg" xmlns:xlink="http://www.w3.org/1999/xlink" width="646.217" height="361.714" viewBox="0 0 646.217 361.714">
  <defs>
    <clipPath id="clip-path">
      <path id="Exclusión_3" data-name="Exclusión 3" d="M623.217,361.714H23a23,23,0,0,1-23-23V23A23,23,0,0,1,23,0H623.217a23,23,0,0,1,23,23V338.713a23,23,0,0,1-23,23ZM48.9,20.2a23.026,23.026,0,0,0-23,23V321.4a23.026,23.026,0,0,0,23,23H597.316a23.026,23.026,0,0,0,23-23V43.2a23.026,23.026,0,0,0-23-23Z" transform="translate(0 0)" fill="#1789f7"/>
    </clipPath>
  </defs>
  <g id="Grupo_1075365" data-name="Grupo 1075365" transform="translate(7001 7976)">
    <path id="Trazado_830600" data-name="Trazado 830600" d="M23,0H623.217a23,23,0,0,1,23,23V338.714a23,23,0,0,1-23,23H23a23,23,0,0,1-23-23V23A23,23,0,0,1,23,0Z" transform="translate(-7001 -7976)" fill="#0082ff"/>
    <g id="Enmascarar_grupo_124" data-name="Enmascarar grupo 124" transform="translate(-7001 -7976)" clip-path="url(#clip-path)">
      <ellipse id="Elipse_9726" data-name="Elipse 9726" cx="224.686" cy="166.908" rx="224.686" ry="166.908" transform="translate(-137.272 137.566)" fill="#ffce00"/>
      <ellipse id="Elipse_9727" data-name="Elipse 9727" cx="224.686" cy="166.908" rx="224.686" ry="166.908" transform="translate(347.066 -159.693)" fill="#3ee2a8"/>
    </g>
    <path id="Trazado_830601" data-name="Trazado 830601" d="M22,0H593.4a22,22,0,0,1,22,22V310.269a22,22,0,0,1-22,22H22a22,22,0,0,1-22-22V22A22,22,0,0,1,22,0Z" transform="translate(-6986 -7960)" fill="#fff"/>
    <path id="Trazado_830602" data-name="Trazado 830602" d="M10.25-4.664A4.776,4.776,0,0,1,8.93-1.2,4.571,4.571,0,0,1,5.492.164,4.529,4.529,0,0,1,2.07-1.2,4.8,4.8,0,0,1,.758-4.664V-6.711a4.807,4.807,0,0,1,1.309-3.457,4.5,4.5,0,0,1,3.41-1.371,4.583,4.583,0,0,1,3.445,1.371A4.768,4.768,0,0,1,10.25-6.711ZM7.977-6.727a3.44,3.44,0,0,0-.664-2.18,2.2,2.2,0,0,0-1.836-.852,2.129,2.129,0,0,0-1.8.852,3.512,3.512,0,0,0-.645,2.18v2.063a3.537,3.537,0,0,0,.648,2.2,2.148,2.148,0,0,0,1.813.852A2.177,2.177,0,0,0,7.32-2.461a3.507,3.507,0,0,0,.656-2.2Zm8.352.234-.836-.023a1.519,1.519,0,0,0-.836.211,1.337,1.337,0,0,0-.5.594V0H11.883V-8.453H14l.1,1.25a2.667,2.667,0,0,1,.77-1.035,1.715,1.715,0,0,1,1.09-.371,1.7,1.7,0,0,1,.316.027q.145.027.293.066Zm.688,2.336a5.493,5.493,0,0,1,.863-3.227,2.8,2.8,0,0,1,2.434-1.227,2.367,2.367,0,0,1,1.141.273,2.744,2.744,0,0,1,.891.781v-4.633h2.289V0H22.688l-.2-1.039a2.826,2.826,0,0,1-.945.895A2.5,2.5,0,0,1,20.3.164,2.858,2.858,0,0,1,17.879-.977a4.871,4.871,0,0,1-.863-3.016Zm2.273.164a3.443,3.443,0,0,0,.375,1.746,1.306,1.306,0,0,0,1.219.637,1.775,1.775,0,0,0,.859-.2,1.589,1.589,0,0,0,.6-.582v-3.6a1.756,1.756,0,0,0-.6-.621,1.589,1.589,0,0,0-.848-.223,1.287,1.287,0,0,0-1.223.742,4.194,4.194,0,0,0-.387,1.938ZM30.063.164A3.8,3.8,0,0,1,27.109-1a4.252,4.252,0,0,1-1.062-2.988V-4.3a4.628,4.628,0,0,1,1.031-3.109,3.506,3.506,0,0,1,2.836-1.2,3.282,3.282,0,0,1,2.613,1.043,4.122,4.122,0,0,1,.91,2.809v1.18H28.4l-.023.047A2.284,2.284,0,0,0,28.9-2.125a1.766,1.766,0,0,0,1.4.539,4.692,4.692,0,0,0,1.3-.156,5.307,5.307,0,0,0,1.105-.477l.617,1.406a4.234,4.234,0,0,1-1.375.7A6.1,6.1,0,0,1,30.063.164Zm-.148-7.016a1.267,1.267,0,0,0-1.059.473,2.371,2.371,0,0,0-.449,1.254l.016.039H31.2v-.172a1.974,1.974,0,0,0-.3-1.168A1.127,1.127,0,0,0,29.914-6.852Zm6.938-1.6.1,1.211A3.092,3.092,0,0,1,37.992-8.25a2.7,2.7,0,0,1,1.383-.359,2.513,2.513,0,0,1,2,.824,3.908,3.908,0,0,1,.719,2.605V0H39.8V-5.172a2.024,2.024,0,0,0-.316-1.285,1.166,1.166,0,0,0-.949-.379,1.992,1.992,0,0,0-.895.191,1.746,1.746,0,0,0-.637.527V0H34.727V-8.453ZM48.781,0a4.8,4.8,0,0,1-.215-.609,4.239,4.239,0,0,1-.129-.656,3.127,3.127,0,0,1-.93,1.023,2.33,2.33,0,0,1-1.375.406A2.855,2.855,0,0,1,44.086-.52a2.449,2.449,0,0,1-.719-1.863,2.229,2.229,0,0,1,.957-1.926,4.78,4.78,0,0,1,2.793-.684H48.4v-.672a1.315,1.315,0,0,0-.32-.945,1.257,1.257,0,0,0-.953-.336,1.239,1.239,0,0,0-.855.27.941.941,0,0,0-.3.738h-2.2l-.016-.047a2.144,2.144,0,0,1,.934-1.848,4.055,4.055,0,0,1,2.582-.777,3.784,3.784,0,0,1,2.465.766,2.667,2.667,0,0,1,.941,2.2v3.492a6.605,6.605,0,0,0,.09,1.117A5.606,5.606,0,0,0,51.055,0ZM46.7-1.523a1.944,1.944,0,0,0,1.063-.3,1.6,1.6,0,0,0,.641-.687V-3.7H47.117a1.519,1.519,0,0,0-1.1.359,1.181,1.181,0,0,0-.371.883.881.881,0,0,0,.277.684A1.1,1.1,0,0,0,46.7-1.523Zm7.813-6.93L54.6-7.336a2.84,2.84,0,0,1,1.02-.941,2.932,2.932,0,0,1,1.418-.332,2.582,2.582,0,0,1,1.391.359A2.217,2.217,0,0,1,59.3-7.164,2.93,2.93,0,0,1,60.32-8.227a2.756,2.756,0,0,1,1.469-.383,2.408,2.408,0,0,1,1.973.887,4.233,4.233,0,0,1,.723,2.707V0H62.2V-5.023a2.369,2.369,0,0,0-.312-1.414,1.109,1.109,0,0,0-.93-.4,1.592,1.592,0,0,0-.84.215,1.565,1.565,0,0,0-.566.6q0,.148.008.254t.008.215V0H57.3V-5.023a2.376,2.376,0,0,0-.312-1.4,1.1,1.1,0,0,0-.937-.41,1.769,1.769,0,0,0-.809.176,1.551,1.551,0,0,0-.574.5V0H52.391V-8.453ZM68.633,0H66.352V-8.453h2.281Zm0-10.477H66.352v-1.711h2.281ZM74.172.164A3.8,3.8,0,0,1,71.219-1a4.252,4.252,0,0,1-1.062-2.988V-4.3a4.628,4.628,0,0,1,1.031-3.109,3.506,3.506,0,0,1,2.836-1.2,3.282,3.282,0,0,1,2.613,1.043,4.122,4.122,0,0,1,.91,2.809v1.18H72.508l-.023.047a2.284,2.284,0,0,0,.527,1.406,1.766,1.766,0,0,0,1.4.539,4.692,4.692,0,0,0,1.3-.156,5.307,5.307,0,0,0,1.105-.477l.617,1.406a4.234,4.234,0,0,1-1.375.7A6.1,6.1,0,0,1,74.172.164Zm-.148-7.016a1.267,1.267,0,0,0-1.059.473,2.371,2.371,0,0,0-.449,1.254l.016.039h2.781v-.172a1.974,1.974,0,0,0-.3-1.168A1.127,1.127,0,0,0,74.023-6.852Zm6.938-1.6.1,1.211A3.092,3.092,0,0,1,82.1-8.25a2.7,2.7,0,0,1,1.383-.359,2.513,2.513,0,0,1,2,.824A3.908,3.908,0,0,1,86.2-5.18V0H83.914V-5.172A2.024,2.024,0,0,0,83.6-6.457a1.166,1.166,0,0,0-.949-.379,1.992,1.992,0,0,0-.895.191,1.746,1.746,0,0,0-.637.527V0H78.836V-8.453Zm9.68-2.07v2.07h1.43v1.6h-1.43v4.3a.982.982,0,0,0,.207.7.727.727,0,0,0,.543.211,2.178,2.178,0,0,0,.313-.02,2.632,2.632,0,0,0,.3-.066L92.2-.07a4.618,4.618,0,0,1-.668.176,3.982,3.982,0,0,1-.707.059A2.431,2.431,0,0,1,89-.484a2.843,2.843,0,0,1-.637-2.055V-6.852H87.133v-1.6h1.234v-2.07ZM93.125-4.3A4.536,4.536,0,0,1,94.18-7.4,3.676,3.676,0,0,1,97.1-8.609a3.715,3.715,0,0,1,2.938,1.2A4.512,4.512,0,0,1,101.1-4.3v.164a4.519,4.519,0,0,1-1.059,3.105,3.7,3.7,0,0,1-2.926,1.2,3.709,3.709,0,0,1-2.934-1.2,4.519,4.519,0,0,1-1.059-3.105Zm2.273.164A3.677,3.677,0,0,0,95.8-2.285a1.4,1.4,0,0,0,1.313.7,1.389,1.389,0,0,0,1.293-.7,3.653,3.653,0,0,0,.41-1.852V-4.3a3.616,3.616,0,0,0-.414-1.836,1.4,1.4,0,0,0-1.3-.711,1.384,1.384,0,0,0-1.293.715A3.648,3.648,0,0,0,95.4-4.3Zm18.719.148a4.855,4.855,0,0,1-.867,3.016A2.869,2.869,0,0,1,110.828.164a2.707,2.707,0,0,1-1.18-.246,2.423,2.423,0,0,1-.883-.723V3.25h-2.273v-11.7h2.055l.133,1a2.709,2.709,0,0,1,.9-.855,2.441,2.441,0,0,1,1.23-.3,2.813,2.813,0,0,1,2.438,1.227,5.474,5.474,0,0,1,.867,3.227Zm-2.281-.164a4.09,4.09,0,0,0-.4-1.937,1.3,1.3,0,0,0-1.219-.742,1.722,1.722,0,0,0-.879.211,1.505,1.505,0,0,0-.574.6v3.7a1.4,1.4,0,0,0,.574.547,1.935,1.935,0,0,0,.895.188,1.312,1.312,0,0,0,1.215-.648,3.423,3.423,0,0,0,.387-1.758Zm3.336-.148a4.536,4.536,0,0,1,1.055-3.1,3.676,3.676,0,0,1,2.922-1.207,3.715,3.715,0,0,1,2.938,1.2,4.512,4.512,0,0,1,1.063,3.1v.164a4.519,4.519,0,0,1-1.059,3.105,3.7,3.7,0,0,1-2.926,1.2,3.709,3.709,0,0,1-2.934-1.2,4.519,4.519,0,0,1-1.059-3.105Zm2.273.164a3.677,3.677,0,0,0,.406,1.855,1.4,1.4,0,0,0,1.313.7,1.389,1.389,0,0,0,1.293-.7,3.653,3.653,0,0,0,.41-1.852V-4.3a3.616,3.616,0,0,0-.414-1.836,1.4,1.4,0,0,0-1.3-.711,1.384,1.384,0,0,0-1.293.715,3.648,3.648,0,0,0-.41,1.832ZM129-6.492l-.836-.023a1.519,1.519,0,0,0-.836.211,1.337,1.337,0,0,0-.5.594V0h-2.273V-8.453h2.117l.1,1.25a2.667,2.667,0,0,1,.77-1.035,1.715,1.715,0,0,1,1.09-.371,1.705,1.705,0,0,1,.316.027q.145.027.293.066Zm9.742,4.148a.787.787,0,0,0-.363-.645,3.69,3.69,0,0,0-1.348-.473,5.375,5.375,0,0,1-2.254-.9,1.962,1.962,0,0,1-.77-1.633,2.329,2.329,0,0,1,.922-1.852,3.717,3.717,0,0,1,2.453-.766,4.011,4.011,0,0,1,2.566.766,2.237,2.237,0,0,1,.926,1.906l-.016.047h-2.2a1.106,1.106,0,0,0-.328-.828,1.3,1.3,0,0,0-.945-.32,1.292,1.292,0,0,0-.867.273.85.85,0,0,0-.32.672.759.759,0,0,0,.332.637,3.7,3.7,0,0,0,1.348.441,5.484,5.484,0,0,1,2.316.918,2.014,2.014,0,0,1,.762,1.668,2.231,2.231,0,0,1-.977,1.867A4.215,4.215,0,0,1,137.4.164a3.918,3.918,0,0,1-2.668-.855,2.392,2.392,0,0,1-.934-1.949l.016-.047H135.9a1.186,1.186,0,0,0,.445.984,1.838,1.838,0,0,0,1.1.3,1.567,1.567,0,0,0,.965-.254A.824.824,0,0,0,138.742-2.344ZM146.086.164A3.8,3.8,0,0,1,143.133-1a4.252,4.252,0,0,1-1.062-2.988V-4.3A4.628,4.628,0,0,1,143.1-7.406a3.506,3.506,0,0,1,2.836-1.2,3.282,3.282,0,0,1,2.613,1.043,4.122,4.122,0,0,1,.91,2.809v1.18h-5.039l-.023.047a2.284,2.284,0,0,0,.527,1.406,1.766,1.766,0,0,0,1.4.539,4.692,4.692,0,0,0,1.3-.156,5.307,5.307,0,0,0,1.105-.477l.617,1.406a4.234,4.234,0,0,1-1.375.7A6.1,6.1,0,0,1,146.086.164Zm-.148-7.016a1.267,1.267,0,0,0-1.059.473,2.371,2.371,0,0,0-.449,1.254l.016.039h2.781v-.172a1.974,1.974,0,0,0-.3-1.168A1.127,1.127,0,0,0,145.938-6.852ZM153.188,0h-2.281V-12.187h2.281Zm5.539.164A3.8,3.8,0,0,1,155.773-1a4.252,4.252,0,0,1-1.062-2.988V-4.3a4.628,4.628,0,0,1,1.031-3.109,3.506,3.506,0,0,1,2.836-1.2,3.282,3.282,0,0,1,2.613,1.043,4.122,4.122,0,0,1,.91,2.809v1.18h-5.039l-.023.047a2.284,2.284,0,0,0,.527,1.406,1.766,1.766,0,0,0,1.4.539,4.692,4.692,0,0,0,1.3-.156,5.307,5.307,0,0,0,1.105-.477l.617,1.406a4.234,4.234,0,0,1-1.375.7A6.1,6.1,0,0,1,158.727.164Zm-.148-7.016a1.267,1.267,0,0,0-1.059.473,2.371,2.371,0,0,0-.449,1.254l.016.039h2.781v-.172a1.974,1.974,0,0,0-.3-1.168A1.127,1.127,0,0,0,158.578-6.852Zm8.383,5.266a1.27,1.27,0,0,0,.945-.355,1.291,1.291,0,0,0,.352-.949h2.078l.016.047A2.645,2.645,0,0,1,169.4-.7a3.564,3.564,0,0,1-2.437.863,3.6,3.6,0,0,1-2.9-1.2A4.558,4.558,0,0,1,163.039-4.1v-.234a4.588,4.588,0,0,1,1.02-3.066,3.57,3.57,0,0,1,2.887-1.207,3.486,3.486,0,0,1,2.492.891,2.976,2.976,0,0,1,.914,2.344l-.016.047h-2.078a1.687,1.687,0,0,0-.348-1.09,1.168,1.168,0,0,0-.965-.434,1.3,1.3,0,0,0-1.254.707,3.878,3.878,0,0,0-.371,1.809V-4.1a3.863,3.863,0,0,0,.371,1.82A1.32,1.32,0,0,0,166.961-1.586Zm8.25,0a1.27,1.27,0,0,0,.945-.355,1.291,1.291,0,0,0,.352-.949h2.078l.016.047A2.645,2.645,0,0,1,177.648-.7a3.564,3.564,0,0,1-2.437.863,3.6,3.6,0,0,1-2.9-1.2A4.558,4.558,0,0,1,171.289-4.1v-.234a4.588,4.588,0,0,1,1.02-3.066A3.57,3.57,0,0,1,175.2-8.609a3.486,3.486,0,0,1,2.492.891,2.976,2.976,0,0,1,.914,2.344l-.016.047h-2.078a1.687,1.687,0,0,0-.348-1.09,1.168,1.168,0,0,0-.965-.434,1.3,1.3,0,0,0-1.254.707,3.878,3.878,0,0,0-.371,1.809V-4.1a3.863,3.863,0,0,0,.371,1.82A1.32,1.32,0,0,0,175.211-1.586ZM182.328,0h-2.281V-8.453h2.281Zm0-10.477h-2.281v-1.711h2.281ZM183.852-4.3a4.536,4.536,0,0,1,1.055-3.1,3.676,3.676,0,0,1,2.922-1.207,3.715,3.715,0,0,1,2.938,1.2,4.512,4.512,0,0,1,1.063,3.1v.164a4.519,4.519,0,0,1-1.059,3.105,3.7,3.7,0,0,1-2.926,1.2,3.709,3.709,0,0,1-2.934-1.2,4.519,4.519,0,0,1-1.059-3.105Zm2.273.164a3.677,3.677,0,0,0,.406,1.855,1.4,1.4,0,0,0,1.313.7,1.389,1.389,0,0,0,1.293-.7,3.653,3.653,0,0,0,.41-1.852V-4.3a3.616,3.616,0,0,0-.414-1.836,1.4,1.4,0,0,0-1.3-.711,1.384,1.384,0,0,0-1.293.715,3.648,3.648,0,0,0-.41,1.832Zm2.164-7.922h2.539l.016.047L188.68-9.984h-1.945Zm7.031,3.609.1,1.211a3.092,3.092,0,0,1,1.039-1.008,2.7,2.7,0,0,1,1.383-.359,2.513,2.513,0,0,1,2,.824,3.908,3.908,0,0,1,.719,2.605V0h-2.289V-5.172a2.024,2.024,0,0,0-.316-1.285,1.166,1.166,0,0,0-.949-.379,1.992,1.992,0,0,0-.895.191,1.746,1.746,0,0,0-.637.527V0H193.2V-8.453ZM209.3-3.547l.094.469h.047l1.617-5.375h2.453l-3.43,9.719a4.474,4.474,0,0,1-.977,1.527,2.505,2.505,0,0,1-1.852.621,2.863,2.863,0,0,1-.535-.047q-.246-.047-.6-.133l.266-1.664.219.031a1.611,1.611,0,0,0,.211.016,1.243,1.243,0,0,0,.867-.277,1.83,1.83,0,0,0,.469-.691l.266-.656-3-8.445h2.453Zm13.555-2.945-.836-.023a1.519,1.519,0,0,0-.836.211,1.337,1.337,0,0,0-.5.594V0h-2.273V-8.453h2.117l.1,1.25a2.667,2.667,0,0,1,.77-1.035,1.715,1.715,0,0,1,1.09-.371,1.705,1.705,0,0,1,.316.027q.145.027.293.066Zm4.7,6.656A3.8,3.8,0,0,1,224.6-1a4.252,4.252,0,0,1-1.062-2.988V-4.3a4.628,4.628,0,0,1,1.031-3.109,3.506,3.506,0,0,1,2.836-1.2,3.282,3.282,0,0,1,2.613,1.043,4.122,4.122,0,0,1,.91,2.809v1.18h-5.039l-.023.047a2.284,2.284,0,0,0,.527,1.406,1.766,1.766,0,0,0,1.4.539,4.692,4.692,0,0,0,1.3-.156,5.307,5.307,0,0,0,1.105-.477l.617,1.406a4.234,4.234,0,0,1-1.375.7A6.1,6.1,0,0,1,227.555.164Zm-.148-7.016a1.267,1.267,0,0,0-1.059.473,2.371,2.371,0,0,0-.449,1.254l.016.039H228.7v-.172a1.974,1.974,0,0,0-.3-1.168A1.127,1.127,0,0,0,227.406-6.852ZM235.922.164A3.8,3.8,0,0,1,232.969-1a4.252,4.252,0,0,1-1.062-2.988V-4.3a4.628,4.628,0,0,1,1.031-3.109,3.506,3.506,0,0,1,2.836-1.2,3.282,3.282,0,0,1,2.613,1.043,4.122,4.122,0,0,1,.91,2.809v1.18h-5.039l-.023.047a2.284,2.284,0,0,0,.527,1.406,1.766,1.766,0,0,0,1.4.539,4.692,4.692,0,0,0,1.3-.156,5.307,5.307,0,0,0,1.105-.477l.617,1.406a4.234,4.234,0,0,1-1.375.7A6.1,6.1,0,0,1,235.922.164Zm-.148-7.016a1.267,1.267,0,0,0-1.059.473,2.371,2.371,0,0,0-.449,1.254l.016.039h2.781v-.172a1.974,1.974,0,0,0-.3-1.168A1.127,1.127,0,0,0,235.773-6.852Zm6.969-1.6.094,1.117a2.84,2.84,0,0,1,1.02-.941,2.932,2.932,0,0,1,1.418-.332,2.582,2.582,0,0,1,1.391.359,2.217,2.217,0,0,1,.875,1.086,2.93,2.93,0,0,1,1.016-1.062,2.756,2.756,0,0,1,1.469-.383A2.408,2.408,0,0,1,252-7.723a4.233,4.233,0,0,1,.723,2.707V0h-2.281V-5.023a2.369,2.369,0,0,0-.312-1.414,1.109,1.109,0,0,0-.93-.4,1.592,1.592,0,0,0-.84.215,1.565,1.565,0,0,0-.566.6q0,.148.008.254t.008.215V0h-2.273V-5.023a2.376,2.376,0,0,0-.312-1.4,1.1,1.1,0,0,0-.937-.41,1.769,1.769,0,0,0-.809.176,1.551,1.551,0,0,0-.574.5V0h-2.273V-8.453Zm19.352,4.461a4.855,4.855,0,0,1-.867,3.016A2.869,2.869,0,0,1,258.8.164a2.707,2.707,0,0,1-1.18-.246,2.423,2.423,0,0,1-.883-.723V3.25h-2.273v-11.7h2.055l.133,1a2.709,2.709,0,0,1,.9-.855,2.441,2.441,0,0,1,1.23-.3,2.813,2.813,0,0,1,2.438,1.227,5.474,5.474,0,0,1,.867,3.227Zm-2.281-.164a4.09,4.09,0,0,0-.4-1.937,1.3,1.3,0,0,0-1.219-.742,1.722,1.722,0,0,0-.879.211,1.505,1.505,0,0,0-.574.6v3.7a1.4,1.4,0,0,0,.574.547,1.935,1.935,0,0,0,.895.188,1.312,1.312,0,0,0,1.215-.648,3.423,3.423,0,0,0,.387-1.758ZM265.9,0h-2.281V-12.187H265.9Zm6.859,0a4.8,4.8,0,0,1-.215-.609,4.236,4.236,0,0,1-.129-.656,3.127,3.127,0,0,1-.93,1.023,2.33,2.33,0,0,1-1.375.406,2.855,2.855,0,0,1-2.047-.684,2.449,2.449,0,0,1-.719-1.863,2.229,2.229,0,0,1,.957-1.926,4.78,4.78,0,0,1,2.793-.684h1.281v-.672a1.315,1.315,0,0,0-.32-.945,1.257,1.257,0,0,0-.953-.336,1.239,1.239,0,0,0-.855.27.941.941,0,0,0-.3.738h-2.2l-.016-.047a2.144,2.144,0,0,1,.934-1.848,4.055,4.055,0,0,1,2.582-.777,3.784,3.784,0,0,1,2.465.766,2.667,2.667,0,0,1,.941,2.2v3.492a6.6,6.6,0,0,0,.09,1.117A5.606,5.606,0,0,0,275.031,0Zm-2.086-1.523a1.944,1.944,0,0,0,1.063-.3,1.6,1.6,0,0,0,.641-.687V-3.7h-1.281a1.519,1.519,0,0,0-1.1.359,1.181,1.181,0,0,0-.371.883.881.881,0,0,0,.277.684A1.1,1.1,0,0,0,270.672-1.523Zm8.242-.227H283.1V0h-7.023V-1.344L280.1-6.687h-3.9V-8.453h6.766v1.3ZM284.063-4.3a4.536,4.536,0,0,1,1.055-3.1,3.676,3.676,0,0,1,2.922-1.207,3.715,3.715,0,0,1,2.938,1.2,4.512,4.512,0,0,1,1.063,3.1v.164a4.519,4.519,0,0,1-1.059,3.105,3.7,3.7,0,0,1-2.926,1.2,3.709,3.709,0,0,1-2.934-1.2,4.519,4.519,0,0,1-1.059-3.105Zm2.273.164a3.677,3.677,0,0,0,.406,1.855,1.4,1.4,0,0,0,1.313.7,1.389,1.389,0,0,0,1.293-.7,3.653,3.653,0,0,0,.41-1.852V-4.3a3.616,3.616,0,0,0-.414-1.836,1.4,1.4,0,0,0-1.3-.711,1.384,1.384,0,0,0-1.293.715,3.648,3.648,0,0,0-.41,1.832Z" transform="translate(-6822 -7918)" fill="#12263f"/>
    <g id="Trazado_830603" data-name="Trazado 830603" transform="translate(-6949 -7894)" fill="#dcecfe">
      <path d="M 29.5 161.5 L 0.5 161.5 L 0.5 0.5 L 29.5 0.5 L 29.5 161.5 Z" stroke="none"/>
      <path d="M 1 1 L 1 161 L 29 161 L 29 1 L 1 1 M 0 0 L 30 0 L 30 162 L 0 162 L 0 0 Z" stroke="none" fill="#273a89"/>
    </g>
    <g id="Trazado_830604" data-name="Trazado 830604" transform="translate(-6851 -7894)" fill="#dcecfe">
      <path d="M 29.5 161.5 L 0.5 161.5 L 0.5 0.5 L 29.5 0.5 L 29.5 161.5 Z" stroke="none"/>
      <path d="M 1 1 L 1 161 L 29 161 L 29 1 L 1 1 M 0 0 L 30 0 L 30 162 L 0 162 L 0 0 Z" stroke="none" fill="#273a89"/>
    </g>
    <g id="Trazado_830605" data-name="Trazado 830605" transform="translate(-6752 -7894)" fill="#dcecfe">
      <path d="M 29.5 161.5 L 0.5 161.5 L 0.5 0.5 L 29.5 0.5 L 29.5 161.5 Z" stroke="none"/>
      <path d="M 1 1 L 1 161 L 29 161 L 29 1 L 1 1 M 0 0 L 30 0 L 30 162 L 0 162 L 0 0 Z" stroke="none" fill="#273a89"/>
    </g>
    <g id="Trazado_830606" data-name="Trazado 830606" transform="translate(-6654 -7894)" fill="#dcecfe">
      <path d="M 29.5 161.5 L 0.5 161.5 L 0.5 0.5 L 29.5 0.5 L 29.5 161.5 Z" stroke="none"/>
      <path d="M 1 1 L 1 161 L 29 161 L 29 1 L 1 1 M 0 0 L 30 0 L 30 162 L 0 162 L 0 0 Z" stroke="none" fill="#273a89"/>
    </g>
    <g id="Trazado_830607" data-name="Trazado 830607" transform="translate(-6556 -7894)" fill="#dcecfe">
      <path d="M 29.5 161.5 L 0.5 161.5 L 0.5 0.5 L 29.5 0.5 L 29.5 161.5 Z" stroke="none"/>
      <path d="M 1 1 L 1 161 L 29 161 L 29 1 L 1 1 M 0 0 L 30 0 L 30 162 L 0 162 L 0 0 Z" stroke="none" fill="#273a89"/>
    </g>
    <g id="Trazado_830608" data-name="Trazado 830608" transform="translate(-6458 -7894)" fill="#dcecfe">
      <path d="M 29.5 161.5 L 0.5 161.5 L 0.5 0.5 L 29.5 0.5 L 29.5 161.5 Z" stroke="none"/>
      <path d="M 1 1 L 1 161 L 29 161 L 29 1 L 1 1 M 0 0 L 30 0 L 30 162 L 0 162 L 0 0 Z" stroke="none" fill="#273a89"/>
    </g>
    <path id="Trazado_830609" data-name="Trazado 830609" d="M1.282-4.739,1.9-10.664H7.236v1.282H3.113L2.769-6.313a3.292,3.292,0,0,1,.762-.421,2.679,2.679,0,0,1,.952-.172A2.9,2.9,0,0,1,6.8-5.98,3.742,3.742,0,0,1,7.639-3.4,3.751,3.751,0,0,1,6.779-.82,3.17,3.17,0,0,1,4.27.154a3.437,3.437,0,0,1-2.256-.74A2.56,2.56,0,0,1,1.15-2.761l.015-.044h1.3a1.781,1.781,0,0,0,.5,1.351,1.8,1.8,0,0,0,1.3.48,1.7,1.7,0,0,0,1.421-.645A2.79,2.79,0,0,0,6.2-3.384a2.541,2.541,0,0,0-.509-1.648,1.721,1.721,0,0,0-1.417-.63,2.265,2.265,0,0,0-1.23.256,1.5,1.5,0,0,0-.564.791Z" transform="translate(-6938 -7870)" fill="#12263f"/>
    <path id="Trazado_830610" data-name="Trazado 830610" d="M5.2,0H3.75V-9.331l-2.322.022v-1.113l3.772-.4Z" transform="translate(-6840 -7870)" fill="#12263f"/>
    <path id="Trazado_830611" data-name="Trazado 830611" d="M5.2,0H3.75V-9.331l-2.322.022v-1.113l3.772-.4Z" transform="translate(-6741 -7870)" fill="#12263f"/>
    <path id="Trazado_830612" data-name="Trazado 830612" d="M5.2,0H3.75V-9.331l-2.322.022v-1.113l3.772-.4Z" transform="translate(-6643 -7870)" fill="#12263f"/>
    <path id="Trazado_830613" data-name="Trazado 830613" d="M5.2,0H3.75V-9.331l-2.322.022v-1.113l3.772-.4Z" transform="translate(-6545 -7870)" fill="#12263f"/>
    <path id="Trazado_830614" data-name="Trazado 830614" d="M5.2,0H3.75V-9.331l-2.322.022v-1.113l3.772-.4Z" transform="translate(-6447 -7870)" fill="#12263f"/>
    <path id="Trazado_830615" data-name="Trazado 830615" d="M7.617-3.765A4.208,4.208,0,0,1,6.7-.9,3.113,3.113,0,0,1,4.226.154,3.127,3.127,0,0,1,1.754-.9,4.187,4.187,0,0,1,.828-3.765V-6.9a4.214,4.214,0,0,1,.919-2.856,3.1,3.1,0,0,1,2.465-1.062A3.125,3.125,0,0,1,6.691-9.756,4.193,4.193,0,0,1,7.617-6.9ZM6.174-7.2a2.909,2.909,0,0,0-.513-1.816,1.723,1.723,0,0,0-1.45-.667,1.7,1.7,0,0,0-1.436.667A2.939,2.939,0,0,0,2.271-7.2v3.728a2.926,2.926,0,0,0,.516,1.824,1.71,1.71,0,0,0,1.439.674,1.7,1.7,0,0,0,1.443-.67,2.969,2.969,0,0,0,.505-1.827Z" transform="translate(-6965 -7870)" fill="#12263f"/>
    <path id="Trazado_830616" data-name="Trazado 830616" d="M7.4-7.939a2.4,2.4,0,0,1-.469,1.469,2.839,2.839,0,0,1-1.245.948,3.125,3.125,0,0,1,1.458,1A2.476,2.476,0,0,1,7.69-2.93,2.815,2.815,0,0,1,6.735-.652,3.649,3.649,0,0,1,4.3.154,3.932,3.932,0,0,1,1.74-.652,2.767,2.767,0,0,1,.747-2.93a2.445,2.445,0,0,1,.56-1.589A3.23,3.23,0,0,1,2.82-5.53a2.81,2.81,0,0,1-1.3-.941,2.378,2.378,0,0,1-.476-1.469,2.613,2.613,0,0,1,.9-2.139,3.559,3.559,0,0,1,2.34-.74,3.336,3.336,0,0,1,2.238.743A2.646,2.646,0,0,1,7.4-7.939ZM6.255-2.959a1.938,1.938,0,0,0-.568-1.436,1.912,1.912,0,0,0-1.4-.564,2.092,2.092,0,0,0-1.5.564A1.9,1.9,0,0,0,2.19-2.959a1.866,1.866,0,0,0,.59,1.443A2.158,2.158,0,0,0,4.3-.974a1.921,1.921,0,0,0,1.4-.546A1.918,1.918,0,0,0,6.255-2.959Zm-.3-4.958a1.752,1.752,0,0,0-.48-1.267,1.586,1.586,0,0,0-1.19-.5A1.8,1.8,0,0,0,3-9.2,1.689,1.689,0,0,0,2.49-7.917,1.769,1.769,0,0,0,3-6.6a1.771,1.771,0,0,0,1.3.505A1.552,1.552,0,0,0,5.482-6.6,1.853,1.853,0,0,0,5.955-7.917Z" transform="translate(-6938 -7844)" fill="#12263f"/>
    <path id="Trazado_830617" data-name="Trazado 830617" d="M7.4-7.939a2.4,2.4,0,0,1-.469,1.469,2.839,2.839,0,0,1-1.245.948,3.125,3.125,0,0,1,1.458,1A2.476,2.476,0,0,1,7.69-2.93,2.815,2.815,0,0,1,6.735-.652,3.649,3.649,0,0,1,4.3.154,3.932,3.932,0,0,1,1.74-.652,2.767,2.767,0,0,1,.747-2.93a2.445,2.445,0,0,1,.56-1.589A3.23,3.23,0,0,1,2.82-5.53a2.81,2.81,0,0,1-1.3-.941,2.378,2.378,0,0,1-.476-1.469,2.613,2.613,0,0,1,.9-2.139,3.559,3.559,0,0,1,2.34-.74,3.336,3.336,0,0,1,2.238.743A2.646,2.646,0,0,1,7.4-7.939ZM6.255-2.959a1.938,1.938,0,0,0-.568-1.436,1.912,1.912,0,0,0-1.4-.564,2.092,2.092,0,0,0-1.5.564A1.9,1.9,0,0,0,2.19-2.959a1.866,1.866,0,0,0,.59,1.443A2.158,2.158,0,0,0,4.3-.974a1.921,1.921,0,0,0,1.4-.546A1.918,1.918,0,0,0,6.255-2.959Zm-.3-4.958a1.752,1.752,0,0,0-.48-1.267,1.586,1.586,0,0,0-1.19-.5A1.8,1.8,0,0,0,3-9.2,1.689,1.689,0,0,0,2.49-7.917,1.769,1.769,0,0,0,3-6.6a1.771,1.771,0,0,0,1.3.505A1.552,1.552,0,0,0,5.482-6.6,1.853,1.853,0,0,0,5.955-7.917Z" transform="translate(-6840 -7844)" fill="#12263f"/>
    <path id="Trazado_830618" data-name="Trazado 830618" d="M4.241-6.064a1.691,1.691,0,0,0,1.366-.48,2.043,2.043,0,0,0,.4-1.344,1.894,1.894,0,0,0-.436-1.3,1.632,1.632,0,0,0-1.293-.494A1.929,1.929,0,0,0,2.9-9.166a1.706,1.706,0,0,0-.546,1.293H.974L.952-7.917A2.548,2.548,0,0,1,1.86-9.968a3.478,3.478,0,0,1,2.417-.85,3.377,3.377,0,0,1,2.329.751,2.8,2.8,0,0,1,.842,2.208A2.484,2.484,0,0,1,7.057-6.5a2.642,2.642,0,0,1-1.095.959,2.52,2.52,0,0,1,1.227.978A2.872,2.872,0,0,1,7.61-2.974a2.927,2.927,0,0,1-.927,2.3A3.466,3.466,0,0,1,4.277.154a3.81,3.81,0,0,1-2.4-.8,2.456,2.456,0,0,1-1-2.12l.015-.044H2.271a1.73,1.73,0,0,0,.56,1.307,2.017,2.017,0,0,0,1.447.531A1.794,1.794,0,0,0,5.662-1.52a2.013,2.013,0,0,0,.505-1.425,2.131,2.131,0,0,0-.465-1.5,1.913,1.913,0,0,0-1.461-.5H3.054V-6.064Z" transform="translate(-6741 -7844)" fill="#12263f"/>
    <path id="Trazado_830619" data-name="Trazado 830619" d="M4.241-6.064a1.691,1.691,0,0,0,1.366-.48,2.043,2.043,0,0,0,.4-1.344,1.894,1.894,0,0,0-.436-1.3,1.632,1.632,0,0,0-1.293-.494A1.929,1.929,0,0,0,2.9-9.166a1.706,1.706,0,0,0-.546,1.293H.974L.952-7.917A2.548,2.548,0,0,1,1.86-9.968a3.478,3.478,0,0,1,2.417-.85,3.377,3.377,0,0,1,2.329.751,2.8,2.8,0,0,1,.842,2.208A2.484,2.484,0,0,1,7.057-6.5a2.642,2.642,0,0,1-1.095.959,2.52,2.52,0,0,1,1.227.978A2.872,2.872,0,0,1,7.61-2.974a2.927,2.927,0,0,1-.927,2.3A3.466,3.466,0,0,1,4.277.154a3.81,3.81,0,0,1-2.4-.8,2.456,2.456,0,0,1-1-2.12l.015-.044H2.271a1.73,1.73,0,0,0,.56,1.307,2.017,2.017,0,0,0,1.447.531A1.794,1.794,0,0,0,5.662-1.52a2.013,2.013,0,0,0,.505-1.425,2.131,2.131,0,0,0-.465-1.5,1.913,1.913,0,0,0-1.461-.5H3.054V-6.064Z" transform="translate(-6643 -7844)" fill="#12263f"/>
    <path id="Trazado_830620" data-name="Trazado 830620" d="M4.241-6.064a1.691,1.691,0,0,0,1.366-.48,2.043,2.043,0,0,0,.4-1.344,1.894,1.894,0,0,0-.436-1.3,1.632,1.632,0,0,0-1.293-.494A1.929,1.929,0,0,0,2.9-9.166a1.706,1.706,0,0,0-.546,1.293H.974L.952-7.917A2.548,2.548,0,0,1,1.86-9.968a3.478,3.478,0,0,1,2.417-.85,3.377,3.377,0,0,1,2.329.751,2.8,2.8,0,0,1,.842,2.208A2.484,2.484,0,0,1,7.057-6.5a2.642,2.642,0,0,1-1.095.959,2.52,2.52,0,0,1,1.227.978A2.872,2.872,0,0,1,7.61-2.974a2.927,2.927,0,0,1-.927,2.3A3.466,3.466,0,0,1,4.277.154a3.81,3.81,0,0,1-2.4-.8,2.456,2.456,0,0,1-1-2.12l.015-.044H2.271a1.73,1.73,0,0,0,.56,1.307,2.017,2.017,0,0,0,1.447.531A1.794,1.794,0,0,0,5.662-1.52a2.013,2.013,0,0,0,.505-1.425,2.131,2.131,0,0,0-.465-1.5,1.913,1.913,0,0,0-1.461-.5H3.054V-6.064Z" transform="translate(-6545 -7844)" fill="#12263f"/>
    <path id="Trazado_830621" data-name="Trazado 830621" d="M4.241-6.064a1.691,1.691,0,0,0,1.366-.48,2.043,2.043,0,0,0,.4-1.344,1.894,1.894,0,0,0-.436-1.3,1.632,1.632,0,0,0-1.293-.494A1.929,1.929,0,0,0,2.9-9.166a1.706,1.706,0,0,0-.546,1.293H.974L.952-7.917A2.548,2.548,0,0,1,1.86-9.968a3.478,3.478,0,0,1,2.417-.85,3.377,3.377,0,0,1,2.329.751,2.8,2.8,0,0,1,.842,2.208A2.484,2.484,0,0,1,7.057-6.5a2.642,2.642,0,0,1-1.095.959,2.52,2.52,0,0,1,1.227.978A2.872,2.872,0,0,1,7.61-2.974a2.927,2.927,0,0,1-.927,2.3A3.466,3.466,0,0,1,4.277.154a3.81,3.81,0,0,1-2.4-.8,2.456,2.456,0,0,1-1-2.12l.015-.044H2.271a1.73,1.73,0,0,0,.56,1.307,2.017,2.017,0,0,0,1.447.531A1.794,1.794,0,0,0,5.662-1.52a2.013,2.013,0,0,0,.505-1.425,2.131,2.131,0,0,0-.465-1.5,1.913,1.913,0,0,0-1.461-.5H3.054V-6.064Z" transform="translate(-6447 -7844)" fill="#12263f"/>
    <path id="Trazado_830622" data-name="Trazado 830622" d="M5.2,0H3.75V-9.331l-2.322.022v-1.113l3.772-.4Z" transform="translate(-6965 -7844)" fill="#12263f"/>
    <path id="Trazado_830623" data-name="Trazado 830623" d="M7.786-9.529A15.853,15.853,0,0,0,5.054-5.288a11.362,11.362,0,0,0-.71,4.124V0H2.9V-1.165a10.313,10.313,0,0,1,.89-4.354,19.079,19.079,0,0,1,2.574-4.01H.71v-1.135H7.786Z" transform="translate(-6938 -7818)" fill="#12263f"/>
    <path id="Trazado_830624" data-name="Trazado 830624" d="M7.786-9.529A15.853,15.853,0,0,0,5.054-5.288a11.362,11.362,0,0,0-.71,4.124V0H2.9V-1.165a10.313,10.313,0,0,1,.89-4.354,19.079,19.079,0,0,1,2.574-4.01H.71v-1.135H7.786Z" transform="translate(-6840 -7818)" fill="#12263f"/>
    <path id="Trazado_830625" data-name="Trazado 830625" d="M7.786-9.529A15.853,15.853,0,0,0,5.054-5.288a11.362,11.362,0,0,0-.71,4.124V0H2.9V-1.165a10.313,10.313,0,0,1,.89-4.354,19.079,19.079,0,0,1,2.574-4.01H.71v-1.135H7.786Z" transform="translate(-6741 -7818)" fill="#12263f"/>
    <path id="Trazado_830626" data-name="Trazado 830626" d="M1.282-4.739,1.9-10.664H7.236v1.282H3.113L2.769-6.313a3.292,3.292,0,0,1,.762-.421,2.679,2.679,0,0,1,.952-.172A2.9,2.9,0,0,1,6.8-5.98,3.742,3.742,0,0,1,7.639-3.4,3.751,3.751,0,0,1,6.779-.82,3.17,3.17,0,0,1,4.27.154a3.437,3.437,0,0,1-2.256-.74A2.56,2.56,0,0,1,1.15-2.761l.015-.044h1.3a1.781,1.781,0,0,0,.5,1.351,1.8,1.8,0,0,0,1.3.48,1.7,1.7,0,0,0,1.421-.645A2.79,2.79,0,0,0,6.2-3.384a2.541,2.541,0,0,0-.509-1.648,1.721,1.721,0,0,0-1.417-.63,2.265,2.265,0,0,0-1.23.256,1.5,1.5,0,0,0-.564.791Z" transform="translate(-6643 -7818)" fill="#12263f"/>
    <path id="Trazado_830627" data-name="Trazado 830627" d="M1.282-4.739,1.9-10.664H7.236v1.282H3.113L2.769-6.313a3.292,3.292,0,0,1,.762-.421,2.679,2.679,0,0,1,.952-.172A2.9,2.9,0,0,1,6.8-5.98,3.742,3.742,0,0,1,7.639-3.4,3.751,3.751,0,0,1,6.779-.82,3.17,3.17,0,0,1,4.27.154a3.437,3.437,0,0,1-2.256-.74A2.56,2.56,0,0,1,1.15-2.761l.015-.044h1.3a1.781,1.781,0,0,0,.5,1.351,1.8,1.8,0,0,0,1.3.48,1.7,1.7,0,0,0,1.421-.645A2.79,2.79,0,0,0,6.2-3.384a2.541,2.541,0,0,0-.509-1.648,1.721,1.721,0,0,0-1.417-.63,2.265,2.265,0,0,0-1.23.256,1.5,1.5,0,0,0-.564.791Z" transform="translate(-6545 -7818)" fill="#12263f"/>
    <path id="Trazado_830628" data-name="Trazado 830628" d="M1.282-4.739,1.9-10.664H7.236v1.282H3.113L2.769-6.313a3.292,3.292,0,0,1,.762-.421,2.679,2.679,0,0,1,.952-.172A2.9,2.9,0,0,1,6.8-5.98,3.742,3.742,0,0,1,7.639-3.4,3.751,3.751,0,0,1,6.779-.82,3.17,3.17,0,0,1,4.27.154a3.437,3.437,0,0,1-2.256-.74A2.56,2.56,0,0,1,1.15-2.761l.015-.044h1.3a1.781,1.781,0,0,0,.5,1.351,1.8,1.8,0,0,0,1.3.48,1.7,1.7,0,0,0,1.421-.645A2.79,2.79,0,0,0,6.2-3.384a2.541,2.541,0,0,0-.509-1.648,1.721,1.721,0,0,0-1.417-.63,2.265,2.265,0,0,0-1.23.256,1.5,1.5,0,0,0-.564.791Z" transform="translate(-6447 -7818)" fill="#12263f"/>
    <path id="Trazado_830629" data-name="Trazado 830629" d="M7.72,0H1.1V-.989L4.446-4.98A10.056,10.056,0,0,0,5.658-6.705,2.878,2.878,0,0,0,5.977-8,1.726,1.726,0,0,0,5.544-9.21a1.537,1.537,0,0,0-1.194-.472A1.788,1.788,0,0,0,2.911-9.1a2.144,2.144,0,0,0-.494,1.443H1.025l-.015-.044a2.876,2.876,0,0,1,.872-2.208,3.343,3.343,0,0,1,2.468-.9,3.1,3.1,0,0,1,2.249.791,2.713,2.713,0,0,1,.82,2.043,3.259,3.259,0,0,1-.465,1.648A18.387,18.387,0,0,1,5.537-4.314L2.849-1.165l.015.037H7.72Z" transform="translate(-6965 -7818)" fill="#12263f"/>
    <path id="Trazado_830630" data-name="Trazado 830630" d="M5.2,0H3.75V-9.331l-2.322.022v-1.113l3.772-.4Z" transform="translate(-6938 -7793)" fill="#12263f"/>
    <path id="Trazado_830631" data-name="Trazado 830631" d="M1.282-4.739,1.9-10.664H7.236v1.282H3.113L2.769-6.313a3.292,3.292,0,0,1,.762-.421,2.679,2.679,0,0,1,.952-.172A2.9,2.9,0,0,1,6.8-5.98,3.742,3.742,0,0,1,7.639-3.4,3.751,3.751,0,0,1,6.779-.82,3.17,3.17,0,0,1,4.27.154a3.437,3.437,0,0,1-2.256-.74A2.56,2.56,0,0,1,1.15-2.761l.015-.044h1.3a1.781,1.781,0,0,0,.5,1.351,1.8,1.8,0,0,0,1.3.48,1.7,1.7,0,0,0,1.421-.645A2.79,2.79,0,0,0,6.2-3.384a2.541,2.541,0,0,0-.509-1.648,1.721,1.721,0,0,0-1.417-.63,2.265,2.265,0,0,0-1.23.256,1.5,1.5,0,0,0-.564.791Z" transform="translate(-6840 -7793)" fill="#12263f"/>
    <path id="Trazado_830632" data-name="Trazado 830632" d="M1.282-4.739,1.9-10.664H7.236v1.282H3.113L2.769-6.313a3.292,3.292,0,0,1,.762-.421,2.679,2.679,0,0,1,.952-.172A2.9,2.9,0,0,1,6.8-5.98,3.742,3.742,0,0,1,7.639-3.4,3.751,3.751,0,0,1,6.779-.82,3.17,3.17,0,0,1,4.27.154a3.437,3.437,0,0,1-2.256-.74A2.56,2.56,0,0,1,1.15-2.761l.015-.044h1.3a1.781,1.781,0,0,0,.5,1.351,1.8,1.8,0,0,0,1.3.48,1.7,1.7,0,0,0,1.421-.645A2.79,2.79,0,0,0,6.2-3.384a2.541,2.541,0,0,0-.509-1.648,1.721,1.721,0,0,0-1.417-.63,2.265,2.265,0,0,0-1.23.256,1.5,1.5,0,0,0-.564.791Z" transform="translate(-6741 -7793)" fill="#12263f"/>
    <path id="Trazado_830633" data-name="Trazado 830633" d="M7.786-9.529A15.853,15.853,0,0,0,5.054-5.288a11.362,11.362,0,0,0-.71,4.124V0H2.9V-1.165a10.313,10.313,0,0,1,.89-4.354,19.079,19.079,0,0,1,2.574-4.01H.71v-1.135H7.786Z" transform="translate(-6643 -7793)" fill="#12263f"/>
    <path id="Trazado_830634" data-name="Trazado 830634" d="M4.695-10.818a6.261,6.261,0,0,1,1.245.125,4.5,4.5,0,0,1,1.018.315L6.65-9.272a5.389,5.389,0,0,0-.879-.3,4.539,4.539,0,0,0-1.077-.114,1.931,1.931,0,0,0-1.63.857,3.579,3.579,0,0,0-.626,2.168v.828a3.262,3.262,0,0,1,1.058-.7A3.366,3.366,0,0,1,4.812-6.79a2.738,2.738,0,0,1,2.179.923,3.564,3.564,0,0,1,.8,2.424A3.722,3.722,0,0,1,6.9-.824,3.124,3.124,0,0,1,4.475.154,3.174,3.174,0,0,1,2-.97,4.469,4.469,0,0,1,1-4.043V-6.5a4.546,4.546,0,0,1,1.066-3.1A3.349,3.349,0,0,1,4.695-10.818Zm-.344,5.1a2.247,2.247,0,0,0-1.168.289,1.936,1.936,0,0,0-.743.78v.74a3.5,3.5,0,0,0,.59,2.142,1.755,1.755,0,0,0,1.447.787,1.6,1.6,0,0,0,1.388-.685A3.009,3.009,0,0,0,6.35-3.442,2.469,2.469,0,0,0,5.826-5.1,1.832,1.832,0,0,0,4.351-5.713Z" transform="translate(-6545 -7793)" fill="#12263f"/>
    <path id="Trazado_830635" data-name="Trazado 830635" d="M4.695-10.818a6.261,6.261,0,0,1,1.245.125,4.5,4.5,0,0,1,1.018.315L6.65-9.272a5.389,5.389,0,0,0-.879-.3,4.539,4.539,0,0,0-1.077-.114,1.931,1.931,0,0,0-1.63.857,3.579,3.579,0,0,0-.626,2.168v.828a3.262,3.262,0,0,1,1.058-.7A3.366,3.366,0,0,1,4.812-6.79a2.738,2.738,0,0,1,2.179.923,3.564,3.564,0,0,1,.8,2.424A3.722,3.722,0,0,1,6.9-.824,3.124,3.124,0,0,1,4.475.154,3.174,3.174,0,0,1,2-.97,4.469,4.469,0,0,1,1-4.043V-6.5a4.546,4.546,0,0,1,1.066-3.1A3.349,3.349,0,0,1,4.695-10.818Zm-.344,5.1a2.247,2.247,0,0,0-1.168.289,1.936,1.936,0,0,0-.743.78v.74a3.5,3.5,0,0,0,.59,2.142,1.755,1.755,0,0,0,1.447.787,1.6,1.6,0,0,0,1.388-.685A3.009,3.009,0,0,0,6.35-3.442,2.469,2.469,0,0,0,5.826-5.1,1.832,1.832,0,0,0,4.351-5.713Z" transform="translate(-6447 -7793)" fill="#12263f"/>
    <path id="Trazado_830636" data-name="Trazado 830636" d="M4.241-6.064a1.691,1.691,0,0,0,1.366-.48,2.043,2.043,0,0,0,.4-1.344,1.894,1.894,0,0,0-.436-1.3,1.632,1.632,0,0,0-1.293-.494A1.929,1.929,0,0,0,2.9-9.166a1.706,1.706,0,0,0-.546,1.293H.974L.952-7.917A2.548,2.548,0,0,1,1.86-9.968a3.478,3.478,0,0,1,2.417-.85,3.377,3.377,0,0,1,2.329.751,2.8,2.8,0,0,1,.842,2.208A2.484,2.484,0,0,1,7.057-6.5a2.642,2.642,0,0,1-1.095.959,2.52,2.52,0,0,1,1.227.978A2.872,2.872,0,0,1,7.61-2.974a2.927,2.927,0,0,1-.927,2.3A3.466,3.466,0,0,1,4.277.154a3.81,3.81,0,0,1-2.4-.8,2.456,2.456,0,0,1-1-2.12l.015-.044H2.271a1.73,1.73,0,0,0,.56,1.307,2.017,2.017,0,0,0,1.447.531A1.794,1.794,0,0,0,5.662-1.52a2.013,2.013,0,0,0,.505-1.425,2.131,2.131,0,0,0-.465-1.5,1.913,1.913,0,0,0-1.461-.5H3.054V-6.064Z" transform="translate(-6965 -7793)" fill="#12263f"/>
    <path id="Trazado_830637" data-name="Trazado 830637" d="M4.241-6.064a1.691,1.691,0,0,0,1.366-.48,2.043,2.043,0,0,0,.4-1.344,1.894,1.894,0,0,0-.436-1.3,1.632,1.632,0,0,0-1.293-.494A1.929,1.929,0,0,0,2.9-9.166a1.706,1.706,0,0,0-.546,1.293H.974L.952-7.917A2.548,2.548,0,0,1,1.86-9.968a3.478,3.478,0,0,1,2.417-.85,3.377,3.377,0,0,1,2.329.751,2.8,2.8,0,0,1,.842,2.208A2.484,2.484,0,0,1,7.057-6.5a2.642,2.642,0,0,1-1.095.959,2.52,2.52,0,0,1,1.227.978A2.872,2.872,0,0,1,7.61-2.974a2.927,2.927,0,0,1-.927,2.3A3.466,3.466,0,0,1,4.277.154a3.81,3.81,0,0,1-2.4-.8,2.456,2.456,0,0,1-1-2.12l.015-.044H2.271a1.73,1.73,0,0,0,.56,1.307,2.017,2.017,0,0,0,1.447.531A1.794,1.794,0,0,0,5.662-1.52a2.013,2.013,0,0,0,.505-1.425,2.131,2.131,0,0,0-.465-1.5,1.913,1.913,0,0,0-1.461-.5H3.054V-6.064Z" transform="translate(-6938 -7767)" fill="#12263f"/>
    <path id="Trazado_830638" data-name="Trazado 830638" d="M4.241-6.064a1.691,1.691,0,0,0,1.366-.48,2.043,2.043,0,0,0,.4-1.344,1.894,1.894,0,0,0-.436-1.3,1.632,1.632,0,0,0-1.293-.494A1.929,1.929,0,0,0,2.9-9.166a1.706,1.706,0,0,0-.546,1.293H.974L.952-7.917A2.548,2.548,0,0,1,1.86-9.968a3.478,3.478,0,0,1,2.417-.85,3.377,3.377,0,0,1,2.329.751,2.8,2.8,0,0,1,.842,2.208A2.484,2.484,0,0,1,7.057-6.5a2.642,2.642,0,0,1-1.095.959,2.52,2.52,0,0,1,1.227.978A2.872,2.872,0,0,1,7.61-2.974a2.927,2.927,0,0,1-.927,2.3A3.466,3.466,0,0,1,4.277.154a3.81,3.81,0,0,1-2.4-.8,2.456,2.456,0,0,1-1-2.12l.015-.044H2.271a1.73,1.73,0,0,0,.56,1.307,2.017,2.017,0,0,0,1.447.531A1.794,1.794,0,0,0,5.662-1.52a2.013,2.013,0,0,0,.505-1.425,2.131,2.131,0,0,0-.465-1.5,1.913,1.913,0,0,0-1.461-.5H3.054V-6.064Z" transform="translate(-6840 -7767)" fill="#12263f"/>
    <path id="Trazado_830639" data-name="Trazado 830639" d="M7.4-7.939a2.4,2.4,0,0,1-.469,1.469,2.839,2.839,0,0,1-1.245.948,3.125,3.125,0,0,1,1.458,1A2.476,2.476,0,0,1,7.69-2.93,2.815,2.815,0,0,1,6.735-.652,3.649,3.649,0,0,1,4.3.154,3.932,3.932,0,0,1,1.74-.652,2.767,2.767,0,0,1,.747-2.93a2.445,2.445,0,0,1,.56-1.589A3.23,3.23,0,0,1,2.82-5.53a2.81,2.81,0,0,1-1.3-.941,2.378,2.378,0,0,1-.476-1.469,2.613,2.613,0,0,1,.9-2.139,3.559,3.559,0,0,1,2.34-.74,3.336,3.336,0,0,1,2.238.743A2.646,2.646,0,0,1,7.4-7.939ZM6.255-2.959a1.938,1.938,0,0,0-.568-1.436,1.912,1.912,0,0,0-1.4-.564,2.092,2.092,0,0,0-1.5.564A1.9,1.9,0,0,0,2.19-2.959a1.866,1.866,0,0,0,.59,1.443A2.158,2.158,0,0,0,4.3-.974a1.921,1.921,0,0,0,1.4-.546A1.918,1.918,0,0,0,6.255-2.959Zm-.3-4.958a1.752,1.752,0,0,0-.48-1.267,1.586,1.586,0,0,0-1.19-.5A1.8,1.8,0,0,0,3-9.2,1.689,1.689,0,0,0,2.49-7.917,1.769,1.769,0,0,0,3-6.6a1.771,1.771,0,0,0,1.3.505A1.552,1.552,0,0,0,5.482-6.6,1.853,1.853,0,0,0,5.955-7.917Z" transform="translate(-6741 -7767)" fill="#12263f"/>
    <path id="Trazado_830640" data-name="Trazado 830640" d="M7.4-7.939a2.4,2.4,0,0,1-.469,1.469,2.839,2.839,0,0,1-1.245.948,3.125,3.125,0,0,1,1.458,1A2.476,2.476,0,0,1,7.69-2.93,2.815,2.815,0,0,1,6.735-.652,3.649,3.649,0,0,1,4.3.154,3.932,3.932,0,0,1,1.74-.652,2.767,2.767,0,0,1,.747-2.93a2.445,2.445,0,0,1,.56-1.589A3.23,3.23,0,0,1,2.82-5.53a2.81,2.81,0,0,1-1.3-.941,2.378,2.378,0,0,1-.476-1.469,2.613,2.613,0,0,1,.9-2.139,3.559,3.559,0,0,1,2.34-.74,3.336,3.336,0,0,1,2.238.743A2.646,2.646,0,0,1,7.4-7.939ZM6.255-2.959a1.938,1.938,0,0,0-.568-1.436,1.912,1.912,0,0,0-1.4-.564,2.092,2.092,0,0,0-1.5.564A1.9,1.9,0,0,0,2.19-2.959a1.866,1.866,0,0,0,.59,1.443A2.158,2.158,0,0,0,4.3-.974a1.921,1.921,0,0,0,1.4-.546A1.918,1.918,0,0,0,6.255-2.959Zm-.3-4.958a1.752,1.752,0,0,0-.48-1.267,1.586,1.586,0,0,0-1.19-.5A1.8,1.8,0,0,0,3-9.2,1.689,1.689,0,0,0,2.49-7.917,1.769,1.769,0,0,0,3-6.6a1.771,1.771,0,0,0,1.3.505A1.552,1.552,0,0,0,5.482-6.6,1.853,1.853,0,0,0,5.955-7.917Z" transform="translate(-6643 -7767)" fill="#12263f"/>
    <path id="Trazado_830641" data-name="Trazado 830641" d="M7.4-7.939a2.4,2.4,0,0,1-.469,1.469,2.839,2.839,0,0,1-1.245.948,3.125,3.125,0,0,1,1.458,1A2.476,2.476,0,0,1,7.69-2.93,2.815,2.815,0,0,1,6.735-.652,3.649,3.649,0,0,1,4.3.154,3.932,3.932,0,0,1,1.74-.652,2.767,2.767,0,0,1,.747-2.93a2.445,2.445,0,0,1,.56-1.589A3.23,3.23,0,0,1,2.82-5.53a2.81,2.81,0,0,1-1.3-.941,2.378,2.378,0,0,1-.476-1.469,2.613,2.613,0,0,1,.9-2.139,3.559,3.559,0,0,1,2.34-.74,3.336,3.336,0,0,1,2.238.743A2.646,2.646,0,0,1,7.4-7.939ZM6.255-2.959a1.938,1.938,0,0,0-.568-1.436,1.912,1.912,0,0,0-1.4-.564,2.092,2.092,0,0,0-1.5.564A1.9,1.9,0,0,0,2.19-2.959a1.866,1.866,0,0,0,.59,1.443A2.158,2.158,0,0,0,4.3-.974a1.921,1.921,0,0,0,1.4-.546A1.918,1.918,0,0,0,6.255-2.959Zm-.3-4.958a1.752,1.752,0,0,0-.48-1.267,1.586,1.586,0,0,0-1.19-.5A1.8,1.8,0,0,0,3-9.2,1.689,1.689,0,0,0,2.49-7.917,1.769,1.769,0,0,0,3-6.6a1.771,1.771,0,0,0,1.3.505A1.552,1.552,0,0,0,5.482-6.6,1.853,1.853,0,0,0,5.955-7.917Z" transform="translate(-6545 -7767)" fill="#12263f"/>
    <path id="Trazado_830642" data-name="Trazado 830642" d="M7.786-9.529A15.853,15.853,0,0,0,5.054-5.288a11.362,11.362,0,0,0-.71,4.124V0H2.9V-1.165a10.313,10.313,0,0,1,.89-4.354,19.079,19.079,0,0,1,2.574-4.01H.71v-1.135H7.786Z" transform="translate(-6447 -7767)" fill="#12263f"/>
    <path id="Trazado_830643" data-name="Trazado 830643" d="M6.541-3.589H8.013v1.128H6.541V0H5.1V-2.461H.527v-.813l4.49-7.39H6.541Zm-4.468,0H5.1v-5L5.061-8.6l-.139.366Z" transform="translate(-6965 -7767)" fill="#12263f"/>
    <path id="Trazado_830644" data-name="Trazado 830644" d="M4.695-10.818a6.261,6.261,0,0,1,1.245.125,4.5,4.5,0,0,1,1.018.315L6.65-9.272a5.389,5.389,0,0,0-.879-.3,4.539,4.539,0,0,0-1.077-.114,1.931,1.931,0,0,0-1.63.857,3.579,3.579,0,0,0-.626,2.168v.828a3.262,3.262,0,0,1,1.058-.7A3.366,3.366,0,0,1,4.812-6.79a2.738,2.738,0,0,1,2.179.923,3.564,3.564,0,0,1,.8,2.424A3.722,3.722,0,0,1,6.9-.824,3.124,3.124,0,0,1,4.475.154,3.174,3.174,0,0,1,2-.97,4.469,4.469,0,0,1,1-4.043V-6.5a4.546,4.546,0,0,1,1.066-3.1A3.349,3.349,0,0,1,4.695-10.818Zm-.344,5.1a2.247,2.247,0,0,0-1.168.289,1.936,1.936,0,0,0-.743.78v.74a3.5,3.5,0,0,0,.59,2.142,1.755,1.755,0,0,0,1.447.787,1.6,1.6,0,0,0,1.388-.685A3.009,3.009,0,0,0,6.35-3.442,2.469,2.469,0,0,0,5.826-5.1,1.832,1.832,0,0,0,4.351-5.713Z" transform="translate(-6938 -7741)" fill="#12263f"/>
    <path id="Trazado_830645" data-name="Trazado 830645" d="M4.695-10.818a6.261,6.261,0,0,1,1.245.125,4.5,4.5,0,0,1,1.018.315L6.65-9.272a5.389,5.389,0,0,0-.879-.3,4.539,4.539,0,0,0-1.077-.114,1.931,1.931,0,0,0-1.63.857,3.579,3.579,0,0,0-.626,2.168v.828a3.262,3.262,0,0,1,1.058-.7A3.366,3.366,0,0,1,4.812-6.79a2.738,2.738,0,0,1,2.179.923,3.564,3.564,0,0,1,.8,2.424A3.722,3.722,0,0,1,6.9-.824,3.124,3.124,0,0,1,4.475.154,3.174,3.174,0,0,1,2-.97,4.469,4.469,0,0,1,1-4.043V-6.5a4.546,4.546,0,0,1,1.066-3.1A3.349,3.349,0,0,1,4.695-10.818Zm-.344,5.1a2.247,2.247,0,0,0-1.168.289,1.936,1.936,0,0,0-.743.78v.74a3.5,3.5,0,0,0,.59,2.142,1.755,1.755,0,0,0,1.447.787,1.6,1.6,0,0,0,1.388-.685A3.009,3.009,0,0,0,6.35-3.442,2.469,2.469,0,0,0,5.826-5.1,1.832,1.832,0,0,0,4.351-5.713Z" transform="translate(-6840 -7741)" fill="#12263f"/>
    <path id="Trazado_830646" data-name="Trazado 830646" d="M4.695-10.818a6.261,6.261,0,0,1,1.245.125,4.5,4.5,0,0,1,1.018.315L6.65-9.272a5.389,5.389,0,0,0-.879-.3,4.539,4.539,0,0,0-1.077-.114,1.931,1.931,0,0,0-1.63.857,3.579,3.579,0,0,0-.626,2.168v.828a3.262,3.262,0,0,1,1.058-.7A3.366,3.366,0,0,1,4.812-6.79a2.738,2.738,0,0,1,2.179.923,3.564,3.564,0,0,1,.8,2.424A3.722,3.722,0,0,1,6.9-.824,3.124,3.124,0,0,1,4.475.154,3.174,3.174,0,0,1,2-.97,4.469,4.469,0,0,1,1-4.043V-6.5a4.546,4.546,0,0,1,1.066-3.1A3.349,3.349,0,0,1,4.695-10.818Zm-.344,5.1a2.247,2.247,0,0,0-1.168.289,1.936,1.936,0,0,0-.743.78v.74a3.5,3.5,0,0,0,.59,2.142,1.755,1.755,0,0,0,1.447.787,1.6,1.6,0,0,0,1.388-.685A3.009,3.009,0,0,0,6.35-3.442,2.469,2.469,0,0,0,5.826-5.1,1.832,1.832,0,0,0,4.351-5.713Z" transform="translate(-6741 -7741)" fill="#12263f"/>
    <path id="Trazado_830647" data-name="Trazado 830647" d="M4.695-10.818a6.261,6.261,0,0,1,1.245.125,4.5,4.5,0,0,1,1.018.315L6.65-9.272a5.389,5.389,0,0,0-.879-.3,4.539,4.539,0,0,0-1.077-.114,1.931,1.931,0,0,0-1.63.857,3.579,3.579,0,0,0-.626,2.168v.828a3.262,3.262,0,0,1,1.058-.7A3.366,3.366,0,0,1,4.812-6.79a2.738,2.738,0,0,1,2.179.923,3.564,3.564,0,0,1,.8,2.424A3.722,3.722,0,0,1,6.9-.824,3.124,3.124,0,0,1,4.475.154,3.174,3.174,0,0,1,2-.97,4.469,4.469,0,0,1,1-4.043V-6.5a4.546,4.546,0,0,1,1.066-3.1A3.349,3.349,0,0,1,4.695-10.818Zm-.344,5.1a2.247,2.247,0,0,0-1.168.289,1.936,1.936,0,0,0-.743.78v.74a3.5,3.5,0,0,0,.59,2.142,1.755,1.755,0,0,0,1.447.787,1.6,1.6,0,0,0,1.388-.685A3.009,3.009,0,0,0,6.35-3.442,2.469,2.469,0,0,0,5.826-5.1,1.832,1.832,0,0,0,4.351-5.713Z" transform="translate(-6643 -7741)" fill="#12263f"/>
    <path id="Trazado_830648" data-name="Trazado 830648" d="M7.786-9.529A15.853,15.853,0,0,0,5.054-5.288a11.362,11.362,0,0,0-.71,4.124V0H2.9V-1.165a10.313,10.313,0,0,1,.89-4.354,19.079,19.079,0,0,1,2.574-4.01H.71v-1.135H7.786Z" transform="translate(-6545 -7741)" fill="#12263f"/>
    <path id="Trazado_830649" data-name="Trazado 830649" d="M7.4-7.939a2.4,2.4,0,0,1-.469,1.469,2.839,2.839,0,0,1-1.245.948,3.125,3.125,0,0,1,1.458,1A2.476,2.476,0,0,1,7.69-2.93,2.815,2.815,0,0,1,6.735-.652,3.649,3.649,0,0,1,4.3.154,3.932,3.932,0,0,1,1.74-.652,2.767,2.767,0,0,1,.747-2.93a2.445,2.445,0,0,1,.56-1.589A3.23,3.23,0,0,1,2.82-5.53a2.81,2.81,0,0,1-1.3-.941,2.378,2.378,0,0,1-.476-1.469,2.613,2.613,0,0,1,.9-2.139,3.559,3.559,0,0,1,2.34-.74,3.336,3.336,0,0,1,2.238.743A2.646,2.646,0,0,1,7.4-7.939ZM6.255-2.959a1.938,1.938,0,0,0-.568-1.436,1.912,1.912,0,0,0-1.4-.564,2.092,2.092,0,0,0-1.5.564A1.9,1.9,0,0,0,2.19-2.959a1.866,1.866,0,0,0,.59,1.443A2.158,2.158,0,0,0,4.3-.974a1.921,1.921,0,0,0,1.4-.546A1.918,1.918,0,0,0,6.255-2.959Zm-.3-4.958a1.752,1.752,0,0,0-.48-1.267,1.586,1.586,0,0,0-1.19-.5A1.8,1.8,0,0,0,3-9.2,1.689,1.689,0,0,0,2.49-7.917,1.769,1.769,0,0,0,3-6.6a1.771,1.771,0,0,0,1.3.505A1.552,1.552,0,0,0,5.482-6.6,1.853,1.853,0,0,0,5.955-7.917Z" transform="translate(-6447 -7741)" fill="#12263f"/>
    <path id="Trazado_830650" data-name="Trazado 830650" d="M1.282-4.739,1.9-10.664H7.236v1.282H3.113L2.769-6.313a3.292,3.292,0,0,1,.762-.421,2.679,2.679,0,0,1,.952-.172A2.9,2.9,0,0,1,6.8-5.98,3.742,3.742,0,0,1,7.639-3.4,3.751,3.751,0,0,1,6.779-.82,3.17,3.17,0,0,1,4.27.154a3.437,3.437,0,0,1-2.256-.74A2.56,2.56,0,0,1,1.15-2.761l.015-.044h1.3a1.781,1.781,0,0,0,.5,1.351,1.8,1.8,0,0,0,1.3.48,1.7,1.7,0,0,0,1.421-.645A2.79,2.79,0,0,0,6.2-3.384a2.541,2.541,0,0,0-.509-1.648,1.721,1.721,0,0,0-1.417-.63,2.265,2.265,0,0,0-1.23.256,1.5,1.5,0,0,0-.564.791Z" transform="translate(-6965 -7741)" fill="#12263f"/>
    <path id="Trazado_826253" data-name="Trazado 826253" d="M-8480-7938.856h29.228" transform="translate(1531.5 77)" fill="none" stroke="#273a89" stroke-width="1"/>
    <path id="Trazado_826264" data-name="Trazado 826264" d="M-8480-7938.856h29.228" transform="translate(1629.5 77)" fill="none" stroke="#273a89" stroke-width="1"/>
    <path id="Trazado_826273" data-name="Trazado 826273" d="M-8480-7938.856h29.228" transform="translate(1728.5 77)" fill="none" stroke="#273a89" stroke-width="1"/>
    <path id="Trazado_826280" data-name="Trazado 826280" d="M-8480-7938.856h29.228" transform="translate(1826.5 77)" fill="none" stroke="#273a89" stroke-width="1"/>
    <path id="Trazado_826283" data-name="Trazado 826283" d="M-8480-7938.856h29.228" transform="translate(1924.5 77)" fill="none" stroke="#273a89" stroke-width="1"/>
    <path id="Trazado_826290" data-name="Trazado 826290" d="M-8480-7938.856h29.228" transform="translate(2022.5 77)" fill="none" stroke="#273a89" stroke-width="1"/>
    <path id="Trazado_826254" data-name="Trazado 826254" d="M-8480-7938.856h29.228" transform="translate(1531.5 100.713)" fill="none" stroke="#273a89" stroke-width="1"/>
    <path id="Trazado_826261" data-name="Trazado 826261" d="M-8480-7938.856h29.228" transform="translate(1629.5 100.713)" fill="none" stroke="#273a89" stroke-width="1"/>
    <path id="Trazado_826268" data-name="Trazado 826268" d="M-8480-7938.856h29.228" transform="translate(1728.5 100.713)" fill="none" stroke="#273a89" stroke-width="1"/>
    <path id="Trazado_826276" data-name="Trazado 826276" d="M-8480-7938.856h29.228" transform="translate(1826.5 100.713)" fill="none" stroke="#273a89" stroke-width="1"/>
    <path id="Trazado_826284" data-name="Trazado 826284" d="M-8480-7938.856h29.228" transform="translate(1924.5 100.713)" fill="none" stroke="#273a89" stroke-width="1"/>
    <path id="Trazado_826291" data-name="Trazado 826291" d="M-8480-7938.856h29.228" transform="translate(2022.5 100.713)" fill="none" stroke="#273a89" stroke-width="1"/>
    <path id="Trazado_826255" data-name="Trazado 826255" d="M-8480-7938.856h29.228" transform="translate(1531.5 126.713)" fill="none" stroke="#273a89" stroke-width="1"/>
    <path id="Trazado_826262" data-name="Trazado 826262" d="M-8480-7938.856h29.228" transform="translate(1629.5 126.713)" fill="none" stroke="#273a89" stroke-width="1"/>
    <path id="Trazado_826269" data-name="Trazado 826269" d="M-8480-7938.856h29.228" transform="translate(1728.5 126.713)" fill="none" stroke="#273a89" stroke-width="1"/>
    <path id="Trazado_826277" data-name="Trazado 826277" d="M-8480-7938.856h29.228" transform="translate(1826.5 126.713)" fill="none" stroke="#273a89" stroke-width="1"/>
    <path id="Trazado_826285" data-name="Trazado 826285" d="M-8480-7938.856h29.228" transform="translate(1924.5 126.713)" fill="none" stroke="#273a89" stroke-width="1"/>
    <path id="Trazado_826292" data-name="Trazado 826292" d="M-8480-7938.856h29.228" transform="translate(2022.5 126.713)" fill="none" stroke="#273a89" stroke-width="1"/>
    <path id="Trazado_826256" data-name="Trazado 826256" d="M-8480-7938.856h29.228" transform="translate(1531.5 149.855)" fill="none" stroke="#273a89" stroke-width="1"/>
    <path id="Trazado_826263" data-name="Trazado 826263" d="M-8480-7938.856h29.228" transform="translate(1629.5 149.855)" fill="none" stroke="#273a89" stroke-width="1"/>
    <path id="Trazado_826270" data-name="Trazado 826270" d="M-8480-7938.856h29.228" transform="translate(1728.5 149.855)" fill="none" stroke="#273a89" stroke-width="1"/>
    <path id="Trazado_826274" data-name="Trazado 826274" d="M-8480-7938.856h29.228" transform="translate(1826.5 149.855)" fill="none" stroke="#273a89" stroke-width="1"/>
    <path id="Trazado_826286" data-name="Trazado 826286" d="M-8480-7938.856h29.228" transform="translate(1924.5 149.855)" fill="none" stroke="#273a89" stroke-width="1"/>
    <path id="Trazado_826293" data-name="Trazado 826293" d="M-8480-7938.856h29.228" transform="translate(2022.5 149.855)" fill="none" stroke="#273a89" stroke-width="1"/>
    <path id="Trazado_826257" data-name="Trazado 826257" d="M-8480-7938.856h29.228" transform="translate(1531.5 177.713)" fill="none" stroke="#273a89" stroke-width="1"/>
    <path id="Trazado_826260" data-name="Trazado 826260" d="M-8480-7938.856h29.228" transform="translate(1629.5 177.713)" fill="none" stroke="#273a89" stroke-width="1"/>
    <path id="Trazado_826267" data-name="Trazado 826267" d="M-8480-7938.856h29.228" transform="translate(1728.5 177.713)" fill="none" stroke="#273a89" stroke-width="1"/>
    <path id="Trazado_826275" data-name="Trazado 826275" d="M-8480-7938.856h29.228" transform="translate(1826.5 177.713)" fill="none" stroke="#273a89" stroke-width="1"/>
    <path id="Trazado_826287" data-name="Trazado 826287" d="M-8480-7938.856h29.228" transform="translate(1924.5 177.713)" fill="none" stroke="#273a89" stroke-width="1"/>
    <path id="Trazado_826294" data-name="Trazado 826294" d="M-8480-7938.856h29.228" transform="translate(2022.5 177.713)" fill="none" stroke="#273a89" stroke-width="1"/>
    <path id="Trazado_830651" data-name="Trazado 830651" d="M-39.125,0h-1.354V-9.953h1.354Zm3.486-7.4.1,1.1a2.686,2.686,0,0,1,.926-.913,2.471,2.471,0,0,1,1.268-.325,2.414,2.414,0,0,1,1.853.7,3.076,3.076,0,0,1,.656,2.164V0h-1.347V-4.642a2,2,0,0,0-.386-1.388,1.547,1.547,0,0,0-1.179-.41,2.088,2.088,0,0,0-1.056.25,1.813,1.813,0,0,0-.687.7V0h-1.347V-7.4Zm8.627-1.784V-7.4h1.4v1h-1.4v4.491a1.006,1.006,0,0,0,.215.731.779.779,0,0,0,.571.212,1.251,1.251,0,0,0,.26-.031,1.927,1.927,0,0,0,.239-.065l.185.923a1.19,1.19,0,0,1-.444.2,2.242,2.242,0,0,1-.581.079,1.744,1.744,0,0,1-1.306-.5,2.152,2.152,0,0,1-.485-1.555V-6.4h-1.176v-1h1.176V-9.181ZM-21.106.144A3.129,3.129,0,0,1-23.591-.875a3.92,3.92,0,0,1-.892-2.68v-.3a3.838,3.838,0,0,1,.919-2.635,2.883,2.883,0,0,1,2.246-1.042,2.684,2.684,0,0,1,2.225.923,3.8,3.8,0,0,1,.742,2.454v.711h-4.73l-.021.034A3.057,3.057,0,0,0-22.61-1.6a1.72,1.72,0,0,0,1.5.694,3.388,3.388,0,0,0,1.2-.195,2.678,2.678,0,0,0,.885-.537l.526.875a3.237,3.237,0,0,1-1.046.646A4.167,4.167,0,0,1-21.106.144Zm-.212-6.617a1.464,1.464,0,0,0-1.166.543,2.571,2.571,0,0,0-.564,1.391l.014.034H-19.7v-.109a2.154,2.154,0,0,0-.4-1.333A1.433,1.433,0,0,0-21.318-6.474Zm7.978.267-.69-.041a1.542,1.542,0,0,0-.9.253,1.623,1.623,0,0,0-.564.711V0H-16.84V-7.4h1.2l.13,1.08a2.568,2.568,0,0,1,.776-.9,1.814,1.814,0,0,1,1.063-.321,1.664,1.664,0,0,1,.287.024,1.9,1.9,0,0,1,.226.051Zm4.211,5.3a1.584,1.584,0,0,0,1.087-.414,1.307,1.307,0,0,0,.465-1.015h1.217l.021.041a2.124,2.124,0,0,1-.82,1.7A2.9,2.9,0,0,1-9.129.144a2.9,2.9,0,0,1-2.406-1.06,4.09,4.09,0,0,1-.848-2.639v-.287a4.072,4.072,0,0,1,.851-2.628,2.9,2.9,0,0,1,2.4-1.063A2.791,2.791,0,0,1-7.1-6.768a2.428,2.428,0,0,1,.762,1.88l-.014.041H-7.578A1.632,1.632,0,0,0-8.019-6a1.451,1.451,0,0,0-1.111-.475,1.555,1.555,0,0,0-1.446.769,3.6,3.6,0,0,0-.455,1.863v.287a3.668,3.668,0,0,0,.448,1.88A1.554,1.554,0,0,0-9.129-.909ZM-.195,0Q-.263-.335-.3-.591a4.34,4.34,0,0,1-.044-.516,3.14,3.14,0,0,1-.981.892,2.509,2.509,0,0,1-1.3.359,2.418,2.418,0,0,1-1.76-.591,2.175,2.175,0,0,1-.6-1.63,1.91,1.91,0,0,1,.858-1.658,4.007,4.007,0,0,1,2.328-.6H-.345v-.731a1.357,1.357,0,0,0-.4-1.029,1.557,1.557,0,0,0-1.121-.379,1.627,1.627,0,0,0-1.06.328.985.985,0,0,0-.4.786L-4.6-5.346l-.014-.041a1.77,1.77,0,0,1,.755-1.477,3.131,3.131,0,0,1,2.075-.67,3.054,3.054,0,0,1,2.023.639A2.264,2.264,0,0,1,1-5.052V-1.49a6.933,6.933,0,0,0,.041.766A3.937,3.937,0,0,0,1.193,0ZM-2.43-.984A2.4,2.4,0,0,0-1.111-1.36a1.787,1.787,0,0,0,.766-.861v-1.2H-1.856a1.96,1.96,0,0,0-1.3.41,1.227,1.227,0,0,0-.489.964,1.014,1.014,0,0,0,.308.779A1.288,1.288,0,0,0-2.43-.984ZM4.16-7.4l.1.971a2.512,2.512,0,0,1,.919-.817,2.763,2.763,0,0,1,1.3-.291,2.288,2.288,0,0,1,1.268.342,2.068,2.068,0,0,1,.8,1.025,2.767,2.767,0,0,1,.926-1A2.423,2.423,0,0,1,10.8-7.533a2.214,2.214,0,0,1,1.784.776,3.545,3.545,0,0,1,.656,2.334V0H11.891V-4.437a2.459,2.459,0,0,0-.376-1.548,1.371,1.371,0,0,0-1.121-.455,1.427,1.427,0,0,0-1.118.479,2.083,2.083,0,0,0-.5,1.21V0H7.42V-4.437a2.425,2.425,0,0,0-.386-1.521,1.34,1.34,0,0,0-1.111-.482,1.85,1.85,0,0,0-1.012.253,1.634,1.634,0,0,0-.608.711V0H2.957V-7.4Zm17.35,3.979A4.064,4.064,0,0,1,20.74-.837a2.541,2.541,0,0,1-2.116.981,2.681,2.681,0,0,1-1.282-.291,2.379,2.379,0,0,1-.9-.858l-.219,1H15.193V-10.664H16.54v4.143a2.337,2.337,0,0,1,.865-.752,2.651,2.651,0,0,1,1.207-.26,2.458,2.458,0,0,1,2.133,1.094,4.92,4.92,0,0,1,.766,2.878Zm-1.347-.144a4.083,4.083,0,0,0-.468-2.075,1.542,1.542,0,0,0-1.425-.8,1.762,1.762,0,0,0-1.049.3,2.145,2.145,0,0,0-.68.817v3.206a2.2,2.2,0,0,0,.68.854,1.753,1.753,0,0,0,1.063.308A1.6,1.6,0,0,0,19.7-1.627a3.108,3.108,0,0,0,.465-1.791ZM24.606,0H23.259V-7.4h1.347Zm0-9.29H23.259v-1.374h1.347ZM31.223,0q-.068-.335-.106-.591a4.34,4.34,0,0,1-.044-.516,3.14,3.14,0,0,1-.981.892,2.509,2.509,0,0,1-1.3.359,2.418,2.418,0,0,1-1.76-.591,2.175,2.175,0,0,1-.6-1.63,1.91,1.91,0,0,1,.858-1.658,4.007,4.007,0,0,1,2.328-.6h1.463v-.731a1.357,1.357,0,0,0-.4-1.029,1.557,1.557,0,0,0-1.121-.379,1.627,1.627,0,0,0-1.06.328.985.985,0,0,0-.4.786l-1.278.014L26.8-5.387a1.77,1.77,0,0,1,.755-1.477,3.131,3.131,0,0,1,2.075-.67,3.054,3.054,0,0,1,2.023.639,2.264,2.264,0,0,1,.766,1.842V-1.49a6.933,6.933,0,0,0,.041.766,3.937,3.937,0,0,0,.15.725ZM28.988-.984a2.4,2.4,0,0,0,1.319-.376,1.787,1.787,0,0,0,.766-.861v-1.2H29.562a1.96,1.96,0,0,0-1.3.41,1.227,1.227,0,0,0-.489.964,1.014,1.014,0,0,0,.308.779A1.288,1.288,0,0,0,28.988-.984Zm8.887-5.223-.69-.041a1.542,1.542,0,0,0-.9.253,1.623,1.623,0,0,0-.564.711V0H34.375V-7.4h1.2l.13,1.08a2.568,2.568,0,0,1,.776-.9,1.814,1.814,0,0,1,1.063-.321,1.664,1.664,0,0,1,.287.024,1.9,1.9,0,0,1,.226.051ZM-36.367,16q-.068-.335-.106-.591a4.34,4.34,0,0,1-.044-.516,3.14,3.14,0,0,1-.981.892,2.509,2.509,0,0,1-1.3.359,2.418,2.418,0,0,1-1.76-.591,2.175,2.175,0,0,1-.6-1.63,1.91,1.91,0,0,1,.858-1.658,4.007,4.007,0,0,1,2.328-.6h1.463v-.731a1.357,1.357,0,0,0-.4-1.029,1.557,1.557,0,0,0-1.121-.379,1.627,1.627,0,0,0-1.06.328.985.985,0,0,0-.4.786l-1.278.014-.014-.041a1.77,1.77,0,0,1,.755-1.477,3.131,3.131,0,0,1,2.075-.67,3.054,3.054,0,0,1,2.023.639,2.264,2.264,0,0,1,.766,1.842V14.51a6.933,6.933,0,0,0,.041.766,3.937,3.937,0,0,0,.15.725Zm-2.235-.984a2.4,2.4,0,0,0,1.319-.376,1.787,1.787,0,0,0,.766-.861v-1.2h-1.511a1.96,1.96,0,0,0-1.3.41,1.227,1.227,0,0,0-.489.964,1.014,1.014,0,0,0,.308.779A1.288,1.288,0,0,0-38.6,15.016Zm5.312-3.056a9.15,9.15,0,0,1,1.087-4.6,6.292,6.292,0,0,1,2.283-2.543l.041.007.26.793a5.832,5.832,0,0,0-1.63,2.345,10.1,10.1,0,0,0-.694,3.985v.089a10.142,10.142,0,0,0,.69,3.985,6.344,6.344,0,0,0,1.634,2.406l-.26.738h-.041a6.294,6.294,0,0,1-2.283-2.54,9.146,9.146,0,0,1-1.087-4.6Zm10.849.526a3.928,3.928,0,0,1-.858,2.673,2.905,2.905,0,0,1-2.307.984,2.918,2.918,0,0,1-2.307-.984,3.908,3.908,0,0,1-.865-2.673V9.561a3.933,3.933,0,0,1,.858-2.666,2.888,2.888,0,0,1,2.3-.991,2.917,2.917,0,0,1,2.314.991,3.913,3.913,0,0,1,.865,2.666ZM-23.789,9.28a2.715,2.715,0,0,0-.479-1.7,1.608,1.608,0,0,0-1.354-.622,1.582,1.582,0,0,0-1.34.622,2.743,2.743,0,0,0-.472,1.7V12.76a2.731,2.731,0,0,0,.482,1.7,1.6,1.6,0,0,0,1.343.629,1.586,1.586,0,0,0,1.347-.625,2.771,2.771,0,0,0,.472-1.706Zm5.831,2.741a9.123,9.123,0,0,1-1.09,4.6,6.338,6.338,0,0,1-2.28,2.54h-.041l-.26-.738a5.821,5.821,0,0,0,1.624-2.362,10.28,10.28,0,0,0,.7-4.03v-.089a9.935,9.935,0,0,0-.721-3.989,6.591,6.591,0,0,0-1.6-2.4l.26-.738h.041a6.336,6.336,0,0,1,2.28,2.543,9.127,9.127,0,0,1,1.09,4.6Zm8.381,3.069a1.584,1.584,0,0,0,1.087-.414,1.307,1.307,0,0,0,.465-1.015h1.217l.021.041a2.124,2.124,0,0,1-.82,1.7,2.9,2.9,0,0,1-1.969.742,2.9,2.9,0,0,1-2.406-1.06,4.09,4.09,0,0,1-.848-2.639v-.287A4.072,4.072,0,0,1-11.98,9.53a2.9,2.9,0,0,1,2.4-1.063,2.791,2.791,0,0,1,2.027.766,2.428,2.428,0,0,1,.762,1.88l-.014.041H-8.025A1.632,1.632,0,0,0-8.466,10a1.451,1.451,0,0,0-1.111-.475,1.555,1.555,0,0,0-1.446.769,3.6,3.6,0,0,0-.455,1.863v.287a3.668,3.668,0,0,0,.448,1.88A1.554,1.554,0,0,0-9.577,15.091ZM-5.5,12.233a4.072,4.072,0,0,1,.889-2.7A2.98,2.98,0,0,1-2.2,8.467a3.009,3.009,0,0,1,2.43,1.06,4.059,4.059,0,0,1,.892,2.707v.15a4.052,4.052,0,0,1-.889,2.707,3,3,0,0,1-2.42,1.053,3.006,3.006,0,0,1-2.423-1.056,4.045,4.045,0,0,1-.892-2.7Zm1.347.15a3.508,3.508,0,0,0,.5,1.941,1.641,1.641,0,0,0,1.473.766,1.636,1.636,0,0,0,1.463-.766,3.49,3.49,0,0,0,.5-1.941v-.15a3.479,3.479,0,0,0-.5-1.935A1.647,1.647,0,0,0-2.2,9.526a1.624,1.624,0,0,0-1.459.772,3.516,3.516,0,0,0-.5,1.935ZM3.972,8.6l.1,1.1a2.686,2.686,0,0,1,.926-.913,2.471,2.471,0,0,1,1.268-.325,2.414,2.414,0,0,1,1.853.7,3.076,3.076,0,0,1,.656,2.164V16H7.424V11.358a2,2,0,0,0-.386-1.388,1.547,1.547,0,0,0-1.179-.41A2.088,2.088,0,0,0,4.8,9.81a1.813,1.813,0,0,0-.687.7V16H2.769V8.6ZM18.751,16q-.068-.335-.106-.591a4.34,4.34,0,0,1-.044-.516,3.14,3.14,0,0,1-.981.892,2.509,2.509,0,0,1-1.3.359,2.418,2.418,0,0,1-1.76-.591,2.175,2.175,0,0,1-.6-1.63,1.91,1.91,0,0,1,.858-1.658,4.007,4.007,0,0,1,2.328-.6H18.6v-.731a1.357,1.357,0,0,0-.4-1.029,1.557,1.557,0,0,0-1.121-.379,1.627,1.627,0,0,0-1.06.328.985.985,0,0,0-.4.786l-1.278.014-.014-.041a1.77,1.77,0,0,1,.755-1.477,3.131,3.131,0,0,1,2.075-.67,3.054,3.054,0,0,1,2.023.639,2.264,2.264,0,0,1,.766,1.842V14.51a6.933,6.933,0,0,0,.041.766,3.937,3.937,0,0,0,.15.725Zm-2.235-.984a2.4,2.4,0,0,0,1.319-.376,1.787,1.787,0,0,0,.766-.861v-1.2H17.09a1.96,1.96,0,0,0-1.3.41,1.227,1.227,0,0,0-.489.964,1.014,1.014,0,0,0,.308.779A1.288,1.288,0,0,0,16.516,15.016Zm5.312-3.056a9.15,9.15,0,0,1,1.087-4.6A6.292,6.292,0,0,1,25.2,4.816l.041.007.26.793a5.832,5.832,0,0,0-1.63,2.345,10.1,10.1,0,0,0-.694,3.985v.089a10.142,10.142,0,0,0,.69,3.985A6.344,6.344,0,0,0,25.5,18.427l-.26.738H25.2a6.294,6.294,0,0,1-2.283-2.54,9.146,9.146,0,0,1-1.087-4.6Zm7.7-1.62A1.578,1.578,0,0,0,30.8,9.892a1.907,1.907,0,0,0,.373-1.254,1.768,1.768,0,0,0-.407-1.213,1.523,1.523,0,0,0-1.207-.461,1.8,1.8,0,0,0-1.289.482,1.592,1.592,0,0,0-.509,1.207H26.476l-.021-.041A2.379,2.379,0,0,1,27.3,6.7,3.246,3.246,0,0,1,29.559,5.9a3.152,3.152,0,0,1,2.174.7,2.617,2.617,0,0,1,.786,2.061,2.318,2.318,0,0,1-.366,1.271,2.465,2.465,0,0,1-1.022.9,2.352,2.352,0,0,1,1.145.913,2.68,2.68,0,0,1,.393,1.48,2.732,2.732,0,0,1-.865,2.143,3.235,3.235,0,0,1-2.246.776A3.556,3.556,0,0,1,27.32,15.4a2.293,2.293,0,0,1-.933-1.979l.014-.041h1.285a1.615,1.615,0,0,0,.523,1.22,1.883,1.883,0,0,0,1.35.5,1.674,1.674,0,0,0,1.292-.509,1.879,1.879,0,0,0,.472-1.33,1.989,1.989,0,0,0-.434-1.4,1.786,1.786,0,0,0-1.364-.465H28.417V10.34Zm7.636,1.682a9.123,9.123,0,0,1-1.09,4.6,6.338,6.338,0,0,1-2.28,2.54h-.041l-.26-.738a5.821,5.821,0,0,0,1.624-2.362,10.28,10.28,0,0,0,.7-4.03v-.089a9.935,9.935,0,0,0-.721-3.989,6.591,6.591,0,0,0-1.6-2.4l.26-.738h.041a6.336,6.336,0,0,1,2.28,2.543,9.127,9.127,0,0,1,1.09,4.6ZM40.592,16H39.245V14.619h1.347Z" transform="translate(-6894.002 -7675.232)" fill="#12263f"/>
    <path id="Trazado_830652" data-name="Trazado 830652" d="M-39.125,0h-1.354V-9.953h1.354Zm3.486-7.4.1,1.1a2.686,2.686,0,0,1,.926-.913,2.471,2.471,0,0,1,1.268-.325,2.414,2.414,0,0,1,1.853.7,3.076,3.076,0,0,1,.656,2.164V0h-1.347V-4.642a2,2,0,0,0-.386-1.388,1.547,1.547,0,0,0-1.179-.41,2.088,2.088,0,0,0-1.056.25,1.813,1.813,0,0,0-.687.7V0h-1.347V-7.4Zm8.627-1.784V-7.4h1.4v1h-1.4v4.491a1.006,1.006,0,0,0,.215.731.779.779,0,0,0,.571.212,1.251,1.251,0,0,0,.26-.031,1.927,1.927,0,0,0,.239-.065l.185.923a1.19,1.19,0,0,1-.444.2,2.242,2.242,0,0,1-.581.079,1.744,1.744,0,0,1-1.306-.5,2.152,2.152,0,0,1-.485-1.555V-6.4h-1.176v-1h1.176V-9.181ZM-21.106.144A3.129,3.129,0,0,1-23.591-.875a3.92,3.92,0,0,1-.892-2.68v-.3a3.838,3.838,0,0,1,.919-2.635,2.883,2.883,0,0,1,2.246-1.042,2.684,2.684,0,0,1,2.225.923,3.8,3.8,0,0,1,.742,2.454v.711h-4.73l-.021.034A3.057,3.057,0,0,0-22.61-1.6a1.72,1.72,0,0,0,1.5.694,3.388,3.388,0,0,0,1.2-.195,2.678,2.678,0,0,0,.885-.537l.526.875a3.237,3.237,0,0,1-1.046.646A4.167,4.167,0,0,1-21.106.144Zm-.212-6.617a1.464,1.464,0,0,0-1.166.543,2.571,2.571,0,0,0-.564,1.391l.014.034H-19.7v-.109a2.154,2.154,0,0,0-.4-1.333A1.433,1.433,0,0,0-21.318-6.474Zm7.978.267-.69-.041a1.542,1.542,0,0,0-.9.253,1.623,1.623,0,0,0-.564.711V0H-16.84V-7.4h1.2l.13,1.08a2.568,2.568,0,0,1,.776-.9,1.814,1.814,0,0,1,1.063-.321,1.664,1.664,0,0,1,.287.024,1.9,1.9,0,0,1,.226.051Zm4.211,5.3a1.584,1.584,0,0,0,1.087-.414,1.307,1.307,0,0,0,.465-1.015h1.217l.021.041a2.124,2.124,0,0,1-.82,1.7A2.9,2.9,0,0,1-9.129.144a2.9,2.9,0,0,1-2.406-1.06,4.09,4.09,0,0,1-.848-2.639v-.287a4.072,4.072,0,0,1,.851-2.628,2.9,2.9,0,0,1,2.4-1.063A2.791,2.791,0,0,1-7.1-6.768a2.428,2.428,0,0,1,.762,1.88l-.014.041H-7.578A1.632,1.632,0,0,0-8.019-6a1.451,1.451,0,0,0-1.111-.475,1.555,1.555,0,0,0-1.446.769,3.6,3.6,0,0,0-.455,1.863v.287a3.668,3.668,0,0,0,.448,1.88A1.554,1.554,0,0,0-9.129-.909ZM-.195,0Q-.263-.335-.3-.591a4.34,4.34,0,0,1-.044-.516,3.14,3.14,0,0,1-.981.892,2.509,2.509,0,0,1-1.3.359,2.418,2.418,0,0,1-1.76-.591,2.175,2.175,0,0,1-.6-1.63,1.91,1.91,0,0,1,.858-1.658,4.007,4.007,0,0,1,2.328-.6H-.345v-.731a1.357,1.357,0,0,0-.4-1.029,1.557,1.557,0,0,0-1.121-.379,1.627,1.627,0,0,0-1.06.328.985.985,0,0,0-.4.786L-4.6-5.346l-.014-.041a1.77,1.77,0,0,1,.755-1.477,3.131,3.131,0,0,1,2.075-.67,3.054,3.054,0,0,1,2.023.639A2.264,2.264,0,0,1,1-5.052V-1.49a6.933,6.933,0,0,0,.041.766A3.937,3.937,0,0,0,1.193,0ZM-2.43-.984A2.4,2.4,0,0,0-1.111-1.36a1.787,1.787,0,0,0,.766-.861v-1.2H-1.856a1.96,1.96,0,0,0-1.3.41,1.227,1.227,0,0,0-.489.964,1.014,1.014,0,0,0,.308.779A1.288,1.288,0,0,0-2.43-.984ZM4.16-7.4l.1.971a2.512,2.512,0,0,1,.919-.817,2.763,2.763,0,0,1,1.3-.291,2.288,2.288,0,0,1,1.268.342,2.068,2.068,0,0,1,.8,1.025,2.767,2.767,0,0,1,.926-1A2.423,2.423,0,0,1,10.8-7.533a2.214,2.214,0,0,1,1.784.776,3.545,3.545,0,0,1,.656,2.334V0H11.891V-4.437a2.459,2.459,0,0,0-.376-1.548,1.371,1.371,0,0,0-1.121-.455,1.427,1.427,0,0,0-1.118.479,2.083,2.083,0,0,0-.5,1.21V0H7.42V-4.437a2.425,2.425,0,0,0-.386-1.521,1.34,1.34,0,0,0-1.111-.482,1.85,1.85,0,0,0-1.012.253,1.634,1.634,0,0,0-.608.711V0H2.957V-7.4Zm17.35,3.979A4.064,4.064,0,0,1,20.74-.837a2.541,2.541,0,0,1-2.116.981,2.681,2.681,0,0,1-1.282-.291,2.379,2.379,0,0,1-.9-.858l-.219,1H15.193V-10.664H16.54v4.143a2.337,2.337,0,0,1,.865-.752,2.651,2.651,0,0,1,1.207-.26,2.458,2.458,0,0,1,2.133,1.094,4.92,4.92,0,0,1,.766,2.878Zm-1.347-.144a4.083,4.083,0,0,0-.468-2.075,1.542,1.542,0,0,0-1.425-.8,1.762,1.762,0,0,0-1.049.3,2.145,2.145,0,0,0-.68.817v3.206a2.2,2.2,0,0,0,.68.854,1.753,1.753,0,0,0,1.063.308A1.6,1.6,0,0,0,19.7-1.627a3.108,3.108,0,0,0,.465-1.791ZM24.606,0H23.259V-7.4h1.347Zm0-9.29H23.259v-1.374h1.347ZM31.223,0q-.068-.335-.106-.591a4.34,4.34,0,0,1-.044-.516,3.14,3.14,0,0,1-.981.892,2.509,2.509,0,0,1-1.3.359,2.418,2.418,0,0,1-1.76-.591,2.175,2.175,0,0,1-.6-1.63,1.91,1.91,0,0,1,.858-1.658,4.007,4.007,0,0,1,2.328-.6h1.463v-.731a1.357,1.357,0,0,0-.4-1.029,1.557,1.557,0,0,0-1.121-.379,1.627,1.627,0,0,0-1.06.328.985.985,0,0,0-.4.786l-1.278.014L26.8-5.387a1.77,1.77,0,0,1,.755-1.477,3.131,3.131,0,0,1,2.075-.67,3.054,3.054,0,0,1,2.023.639,2.264,2.264,0,0,1,.766,1.842V-1.49a6.933,6.933,0,0,0,.041.766,3.937,3.937,0,0,0,.15.725ZM28.988-.984a2.4,2.4,0,0,0,1.319-.376,1.787,1.787,0,0,0,.766-.861v-1.2H29.562a1.96,1.96,0,0,0-1.3.41,1.227,1.227,0,0,0-.489.964,1.014,1.014,0,0,0,.308.779A1.288,1.288,0,0,0,28.988-.984Zm8.887-5.223-.69-.041a1.542,1.542,0,0,0-.9.253,1.623,1.623,0,0,0-.564.711V0H34.375V-7.4h1.2l.13,1.08a2.568,2.568,0,0,1,.776-.9,1.814,1.814,0,0,1,1.063-.321,1.664,1.664,0,0,1,.287.024,1.9,1.9,0,0,1,.226.051ZM-36.367,16q-.068-.335-.106-.591a4.34,4.34,0,0,1-.044-.516,3.14,3.14,0,0,1-.981.892,2.509,2.509,0,0,1-1.3.359,2.418,2.418,0,0,1-1.76-.591,2.175,2.175,0,0,1-.6-1.63,1.91,1.91,0,0,1,.858-1.658,4.007,4.007,0,0,1,2.328-.6h1.463v-.731a1.357,1.357,0,0,0-.4-1.029,1.557,1.557,0,0,0-1.121-.379,1.627,1.627,0,0,0-1.06.328.985.985,0,0,0-.4.786l-1.278.014-.014-.041a1.77,1.77,0,0,1,.755-1.477,3.131,3.131,0,0,1,2.075-.67,3.054,3.054,0,0,1,2.023.639,2.264,2.264,0,0,1,.766,1.842V14.51a6.933,6.933,0,0,0,.041.766,3.937,3.937,0,0,0,.15.725Zm-2.235-.984a2.4,2.4,0,0,0,1.319-.376,1.787,1.787,0,0,0,.766-.861v-1.2h-1.511a1.96,1.96,0,0,0-1.3.41,1.227,1.227,0,0,0-.489.964,1.014,1.014,0,0,0,.308.779A1.288,1.288,0,0,0-38.6,15.016Zm5.312-3.056a9.15,9.15,0,0,1,1.087-4.6,6.292,6.292,0,0,1,2.283-2.543l.041.007.26.793a5.832,5.832,0,0,0-1.63,2.345,10.1,10.1,0,0,0-.694,3.985v.089a10.142,10.142,0,0,0,.69,3.985,6.344,6.344,0,0,0,1.634,2.406l-.26.738h-.041a6.294,6.294,0,0,1-2.283-2.54,9.146,9.146,0,0,1-1.087-4.6ZM-24.7,16h-1.354V7.291l-2.167.021V6.272L-24.7,5.9Zm6.74-3.979a9.123,9.123,0,0,1-1.09,4.6,6.338,6.338,0,0,1-2.28,2.54h-.041l-.26-.738a5.821,5.821,0,0,0,1.624-2.362,10.28,10.28,0,0,0,.7-4.03v-.089a9.935,9.935,0,0,0-.721-3.989,6.591,6.591,0,0,0-1.6-2.4l.26-.738h.041a6.336,6.336,0,0,1,2.28,2.543,9.127,9.127,0,0,1,1.09,4.6Zm8.381,3.069a1.584,1.584,0,0,0,1.087-.414,1.307,1.307,0,0,0,.465-1.015h1.217l.021.041a2.124,2.124,0,0,1-.82,1.7,2.9,2.9,0,0,1-1.969.742,2.9,2.9,0,0,1-2.406-1.06,4.09,4.09,0,0,1-.848-2.639v-.287A4.072,4.072,0,0,1-11.98,9.53a2.9,2.9,0,0,1,2.4-1.063,2.791,2.791,0,0,1,2.027.766,2.428,2.428,0,0,1,.762,1.88l-.014.041H-8.025A1.632,1.632,0,0,0-8.466,10a1.451,1.451,0,0,0-1.111-.475,1.555,1.555,0,0,0-1.446.769,3.6,3.6,0,0,0-.455,1.863v.287a3.668,3.668,0,0,0,.448,1.88A1.554,1.554,0,0,0-9.577,15.091ZM-5.5,12.233a4.072,4.072,0,0,1,.889-2.7A2.98,2.98,0,0,1-2.2,8.467a3.009,3.009,0,0,1,2.43,1.06,4.059,4.059,0,0,1,.892,2.707v.15a4.052,4.052,0,0,1-.889,2.707,3,3,0,0,1-2.42,1.053,3.006,3.006,0,0,1-2.423-1.056,4.045,4.045,0,0,1-.892-2.7Zm1.347.15a3.508,3.508,0,0,0,.5,1.941,1.641,1.641,0,0,0,1.473.766,1.636,1.636,0,0,0,1.463-.766,3.49,3.49,0,0,0,.5-1.941v-.15a3.479,3.479,0,0,0-.5-1.935A1.647,1.647,0,0,0-2.2,9.526a1.624,1.624,0,0,0-1.459.772,3.516,3.516,0,0,0-.5,1.935ZM3.972,8.6l.1,1.1a2.686,2.686,0,0,1,.926-.913,2.471,2.471,0,0,1,1.268-.325,2.414,2.414,0,0,1,1.853.7,3.076,3.076,0,0,1,.656,2.164V16H7.424V11.358a2,2,0,0,0-.386-1.388,1.547,1.547,0,0,0-1.179-.41A2.088,2.088,0,0,0,4.8,9.81a1.813,1.813,0,0,0-.687.7V16H2.769V8.6ZM18.751,16q-.068-.335-.106-.591a4.34,4.34,0,0,1-.044-.516,3.14,3.14,0,0,1-.981.892,2.509,2.509,0,0,1-1.3.359,2.418,2.418,0,0,1-1.76-.591,2.175,2.175,0,0,1-.6-1.63,1.91,1.91,0,0,1,.858-1.658,4.007,4.007,0,0,1,2.328-.6H18.6v-.731a1.357,1.357,0,0,0-.4-1.029,1.557,1.557,0,0,0-1.121-.379,1.627,1.627,0,0,0-1.06.328.985.985,0,0,0-.4.786l-1.278.014-.014-.041a1.77,1.77,0,0,1,.755-1.477,3.131,3.131,0,0,1,2.075-.67,3.054,3.054,0,0,1,2.023.639,2.264,2.264,0,0,1,.766,1.842V14.51a6.933,6.933,0,0,0,.041.766,3.937,3.937,0,0,0,.15.725Zm-2.235-.984a2.4,2.4,0,0,0,1.319-.376,1.787,1.787,0,0,0,.766-.861v-1.2H17.09a1.96,1.96,0,0,0-1.3.41,1.227,1.227,0,0,0-.489.964,1.014,1.014,0,0,0,.308.779A1.288,1.288,0,0,0,16.516,15.016Zm5.312-3.056a9.15,9.15,0,0,1,1.087-4.6A6.292,6.292,0,0,1,25.2,4.816l.041.007.26.793a5.832,5.832,0,0,0-1.63,2.345,10.1,10.1,0,0,0-.694,3.985v.089a10.142,10.142,0,0,0,.69,3.985A6.344,6.344,0,0,0,25.5,18.427l-.26.738H25.2a6.294,6.294,0,0,1-2.283-2.54,9.146,9.146,0,0,1-1.087-4.6Zm9.844.69h1.374V13.7H31.671V16h-1.34V13.7H26.059v-.759l4.19-6.9h1.422Zm-4.17,0h2.83V7.981l-.041-.007-.13.342Zm9.659-.629a9.123,9.123,0,0,1-1.09,4.6,6.338,6.338,0,0,1-2.28,2.54h-.041l-.26-.738a5.821,5.821,0,0,0,1.624-2.362,10.28,10.28,0,0,0,.7-4.03v-.089a9.935,9.935,0,0,0-.721-3.989,6.591,6.591,0,0,0-1.6-2.4l.26-.738h.041a6.336,6.336,0,0,1,2.28,2.543,9.127,9.127,0,0,1,1.09,4.6ZM40.592,16H39.245V14.619h1.347Z" transform="translate(-6785.998 -7675.232)" fill="#12263f"/>
    <path id="Trazado_830653" data-name="Trazado 830653" d="M-39.125,0h-1.354V-9.953h1.354Zm3.486-7.4.1,1.1a2.686,2.686,0,0,1,.926-.913,2.471,2.471,0,0,1,1.268-.325,2.414,2.414,0,0,1,1.853.7,3.076,3.076,0,0,1,.656,2.164V0h-1.347V-4.642a2,2,0,0,0-.386-1.388,1.547,1.547,0,0,0-1.179-.41,2.088,2.088,0,0,0-1.056.25,1.813,1.813,0,0,0-.687.7V0h-1.347V-7.4Zm8.627-1.784V-7.4h1.4v1h-1.4v4.491a1.006,1.006,0,0,0,.215.731.779.779,0,0,0,.571.212,1.251,1.251,0,0,0,.26-.031,1.927,1.927,0,0,0,.239-.065l.185.923a1.19,1.19,0,0,1-.444.2,2.242,2.242,0,0,1-.581.079,1.744,1.744,0,0,1-1.306-.5,2.152,2.152,0,0,1-.485-1.555V-6.4h-1.176v-1h1.176V-9.181ZM-21.106.144A3.129,3.129,0,0,1-23.591-.875a3.92,3.92,0,0,1-.892-2.68v-.3a3.838,3.838,0,0,1,.919-2.635,2.883,2.883,0,0,1,2.246-1.042,2.684,2.684,0,0,1,2.225.923,3.8,3.8,0,0,1,.742,2.454v.711h-4.73l-.021.034A3.057,3.057,0,0,0-22.61-1.6a1.72,1.72,0,0,0,1.5.694,3.388,3.388,0,0,0,1.2-.195,2.678,2.678,0,0,0,.885-.537l.526.875a3.237,3.237,0,0,1-1.046.646A4.167,4.167,0,0,1-21.106.144Zm-.212-6.617a1.464,1.464,0,0,0-1.166.543,2.571,2.571,0,0,0-.564,1.391l.014.034H-19.7v-.109a2.154,2.154,0,0,0-.4-1.333A1.433,1.433,0,0,0-21.318-6.474Zm7.978.267-.69-.041a1.542,1.542,0,0,0-.9.253,1.623,1.623,0,0,0-.564.711V0H-16.84V-7.4h1.2l.13,1.08a2.568,2.568,0,0,1,.776-.9,1.814,1.814,0,0,1,1.063-.321,1.664,1.664,0,0,1,.287.024,1.9,1.9,0,0,1,.226.051Zm4.211,5.3a1.584,1.584,0,0,0,1.087-.414,1.307,1.307,0,0,0,.465-1.015h1.217l.021.041a2.124,2.124,0,0,1-.82,1.7A2.9,2.9,0,0,1-9.129.144a2.9,2.9,0,0,1-2.406-1.06,4.09,4.09,0,0,1-.848-2.639v-.287a4.072,4.072,0,0,1,.851-2.628,2.9,2.9,0,0,1,2.4-1.063A2.791,2.791,0,0,1-7.1-6.768a2.428,2.428,0,0,1,.762,1.88l-.014.041H-7.578A1.632,1.632,0,0,0-8.019-6a1.451,1.451,0,0,0-1.111-.475,1.555,1.555,0,0,0-1.446.769,3.6,3.6,0,0,0-.455,1.863v.287a3.668,3.668,0,0,0,.448,1.88A1.554,1.554,0,0,0-9.129-.909ZM-.195,0Q-.263-.335-.3-.591a4.34,4.34,0,0,1-.044-.516,3.14,3.14,0,0,1-.981.892,2.509,2.509,0,0,1-1.3.359,2.418,2.418,0,0,1-1.76-.591,2.175,2.175,0,0,1-.6-1.63,1.91,1.91,0,0,1,.858-1.658,4.007,4.007,0,0,1,2.328-.6H-.345v-.731a1.357,1.357,0,0,0-.4-1.029,1.557,1.557,0,0,0-1.121-.379,1.627,1.627,0,0,0-1.06.328.985.985,0,0,0-.4.786L-4.6-5.346l-.014-.041a1.77,1.77,0,0,1,.755-1.477,3.131,3.131,0,0,1,2.075-.67,3.054,3.054,0,0,1,2.023.639A2.264,2.264,0,0,1,1-5.052V-1.49a6.933,6.933,0,0,0,.041.766A3.937,3.937,0,0,0,1.193,0ZM-2.43-.984A2.4,2.4,0,0,0-1.111-1.36a1.787,1.787,0,0,0,.766-.861v-1.2H-1.856a1.96,1.96,0,0,0-1.3.41,1.227,1.227,0,0,0-.489.964,1.014,1.014,0,0,0,.308.779A1.288,1.288,0,0,0-2.43-.984ZM4.16-7.4l.1.971a2.512,2.512,0,0,1,.919-.817,2.763,2.763,0,0,1,1.3-.291,2.288,2.288,0,0,1,1.268.342,2.068,2.068,0,0,1,.8,1.025,2.767,2.767,0,0,1,.926-1A2.423,2.423,0,0,1,10.8-7.533a2.214,2.214,0,0,1,1.784.776,3.545,3.545,0,0,1,.656,2.334V0H11.891V-4.437a2.459,2.459,0,0,0-.376-1.548,1.371,1.371,0,0,0-1.121-.455,1.427,1.427,0,0,0-1.118.479,2.083,2.083,0,0,0-.5,1.21V0H7.42V-4.437a2.425,2.425,0,0,0-.386-1.521,1.34,1.34,0,0,0-1.111-.482,1.85,1.85,0,0,0-1.012.253,1.634,1.634,0,0,0-.608.711V0H2.957V-7.4Zm17.35,3.979A4.064,4.064,0,0,1,20.74-.837a2.541,2.541,0,0,1-2.116.981,2.681,2.681,0,0,1-1.282-.291,2.379,2.379,0,0,1-.9-.858l-.219,1H15.193V-10.664H16.54v4.143a2.337,2.337,0,0,1,.865-.752,2.651,2.651,0,0,1,1.207-.26,2.458,2.458,0,0,1,2.133,1.094,4.92,4.92,0,0,1,.766,2.878Zm-1.347-.144a4.083,4.083,0,0,0-.468-2.075,1.542,1.542,0,0,0-1.425-.8,1.762,1.762,0,0,0-1.049.3,2.145,2.145,0,0,0-.68.817v3.206a2.2,2.2,0,0,0,.68.854,1.753,1.753,0,0,0,1.063.308A1.6,1.6,0,0,0,19.7-1.627a3.108,3.108,0,0,0,.465-1.791ZM24.606,0H23.259V-7.4h1.347Zm0-9.29H23.259v-1.374h1.347ZM31.223,0q-.068-.335-.106-.591a4.34,4.34,0,0,1-.044-.516,3.14,3.14,0,0,1-.981.892,2.509,2.509,0,0,1-1.3.359,2.418,2.418,0,0,1-1.76-.591,2.175,2.175,0,0,1-.6-1.63,1.91,1.91,0,0,1,.858-1.658,4.007,4.007,0,0,1,2.328-.6h1.463v-.731a1.357,1.357,0,0,0-.4-1.029,1.557,1.557,0,0,0-1.121-.379,1.627,1.627,0,0,0-1.06.328.985.985,0,0,0-.4.786l-1.278.014L26.8-5.387a1.77,1.77,0,0,1,.755-1.477,3.131,3.131,0,0,1,2.075-.67,3.054,3.054,0,0,1,2.023.639,2.264,2.264,0,0,1,.766,1.842V-1.49a6.933,6.933,0,0,0,.041.766,3.937,3.937,0,0,0,.15.725ZM28.988-.984a2.4,2.4,0,0,0,1.319-.376,1.787,1.787,0,0,0,.766-.861v-1.2H29.562a1.96,1.96,0,0,0-1.3.41,1.227,1.227,0,0,0-.489.964,1.014,1.014,0,0,0,.308.779A1.288,1.288,0,0,0,28.988-.984Zm8.887-5.223-.69-.041a1.542,1.542,0,0,0-.9.253,1.623,1.623,0,0,0-.564.711V0H34.375V-7.4h1.2l.13,1.08a2.568,2.568,0,0,1,.776-.9,1.814,1.814,0,0,1,1.063-.321,1.664,1.664,0,0,1,.287.024,1.9,1.9,0,0,1,.226.051ZM-36.367,16q-.068-.335-.106-.591a4.34,4.34,0,0,1-.044-.516,3.14,3.14,0,0,1-.981.892,2.509,2.509,0,0,1-1.3.359,2.418,2.418,0,0,1-1.76-.591,2.175,2.175,0,0,1-.6-1.63,1.91,1.91,0,0,1,.858-1.658,4.007,4.007,0,0,1,2.328-.6h1.463v-.731a1.357,1.357,0,0,0-.4-1.029,1.557,1.557,0,0,0-1.121-.379,1.627,1.627,0,0,0-1.06.328.985.985,0,0,0-.4.786l-1.278.014-.014-.041a1.77,1.77,0,0,1,.755-1.477,3.131,3.131,0,0,1,2.075-.67,3.054,3.054,0,0,1,2.023.639,2.264,2.264,0,0,1,.766,1.842V14.51a6.933,6.933,0,0,0,.041.766,3.937,3.937,0,0,0,.15.725Zm-2.235-.984a2.4,2.4,0,0,0,1.319-.376,1.787,1.787,0,0,0,.766-.861v-1.2h-1.511a1.96,1.96,0,0,0-1.3.41,1.227,1.227,0,0,0-.489.964,1.014,1.014,0,0,0,.308.779A1.288,1.288,0,0,0-38.6,15.016Zm5.312-3.056a9.15,9.15,0,0,1,1.087-4.6,6.292,6.292,0,0,1,2.283-2.543l.041.007.26.793a5.832,5.832,0,0,0-1.63,2.345,10.1,10.1,0,0,0-.694,3.985v.089a10.142,10.142,0,0,0,.69,3.985,6.344,6.344,0,0,0,1.634,2.406l-.26.738h-.041a6.294,6.294,0,0,1-2.283-2.54,9.146,9.146,0,0,1-1.087-4.6ZM-22.347,16h-6.18v-.923l3.124-3.726a9.385,9.385,0,0,0,1.131-1.61,2.686,2.686,0,0,0,.3-1.207,1.611,1.611,0,0,0-.4-1.131,1.434,1.434,0,0,0-1.114-.441,1.669,1.669,0,0,0-1.343.54A2,2,0,0,0-27.3,8.85h-1.3l-.014-.041a2.685,2.685,0,0,1,.813-2.061,3.12,3.12,0,0,1,2.3-.844,2.9,2.9,0,0,1,2.1.738,2.532,2.532,0,0,1,.766,1.907,3.042,3.042,0,0,1-.434,1.538,17.161,17.161,0,0,1-1.323,1.887l-2.509,2.939.014.034h4.532Zm4.389-3.979a9.123,9.123,0,0,1-1.09,4.6,6.338,6.338,0,0,1-2.28,2.54h-.041l-.26-.738a5.821,5.821,0,0,0,1.624-2.362,10.28,10.28,0,0,0,.7-4.03v-.089a9.935,9.935,0,0,0-.721-3.989,6.591,6.591,0,0,0-1.6-2.4l.26-.738h.041a6.336,6.336,0,0,1,2.28,2.543,9.127,9.127,0,0,1,1.09,4.6Zm8.381,3.069a1.584,1.584,0,0,0,1.087-.414,1.307,1.307,0,0,0,.465-1.015h1.217l.021.041a2.124,2.124,0,0,1-.82,1.7,2.9,2.9,0,0,1-1.969.742,2.9,2.9,0,0,1-2.406-1.06,4.09,4.09,0,0,1-.848-2.639v-.287A4.072,4.072,0,0,1-11.98,9.53a2.9,2.9,0,0,1,2.4-1.063,2.791,2.791,0,0,1,2.027.766,2.428,2.428,0,0,1,.762,1.88l-.014.041H-8.025A1.632,1.632,0,0,0-8.466,10a1.451,1.451,0,0,0-1.111-.475,1.555,1.555,0,0,0-1.446.769,3.6,3.6,0,0,0-.455,1.863v.287a3.668,3.668,0,0,0,.448,1.88A1.554,1.554,0,0,0-9.577,15.091ZM-5.5,12.233a4.072,4.072,0,0,1,.889-2.7A2.98,2.98,0,0,1-2.2,8.467a3.009,3.009,0,0,1,2.43,1.06,4.059,4.059,0,0,1,.892,2.707v.15a4.052,4.052,0,0,1-.889,2.707,3,3,0,0,1-2.42,1.053,3.006,3.006,0,0,1-2.423-1.056,4.045,4.045,0,0,1-.892-2.7Zm1.347.15a3.508,3.508,0,0,0,.5,1.941,1.641,1.641,0,0,0,1.473.766,1.636,1.636,0,0,0,1.463-.766,3.49,3.49,0,0,0,.5-1.941v-.15a3.479,3.479,0,0,0-.5-1.935A1.647,1.647,0,0,0-2.2,9.526a1.624,1.624,0,0,0-1.459.772,3.516,3.516,0,0,0-.5,1.935ZM3.972,8.6l.1,1.1a2.686,2.686,0,0,1,.926-.913,2.471,2.471,0,0,1,1.268-.325,2.414,2.414,0,0,1,1.853.7,3.076,3.076,0,0,1,.656,2.164V16H7.424V11.358a2,2,0,0,0-.386-1.388,1.547,1.547,0,0,0-1.179-.41A2.088,2.088,0,0,0,4.8,9.81a1.813,1.813,0,0,0-.687.7V16H2.769V8.6ZM18.751,16q-.068-.335-.106-.591a4.34,4.34,0,0,1-.044-.516,3.14,3.14,0,0,1-.981.892,2.509,2.509,0,0,1-1.3.359,2.418,2.418,0,0,1-1.76-.591,2.175,2.175,0,0,1-.6-1.63,1.91,1.91,0,0,1,.858-1.658,4.007,4.007,0,0,1,2.328-.6H18.6v-.731a1.357,1.357,0,0,0-.4-1.029,1.557,1.557,0,0,0-1.121-.379,1.627,1.627,0,0,0-1.06.328.985.985,0,0,0-.4.786l-1.278.014-.014-.041a1.77,1.77,0,0,1,.755-1.477,3.131,3.131,0,0,1,2.075-.67,3.054,3.054,0,0,1,2.023.639,2.264,2.264,0,0,1,.766,1.842V14.51a6.933,6.933,0,0,0,.041.766,3.937,3.937,0,0,0,.15.725Zm-2.235-.984a2.4,2.4,0,0,0,1.319-.376,1.787,1.787,0,0,0,.766-.861v-1.2H17.09a1.96,1.96,0,0,0-1.3.41,1.227,1.227,0,0,0-.489.964,1.014,1.014,0,0,0,.308.779A1.288,1.288,0,0,0,16.516,15.016Zm5.312-3.056a9.15,9.15,0,0,1,1.087-4.6A6.292,6.292,0,0,1,25.2,4.816l.041.007.26.793a5.832,5.832,0,0,0-1.63,2.345,10.1,10.1,0,0,0-.694,3.985v.089a10.142,10.142,0,0,0,.69,3.985A6.344,6.344,0,0,0,25.5,18.427l-.26.738H25.2a6.294,6.294,0,0,1-2.283-2.54,9.146,9.146,0,0,1-1.087-4.6Zm7.7-1.62A1.578,1.578,0,0,0,30.8,9.892a1.907,1.907,0,0,0,.373-1.254,1.768,1.768,0,0,0-.407-1.213,1.523,1.523,0,0,0-1.207-.461,1.8,1.8,0,0,0-1.289.482,1.592,1.592,0,0,0-.509,1.207H26.476l-.021-.041A2.379,2.379,0,0,1,27.3,6.7,3.246,3.246,0,0,1,29.559,5.9a3.152,3.152,0,0,1,2.174.7,2.617,2.617,0,0,1,.786,2.061,2.318,2.318,0,0,1-.366,1.271,2.465,2.465,0,0,1-1.022.9,2.352,2.352,0,0,1,1.145.913,2.68,2.68,0,0,1,.393,1.48,2.732,2.732,0,0,1-.865,2.143,3.235,3.235,0,0,1-2.246.776A3.556,3.556,0,0,1,27.32,15.4a2.293,2.293,0,0,1-.933-1.979l.014-.041h1.285a1.615,1.615,0,0,0,.523,1.22,1.883,1.883,0,0,0,1.35.5,1.674,1.674,0,0,0,1.292-.509,1.879,1.879,0,0,0,.472-1.33,1.989,1.989,0,0,0-.434-1.4,1.786,1.786,0,0,0-1.364-.465H28.417V10.34Zm7.636,1.682a9.123,9.123,0,0,1-1.09,4.6,6.338,6.338,0,0,1-2.28,2.54h-.041l-.26-.738a5.821,5.821,0,0,0,1.624-2.362,10.28,10.28,0,0,0,.7-4.03v-.089a9.935,9.935,0,0,0-.721-3.989,6.591,6.591,0,0,0-1.6-2.4l.26-.738h.041a6.336,6.336,0,0,1,2.28,2.543,9.127,9.127,0,0,1,1.09,4.6ZM40.592,16H39.245V14.619h1.347Z" transform="translate(-6686.886 -7675.232)" fill="#12263f"/>
    <path id="Trazado_830654" data-name="Trazado 830654" d="M-39.125,0h-1.354V-9.953h1.354Zm3.486-7.4.1,1.1a2.686,2.686,0,0,1,.926-.913,2.471,2.471,0,0,1,1.268-.325,2.414,2.414,0,0,1,1.853.7,3.076,3.076,0,0,1,.656,2.164V0h-1.347V-4.642a2,2,0,0,0-.386-1.388,1.547,1.547,0,0,0-1.179-.41,2.088,2.088,0,0,0-1.056.25,1.813,1.813,0,0,0-.687.7V0h-1.347V-7.4Zm8.627-1.784V-7.4h1.4v1h-1.4v4.491a1.006,1.006,0,0,0,.215.731.779.779,0,0,0,.571.212,1.251,1.251,0,0,0,.26-.031,1.927,1.927,0,0,0,.239-.065l.185.923a1.19,1.19,0,0,1-.444.2,2.242,2.242,0,0,1-.581.079,1.744,1.744,0,0,1-1.306-.5,2.152,2.152,0,0,1-.485-1.555V-6.4h-1.176v-1h1.176V-9.181ZM-21.106.144A3.129,3.129,0,0,1-23.591-.875a3.92,3.92,0,0,1-.892-2.68v-.3a3.838,3.838,0,0,1,.919-2.635,2.883,2.883,0,0,1,2.246-1.042,2.684,2.684,0,0,1,2.225.923,3.8,3.8,0,0,1,.742,2.454v.711h-4.73l-.021.034A3.057,3.057,0,0,0-22.61-1.6a1.72,1.72,0,0,0,1.5.694,3.388,3.388,0,0,0,1.2-.195,2.678,2.678,0,0,0,.885-.537l.526.875a3.237,3.237,0,0,1-1.046.646A4.167,4.167,0,0,1-21.106.144Zm-.212-6.617a1.464,1.464,0,0,0-1.166.543,2.571,2.571,0,0,0-.564,1.391l.014.034H-19.7v-.109a2.154,2.154,0,0,0-.4-1.333A1.433,1.433,0,0,0-21.318-6.474Zm7.978.267-.69-.041a1.542,1.542,0,0,0-.9.253,1.623,1.623,0,0,0-.564.711V0H-16.84V-7.4h1.2l.13,1.08a2.568,2.568,0,0,1,.776-.9,1.814,1.814,0,0,1,1.063-.321,1.664,1.664,0,0,1,.287.024,1.9,1.9,0,0,1,.226.051Zm4.211,5.3a1.584,1.584,0,0,0,1.087-.414,1.307,1.307,0,0,0,.465-1.015h1.217l.021.041a2.124,2.124,0,0,1-.82,1.7A2.9,2.9,0,0,1-9.129.144a2.9,2.9,0,0,1-2.406-1.06,4.09,4.09,0,0,1-.848-2.639v-.287a4.072,4.072,0,0,1,.851-2.628,2.9,2.9,0,0,1,2.4-1.063A2.791,2.791,0,0,1-7.1-6.768a2.428,2.428,0,0,1,.762,1.88l-.014.041H-7.578A1.632,1.632,0,0,0-8.019-6a1.451,1.451,0,0,0-1.111-.475,1.555,1.555,0,0,0-1.446.769,3.6,3.6,0,0,0-.455,1.863v.287a3.668,3.668,0,0,0,.448,1.88A1.554,1.554,0,0,0-9.129-.909ZM-.195,0Q-.263-.335-.3-.591a4.34,4.34,0,0,1-.044-.516,3.14,3.14,0,0,1-.981.892,2.509,2.509,0,0,1-1.3.359,2.418,2.418,0,0,1-1.76-.591,2.175,2.175,0,0,1-.6-1.63,1.91,1.91,0,0,1,.858-1.658,4.007,4.007,0,0,1,2.328-.6H-.345v-.731a1.357,1.357,0,0,0-.4-1.029,1.557,1.557,0,0,0-1.121-.379,1.627,1.627,0,0,0-1.06.328.985.985,0,0,0-.4.786L-4.6-5.346l-.014-.041a1.77,1.77,0,0,1,.755-1.477,3.131,3.131,0,0,1,2.075-.67,3.054,3.054,0,0,1,2.023.639A2.264,2.264,0,0,1,1-5.052V-1.49a6.933,6.933,0,0,0,.041.766A3.937,3.937,0,0,0,1.193,0ZM-2.43-.984A2.4,2.4,0,0,0-1.111-1.36a1.787,1.787,0,0,0,.766-.861v-1.2H-1.856a1.96,1.96,0,0,0-1.3.41,1.227,1.227,0,0,0-.489.964,1.014,1.014,0,0,0,.308.779A1.288,1.288,0,0,0-2.43-.984ZM4.16-7.4l.1.971a2.512,2.512,0,0,1,.919-.817,2.763,2.763,0,0,1,1.3-.291,2.288,2.288,0,0,1,1.268.342,2.068,2.068,0,0,1,.8,1.025,2.767,2.767,0,0,1,.926-1A2.423,2.423,0,0,1,10.8-7.533a2.214,2.214,0,0,1,1.784.776,3.545,3.545,0,0,1,.656,2.334V0H11.891V-4.437a2.459,2.459,0,0,0-.376-1.548,1.371,1.371,0,0,0-1.121-.455,1.427,1.427,0,0,0-1.118.479,2.083,2.083,0,0,0-.5,1.21V0H7.42V-4.437a2.425,2.425,0,0,0-.386-1.521,1.34,1.34,0,0,0-1.111-.482,1.85,1.85,0,0,0-1.012.253,1.634,1.634,0,0,0-.608.711V0H2.957V-7.4Zm17.35,3.979A4.064,4.064,0,0,1,20.74-.837a2.541,2.541,0,0,1-2.116.981,2.681,2.681,0,0,1-1.282-.291,2.379,2.379,0,0,1-.9-.858l-.219,1H15.193V-10.664H16.54v4.143a2.337,2.337,0,0,1,.865-.752,2.651,2.651,0,0,1,1.207-.26,2.458,2.458,0,0,1,2.133,1.094,4.92,4.92,0,0,1,.766,2.878Zm-1.347-.144a4.083,4.083,0,0,0-.468-2.075,1.542,1.542,0,0,0-1.425-.8,1.762,1.762,0,0,0-1.049.3,2.145,2.145,0,0,0-.68.817v3.206a2.2,2.2,0,0,0,.68.854,1.753,1.753,0,0,0,1.063.308A1.6,1.6,0,0,0,19.7-1.627a3.108,3.108,0,0,0,.465-1.791ZM24.606,0H23.259V-7.4h1.347Zm0-9.29H23.259v-1.374h1.347ZM31.223,0q-.068-.335-.106-.591a4.34,4.34,0,0,1-.044-.516,3.14,3.14,0,0,1-.981.892,2.509,2.509,0,0,1-1.3.359,2.418,2.418,0,0,1-1.76-.591,2.175,2.175,0,0,1-.6-1.63,1.91,1.91,0,0,1,.858-1.658,4.007,4.007,0,0,1,2.328-.6h1.463v-.731a1.357,1.357,0,0,0-.4-1.029,1.557,1.557,0,0,0-1.121-.379,1.627,1.627,0,0,0-1.06.328.985.985,0,0,0-.4.786l-1.278.014L26.8-5.387a1.77,1.77,0,0,1,.755-1.477,3.131,3.131,0,0,1,2.075-.67,3.054,3.054,0,0,1,2.023.639,2.264,2.264,0,0,1,.766,1.842V-1.49a6.933,6.933,0,0,0,.041.766,3.937,3.937,0,0,0,.15.725ZM28.988-.984a2.4,2.4,0,0,0,1.319-.376,1.787,1.787,0,0,0,.766-.861v-1.2H29.562a1.96,1.96,0,0,0-1.3.41,1.227,1.227,0,0,0-.489.964,1.014,1.014,0,0,0,.308.779A1.288,1.288,0,0,0,28.988-.984Zm8.887-5.223-.69-.041a1.542,1.542,0,0,0-.9.253,1.623,1.623,0,0,0-.564.711V0H34.375V-7.4h1.2l.13,1.08a2.568,2.568,0,0,1,.776-.9,1.814,1.814,0,0,1,1.063-.321,1.664,1.664,0,0,1,.287.024,1.9,1.9,0,0,1,.226.051ZM-36.367,16q-.068-.335-.106-.591a4.34,4.34,0,0,1-.044-.516,3.14,3.14,0,0,1-.981.892,2.509,2.509,0,0,1-1.3.359,2.418,2.418,0,0,1-1.76-.591,2.175,2.175,0,0,1-.6-1.63,1.91,1.91,0,0,1,.858-1.658,4.007,4.007,0,0,1,2.328-.6h1.463v-.731a1.357,1.357,0,0,0-.4-1.029,1.557,1.557,0,0,0-1.121-.379,1.627,1.627,0,0,0-1.06.328.985.985,0,0,0-.4.786l-1.278.014-.014-.041a1.77,1.77,0,0,1,.755-1.477,3.131,3.131,0,0,1,2.075-.67,3.054,3.054,0,0,1,2.023.639,2.264,2.264,0,0,1,.766,1.842V14.51a6.933,6.933,0,0,0,.041.766,3.937,3.937,0,0,0,.15.725Zm-2.235-.984a2.4,2.4,0,0,0,1.319-.376,1.787,1.787,0,0,0,.766-.861v-1.2h-1.511a1.96,1.96,0,0,0-1.3.41,1.227,1.227,0,0,0-.489.964,1.014,1.014,0,0,0,.308.779A1.288,1.288,0,0,0-38.6,15.016Zm5.312-3.056a9.15,9.15,0,0,1,1.087-4.6,6.292,6.292,0,0,1,2.283-2.543l.041.007.26.793a5.832,5.832,0,0,0-1.63,2.345,10.1,10.1,0,0,0-.694,3.985v.089a10.142,10.142,0,0,0,.69,3.985,6.344,6.344,0,0,0,1.634,2.406l-.26.738h-.041a6.294,6.294,0,0,1-2.283-2.54,9.146,9.146,0,0,1-1.087-4.6Zm7.7-1.62a1.578,1.578,0,0,0,1.275-.448,1.907,1.907,0,0,0,.373-1.254,1.768,1.768,0,0,0-.407-1.213,1.523,1.523,0,0,0-1.207-.461,1.8,1.8,0,0,0-1.289.482,1.592,1.592,0,0,0-.509,1.207h-1.285l-.021-.041A2.379,2.379,0,0,1-27.815,6.7,3.246,3.246,0,0,1-25.56,5.9a3.152,3.152,0,0,1,2.174.7A2.617,2.617,0,0,1-22.6,8.665a2.319,2.319,0,0,1-.366,1.271,2.465,2.465,0,0,1-1.022.9,2.352,2.352,0,0,1,1.145.913,2.68,2.68,0,0,1,.393,1.48,2.732,2.732,0,0,1-.865,2.143,3.235,3.235,0,0,1-2.246.776A3.556,3.556,0,0,1-27.8,15.4a2.293,2.293,0,0,1-.933-1.979l.014-.041h1.285a1.615,1.615,0,0,0,.523,1.22,1.883,1.883,0,0,0,1.35.5,1.674,1.674,0,0,0,1.292-.509,1.879,1.879,0,0,0,.472-1.33,1.989,1.989,0,0,0-.434-1.4,1.786,1.786,0,0,0-1.364-.465H-26.7V10.34Zm7.636,1.682a9.123,9.123,0,0,1-1.09,4.6,6.338,6.338,0,0,1-2.28,2.54h-.041l-.26-.738a5.821,5.821,0,0,0,1.624-2.362,10.28,10.28,0,0,0,.7-4.03v-.089a9.935,9.935,0,0,0-.721-3.989,6.591,6.591,0,0,0-1.6-2.4l.26-.738h.041a6.336,6.336,0,0,1,2.28,2.543,9.127,9.127,0,0,1,1.09,4.6Zm8.381,3.069a1.584,1.584,0,0,0,1.087-.414,1.307,1.307,0,0,0,.465-1.015h1.217l.021.041a2.124,2.124,0,0,1-.82,1.7,2.9,2.9,0,0,1-1.969.742,2.9,2.9,0,0,1-2.406-1.06,4.09,4.09,0,0,1-.848-2.639v-.287A4.072,4.072,0,0,1-11.98,9.53a2.9,2.9,0,0,1,2.4-1.063,2.791,2.791,0,0,1,2.027.766,2.428,2.428,0,0,1,.762,1.88l-.014.041H-8.025A1.632,1.632,0,0,0-8.466,10a1.451,1.451,0,0,0-1.111-.475,1.555,1.555,0,0,0-1.446.769,3.6,3.6,0,0,0-.455,1.863v.287a3.668,3.668,0,0,0,.448,1.88A1.554,1.554,0,0,0-9.577,15.091ZM-5.5,12.233a4.072,4.072,0,0,1,.889-2.7A2.98,2.98,0,0,1-2.2,8.467a3.009,3.009,0,0,1,2.43,1.06,4.059,4.059,0,0,1,.892,2.707v.15a4.052,4.052,0,0,1-.889,2.707,3,3,0,0,1-2.42,1.053,3.006,3.006,0,0,1-2.423-1.056,4.045,4.045,0,0,1-.892-2.7Zm1.347.15a3.508,3.508,0,0,0,.5,1.941,1.641,1.641,0,0,0,1.473.766,1.636,1.636,0,0,0,1.463-.766,3.49,3.49,0,0,0,.5-1.941v-.15a3.479,3.479,0,0,0-.5-1.935A1.647,1.647,0,0,0-2.2,9.526a1.624,1.624,0,0,0-1.459.772,3.516,3.516,0,0,0-.5,1.935ZM3.972,8.6l.1,1.1a2.686,2.686,0,0,1,.926-.913,2.471,2.471,0,0,1,1.268-.325,2.414,2.414,0,0,1,1.853.7,3.076,3.076,0,0,1,.656,2.164V16H7.424V11.358a2,2,0,0,0-.386-1.388,1.547,1.547,0,0,0-1.179-.41A2.088,2.088,0,0,0,4.8,9.81a1.813,1.813,0,0,0-.687.7V16H2.769V8.6ZM18.751,16q-.068-.335-.106-.591a4.34,4.34,0,0,1-.044-.516,3.14,3.14,0,0,1-.981.892,2.509,2.509,0,0,1-1.3.359,2.418,2.418,0,0,1-1.76-.591,2.175,2.175,0,0,1-.6-1.63,1.91,1.91,0,0,1,.858-1.658,4.007,4.007,0,0,1,2.328-.6H18.6v-.731a1.357,1.357,0,0,0-.4-1.029,1.557,1.557,0,0,0-1.121-.379,1.627,1.627,0,0,0-1.06.328.985.985,0,0,0-.4.786l-1.278.014-.014-.041a1.77,1.77,0,0,1,.755-1.477,3.131,3.131,0,0,1,2.075-.67,3.054,3.054,0,0,1,2.023.639,2.264,2.264,0,0,1,.766,1.842V14.51a6.933,6.933,0,0,0,.041.766,3.937,3.937,0,0,0,.15.725Zm-2.235-.984a2.4,2.4,0,0,0,1.319-.376,1.787,1.787,0,0,0,.766-.861v-1.2H17.09a1.96,1.96,0,0,0-1.3.41,1.227,1.227,0,0,0-.489.964,1.014,1.014,0,0,0,.308.779A1.288,1.288,0,0,0,16.516,15.016Zm5.312-3.056a9.15,9.15,0,0,1,1.087-4.6A6.292,6.292,0,0,1,25.2,4.816l.041.007.26.793a5.832,5.832,0,0,0-1.63,2.345,10.1,10.1,0,0,0-.694,3.985v.089a10.142,10.142,0,0,0,.69,3.985A6.344,6.344,0,0,0,25.5,18.427l-.26.738H25.2a6.294,6.294,0,0,1-2.283-2.54,9.146,9.146,0,0,1-1.087-4.6Zm4.936-.383.574-5.53H32.32v1.2H28.472l-.321,2.864a3.072,3.072,0,0,1,.711-.393,2.5,2.5,0,0,1,.889-.161,2.71,2.71,0,0,1,2.164.865,3.493,3.493,0,0,1,.783,2.41,3.5,3.5,0,0,1-.8,2.406,2.959,2.959,0,0,1-2.341.909,3.208,3.208,0,0,1-2.105-.69,2.39,2.39,0,0,1-.807-2.03l.014-.041H27.87a1.662,1.662,0,0,0,.468,1.261,1.683,1.683,0,0,0,1.213.448,1.589,1.589,0,0,0,1.326-.6,2.6,2.6,0,0,0,.472-1.647,2.371,2.371,0,0,0-.475-1.538,1.606,1.606,0,0,0-1.323-.588,2.114,2.114,0,0,0-1.148.239,1.4,1.4,0,0,0-.526.738Zm10.4.444a9.123,9.123,0,0,1-1.09,4.6,6.338,6.338,0,0,1-2.28,2.54h-.041l-.26-.738a5.821,5.821,0,0,0,1.624-2.362,10.28,10.28,0,0,0,.7-4.03v-.089a9.935,9.935,0,0,0-.721-3.989,6.591,6.591,0,0,0-1.6-2.4l.26-.738h.041a6.336,6.336,0,0,1,2.28,2.543,9.127,9.127,0,0,1,1.09,4.6ZM40.592,16H39.245V14.619h1.347Z" transform="translate(-6587.774 -7675.232)" fill="#12263f"/>
    <path id="Trazado_830655" data-name="Trazado 830655" d="M-39.125,0h-1.354V-9.953h1.354Zm3.486-7.4.1,1.1a2.686,2.686,0,0,1,.926-.913,2.471,2.471,0,0,1,1.268-.325,2.414,2.414,0,0,1,1.853.7,3.076,3.076,0,0,1,.656,2.164V0h-1.347V-4.642a2,2,0,0,0-.386-1.388,1.547,1.547,0,0,0-1.179-.41,2.088,2.088,0,0,0-1.056.25,1.813,1.813,0,0,0-.687.7V0h-1.347V-7.4Zm8.627-1.784V-7.4h1.4v1h-1.4v4.491a1.006,1.006,0,0,0,.215.731.779.779,0,0,0,.571.212,1.251,1.251,0,0,0,.26-.031,1.927,1.927,0,0,0,.239-.065l.185.923a1.19,1.19,0,0,1-.444.2,2.242,2.242,0,0,1-.581.079,1.744,1.744,0,0,1-1.306-.5,2.152,2.152,0,0,1-.485-1.555V-6.4h-1.176v-1h1.176V-9.181ZM-21.106.144A3.129,3.129,0,0,1-23.591-.875a3.92,3.92,0,0,1-.892-2.68v-.3a3.838,3.838,0,0,1,.919-2.635,2.883,2.883,0,0,1,2.246-1.042,2.684,2.684,0,0,1,2.225.923,3.8,3.8,0,0,1,.742,2.454v.711h-4.73l-.021.034A3.057,3.057,0,0,0-22.61-1.6a1.72,1.72,0,0,0,1.5.694,3.388,3.388,0,0,0,1.2-.195,2.678,2.678,0,0,0,.885-.537l.526.875a3.237,3.237,0,0,1-1.046.646A4.167,4.167,0,0,1-21.106.144Zm-.212-6.617a1.464,1.464,0,0,0-1.166.543,2.571,2.571,0,0,0-.564,1.391l.014.034H-19.7v-.109a2.154,2.154,0,0,0-.4-1.333A1.433,1.433,0,0,0-21.318-6.474Zm7.978.267-.69-.041a1.542,1.542,0,0,0-.9.253,1.623,1.623,0,0,0-.564.711V0H-16.84V-7.4h1.2l.13,1.08a2.568,2.568,0,0,1,.776-.9,1.814,1.814,0,0,1,1.063-.321,1.664,1.664,0,0,1,.287.024,1.9,1.9,0,0,1,.226.051Zm4.211,5.3a1.584,1.584,0,0,0,1.087-.414,1.307,1.307,0,0,0,.465-1.015h1.217l.021.041a2.124,2.124,0,0,1-.82,1.7A2.9,2.9,0,0,1-9.129.144a2.9,2.9,0,0,1-2.406-1.06,4.09,4.09,0,0,1-.848-2.639v-.287a4.072,4.072,0,0,1,.851-2.628,2.9,2.9,0,0,1,2.4-1.063A2.791,2.791,0,0,1-7.1-6.768a2.428,2.428,0,0,1,.762,1.88l-.014.041H-7.578A1.632,1.632,0,0,0-8.019-6a1.451,1.451,0,0,0-1.111-.475,1.555,1.555,0,0,0-1.446.769,3.6,3.6,0,0,0-.455,1.863v.287a3.668,3.668,0,0,0,.448,1.88A1.554,1.554,0,0,0-9.129-.909ZM-.195,0Q-.263-.335-.3-.591a4.34,4.34,0,0,1-.044-.516,3.14,3.14,0,0,1-.981.892,2.509,2.509,0,0,1-1.3.359,2.418,2.418,0,0,1-1.76-.591,2.175,2.175,0,0,1-.6-1.63,1.91,1.91,0,0,1,.858-1.658,4.007,4.007,0,0,1,2.328-.6H-.345v-.731a1.357,1.357,0,0,0-.4-1.029,1.557,1.557,0,0,0-1.121-.379,1.627,1.627,0,0,0-1.06.328.985.985,0,0,0-.4.786L-4.6-5.346l-.014-.041a1.77,1.77,0,0,1,.755-1.477,3.131,3.131,0,0,1,2.075-.67,3.054,3.054,0,0,1,2.023.639A2.264,2.264,0,0,1,1-5.052V-1.49a6.933,6.933,0,0,0,.041.766A3.937,3.937,0,0,0,1.193,0ZM-2.43-.984A2.4,2.4,0,0,0-1.111-1.36a1.787,1.787,0,0,0,.766-.861v-1.2H-1.856a1.96,1.96,0,0,0-1.3.41,1.227,1.227,0,0,0-.489.964,1.014,1.014,0,0,0,.308.779A1.288,1.288,0,0,0-2.43-.984ZM4.16-7.4l.1.971a2.512,2.512,0,0,1,.919-.817,2.763,2.763,0,0,1,1.3-.291,2.288,2.288,0,0,1,1.268.342,2.068,2.068,0,0,1,.8,1.025,2.767,2.767,0,0,1,.926-1A2.423,2.423,0,0,1,10.8-7.533a2.214,2.214,0,0,1,1.784.776,3.545,3.545,0,0,1,.656,2.334V0H11.891V-4.437a2.459,2.459,0,0,0-.376-1.548,1.371,1.371,0,0,0-1.121-.455,1.427,1.427,0,0,0-1.118.479,2.083,2.083,0,0,0-.5,1.21V0H7.42V-4.437a2.425,2.425,0,0,0-.386-1.521,1.34,1.34,0,0,0-1.111-.482,1.85,1.85,0,0,0-1.012.253,1.634,1.634,0,0,0-.608.711V0H2.957V-7.4Zm17.35,3.979A4.064,4.064,0,0,1,20.74-.837a2.541,2.541,0,0,1-2.116.981,2.681,2.681,0,0,1-1.282-.291,2.379,2.379,0,0,1-.9-.858l-.219,1H15.193V-10.664H16.54v4.143a2.337,2.337,0,0,1,.865-.752,2.651,2.651,0,0,1,1.207-.26,2.458,2.458,0,0,1,2.133,1.094,4.92,4.92,0,0,1,.766,2.878Zm-1.347-.144a4.083,4.083,0,0,0-.468-2.075,1.542,1.542,0,0,0-1.425-.8,1.762,1.762,0,0,0-1.049.3,2.145,2.145,0,0,0-.68.817v3.206a2.2,2.2,0,0,0,.68.854,1.753,1.753,0,0,0,1.063.308A1.6,1.6,0,0,0,19.7-1.627a3.108,3.108,0,0,0,.465-1.791ZM24.606,0H23.259V-7.4h1.347Zm0-9.29H23.259v-1.374h1.347ZM31.223,0q-.068-.335-.106-.591a4.34,4.34,0,0,1-.044-.516,3.14,3.14,0,0,1-.981.892,2.509,2.509,0,0,1-1.3.359,2.418,2.418,0,0,1-1.76-.591,2.175,2.175,0,0,1-.6-1.63,1.91,1.91,0,0,1,.858-1.658,4.007,4.007,0,0,1,2.328-.6h1.463v-.731a1.357,1.357,0,0,0-.4-1.029,1.557,1.557,0,0,0-1.121-.379,1.627,1.627,0,0,0-1.06.328.985.985,0,0,0-.4.786l-1.278.014L26.8-5.387a1.77,1.77,0,0,1,.755-1.477,3.131,3.131,0,0,1,2.075-.67,3.054,3.054,0,0,1,2.023.639,2.264,2.264,0,0,1,.766,1.842V-1.49a6.933,6.933,0,0,0,.041.766,3.937,3.937,0,0,0,.15.725ZM28.988-.984a2.4,2.4,0,0,0,1.319-.376,1.787,1.787,0,0,0,.766-.861v-1.2H29.562a1.96,1.96,0,0,0-1.3.41,1.227,1.227,0,0,0-.489.964,1.014,1.014,0,0,0,.308.779A1.288,1.288,0,0,0,28.988-.984Zm8.887-5.223-.69-.041a1.542,1.542,0,0,0-.9.253,1.623,1.623,0,0,0-.564.711V0H34.375V-7.4h1.2l.13,1.08a2.568,2.568,0,0,1,.776-.9,1.814,1.814,0,0,1,1.063-.321,1.664,1.664,0,0,1,.287.024,1.9,1.9,0,0,1,.226.051ZM-36.367,16q-.068-.335-.106-.591a4.34,4.34,0,0,1-.044-.516,3.14,3.14,0,0,1-.981.892,2.509,2.509,0,0,1-1.3.359,2.418,2.418,0,0,1-1.76-.591,2.175,2.175,0,0,1-.6-1.63,1.91,1.91,0,0,1,.858-1.658,4.007,4.007,0,0,1,2.328-.6h1.463v-.731a1.357,1.357,0,0,0-.4-1.029,1.557,1.557,0,0,0-1.121-.379,1.627,1.627,0,0,0-1.06.328.985.985,0,0,0-.4.786l-1.278.014-.014-.041a1.77,1.77,0,0,1,.755-1.477,3.131,3.131,0,0,1,2.075-.67,3.054,3.054,0,0,1,2.023.639,2.264,2.264,0,0,1,.766,1.842V14.51a6.933,6.933,0,0,0,.041.766,3.937,3.937,0,0,0,.15.725Zm-2.235-.984a2.4,2.4,0,0,0,1.319-.376,1.787,1.787,0,0,0,.766-.861v-1.2h-1.511a1.96,1.96,0,0,0-1.3.41,1.227,1.227,0,0,0-.489.964,1.014,1.014,0,0,0,.308.779A1.288,1.288,0,0,0-38.6,15.016Zm5.312-3.056a9.15,9.15,0,0,1,1.087-4.6,6.292,6.292,0,0,1,2.283-2.543l.041.007.26.793a5.832,5.832,0,0,0-1.63,2.345,10.1,10.1,0,0,0-.694,3.985v.089a10.142,10.142,0,0,0,.69,3.985,6.344,6.344,0,0,0,1.634,2.406l-.26.738h-.041a6.294,6.294,0,0,1-2.283-2.54,9.146,9.146,0,0,1-1.087-4.6Zm9.844.69h1.374V13.7h-1.374V16h-1.34V13.7H-29.06v-.759l4.19-6.9h1.422Zm-4.17,0h2.83V7.981l-.041-.007-.13.342Zm9.659-.629a9.123,9.123,0,0,1-1.09,4.6,6.338,6.338,0,0,1-2.28,2.54h-.041l-.26-.738a5.821,5.821,0,0,0,1.624-2.362,10.28,10.28,0,0,0,.7-4.03v-.089a9.935,9.935,0,0,0-.721-3.989,6.591,6.591,0,0,0-1.6-2.4l.26-.738h.041a6.336,6.336,0,0,1,2.28,2.543,9.127,9.127,0,0,1,1.09,4.6Zm8.381,3.069a1.584,1.584,0,0,0,1.087-.414,1.307,1.307,0,0,0,.465-1.015h1.217l.021.041a2.124,2.124,0,0,1-.82,1.7,2.9,2.9,0,0,1-1.969.742,2.9,2.9,0,0,1-2.406-1.06,4.09,4.09,0,0,1-.848-2.639v-.287A4.072,4.072,0,0,1-11.98,9.53a2.9,2.9,0,0,1,2.4-1.063,2.791,2.791,0,0,1,2.027.766,2.428,2.428,0,0,1,.762,1.88l-.014.041H-8.025A1.632,1.632,0,0,0-8.466,10a1.451,1.451,0,0,0-1.111-.475,1.555,1.555,0,0,0-1.446.769,3.6,3.6,0,0,0-.455,1.863v.287a3.668,3.668,0,0,0,.448,1.88A1.554,1.554,0,0,0-9.577,15.091ZM-5.5,12.233a4.072,4.072,0,0,1,.889-2.7A2.98,2.98,0,0,1-2.2,8.467a3.009,3.009,0,0,1,2.43,1.06,4.059,4.059,0,0,1,.892,2.707v.15a4.052,4.052,0,0,1-.889,2.707,3,3,0,0,1-2.42,1.053,3.006,3.006,0,0,1-2.423-1.056,4.045,4.045,0,0,1-.892-2.7Zm1.347.15a3.508,3.508,0,0,0,.5,1.941,1.641,1.641,0,0,0,1.473.766,1.636,1.636,0,0,0,1.463-.766,3.49,3.49,0,0,0,.5-1.941v-.15a3.479,3.479,0,0,0-.5-1.935A1.647,1.647,0,0,0-2.2,9.526a1.624,1.624,0,0,0-1.459.772,3.516,3.516,0,0,0-.5,1.935ZM3.972,8.6l.1,1.1a2.686,2.686,0,0,1,.926-.913,2.471,2.471,0,0,1,1.268-.325,2.414,2.414,0,0,1,1.853.7,3.076,3.076,0,0,1,.656,2.164V16H7.424V11.358a2,2,0,0,0-.386-1.388,1.547,1.547,0,0,0-1.179-.41A2.088,2.088,0,0,0,4.8,9.81a1.813,1.813,0,0,0-.687.7V16H2.769V8.6ZM18.751,16q-.068-.335-.106-.591a4.34,4.34,0,0,1-.044-.516,3.14,3.14,0,0,1-.981.892,2.509,2.509,0,0,1-1.3.359,2.418,2.418,0,0,1-1.76-.591,2.175,2.175,0,0,1-.6-1.63,1.91,1.91,0,0,1,.858-1.658,4.007,4.007,0,0,1,2.328-.6H18.6v-.731a1.357,1.357,0,0,0-.4-1.029,1.557,1.557,0,0,0-1.121-.379,1.627,1.627,0,0,0-1.06.328.985.985,0,0,0-.4.786l-1.278.014-.014-.041a1.77,1.77,0,0,1,.755-1.477,3.131,3.131,0,0,1,2.075-.67,3.054,3.054,0,0,1,2.023.639,2.264,2.264,0,0,1,.766,1.842V14.51a6.933,6.933,0,0,0,.041.766,3.937,3.937,0,0,0,.15.725Zm-2.235-.984a2.4,2.4,0,0,0,1.319-.376,1.787,1.787,0,0,0,.766-.861v-1.2H17.09a1.96,1.96,0,0,0-1.3.41,1.227,1.227,0,0,0-.489.964,1.014,1.014,0,0,0,.308.779A1.288,1.288,0,0,0,16.516,15.016Zm5.312-3.056a9.15,9.15,0,0,1,1.087-4.6A6.292,6.292,0,0,1,25.2,4.816l.041.007.26.793a5.832,5.832,0,0,0-1.63,2.345,10.1,10.1,0,0,0-.694,3.985v.089a10.142,10.142,0,0,0,.69,3.985A6.344,6.344,0,0,0,25.5,18.427l-.26.738H25.2a6.294,6.294,0,0,1-2.283-2.54,9.146,9.146,0,0,1-1.087-4.6Zm4.936-.383.574-5.53H32.32v1.2H28.472l-.321,2.864a3.072,3.072,0,0,1,.711-.393,2.5,2.5,0,0,1,.889-.161,2.71,2.71,0,0,1,2.164.865,3.493,3.493,0,0,1,.783,2.41,3.5,3.5,0,0,1-.8,2.406,2.959,2.959,0,0,1-2.341.909,3.208,3.208,0,0,1-2.105-.69,2.39,2.39,0,0,1-.807-2.03l.014-.041H27.87a1.662,1.662,0,0,0,.468,1.261,1.683,1.683,0,0,0,1.213.448,1.589,1.589,0,0,0,1.326-.6,2.6,2.6,0,0,0,.472-1.647,2.371,2.371,0,0,0-.475-1.538,1.606,1.606,0,0,0-1.323-.588,2.114,2.114,0,0,0-1.148.239,1.4,1.4,0,0,0-.526.738Zm10.4.444a9.123,9.123,0,0,1-1.09,4.6,6.338,6.338,0,0,1-2.28,2.54h-.041l-.26-.738a5.821,5.821,0,0,0,1.624-2.362,10.28,10.28,0,0,0,.7-4.03v-.089a9.935,9.935,0,0,0-.721-3.989,6.591,6.591,0,0,0-1.6-2.4l.26-.738h.041a6.336,6.336,0,0,1,2.28,2.543,9.127,9.127,0,0,1,1.09,4.6ZM40.592,16H39.245V14.619h1.347Z" transform="translate(-6488.662 -7675.232)" fill="#12263f"/>
    <path id="Trazado_826713" data-name="Trazado 826713" d="M-8486.756-7726.089s20.021,10,40.043,10,40.043-10,40.043-10" transform="translate(1548.756 10.857)" fill="none" stroke="#273a89" stroke-width="2"/>
    <path id="Trazado_826714" data-name="Trazado 826714" d="M5.413,6.83,0,8.373,5.4,0l.013.017L5.426,0l5.4,8.374Z" transform="translate(-6856.058 -7723.391) rotate(56)" fill="#273a89"/>
    <path id="Trazado_826713-2" data-name="Trazado 826713" d="M-8486.756-7726.089s20.021,10,40.043,10,40.043-10,40.043-10" transform="translate(1661.76 10.857)" fill="none" stroke="#273a89" stroke-width="2"/>
    <path id="Trazado_826714-2" data-name="Trazado 826714" d="M5.413,6.83,0,8.373,5.4,0l.013.017L5.426,0l5.4,8.374Z" transform="translate(-6743.054 -7723.391) rotate(56)" fill="#273a89"/>
    <path id="Trazado_826713-3" data-name="Trazado 826713" d="M-8486.756-7726.089s20.021,10,40.043,10,40.043-10,40.043-10" transform="translate(1758.871 10.857)" fill="none" stroke="#273a89" stroke-width="2"/>
    <path id="Trazado_826714-3" data-name="Trazado 826714" d="M5.413,6.83,0,8.373,5.4,0l.013.017L5.426,0l5.4,8.374Z" transform="translate(-6645.942 -7723.391) rotate(56)" fill="#273a89"/>
    <path id="Trazado_826713-4" data-name="Trazado 826713" d="M-8486.756-7726.089s20.021,10,40.043,10,40.043-10,40.043-10" transform="translate(1855.983 10.857)" fill="none" stroke="#273a89" stroke-width="2"/>
    <path id="Trazado_826714-4" data-name="Trazado 826714" d="M5.413,6.83,0,8.373,5.4,0l.013.017L5.426,0l5.4,8.374Z" transform="translate(-6548.83 -7723.391) rotate(56)" fill="#273a89"/>
    <path id="Trazado_826713-5" data-name="Trazado 826713" d="M-8486.756-7726.089s20.021,10,40.043,10,40.043-10,40.043-10" transform="translate(1959.071 10.857)" fill="none" stroke="#273a89" stroke-width="2"/>
    <path id="Trazado_826714-5" data-name="Trazado 826714" d="M5.413,6.83,0,8.373,5.4,0l.013.017L5.426,0l5.4,8.374Z" transform="translate(-6445.742 -7723.391) rotate(56)" fill="#273a89"/>
    <path id="Trazado_827135" data-name="Trazado 827135" d="M-8458-7292.969h22.055s4.829-20.129,4.829-39.379a168.377,168.377,0,0,0-4.829-37.62H-8458" transform="translate(1542 -506.031)" fill="none" stroke="#273a89" stroke-width="1.2"/>
    <path id="Trazado_827136" data-name="Trazado 827136" d="M-8427.2-7292.969h-25.271S-8458-7313.1-8458-7332.348s5.533-37.62,5.533-37.62h25.271" transform="translate(1569.116 -506.031)" fill="none" stroke="#273a89" stroke-width="1.2"/>
    <path id="Trazado_827134" data-name="Trazado 827134" d="M4.569,5.764,0,7.067,4.557,0l.011.014L4.58,0,9.137,7.067Z" transform="translate(-6852.967 -7803.568) rotate(90)" fill="#273a89"/>
    <path id="Trazado_827134-2" data-name="Trazado 827134" d="M4.569,1.3,0,0,4.557,7.067l.011-.014.011.014L9.137,0Z" transform="translate(-6860.034 -7871.431) rotate(-90)" fill="#273a89"/>
    <path id="Trazado_827135-2" data-name="Trazado 827135" d="M-8458-7292.969h22.055s4.829-20.129,4.829-39.379a168.377,168.377,0,0,0-4.829-37.62H-8458" transform="translate(1640 -481.531)" fill="none" stroke="#273a89" stroke-width="1.2"/>
    <path id="Trazado_827136-2" data-name="Trazado 827136" d="M-8427.2-7292.969h-25.271S-8458-7313.1-8458-7332.348s5.533-37.62,5.533-37.62h25.271" transform="translate(1667.116 -481.531)" fill="none" stroke="#273a89" stroke-width="1.2"/>
    <path id="Trazado_827134-3" data-name="Trazado 827134" d="M4.569,5.764,0,7.067,4.557,0l.011.014L4.58,0,9.137,7.067Z" transform="translate(-6754.967 -7779.068) rotate(90)" fill="#273a89"/>
    <path id="Trazado_827134-4" data-name="Trazado 827134" d="M4.569,1.3,0,0,4.557,7.067l.011-.014.011.014L9.137,0Z" transform="translate(-6762.034 -7846.931) rotate(-90)" fill="#273a89"/>
    <path id="Trazado_827135-3" data-name="Trazado 827135" d="M-8458-7318.888h22.055s4.829-13.354,4.829-26.124-4.829-24.957-4.829-24.957H-8458" transform="translate(1837 -431.613)" fill="none" stroke="#273a89" stroke-width="1.2"/>
    <path id="Trazado_827136-3" data-name="Trazado 827136" d="M-8427.2-7318.888h-25.271s-5.533-13.354-5.533-26.124,5.533-24.957,5.533-24.957h25.271" transform="translate(1864.116 -431.613)" fill="none" stroke="#273a89" stroke-width="1.2"/>
    <path id="Trazado_827134-5" data-name="Trazado 827134" d="M4.569,5.764,0,7.067,4.557,0l.011.014L4.58,0,9.137,7.067Z" transform="translate(-6557.967 -7755.069) rotate(90)" fill="#273a89"/>
    <path id="Trazado_827134-6" data-name="Trazado 827134" d="M4.569,1.3,0,0,4.557,7.067l.011-.014.011.014L9.137,0Z" transform="translate(-6565.034 -7797.013) rotate(-90)" fill="#273a89"/>
    <path id="Trazado_827135-4" data-name="Trazado 827135" d="M-8458-7344.869h22.055s4.829-6.562,4.829-12.836-4.829-12.263-4.829-12.263H-8458" transform="translate(1739 -479.463)" fill="none" stroke="#273a89" stroke-width="1.2"/>
    <path id="Trazado_827136-4" data-name="Trazado 827136" d="M-8427.2-7344.869h-25.271s-5.533-6.562-5.533-12.836,5.533-12.263,5.533-12.263h25.271" transform="translate(1766.116 -479.463)" fill="none" stroke="#273a89" stroke-width="1.2"/>
    <path id="Trazado_827134-7" data-name="Trazado 827134" d="M4.569,5.764,0,7.067,4.557,0l.011.014L4.58,0,9.137,7.067Z" transform="translate(-6655.967 -7828.901) rotate(90)" fill="#273a89"/>
    <path id="Trazado_827134-8" data-name="Trazado 827134" d="M4.569,1.3,0,0,4.557,7.067l.011-.014.011.014L9.137,0Z" transform="translate(-6663.034 -7844.862) rotate(-90)" fill="#273a89"/>
    <path id="Trazado_827135-5" data-name="Trazado 827135" d="M-8458-7344.869h22.055s4.829-6.562,4.829-12.836-4.829-12.263-4.829-12.263H-8458" transform="translate(1934 -404.725)" fill="none" stroke="#273a89" stroke-width="1.2"/>
    <path id="Trazado_827136-5" data-name="Trazado 827136" d="M-8427.2-7344.869h-25.271s-5.533-6.562-5.533-12.836,5.533-12.263,5.533-12.263h25.271" transform="translate(1961.116 -404.725)" fill="none" stroke="#273a89" stroke-width="1.2"/>
    <path id="Trazado_827134-9" data-name="Trazado 827134" d="M4.569,5.764,0,7.067,4.557,0l.011.014L4.58,0,9.137,7.067Z" transform="translate(-6460.967 -7754.163) rotate(90)" fill="#273a89"/>
    <path id="Trazado_827134-10" data-name="Trazado 827134" d="M4.569,1.3,0,0,4.557,7.067l.011-.014.011.014L9.137,0Z" transform="translate(-6468.034 -7770.124) rotate(-90)" fill="#273a89"/>
  </g>
</svg>
