<svg xmlns="http://www.w3.org/2000/svg" xmlns:xlink="http://www.w3.org/1999/xlink" width="646.217" height="361.714" viewBox="0 0 646.217 361.714">
  <defs>
    <clipPath id="clip-path">
      <path id="Exclusión_3" data-name="Exclusión 3" d="M623.217,361.714H23a23,23,0,0,1-23-23V23A23,23,0,0,1,23,0H623.217a23,23,0,0,1,23,23V338.713a23,23,0,0,1-23,23ZM48.9,20.2a23.026,23.026,0,0,0-23,23V321.4a23.026,23.026,0,0,0,23,23H597.316a23.026,23.026,0,0,0,23-23V43.2a23.026,23.026,0,0,0-23-23Z" transform="translate(0 0)" fill="#1789f7"/>
    </clipPath>
  </defs>
  <g id="Grupo_1075367" data-name="Grupo 1075367" transform="translate(7000 6940.357)">
    <path id="Trazado_830830" data-name="Trazado 830830" d="M23,0H623.217a23,23,0,0,1,23,23V338.714a23,23,0,0,1-23,23H23a23,23,0,0,1-23-23V23A23,23,0,0,1,23,0Z" transform="translate(-7000 -6940.357)" fill="#0082ff"/>
    <g id="Enmascarar_grupo_124" data-name="Enmascarar grupo 124" transform="translate(-7000 -6940.357)" clip-path="url(#clip-path)">
      <ellipse id="Elipse_9726" data-name="Elipse 9726" cx="224.686" cy="166.908" rx="224.686" ry="166.908" transform="translate(-137.272 137.566)" fill="#ffce00"/>
      <ellipse id="Elipse_9727" data-name="Elipse 9727" cx="224.686" cy="166.908" rx="224.686" ry="166.908" transform="translate(347.066 -159.693)" fill="#3ee2a8"/>
    </g>
    <path id="Trazado_830831" data-name="Trazado 830831" d="M22,0H593.4a22,22,0,0,1,22,22V310.269a22,22,0,0,1-22,22H22a22,22,0,0,1-22-22V22A22,22,0,0,1,22,0Z" transform="translate(-6985 -6924.357)" fill="#fff"/>
    <g id="Trazado_830832" data-name="Trazado 830832" transform="translate(-6827 -6835)" fill="#dcecfe">
      <path d="M 124.5 28.5 L 0.5 28.5 L 0.5 0.5 L 124.5 0.5 L 124.5 28.5 Z" stroke="none"/>
      <path d="M 1 1 L 1 28 L 124 28 L 124 1 L 1 1 M 0 0 L 125 0 L 125 29 L 0 29 L 0 0 Z" stroke="none" fill="#273a89"/>
    </g>
    <g id="Trazado_830833" data-name="Trazado 830833" transform="translate(-6655 -6835)" fill="#dcecfe">
      <path d="M 118.5 28.5 L 0.5 28.5 L 0.5 0.5 L 118.5 0.5 L 118.5 28.5 Z" stroke="none"/>
      <path d="M 1 1 L 1 28 L 118 28 L 118 1 L 1 1 M 0 0 L 119 0 L 119 29 L 0 29 L 0 0 Z" stroke="none" fill="#273a89"/>
    </g>
    <g id="Trazado_830834" data-name="Trazado 830834" transform="translate(-6827 -6835)" fill="#add3fd">
      <path d="M 22.5 28.5 L 0.5 28.5 L 0.5 0.5 L 22.5 0.5 L 22.5 28.5 Z" stroke="none"/>
      <path d="M 1 1 L 1 28 L 22 28 L 22 1 L 1 1 M 0 0 L 23 0 L 23 29 L 0 29 L 0 0 Z" stroke="none" fill="#273a89"/>
    </g>
    <g id="Trazado_830835" data-name="Trazado 830835" transform="translate(-6655 -6835)" fill="#add3fd">
      <path d="M 22.5 28.5 L 0.5 28.5 L 0.5 0.5 L 22.5 0.5 L 22.5 28.5 Z" stroke="none"/>
      <path d="M 1 1 L 1 28 L 22 28 L 22 1 L 1 1 M 0 0 L 23 0 L 23 29 L 0 29 L 0 0 Z" stroke="none" fill="#273a89"/>
    </g>
    <path id="Trazado_830836" data-name="Trazado 830836" d="M8.547,0H.914V-1.492L4.438-5.477A8.9,8.9,0,0,0,5.559-7.051a2.616,2.616,0,0,0,.332-1.184,1.7,1.7,0,0,0-.352-1.125,1.294,1.294,0,0,0-1.055-.422,1.354,1.354,0,0,0-1.148.539A2.208,2.208,0,0,0,2.93-7.875H.711L.7-7.922a3.379,3.379,0,0,1,1-2.566,3.746,3.746,0,0,1,2.789-1.051,3.858,3.858,0,0,1,2.719.895,3.111,3.111,0,0,1,.969,2.4,3.379,3.379,0,0,1-.543,1.867A21.021,21.021,0,0,1,5.758-4.039L3.883-1.789,3.9-1.75H8.547Z" transform="translate(-6820 -6814)" fill="#12263f"/>
    <path id="Trazado_830837" data-name="Trazado 830837" d="M8.555-9.617A14.691,14.691,0,0,0,5.93-5.551a11.494,11.494,0,0,0-.7,4.145V0H2.953V-1.406a10.535,10.535,0,0,1,.871-4.332A15.775,15.775,0,0,1,6.359-9.617H.555v-1.758h8Z" transform="translate(-6648 -6814)" fill="#12263f"/>
    <path id="Trazado_830838" data-name="Trazado 830838" d="M4.523-6.687A1.578,1.578,0,0,0,5.73-7.109,1.672,1.672,0,0,0,6.125-8.3a1.455,1.455,0,0,0-.414-1.062,1.546,1.546,0,0,0-1.156-.422A1.514,1.514,0,0,0,3.5-9.4a1.255,1.255,0,0,0-.426.977H.875L.859-8.469a2.582,2.582,0,0,1,1.031-2.2,4.115,4.115,0,0,1,2.664-.867,4.362,4.362,0,0,1,2.8.832A2.879,2.879,0,0,1,8.4-8.32a2.474,2.474,0,0,1-.449,1.434,3.07,3.07,0,0,1-1.23,1.027A2.873,2.873,0,0,1,8.094-4.84a2.784,2.784,0,0,1,.484,1.652A2.964,2.964,0,0,1,7.449-.73,4.518,4.518,0,0,1,4.555.164,4.51,4.51,0,0,1,1.836-.68,2.663,2.663,0,0,1,.711-3.047l.016-.047H2.945A1.433,1.433,0,0,0,3.395-2.02a1.6,1.6,0,0,0,1.16.434A1.76,1.76,0,0,0,5.82-2.047,1.538,1.538,0,0,0,6.3-3.211a1.766,1.766,0,0,0-.453-1.332,1.85,1.85,0,0,0-1.328-.434H3.266V-6.687Z" transform="translate(-6789 -6814)" fill="#12263f"/>
    <path id="Trazado_830839" data-name="Trazado 830839" d="M8.25-8.422a2.623,2.623,0,0,1-.437,1.5,2.946,2.946,0,0,1-1.2,1.02,3.479,3.479,0,0,1,1.477,1.1,2.621,2.621,0,0,1,.547,1.637,2.97,2.97,0,0,1-1.1,2.457A4.353,4.353,0,0,1,4.727.164,4.7,4.7,0,0,1,1.789-.715,2.917,2.917,0,0,1,.641-3.172a2.563,2.563,0,0,1,.566-1.637,3.591,3.591,0,0,1,1.535-1.1A3.041,3.041,0,0,1,1.48-6.926a2.543,2.543,0,0,1-.457-1.5A2.77,2.77,0,0,1,2.047-10.73a4.17,4.17,0,0,1,2.664-.809,3.894,3.894,0,0,1,2.555.809A2.818,2.818,0,0,1,8.25-8.422Zm-1.9,5.141a1.718,1.718,0,0,0-.473-1.246,1.561,1.561,0,0,0-1.168-.488,1.764,1.764,0,0,0-1.273.488A1.654,1.654,0,0,0,2.93-3.281a1.591,1.591,0,0,0,.5,1.234,1.841,1.841,0,0,0,1.293.461,1.578,1.578,0,0,0,1.164-.461A1.668,1.668,0,0,0,6.352-3.281ZM5.977-8.32a1.544,1.544,0,0,0-.352-1.066,1.167,1.167,0,0,0-.914-.395,1.375,1.375,0,0,0-1.023.387A1.46,1.46,0,0,0,3.3-8.32,1.593,1.593,0,0,0,3.7-7.2a1.333,1.333,0,0,0,1.031.426A1.112,1.112,0,0,0,5.633-7.2,1.727,1.727,0,0,0,5.977-8.32Z" transform="translate(-6617 -6814)" fill="#12263f"/>
    <path id="Trazado_830840" data-name="Trazado 830840" d="M6.219,0H3.945V-9.391H1.594v-1.742l4.625-.406Z" transform="translate(-6756 -6814)" fill="#12263f"/>
    <path id="Trazado_830841" data-name="Trazado 830841" d="M5.227-11.539a5.886,5.886,0,0,1,1.23.121,6.215,6.215,0,0,1,1.121.355L7.172-9.391a8.623,8.623,0,0,0-.953-.27,4.725,4.725,0,0,0-.977-.09,1.967,1.967,0,0,0-1.613.766,3.327,3.327,0,0,0-.613,2.133v.367A3.172,3.172,0,0,1,4.1-7.176a3.82,3.82,0,0,1,1.4-.246A2.748,2.748,0,0,1,7.781-6.387a4.217,4.217,0,0,1,.82,2.7A3.778,3.778,0,0,1,7.539-.906,3.736,3.736,0,0,1,4.766.164a3.763,3.763,0,0,1-2.9-1.219A4.738,4.738,0,0,1,.742-4.391V-6.773a4.748,4.748,0,0,1,1.27-3.465A4.3,4.3,0,0,1,5.227-11.539ZM4.742-5.7a2.505,2.505,0,0,0-1.051.2,1.618,1.618,0,0,0-.676.551v.609A3.637,3.637,0,0,0,3.5-2.3a1.465,1.465,0,0,0,1.27.719,1.319,1.319,0,0,0,1.133-.6,2.545,2.545,0,0,0,.422-1.5A2.305,2.305,0,0,0,5.895-5.16,1.4,1.4,0,0,0,4.742-5.7Z" transform="translate(-6586 -6814)" fill="#12263f"/>
    <path id="Trazado_830842" data-name="Trazado 830842" d="M8.547,0H.914V-1.492L4.438-5.477A8.9,8.9,0,0,0,5.559-7.051a2.616,2.616,0,0,0,.332-1.184,1.7,1.7,0,0,0-.352-1.125,1.294,1.294,0,0,0-1.055-.422,1.354,1.354,0,0,0-1.148.539A2.208,2.208,0,0,0,2.93-7.875H.711L.7-7.922a3.379,3.379,0,0,1,1-2.566,3.746,3.746,0,0,1,2.789-1.051,3.858,3.858,0,0,1,2.719.895,3.111,3.111,0,0,1,.969,2.4,3.379,3.379,0,0,1-.543,1.867A21.021,21.021,0,0,1,5.758-4.039L3.883-1.789,3.9-1.75H8.547Z" transform="translate(-6723 -6814)" fill="#12263f"/>
    <path id="Trazado_830843" data-name="Trazado 830843" d="M4.156-1.586a1.73,1.73,0,0,0,1.383-.637A2.669,2.669,0,0,0,6.078-4v-.734a2.515,2.515,0,0,1-.906.742,2.577,2.577,0,0,1-1.125.25A3.134,3.134,0,0,1,1.559-4.773a4.111,4.111,0,0,1-.9-2.8,3.95,3.95,0,0,1,1.07-2.836,3.609,3.609,0,0,1,2.734-1.125,3.674,3.674,0,0,1,2.8,1.156,4.494,4.494,0,0,1,1.086,3.2v3.063A4.168,4.168,0,0,1,7.168-.992,4.132,4.132,0,0,1,4.156.164,6.083,6.083,0,0,1,2.934.035,6.265,6.265,0,0,1,1.75-.328l.383-1.648a5.191,5.191,0,0,0,.961.3A5.447,5.447,0,0,0,4.156-1.586ZM4.43-5.414a2.033,2.033,0,0,0,.977-.227,1.808,1.808,0,0,0,.672-.609V-7.578a2.635,2.635,0,0,0-.437-1.637,1.405,1.405,0,0,0-1.172-.566,1.28,1.28,0,0,0-1.109.637,2.774,2.774,0,0,0-.422,1.566,2.861,2.861,0,0,0,.383,1.57A1.24,1.24,0,0,0,4.43-5.414Z" transform="translate(-6554 -6814)" fill="#12263f"/>
    <path id="Trazado_830844" data-name="Trazado 830844" d="M1.367-5.055l.656-6.32h5.7v1.367H3.32L2.953-6.734a3.511,3.511,0,0,1,.813-.449,2.858,2.858,0,0,1,1.016-.184,3.1,3.1,0,0,1,2.473.988,3.992,3.992,0,0,1,.895,2.754A4,4,0,0,1,7.23-.875,3.382,3.382,0,0,1,4.555.164,3.666,3.666,0,0,1,2.148-.625a2.731,2.731,0,0,1-.922-2.32l.016-.047H2.633a1.9,1.9,0,0,0,.535,1.441,1.924,1.924,0,0,0,1.387.512A1.816,1.816,0,0,0,6.07-1.727a2.976,2.976,0,0,0,.539-1.883,2.71,2.71,0,0,0-.543-1.758,1.835,1.835,0,0,0-1.512-.672,2.416,2.416,0,0,0-1.312.273,1.6,1.6,0,0,0-.6.844Z" transform="translate(-6684 -6814)" fill="#12263f"/>
    <g id="Trazado_830845" data-name="Trazado 830845" transform="translate(-6827 -6906)" fill="#dcecfe">
      <path d="M 290.5 28.5 L 0.5 28.5 L 0.5 0.5 L 290.5 0.5 L 290.5 28.5 Z" stroke="none"/>
      <path d="M 1 1 L 1 28 L 290 28 L 290 1 L 1 1 M 0 0 L 291 0 L 291 29 L 0 29 L 0 0 Z" stroke="none" fill="#273a89"/>
    </g>
    <g id="Trazado_830846" data-name="Trazado 830846" transform="translate(-6827 -6906)" fill="#add3fd">
      <path d="M 22.5 28.5 L 0.5 28.5 L 0.5 0.5 L 22.5 0.5 L 22.5 28.5 Z" stroke="none"/>
      <path d="M 1 1 L 1 28 L 22 28 L 22 1 L 1 1 M 0 0 L 23 0 L 23 29 L 0 29 L 0 0 Z" stroke="none" fill="#273a89"/>
    </g>
    <path id="Trazado_830847" data-name="Trazado 830847" d="M1.086-5.016l.656-6.359H8.086v1.828H3.609L3.3-6.891a2.756,2.756,0,0,1,.8-.387,3.855,3.855,0,0,1,1.055-.168,3.015,3.015,0,0,1,2.457.98,4.162,4.162,0,0,1,.871,2.816A3.989,3.989,0,0,1,7.539-.906,3.658,3.658,0,0,1,4.648.164,4.372,4.372,0,0,1,1.961-.668,2.6,2.6,0,0,1,.883-2.953L.9-2.992l2.2-.1a1.438,1.438,0,0,0,.43,1.109,1.589,1.589,0,0,0,1.125.4,1.342,1.342,0,0,0,1.184-.531A2.627,2.627,0,0,0,6.2-3.633,2.691,2.691,0,0,0,5.8-5.2a1.372,1.372,0,0,0-1.2-.582,1.748,1.748,0,0,0-1,.242,1.321,1.321,0,0,0-.5.656Z" transform="translate(-6820 -6885)" fill="#12263f"/>
    <path id="Trazado_830848" data-name="Trazado 830848" d="M8.547,0H.914V-1.492L4.438-5.477A8.9,8.9,0,0,0,5.559-7.051a2.616,2.616,0,0,0,.332-1.184,1.7,1.7,0,0,0-.352-1.125,1.294,1.294,0,0,0-1.055-.422,1.354,1.354,0,0,0-1.148.539A2.208,2.208,0,0,0,2.93-7.875H.711L.7-7.922a3.379,3.379,0,0,1,1-2.566,3.746,3.746,0,0,1,2.789-1.051,3.858,3.858,0,0,1,2.719.895,3.111,3.111,0,0,1,.969,2.4,3.379,3.379,0,0,1-.543,1.867A21.021,21.021,0,0,1,5.758-4.039L3.883-1.789,3.9-1.75H8.547Z" transform="translate(-6789 -6885)" fill="#12263f"/>
    <path id="Trazado_830849" data-name="Trazado 830849" d="M8.555-9.617A14.691,14.691,0,0,0,5.93-5.551a11.494,11.494,0,0,0-.7,4.145V0H2.953V-1.406a10.535,10.535,0,0,1,.871-4.332A15.775,15.775,0,0,1,6.359-9.617H.555v-1.758h8Z" transform="translate(-6756 -6885)" fill="#12263f"/>
    <path id="Trazado_830850" data-name="Trazado 830850" d="M4.523-6.687A1.578,1.578,0,0,0,5.73-7.109,1.672,1.672,0,0,0,6.125-8.3a1.455,1.455,0,0,0-.414-1.062,1.546,1.546,0,0,0-1.156-.422A1.514,1.514,0,0,0,3.5-9.4a1.255,1.255,0,0,0-.426.977H.875L.859-8.469a2.582,2.582,0,0,1,1.031-2.2,4.115,4.115,0,0,1,2.664-.867,4.362,4.362,0,0,1,2.8.832A2.879,2.879,0,0,1,8.4-8.32a2.474,2.474,0,0,1-.449,1.434,3.07,3.07,0,0,1-1.23,1.027A2.873,2.873,0,0,1,8.094-4.84a2.784,2.784,0,0,1,.484,1.652A2.964,2.964,0,0,1,7.449-.73,4.518,4.518,0,0,1,4.555.164,4.51,4.51,0,0,1,1.836-.68,2.663,2.663,0,0,1,.711-3.047l.016-.047H2.945A1.433,1.433,0,0,0,3.395-2.02a1.6,1.6,0,0,0,1.16.434A1.76,1.76,0,0,0,5.82-2.047,1.538,1.538,0,0,0,6.3-3.211a1.766,1.766,0,0,0-.453-1.332,1.85,1.85,0,0,0-1.328-.434H3.266V-6.687Z" transform="translate(-6723 -6885)" fill="#12263f"/>
    <path id="Trazado_830851" data-name="Trazado 830851" d="M6.219,0H3.945V-9.391H1.594v-1.742l4.625-.406Z" transform="translate(-6684 -6885)" fill="#12263f"/>
    <path id="Trazado_830852" data-name="Trazado 830852" d="M8.25-8.422a2.623,2.623,0,0,1-.437,1.5,2.946,2.946,0,0,1-1.2,1.02,3.479,3.479,0,0,1,1.477,1.1,2.621,2.621,0,0,1,.547,1.637,2.97,2.97,0,0,1-1.1,2.457A4.353,4.353,0,0,1,4.727.164,4.7,4.7,0,0,1,1.789-.715,2.917,2.917,0,0,1,.641-3.172a2.563,2.563,0,0,1,.566-1.637,3.591,3.591,0,0,1,1.535-1.1A3.041,3.041,0,0,1,1.48-6.926a2.543,2.543,0,0,1-.457-1.5A2.77,2.77,0,0,1,2.047-10.73a4.17,4.17,0,0,1,2.664-.809,3.894,3.894,0,0,1,2.555.809A2.818,2.818,0,0,1,8.25-8.422Zm-1.9,5.141a1.718,1.718,0,0,0-.473-1.246,1.561,1.561,0,0,0-1.168-.488,1.764,1.764,0,0,0-1.273.488A1.654,1.654,0,0,0,2.93-3.281a1.591,1.591,0,0,0,.5,1.234,1.841,1.841,0,0,0,1.293.461,1.578,1.578,0,0,0,1.164-.461A1.668,1.668,0,0,0,6.352-3.281ZM5.977-8.32a1.544,1.544,0,0,0-.352-1.066,1.167,1.167,0,0,0-.914-.395,1.375,1.375,0,0,0-1.023.387A1.46,1.46,0,0,0,3.3-8.32,1.593,1.593,0,0,0,3.7-7.2a1.333,1.333,0,0,0,1.031.426A1.112,1.112,0,0,0,5.633-7.2,1.727,1.727,0,0,0,5.977-8.32Z" transform="translate(-6648 -6885)" fill="#12263f"/>
    <path id="Trazado_830853" data-name="Trazado 830853" d="M8.547,0H.914V-1.492L4.438-5.477A8.9,8.9,0,0,0,5.559-7.051a2.616,2.616,0,0,0,.332-1.184,1.7,1.7,0,0,0-.352-1.125,1.294,1.294,0,0,0-1.055-.422,1.354,1.354,0,0,0-1.148.539A2.208,2.208,0,0,0,2.93-7.875H.711L.7-7.922a3.379,3.379,0,0,1,1-2.566,3.746,3.746,0,0,1,2.789-1.051,3.858,3.858,0,0,1,2.719.895,3.111,3.111,0,0,1,.969,2.4,3.379,3.379,0,0,1-.543,1.867A21.021,21.021,0,0,1,5.758-4.039L3.883-1.789,3.9-1.75H8.547Z" transform="translate(-6617 -6885)" fill="#12263f"/>
    <path id="Trazado_830854" data-name="Trazado 830854" d="M5.227-11.539a5.886,5.886,0,0,1,1.23.121,6.215,6.215,0,0,1,1.121.355L7.172-9.391a8.623,8.623,0,0,0-.953-.27,4.725,4.725,0,0,0-.977-.09,1.967,1.967,0,0,0-1.613.766,3.327,3.327,0,0,0-.613,2.133v.367A3.172,3.172,0,0,1,4.1-7.176a3.82,3.82,0,0,1,1.4-.246A2.748,2.748,0,0,1,7.781-6.387a4.217,4.217,0,0,1,.82,2.7A3.778,3.778,0,0,1,7.539-.906,3.736,3.736,0,0,1,4.766.164a3.763,3.763,0,0,1-2.9-1.219A4.738,4.738,0,0,1,.742-4.391V-6.773a4.748,4.748,0,0,1,1.27-3.465A4.3,4.3,0,0,1,5.227-11.539ZM4.742-5.7a2.505,2.505,0,0,0-1.051.2,1.618,1.618,0,0,0-.676.551v.609A3.637,3.637,0,0,0,3.5-2.3a1.465,1.465,0,0,0,1.27.719,1.319,1.319,0,0,0,1.133-.6,2.545,2.545,0,0,0,.422-1.5A2.305,2.305,0,0,0,5.895-5.16,1.4,1.4,0,0,0,4.742-5.7Z" transform="translate(-6586 -6885)" fill="#12263f"/>
    <path id="Trazado_830855" data-name="Trazado 830855" d="M4.156-1.586a1.73,1.73,0,0,0,1.383-.637A2.669,2.669,0,0,0,6.078-4v-.734a2.515,2.515,0,0,1-.906.742,2.577,2.577,0,0,1-1.125.25A3.134,3.134,0,0,1,1.559-4.773a4.111,4.111,0,0,1-.9-2.8,3.95,3.95,0,0,1,1.07-2.836,3.609,3.609,0,0,1,2.734-1.125,3.674,3.674,0,0,1,2.8,1.156,4.494,4.494,0,0,1,1.086,3.2v3.063A4.168,4.168,0,0,1,7.168-.992,4.132,4.132,0,0,1,4.156.164,6.083,6.083,0,0,1,2.934.035,6.265,6.265,0,0,1,1.75-.328l.383-1.648a5.191,5.191,0,0,0,.961.3A5.447,5.447,0,0,0,4.156-1.586ZM4.43-5.414a2.033,2.033,0,0,0,.977-.227,1.808,1.808,0,0,0,.672-.609V-7.578a2.635,2.635,0,0,0-.437-1.637,1.405,1.405,0,0,0-1.172-.566,1.28,1.28,0,0,0-1.109.637,2.774,2.774,0,0,0-.422,1.566,2.861,2.861,0,0,0,.383,1.57A1.24,1.24,0,0,0,4.43-5.414Z" transform="translate(-6554 -6885)" fill="#12263f"/>
    <path id="Trazado_830856" data-name="Trazado 830856" d="M5.547,0H4V-9.953L1.523-9.93v-1.187l4.023-.422Z" transform="translate(-6822 -6677)" fill="#12263f"/>
    <path id="Trazado_830857" data-name="Trazado 830857" d="M8.234,0H1.172V-1.055l3.57-4.258a10.726,10.726,0,0,0,1.293-1.84,3.07,3.07,0,0,0,.34-1.379,1.841,1.841,0,0,0-.461-1.293,1.639,1.639,0,0,0-1.273-.5,1.908,1.908,0,0,0-1.535.617,2.286,2.286,0,0,0-.527,1.539H1.094l-.016-.047a3.068,3.068,0,0,1,.93-2.355,3.566,3.566,0,0,1,2.633-.965,3.31,3.31,0,0,1,2.4.844,2.894,2.894,0,0,1,.875,2.18,3.476,3.476,0,0,1-.5,1.758A19.612,19.612,0,0,1,5.906-4.6L3.039-1.242l.016.039h5.18Z" transform="translate(-6789 -6677)" fill="#12263f"/>
    <path id="Trazado_830858" data-name="Trazado 830858" d="M8.547,0H.914V-1.492L4.438-5.477A8.9,8.9,0,0,0,5.559-7.051a2.616,2.616,0,0,0,.332-1.184,1.7,1.7,0,0,0-.352-1.125,1.294,1.294,0,0,0-1.055-.422,1.354,1.354,0,0,0-1.148.539A2.208,2.208,0,0,0,2.93-7.875H.711L.7-7.922a3.379,3.379,0,0,1,1-2.566,3.746,3.746,0,0,1,2.789-1.051,3.858,3.858,0,0,1,2.719.895,3.111,3.111,0,0,1,.969,2.4,3.379,3.379,0,0,1-.543,1.867A21.021,21.021,0,0,1,5.758-4.039L3.883-1.789,3.9-1.75H8.547Z" transform="translate(-6756 -6677)" fill="#12263f"/>
    <path id="Trazado_830859" data-name="Trazado 830859" d="M4.523-6.469A1.8,1.8,0,0,0,5.98-6.98a2.179,2.179,0,0,0,.426-1.434A2.02,2.02,0,0,0,5.941-9.8a1.741,1.741,0,0,0-1.379-.527,2.057,2.057,0,0,0-1.473.551A1.819,1.819,0,0,0,2.508-8.4H1.039l-.023-.047a2.718,2.718,0,0,1,.969-2.187,3.709,3.709,0,0,1,2.578-.906,3.6,3.6,0,0,1,2.484.8,2.991,2.991,0,0,1,.9,2.355A2.65,2.65,0,0,1,7.527-6.93,2.818,2.818,0,0,1,6.359-5.906,2.688,2.688,0,0,1,7.668-4.863a3.063,3.063,0,0,1,.449,1.691A3.122,3.122,0,0,1,7.129-.723,3.7,3.7,0,0,1,4.563.164,4.064,4.064,0,0,1,2-.691,2.62,2.62,0,0,1,.938-2.953L.953-3H2.422a1.846,1.846,0,0,0,.6,1.395,2.152,2.152,0,0,0,1.543.566,1.914,1.914,0,0,0,1.477-.582,2.147,2.147,0,0,0,.539-1.52,2.273,2.273,0,0,0-.5-1.6,2.041,2.041,0,0,0-1.559-.531H3.258v-1.2Z" transform="translate(-6723 -6677)" fill="#12263f"/>
    <path id="Trazado_830860" data-name="Trazado 830860" d="M1.367-5.055l.656-6.32h5.7v1.367H3.32L2.953-6.734a3.511,3.511,0,0,1,.813-.449,2.858,2.858,0,0,1,1.016-.184,3.1,3.1,0,0,1,2.473.988,3.992,3.992,0,0,1,.895,2.754A4,4,0,0,1,7.23-.875,3.382,3.382,0,0,1,4.555.164,3.666,3.666,0,0,1,2.148-.625a2.731,2.731,0,0,1-.922-2.32l.016-.047H2.633a1.9,1.9,0,0,0,.535,1.441,1.924,1.924,0,0,0,1.387.512A1.816,1.816,0,0,0,6.07-1.727a2.976,2.976,0,0,0,.539-1.883,2.71,2.71,0,0,0-.543-1.758,1.835,1.835,0,0,0-1.512-.672,2.416,2.416,0,0,0-1.312.273,1.6,1.6,0,0,0-.6.844Z" transform="translate(-6684 -6677)" fill="#12263f"/>
    <path id="Trazado_830861" data-name="Trazado 830861" d="M5.008-11.539a6.679,6.679,0,0,1,1.328.133,4.8,4.8,0,0,1,1.086.336l-.328,1.18a5.748,5.748,0,0,0-.937-.316,4.842,4.842,0,0,0-1.148-.121,2.06,2.06,0,0,0-1.738.914A3.817,3.817,0,0,0,2.6-7.1v.883a3.48,3.48,0,0,1,1.129-.75,3.591,3.591,0,0,1,1.4-.273,2.921,2.921,0,0,1,2.324.984,3.8,3.8,0,0,1,.855,2.586A3.97,3.97,0,0,1,7.355-.879,3.333,3.333,0,0,1,4.773.164a3.385,3.385,0,0,1-2.641-1.2A4.767,4.767,0,0,1,1.07-4.312V-6.93a4.849,4.849,0,0,1,1.137-3.3A3.572,3.572,0,0,1,5.008-11.539ZM4.641-6.094a2.4,2.4,0,0,0-1.246.309,2.065,2.065,0,0,0-.793.832v.789A3.731,3.731,0,0,0,3.23-1.879a1.872,1.872,0,0,0,1.543.84,1.708,1.708,0,0,0,1.48-.73,3.21,3.21,0,0,0,.52-1.9,2.634,2.634,0,0,0-.559-1.766A1.954,1.954,0,0,0,4.641-6.094Z" transform="translate(-6649 -6677)" fill="#12263f"/>
    <path id="Trazado_830862" data-name="Trazado 830862" d="M8.3-10.164A16.909,16.909,0,0,0,5.391-5.641a12.12,12.12,0,0,0-.758,4.4V0H3.094V-1.242a11,11,0,0,1,.949-4.645,20.351,20.351,0,0,1,2.746-4.277H.758v-1.211H8.3Z" transform="translate(-6617 -6677)" fill="#12263f"/>
    <path id="Trazado_830863" data-name="Trazado 830863" d="M7.891-8.469a2.563,2.563,0,0,1-.5,1.566A3.029,3.029,0,0,1,6.063-5.891,3.333,3.333,0,0,1,7.617-4.82a2.641,2.641,0,0,1,.586,1.7A3,3,0,0,1,7.184-.7a3.892,3.892,0,0,1-2.6.859A4.194,4.194,0,0,1,1.855-.7,2.952,2.952,0,0,1,.8-3.125a2.608,2.608,0,0,1,.6-1.7A3.446,3.446,0,0,1,3.008-5.9a3,3,0,0,1-1.383-1,2.536,2.536,0,0,1-.508-1.566,2.787,2.787,0,0,1,.957-2.281,3.8,3.8,0,0,1,2.5-.789,3.558,3.558,0,0,1,2.387.793A2.822,2.822,0,0,1,7.891-8.469ZM6.672-3.156a2.067,2.067,0,0,0-.605-1.531,2.039,2.039,0,0,0-1.5-.6,2.231,2.231,0,0,0-1.6.6,2.021,2.021,0,0,0-.633,1.531,1.99,1.99,0,0,0,.629,1.539,2.3,2.3,0,0,0,1.621.578,2.049,2.049,0,0,0,1.488-.582A2.046,2.046,0,0,0,6.672-3.156Zm-.32-5.289A1.869,1.869,0,0,0,5.84-9.8a1.692,1.692,0,0,0-1.27-.531A1.917,1.917,0,0,0,3.2-9.816a1.8,1.8,0,0,0-.539,1.371A1.887,1.887,0,0,0,3.2-7.039,1.889,1.889,0,0,0,4.586-6.5a1.655,1.655,0,0,0,1.262-.539A1.976,1.976,0,0,0,6.352-8.445Z" transform="translate(-6586 -6677)" fill="#12263f"/>
    <path id="Trazado_830864" data-name="Trazado 830864" d="M4.156-1.586a1.73,1.73,0,0,0,1.383-.637A2.669,2.669,0,0,0,6.078-4v-.734a2.515,2.515,0,0,1-.906.742,2.577,2.577,0,0,1-1.125.25A3.134,3.134,0,0,1,1.559-4.773a4.111,4.111,0,0,1-.9-2.8,3.95,3.95,0,0,1,1.07-2.836,3.609,3.609,0,0,1,2.734-1.125,3.674,3.674,0,0,1,2.8,1.156,4.494,4.494,0,0,1,1.086,3.2v3.063A4.168,4.168,0,0,1,7.168-.992,4.132,4.132,0,0,1,4.156.164,6.083,6.083,0,0,1,2.934.035,6.265,6.265,0,0,1,1.75-.328l.383-1.648a5.191,5.191,0,0,0,.961.3A5.447,5.447,0,0,0,4.156-1.586ZM4.43-5.414a2.033,2.033,0,0,0,.977-.227,1.808,1.808,0,0,0,.672-.609V-7.578a2.635,2.635,0,0,0-.437-1.637,1.405,1.405,0,0,0-1.172-.566,1.28,1.28,0,0,0-1.109.637,2.774,2.774,0,0,0-.422,1.566,2.861,2.861,0,0,0,.383,1.57A1.24,1.24,0,0,0,4.43-5.414Z" transform="translate(-6554 -6677)" fill="#12263f"/>
    <path id="Trazado_830865" data-name="Trazado 830865" d="M5.547,0H4V-9.953L1.523-9.93v-1.187l4.023-.422Z" transform="translate(-6822 -6615)" fill="#12263f"/>
    <path id="Trazado_830866" data-name="Trazado 830866" d="M8.234,0H1.172V-1.055l3.57-4.258a10.726,10.726,0,0,0,1.293-1.84,3.07,3.07,0,0,0,.34-1.379,1.841,1.841,0,0,0-.461-1.293,1.639,1.639,0,0,0-1.273-.5,1.908,1.908,0,0,0-1.535.617,2.286,2.286,0,0,0-.527,1.539H1.094l-.016-.047a3.068,3.068,0,0,1,.93-2.355,3.566,3.566,0,0,1,2.633-.965,3.31,3.31,0,0,1,2.4.844,2.894,2.894,0,0,1,.875,2.18,3.476,3.476,0,0,1-.5,1.758A19.612,19.612,0,0,1,5.906-4.6L3.039-1.242l.016.039h5.18Z" transform="translate(-6789 -6615)" fill="#12263f"/>
    <path id="Trazado_830867" data-name="Trazado 830867" d="M8.234,0H1.172V-1.055l3.57-4.258a10.726,10.726,0,0,0,1.293-1.84,3.07,3.07,0,0,0,.34-1.379,1.841,1.841,0,0,0-.461-1.293,1.639,1.639,0,0,0-1.273-.5,1.908,1.908,0,0,0-1.535.617,2.286,2.286,0,0,0-.527,1.539H1.094l-.016-.047a3.068,3.068,0,0,1,.93-2.355,3.566,3.566,0,0,1,2.633-.965,3.31,3.31,0,0,1,2.4.844,2.894,2.894,0,0,1,.875,2.18,3.476,3.476,0,0,1-.5,1.758A19.612,19.612,0,0,1,5.906-4.6L3.039-1.242l.016.039h5.18Z" transform="translate(-6756 -6615)" fill="#12263f"/>
    <path id="Trazado_830868" data-name="Trazado 830868" d="M4.523-6.469A1.8,1.8,0,0,0,5.98-6.98a2.179,2.179,0,0,0,.426-1.434A2.02,2.02,0,0,0,5.941-9.8a1.741,1.741,0,0,0-1.379-.527,2.057,2.057,0,0,0-1.473.551A1.819,1.819,0,0,0,2.508-8.4H1.039l-.023-.047a2.718,2.718,0,0,1,.969-2.187,3.709,3.709,0,0,1,2.578-.906,3.6,3.6,0,0,1,2.484.8,2.991,2.991,0,0,1,.9,2.355A2.65,2.65,0,0,1,7.527-6.93,2.818,2.818,0,0,1,6.359-5.906,2.688,2.688,0,0,1,7.668-4.863a3.063,3.063,0,0,1,.449,1.691A3.122,3.122,0,0,1,7.129-.723,3.7,3.7,0,0,1,4.563.164,4.064,4.064,0,0,1,2-.691,2.62,2.62,0,0,1,.938-2.953L.953-3H2.422a1.846,1.846,0,0,0,.6,1.395,2.152,2.152,0,0,0,1.543.566,1.914,1.914,0,0,0,1.477-.582,2.147,2.147,0,0,0,.539-1.52,2.273,2.273,0,0,0-.5-1.6,2.041,2.041,0,0,0-1.559-.531H3.258v-1.2Z" transform="translate(-6723 -6615)" fill="#12263f"/>
    <path id="Trazado_830869" data-name="Trazado 830869" d="M1.367-5.055l.656-6.32h5.7v1.367H3.32L2.953-6.734a3.511,3.511,0,0,1,.813-.449,2.858,2.858,0,0,1,1.016-.184,3.1,3.1,0,0,1,2.473.988,3.992,3.992,0,0,1,.895,2.754A4,4,0,0,1,7.23-.875,3.382,3.382,0,0,1,4.555.164,3.666,3.666,0,0,1,2.148-.625a2.731,2.731,0,0,1-.922-2.32l.016-.047H2.633a1.9,1.9,0,0,0,.535,1.441,1.924,1.924,0,0,0,1.387.512A1.816,1.816,0,0,0,6.07-1.727a2.976,2.976,0,0,0,.539-1.883,2.71,2.71,0,0,0-.543-1.758,1.835,1.835,0,0,0-1.512-.672,2.416,2.416,0,0,0-1.312.273,1.6,1.6,0,0,0-.6.844Z" transform="translate(-6684 -6615)" fill="#12263f"/>
    <path id="Trazado_830870" data-name="Trazado 830870" d="M5.008-11.539a6.679,6.679,0,0,1,1.328.133,4.8,4.8,0,0,1,1.086.336l-.328,1.18a5.748,5.748,0,0,0-.937-.316,4.842,4.842,0,0,0-1.148-.121,2.06,2.06,0,0,0-1.738.914A3.817,3.817,0,0,0,2.6-7.1v.883a3.48,3.48,0,0,1,1.129-.75,3.591,3.591,0,0,1,1.4-.273,2.921,2.921,0,0,1,2.324.984,3.8,3.8,0,0,1,.855,2.586A3.97,3.97,0,0,1,7.355-.879,3.333,3.333,0,0,1,4.773.164a3.385,3.385,0,0,1-2.641-1.2A4.767,4.767,0,0,1,1.07-4.312V-6.93a4.849,4.849,0,0,1,1.137-3.3A3.572,3.572,0,0,1,5.008-11.539ZM4.641-6.094a2.4,2.4,0,0,0-1.246.309,2.065,2.065,0,0,0-.793.832v.789A3.731,3.731,0,0,0,3.23-1.879a1.872,1.872,0,0,0,1.543.84,1.708,1.708,0,0,0,1.48-.73,3.21,3.21,0,0,0,.52-1.9,2.634,2.634,0,0,0-.559-1.766A1.954,1.954,0,0,0,4.641-6.094Z" transform="translate(-6650 -6615)" fill="#12263f"/>
    <path id="Trazado_830871" data-name="Trazado 830871" d="M8.3-10.164A16.909,16.909,0,0,0,5.391-5.641a12.12,12.12,0,0,0-.758,4.4V0H3.094V-1.242a11,11,0,0,1,.949-4.645,20.351,20.351,0,0,1,2.746-4.277H.758v-1.211H8.3Z" transform="translate(-6617 -6615)" fill="#12263f"/>
    <path id="Trazado_830872" data-name="Trazado 830872" d="M7.891-8.469a2.563,2.563,0,0,1-.5,1.566A3.029,3.029,0,0,1,6.063-5.891,3.333,3.333,0,0,1,7.617-4.82a2.641,2.641,0,0,1,.586,1.7A3,3,0,0,1,7.184-.7a3.892,3.892,0,0,1-2.6.859A4.194,4.194,0,0,1,1.855-.7,2.952,2.952,0,0,1,.8-3.125a2.608,2.608,0,0,1,.6-1.7A3.446,3.446,0,0,1,3.008-5.9a3,3,0,0,1-1.383-1,2.536,2.536,0,0,1-.508-1.566,2.787,2.787,0,0,1,.957-2.281,3.8,3.8,0,0,1,2.5-.789,3.558,3.558,0,0,1,2.387.793A2.822,2.822,0,0,1,7.891-8.469ZM6.672-3.156a2.067,2.067,0,0,0-.605-1.531,2.039,2.039,0,0,0-1.5-.6,2.231,2.231,0,0,0-1.6.6,2.021,2.021,0,0,0-.633,1.531,1.99,1.99,0,0,0,.629,1.539,2.3,2.3,0,0,0,1.621.578,2.049,2.049,0,0,0,1.488-.582A2.046,2.046,0,0,0,6.672-3.156Zm-.32-5.289A1.869,1.869,0,0,0,5.84-9.8a1.692,1.692,0,0,0-1.27-.531A1.917,1.917,0,0,0,3.2-9.816a1.8,1.8,0,0,0-.539,1.371A1.887,1.887,0,0,0,3.2-7.039,1.889,1.889,0,0,0,4.586-6.5a1.655,1.655,0,0,0,1.262-.539A1.976,1.976,0,0,0,6.352-8.445Z" transform="translate(-6586 -6615)" fill="#12263f"/>
    <path id="Trazado_830873" data-name="Trazado 830873" d="M3.914-1.039A2.289,2.289,0,0,0,5.707-1.8a3.153,3.153,0,0,0,.684-2.172v-.969a2.479,2.479,0,0,1-.934.84,2.65,2.65,0,0,1-1.223.285A3.329,3.329,0,0,1,1.66-4.832,3.985,3.985,0,0,1,.727-7.641a4.011,4.011,0,0,1,.992-2.809,3.185,3.185,0,0,1,2.453-1.09,3.622,3.622,0,0,1,2.734,1.07A4.181,4.181,0,0,1,7.938-7.445v3.453A4.077,4.077,0,0,1,6.813-.934a3.976,3.976,0,0,1-2.9,1.1A6.3,6.3,0,0,1,2.684.039,5.581,5.581,0,0,1,1.508-.328L1.742-1.5a4.439,4.439,0,0,0,1.012.355A5.632,5.632,0,0,0,3.914-1.039Zm.32-3.984A2.39,2.39,0,0,0,5.59-5.391a2.152,2.152,0,0,0,.8-.937V-7.672a3.01,3.01,0,0,0-.57-1.965,1.96,1.96,0,0,0-1.6-.691,1.683,1.683,0,0,0-1.395.746,3.156,3.156,0,0,0-.559,1.941,3.191,3.191,0,0,0,.516,1.895A1.681,1.681,0,0,0,4.234-5.023Z" transform="translate(-6554 -6615)" fill="#12263f"/>
    <path id="Trazado_827137" data-name="Trazado 827137" d="M-8328.714-6349.974l-27.052,36.066" transform="translate(1542 -526.824)" fill="none" stroke="#273a89" stroke-width="1"/>
    <path id="Trazado_827138" data-name="Trazado 827138" d="M4.569,5.764,0,7.067,4.557,0l.011.014L4.58,0,9.137,7.067Z" transform="matrix(-0.799, -0.602, 0.602, -0.799, -6812.243, -6835.128)" fill="#273a89"/>
    <path id="Trazado_827137-2" data-name="Trazado 827137" d="M-8355.766-6349.974l27.052,36.066" transform="translate(1713.938 -526.824)" fill="none" stroke="#273a89" stroke-width="1"/>
    <path id="Trazado_827138-2" data-name="Trazado 827138" d="M4.569,1.3,0,0,4.557,7.067l.011-.014.011.014L9.137,0Z" transform="matrix(0.799, -0.602, 0.602, 0.799, -6620.551, -6840.772)" fill="#273a89"/>
    <path id="Trazado_827137-3" data-name="Trazado 827137" d="M-8355.766-6349.974v35.75" transform="translate(1774.896 -527.622)" fill="none" stroke="#273a89" stroke-width="1"/>
    <path id="Trazado_827138-3" data-name="Trazado 827138" d="M4.569,1.3,0,0,4.557,7.067l.011-.014.011.014L9.137,0Z" transform="translate(-6585.438 -6843.234)" fill="#273a89"/>
    <path id="Trazado_827137-4" data-name="Trazado 827137" d="M-8355.766-6349.974v30.138" transform="translate(1538.334 -386.026)" fill="none" stroke="#273a89" stroke-width="1"/>
    <path id="Trazado_827138-4" data-name="Trazado 827138" d="M4.569,1.3,0,0,4.557,7.067l.011-.014.011.014L9.137,0Z" transform="translate(-6822 -6707.25)" fill="#273a89"/>
    <path id="Trazado_827137-5" data-name="Trazado 827137" d="M-8355.766-6349.974v32.238" transform="translate(1605.366 -318.943)" fill="none" stroke="#273a89" stroke-width="1"/>
    <path id="Trazado_827138-5" data-name="Trazado 827138" d="M4.569,1.3,0,0,4.557,7.067l.011-.014.011.014L9.137,0Z" transform="translate(-6754.968 -6638.067)" fill="#273a89"/>
    <path id="Trazado_827137-6" data-name="Trazado 827137" d="M-8355.766-6349.974v32.238" transform="translate(1805.765 -318.943)" fill="none" stroke="#273a89" stroke-width="1"/>
    <path id="Trazado_827138-6" data-name="Trazado 827138" d="M4.569,1.3,0,0,4.557,7.067l.011-.014.011.014L9.137,0Z" transform="translate(-6554.569 -6638.067)" fill="#273a89"/>
    <path id="Trazado_827137-7" data-name="Trazado 827137" d="M-8355.766-6349.974v30.138" transform="translate(1712.059 -386.026)" fill="none" stroke="#273a89" stroke-width="1"/>
    <path id="Trazado_827138-7" data-name="Trazado 827138" d="M4.569,1.3,0,0,4.557,7.067l.011-.014.011.014L9.137,0Z" transform="translate(-6648.275 -6707.25)" fill="#273a89"/>
    <path id="Trazado_827137-8" data-name="Trazado 827137" d="M-8355.766-6349.974v30.138" transform="translate(1774.896 -386.026)" fill="none" stroke="#273a89" stroke-width="1"/>
    <path id="Trazado_827138-8" data-name="Trazado 827138" d="M4.569,1.3,0,0,4.557,7.067l.011-.014.011.014L9.137,0Z" transform="translate(-6585.438 -6707.25)" fill="#273a89"/>
    <path id="Trazado_827137-9" data-name="Trazado 827137" d="M-8355.766-6349.974v30.138" transform="translate(1806.197 -386.026)" fill="none" stroke="#273a89" stroke-width="1"/>
    <path id="Trazado_827138-9" data-name="Trazado 827138" d="M4.569,1.3,0,0,4.557,7.067l.011-.014.011.014L9.137,0Z" transform="translate(-6554.137 -6707.25)" fill="#273a89"/>
    <path id="Trazado_827137-10" data-name="Trazado 827137" d="M-8355.766-6349.974v35.75" transform="translate(1806.197 -527.622)" fill="none" stroke="#273a89" stroke-width="1"/>
    <path id="Trazado_827138-10" data-name="Trazado 827138" d="M4.569,1.3,0,0,4.557,7.067l.011-.014.011.014L9.137,0Z" transform="translate(-6554.137 -6843.234)" fill="#273a89"/>
    <path id="Trazado_827137-11" data-name="Trazado 827137" d="M-8355.766-6349.974v35.75" transform="translate(1636.245 -456.456)" fill="none" stroke="#273a89" stroke-width="1"/>
    <path id="Trazado_827138-11" data-name="Trazado 827138" d="M4.569,1.3,0,0,4.557,7.067l.011-.014.011.014L9.137,0Z" transform="translate(-6724.089 -6772.067)" fill="#273a89"/>
    <path id="Trazado_827137-12" data-name="Trazado 827137" d="M-8355.766-6349.974v35.75" transform="translate(1806.197 -456.456)" fill="none" stroke="#273a89" stroke-width="1"/>
    <path id="Trazado_827138-12" data-name="Trazado 827138" d="M4.569,1.3,0,0,4.557,7.067l.011-.014.011.014L9.137,0Z" transform="translate(-6554.137 -6772.067)" fill="#273a89"/>
    <path id="Trazado_827137-13" data-name="Trazado 827137" d="M-8297.77-6349.974l-58,36.362" transform="translate(1578.249 -527.829)" fill="none" stroke="#273a89" stroke-width="1"/>
    <path id="Trazado_827138-13" data-name="Trazado 827138" d="M4.569,5.764,0,7.067,4.557,0l.011.014L4.58,0,9.137,7.067Z" transform="translate(-6780.147 -6834.991) rotate(-119)" fill="#273a89"/>
    <path id="Trazado_827137-14" data-name="Trazado 827137" d="M-8297.77-6349.974l-58,36.362" transform="translate(1543.583 -456.026)" fill="none" stroke="#273a89" stroke-width="1"/>
    <path id="Trazado_827138-14" data-name="Trazado 827138" d="M4.569,5.764,0,7.067,4.557,0l.011.014L4.58,0,9.137,7.067Z" transform="translate(-6814.813 -6763.188) rotate(-119)" fill="#273a89"/>
    <path id="Trazado_827137-15" data-name="Trazado 827137" d="M-8297.77-6349.974l-58,36.362" transform="translate(1716.9 -456.026)" fill="none" stroke="#273a89" stroke-width="1"/>
    <path id="Trazado_827138-15" data-name="Trazado 827138" d="M4.569,5.764,0,7.067,4.557,0l.011.014L4.58,0,9.137,7.067Z" transform="translate(-6641.496 -6763.188) rotate(-119)" fill="#273a89"/>
    <path id="Trazado_827137-16" data-name="Trazado 827137" d="M-8355.766-6349.974l28.736,36.364" transform="translate(1538.66 -456.026)" fill="none" stroke="#273a89" stroke-width="1"/>
    <path id="Trazado_827138-16" data-name="Trazado 827138" d="M4.569,1.3,0,0,4.557,7.067l.011-.014.011.014L9.137,0Z" transform="translate(-6793.817 -6769.773) rotate(-29)" fill="#273a89"/>
    <path id="Trazado_827137-17" data-name="Trazado 827137" d="M-8328.15-6349.974l-24.944,32.961" transform="translate(1606.174 -386.806)" fill="none" stroke="#273a89" stroke-width="1"/>
    <path id="Trazado_827138-17" data-name="Trazado 827138" d="M4.569,5.764,0,7.067,4.557,0l.011.014L4.579,0,9.137,7.067Z" transform="translate(-6746.761 -6697.255) rotate(-141)" fill="#273a89"/>
    <path id="Trazado_827137-18" data-name="Trazado 827137" d="M-8353.1-6349.974l24.944,32.962" transform="translate(1602.096 -386.806)" fill="none" stroke="#273a89" stroke-width="1"/>
    <path id="Trazado_827138-18" data-name="Trazado 827138" d="M4.569,1.3,0,0,4.557,7.068l.011-.014.011.014L9.137,0Z" transform="translate(-6730.663 -6702.748) rotate(-39)" fill="#273a89"/>
    <path id="Trazado_827137-19" data-name="Trazado 827137" d="M-8355.766-6349.974l28.736,36.364" transform="translate(1570.66 -456.026)" fill="none" stroke="#273a89" stroke-width="1"/>
    <path id="Trazado_827138-19" data-name="Trazado 827138" d="M4.569,1.3,0,0,4.557,7.067l.011-.014.011.014L9.137,0Z" transform="translate(-6761.817 -6769.773) rotate(-29)" fill="#273a89"/>
    <path id="Trazado_827137-20" data-name="Trazado 827137" d="M-8355.766-6349.974l28.736,36.364" transform="translate(1712.059 -456.026)" fill="none" stroke="#273a89" stroke-width="1"/>
    <path id="Trazado_827138-20" data-name="Trazado 827138" d="M4.569,1.3,0,0,4.557,7.067l.011-.014.011.014L9.137,0Z" transform="translate(-6620.418 -6769.773) rotate(-29)" fill="#273a89"/>
    <path id="Trazado_827137-21" data-name="Trazado 827137" d="M-8355.766-6349.974l28.736,36.364" transform="translate(1744.758 -456.026)" fill="none" stroke="#273a89" stroke-width="1"/>
    <path id="Trazado_827138-21" data-name="Trazado 827138" d="M4.569,1.3,0,0,4.557,7.067l.011-.014.011.014L9.137,0Z" transform="translate(-6587.719 -6769.773) rotate(-29)" fill="#273a89"/>
    <path id="Trazado_827137-22" data-name="Trazado 827137" d="M-8355.764-6349.975l125,37.147" transform="translate(1541.196 -527.399)" fill="none" stroke="#273a89" stroke-width="1"/>
    <path id="Trazado_827138-22" data-name="Trazado 827138" d="M4.569,1.3,0,0,4.557,7.067l.011-.014.011.014L9.137,0Z" transform="matrix(0.342, -0.94, 0.94, 0.342, -6692.765, -6836.616)" fill="#273a89"/>
    <path id="Trazado_827137-23" data-name="Trazado 827137" d="M-8355.764-6349.974l108.112,36.5" transform="translate(1603.939 -527.542)" fill="none" stroke="#273a89" stroke-width="1"/>
    <path id="Trazado_827138-23" data-name="Trazado 827138" d="M4.569,1.3,0,0,4.557,7.067l.011-.014.011.014L9.137,0Z" transform="matrix(0.485, -0.875, 0.875, 0.485, -6648.187, -6838.418)" fill="#273a89"/>
    <path id="Trazado_827137-24" data-name="Trazado 827137" d="M-8294.389-6349.974l-61.376,36.362" transform="translate(1615.249 -527.829)" fill="none" stroke="#273a89" stroke-width="1"/>
    <path id="Trazado_827138-24" data-name="Trazado 827138" d="M4.569,5.764,0,7.067,4.557,0l.011.014L4.58,0,9.137,7.067Z" transform="translate(-6743.147 -6834.991) rotate(-119)" fill="#273a89"/>
    <path id="Trazado_827137-25" data-name="Trazado 827137" d="M-8258.871-6349.973l-96.895,36.263" transform="translate(1645.442 -527.73)" fill="none" stroke="#273a89" stroke-width="1"/>
    <path id="Trazado_827138-25" data-name="Trazado 827138" d="M4.569,5.764,0,7.067,4.557,0l.011.014L4.58,0,9.137,7.067Z" transform="translate(-6712.954 -6834.991) rotate(-119)" fill="#273a89"/>
    <g id="Trazado_830874" data-name="Trazado 830874" transform="translate(-6761 -6698)" fill="none">
      <path d="M0,0H20V29H0Z" stroke="none"/>
      <path d="M 1 1 L 1 28 L 19 28 L 19 1 L 1 1 M 0 0 L 20 0 L 20 29 L 0 29 L 0 0 Z" stroke="none" fill="#273a89"/>
    </g>
    <g id="Trazado_830875" data-name="Trazado 830875" transform="translate(-6560 -6698)" fill="none">
      <path d="M0,0H20V29H0Z" stroke="none"/>
      <path d="M 1 1 L 1 28 L 19 28 L 19 1 L 1 1 M 0 0 L 20 0 L 20 29 L 0 29 L 0 0 Z" stroke="none" fill="#273a89"/>
    </g>
    <g id="Trazado_830876" data-name="Trazado 830876" transform="translate(-6827 -6765)" fill="none">
      <path d="M0,0H23V29H0Z" stroke="none"/>
      <path d="M 1 1 L 1 28 L 22 28 L 22 1 L 1 1 M 0 0 L 23 0 L 23 29 L 0 29 L 0 0 Z" stroke="none" fill="#273a89"/>
    </g>
    <g id="Trazado_830877" data-name="Trazado 830877" transform="translate(-6764 -6765)" fill="#add3fd">
      <path d="M 29.5 28.5 L 0.5 28.5 L 0.5 0.5 L 29.5 0.5 L 29.5 28.5 Z" stroke="none"/>
      <path d="M 1 1 L 1 28 L 29 28 L 29 1 L 1 1 M 0 0 L 30 0 L 30 29 L 0 29 L 0 0 Z" stroke="none" fill="#273a89"/>
    </g>
    <g id="Trazado_830878" data-name="Trazado 830878" transform="translate(-6655 -6765)" fill="#add3fd">
      <path d="M 22.5 28.5 L 0.5 28.5 L 0.5 0.5 L 22.5 0.5 L 22.5 28.5 Z" stroke="none"/>
      <path d="M 1 1 L 1 28 L 22 28 L 22 1 L 1 1 M 0 0 L 23 0 L 23 29 L 0 29 L 0 0 Z" stroke="none" fill="#273a89"/>
    </g>
    <path id="Trazado_830879" data-name="Trazado 830879" d="M6.219,0H3.945V-9.391H1.594v-1.742l4.625-.406Z" transform="translate(-6821 -6744)" fill="#12263f"/>
    <path id="Trazado_830880" data-name="Trazado 830880" d="M5.227-11.539a5.886,5.886,0,0,1,1.23.121,6.215,6.215,0,0,1,1.121.355L7.172-9.391a8.623,8.623,0,0,0-.953-.27,4.725,4.725,0,0,0-.977-.09,1.967,1.967,0,0,0-1.613.766,3.327,3.327,0,0,0-.613,2.133v.367A3.172,3.172,0,0,1,4.1-7.176a3.82,3.82,0,0,1,1.4-.246A2.748,2.748,0,0,1,7.781-6.387a4.217,4.217,0,0,1,.82,2.7A3.778,3.778,0,0,1,7.539-.906,3.736,3.736,0,0,1,4.766.164a3.763,3.763,0,0,1-2.9-1.219A4.738,4.738,0,0,1,.742-4.391V-6.773a4.748,4.748,0,0,1,1.27-3.465A4.3,4.3,0,0,1,5.227-11.539ZM4.742-5.7a2.505,2.505,0,0,0-1.051.2,1.618,1.618,0,0,0-.676.551v.609A3.637,3.637,0,0,0,3.5-2.3a1.465,1.465,0,0,0,1.27.719,1.319,1.319,0,0,0,1.133-.6,2.545,2.545,0,0,0,.422-1.5A2.305,2.305,0,0,0,5.895-5.16,1.4,1.4,0,0,0,4.742-5.7Z" transform="translate(-6648 -6744)" fill="#12263f"/>
    <path id="Trazado_830881" data-name="Trazado 830881" d="M8.234,0H1.172V-1.055l3.57-4.258a10.726,10.726,0,0,0,1.293-1.84,3.07,3.07,0,0,0,.34-1.379,1.841,1.841,0,0,0-.461-1.293,1.639,1.639,0,0,0-1.273-.5,1.908,1.908,0,0,0-1.535.617,2.286,2.286,0,0,0-.527,1.539H1.094l-.016-.047a3.068,3.068,0,0,1,.93-2.355,3.566,3.566,0,0,1,2.633-.965,3.31,3.31,0,0,1,2.4.844,2.894,2.894,0,0,1,.875,2.18,3.476,3.476,0,0,1-.5,1.758A19.612,19.612,0,0,1,5.906-4.6L3.039-1.242l.016.039h5.18Z" transform="translate(-6789 -6744)" fill="#12263f"/>
    <path id="Trazado_830882" data-name="Trazado 830882" d="M8.3-10.164A16.909,16.909,0,0,0,5.391-5.641a12.12,12.12,0,0,0-.758,4.4V0H3.094V-1.242a11,11,0,0,1,.949-4.645,20.351,20.351,0,0,1,2.746-4.277H.758v-1.211H8.3Z" transform="translate(-6617 -6744)" fill="#12263f"/>
    <path id="Trazado_830883" data-name="Trazado 830883" d="M4.523-6.687A1.578,1.578,0,0,0,5.73-7.109,1.672,1.672,0,0,0,6.125-8.3a1.455,1.455,0,0,0-.414-1.062,1.546,1.546,0,0,0-1.156-.422A1.514,1.514,0,0,0,3.5-9.4a1.255,1.255,0,0,0-.426.977H.875L.859-8.469a2.582,2.582,0,0,1,1.031-2.2,4.115,4.115,0,0,1,2.664-.867,4.362,4.362,0,0,1,2.8.832A2.879,2.879,0,0,1,8.4-8.32a2.474,2.474,0,0,1-.449,1.434,3.07,3.07,0,0,1-1.23,1.027A2.873,2.873,0,0,1,8.094-4.84a2.784,2.784,0,0,1,.484,1.652A2.964,2.964,0,0,1,7.449-.73,4.518,4.518,0,0,1,4.555.164,4.51,4.51,0,0,1,1.836-.68,2.663,2.663,0,0,1,.711-3.047l.016-.047H2.945A1.433,1.433,0,0,0,3.395-2.02a1.6,1.6,0,0,0,1.16.434A1.76,1.76,0,0,0,5.82-2.047,1.538,1.538,0,0,0,6.3-3.211a1.766,1.766,0,0,0-.453-1.332,1.85,1.85,0,0,0-1.328-.434H3.266V-6.687Z" transform="translate(-6756 -6744)" fill="#12263f"/>
    <path id="Trazado_830884" data-name="Trazado 830884" d="M4.156-1.586a1.73,1.73,0,0,0,1.383-.637A2.669,2.669,0,0,0,6.078-4v-.734a2.515,2.515,0,0,1-.906.742,2.577,2.577,0,0,1-1.125.25A3.134,3.134,0,0,1,1.559-4.773a4.111,4.111,0,0,1-.9-2.8,3.95,3.95,0,0,1,1.07-2.836,3.609,3.609,0,0,1,2.734-1.125,3.674,3.674,0,0,1,2.8,1.156,4.494,4.494,0,0,1,1.086,3.2v3.063A4.168,4.168,0,0,1,7.168-.992,4.132,4.132,0,0,1,4.156.164,6.083,6.083,0,0,1,2.934.035,6.265,6.265,0,0,1,1.75-.328l.383-1.648a5.191,5.191,0,0,0,.961.3A5.447,5.447,0,0,0,4.156-1.586ZM4.43-5.414a2.033,2.033,0,0,0,.977-.227,1.808,1.808,0,0,0,.672-.609V-7.578a2.635,2.635,0,0,0-.437-1.637,1.405,1.405,0,0,0-1.172-.566,1.28,1.28,0,0,0-1.109.637,2.774,2.774,0,0,0-.422,1.566,2.861,2.861,0,0,0,.383,1.57A1.24,1.24,0,0,0,4.43-5.414Z" transform="translate(-6554 -6744)" fill="#12263f"/>
    <path id="Trazado_830885" data-name="Trazado 830885" d="M1.367-5.055l.656-6.32h5.7v1.367H3.32L2.953-6.734a3.511,3.511,0,0,1,.813-.449,2.858,2.858,0,0,1,1.016-.184,3.1,3.1,0,0,1,2.473.988,3.992,3.992,0,0,1,.895,2.754A4,4,0,0,1,7.23-.875,3.382,3.382,0,0,1,4.555.164,3.666,3.666,0,0,1,2.148-.625a2.731,2.731,0,0,1-.922-2.32l.016-.047H2.633a1.9,1.9,0,0,0,.535,1.441,1.924,1.924,0,0,0,1.387.512A1.816,1.816,0,0,0,6.07-1.727a2.976,2.976,0,0,0,.539-1.883,2.71,2.71,0,0,0-.543-1.758,1.835,1.835,0,0,0-1.512-.672,2.416,2.416,0,0,0-1.312.273,1.6,1.6,0,0,0-.6.844Z" transform="translate(-6684 -6744)" fill="#12263f"/>
    <g id="Trazado_830886" data-name="Trazado 830886" transform="translate(-6735 -6765)" fill="none">
      <path d="M0,0H33V29H0Z" stroke="none"/>
      <path d="M 1 1 L 1 28 L 32 28 L 32 1 L 1 1 M 0 0 L 33 0 L 33 29 L 0 29 L 0 0 Z" stroke="none" fill="#273a89"/>
    </g>
    <path id="Trazado_830887" data-name="Trazado 830887" d="M8.547,0H.914V-1.492L4.438-5.477A8.9,8.9,0,0,0,5.559-7.051a2.616,2.616,0,0,0,.332-1.184,1.7,1.7,0,0,0-.352-1.125,1.294,1.294,0,0,0-1.055-.422,1.354,1.354,0,0,0-1.148.539A2.208,2.208,0,0,0,2.93-7.875H.711L.7-7.922a3.379,3.379,0,0,1,1-2.566,3.746,3.746,0,0,1,2.789-1.051,3.858,3.858,0,0,1,2.719.895,3.111,3.111,0,0,1,.969,2.4,3.379,3.379,0,0,1-.543,1.867A21.021,21.021,0,0,1,5.758-4.039L3.883-1.789,3.9-1.75H8.547Z" transform="translate(-6723 -6744)" fill="#12263f"/>
    <g id="Trazado_830888" data-name="Trazado 830888" transform="translate(-6566 -6765)" fill="none">
      <path d="M0,0H30V29H0Z" stroke="none"/>
      <path d="M 1 1 L 1 28 L 29 28 L 29 1 L 1 1 M 0 0 L 30 0 L 30 29 L 0 29 L 0 0 Z" stroke="none" fill="#273a89"/>
    </g>
    <g id="Trazado_830889" data-name="Trazado 830889" transform="translate(-6595 -6765)" fill="#add3fd">
      <path d="M 29.5 28.5 L 0.5 28.5 L 0.5 0.5 L 29.5 0.5 L 29.5 28.5 Z" stroke="none"/>
      <path d="M 1 1 L 1 28 L 29 28 L 29 1 L 1 1 M 0 0 L 30 0 L 30 29 L 0 29 L 0 0 Z" stroke="none" fill="#273a89"/>
    </g>
    <path id="Trazado_830890" data-name="Trazado 830890" d="M8.25-8.422a2.623,2.623,0,0,1-.437,1.5,2.946,2.946,0,0,1-1.2,1.02,3.479,3.479,0,0,1,1.477,1.1,2.621,2.621,0,0,1,.547,1.637,2.97,2.97,0,0,1-1.1,2.457A4.353,4.353,0,0,1,4.727.164,4.7,4.7,0,0,1,1.789-.715,2.917,2.917,0,0,1,.641-3.172a2.563,2.563,0,0,1,.566-1.637,3.591,3.591,0,0,1,1.535-1.1A3.041,3.041,0,0,1,1.48-6.926a2.543,2.543,0,0,1-.457-1.5A2.77,2.77,0,0,1,2.047-10.73a4.17,4.17,0,0,1,2.664-.809,3.894,3.894,0,0,1,2.555.809A2.818,2.818,0,0,1,8.25-8.422Zm-1.9,5.141a1.718,1.718,0,0,0-.473-1.246,1.561,1.561,0,0,0-1.168-.488,1.764,1.764,0,0,0-1.273.488A1.654,1.654,0,0,0,2.93-3.281a1.591,1.591,0,0,0,.5,1.234,1.841,1.841,0,0,0,1.293.461,1.578,1.578,0,0,0,1.164-.461A1.668,1.668,0,0,0,6.352-3.281ZM5.977-8.32a1.544,1.544,0,0,0-.352-1.066,1.167,1.167,0,0,0-.914-.395,1.375,1.375,0,0,0-1.023.387A1.46,1.46,0,0,0,3.3-8.32,1.593,1.593,0,0,0,3.7-7.2a1.333,1.333,0,0,0,1.031.426A1.112,1.112,0,0,0,5.633-7.2,1.727,1.727,0,0,0,5.977-8.32Z" transform="translate(-6586 -6744)" fill="#12263f"/>
  </g>
</svg>
