<svg xmlns="http://www.w3.org/2000/svg" width="64" height="64" viewBox="0 0 64 64">
  <g id="Grupo_1073001" data-name="Grupo 1073001" transform="translate(-319 -3649)">
    <circle id="Elipse_9672" data-name="Elipse 9672" cx="32" cy="32" r="32" transform="translate(319 3649)" fill="#ffce00"/>
    <g id="Grupo_1072998" data-name="Grupo 1072998" transform="translate(9482.168 11616.777)">
      <path id="Rectángulo_382309" data-name="Rectángulo 382309" d="M1.782,1.6a.178.178,0,0,0-.178.178V9.8a.178.178,0,0,0,.178.178H24.41a.178.178,0,0,0,.178-.178V1.782A.178.178,0,0,0,24.41,1.6H1.782m0-1.6H24.41a1.782,1.782,0,0,1,1.782,1.782V9.8a1.782,1.782,0,0,1-1.782,1.782H1.782A1.782,1.782,0,0,1,0,9.8V1.782A1.782,1.782,0,0,1,1.782,0Z" transform="translate(-9151 -7954)" fill="#12263f"/>
      <path id="Rectángulo_382310" data-name="Rectángulo 382310" d="M1.782,1.6a.178.178,0,0,0-.178.178V9.8a.178.178,0,0,0,.178.178H24.41a.178.178,0,0,0,.178-.178V1.782A.178.178,0,0,0,24.41,1.6H1.782m0-1.6H24.41a1.782,1.782,0,0,1,1.782,1.782V9.8a1.782,1.782,0,0,1-1.782,1.782H1.782A1.782,1.782,0,0,1,0,9.8V1.782A1.782,1.782,0,0,1,1.782,0Z" transform="translate(-9145.299 -7941.35)" fill="#12263f"/>
      <path id="Rectángulo_382311" data-name="Rectángulo 382311" d="M1.782,1.6a.178.178,0,0,0-.178.178V9.8a.178.178,0,0,0,.178.178H24.41a.178.178,0,0,0,.178-.178V1.782A.178.178,0,0,0,24.41,1.6H1.782m0-1.6H24.41a1.782,1.782,0,0,1,1.782,1.782V9.8a1.782,1.782,0,0,1-1.782,1.782H1.782A1.782,1.782,0,0,1,0,9.8V1.782A1.782,1.782,0,0,1,1.782,0Z" transform="translate(-9137.815 -7928.699)" fill="#12263f"/>
      <path id="Trazado_819821" data-name="Trazado 819821" d="M-8997.576-7924.354a.8.8,0,0,1-.8-.8v-3.351h-2.746a.8.8,0,0,1-.8-.8.8.8,0,0,1,.8-.8h4.35v4.955A.8.8,0,0,1-8997.576-7924.354Z" transform="translate(-122.512 -19.633)" fill="#12263f"/>
      <path id="Trazado_819822" data-name="Trazado 819822" d="M-8997.576-7924.354a.8.8,0,0,1-.8-.8v-3.351h-2.746a.8.8,0,0,1-.8-.8.8.8,0,0,1,.8-.8h4.35v4.955A.8.8,0,0,1-8997.576-7924.354Z" transform="translate(-116.276 -4.611)" fill="#12263f"/>
    </g>
  </g>
</svg>
