<svg xmlns="http://www.w3.org/2000/svg" width="64" height="64" viewBox="0 0 64 64">
  <g id="Grupo_1075354" data-name="Grupo 1075354" transform="translate(-768 -2045.25)">
    <g id="Grupo_1073002" data-name="Grupo 1073002" transform="translate(32 -1603.75)">
      <circle id="Elipse_9673" data-name="Elipse 9673" cx="32" cy="32" r="32" transform="translate(736 3649)" fill="#ffce00"/>
    </g>
    <g id="server" transform="translate(776.825 2055.31)">
      <path id="Trazado_830314" data-name="Trazado 830314" d="M40.4,18.751H12.268a9.876,9.876,0,0,0,0,19.689H40.4a1.878,1.878,0,0,0,1.875-1.875V31.877A1.878,1.878,0,0,0,40.4,30H22.707a9.1,9.1,0,0,0,0-2.813H40.4a1.878,1.878,0,0,0,1.875-1.875V20.626A1.878,1.878,0,0,0,40.4,18.751ZM5,28.6a8,8,0,0,1,7.97-7.97c10.558.4,10.555,15.539,0,15.939A8,8,0,0,1,5,28.6ZM40.4,31.877v4.688H18.731a9.875,9.875,0,0,0,3.514-4.688Zm0-6.563H22.245a9.875,9.875,0,0,0-3.514-4.688H40.4ZM30.082,21.959a1.011,1.011,0,1,1-1.011,1.011,1.011,1.011,0,0,1,1.011-1.011Zm3.75,0a1.011,1.011,0,1,1-1.011,1.011,1.011,1.011,0,0,1,1.011-1.011Zm3.75,0a1.011,1.011,0,1,1-1.011,1.011,1.011,1.011,0,0,1,1.011-1.011Zm-7.5,11.251a1.011,1.011,0,1,1-1.011,1.011,1.011,1.011,0,0,1,1.011-1.011Zm3.75,0a1.011,1.011,0,1,1-1.011,1.011,1.011,1.011,0,0,1,1.011-1.011Zm3.75,0a1.011,1.011,0,1,1-1.011,1.011,1.011,1.011,0,0,1,1.011-1.011ZM40.4,7.5H12.268a1.878,1.878,0,0,0-1.875,1.875v4.688a1.878,1.878,0,0,0,1.875,1.875H40.4a1.878,1.878,0,0,0,1.875-1.875V9.375A1.878,1.878,0,0,0,40.4,7.5ZM12.268,14.063V9.375H40.4v4.688ZM30.082,12.73a1.011,1.011,0,1,1,1.011-1.011,1.011,1.011,0,0,1-1.011,1.011Zm3.75,0a1.011,1.011,0,1,1,1.011-1.011,1.011,1.011,0,0,1-1.011,1.011Zm3.75,0a1.011,1.011,0,1,1,1.011-1.011,1.011,1.011,0,0,1-1.011,1.011Zm-25.547,16.8H8.085a.938.938,0,1,1,0-1.875h3.952V23.707a.938.938,0,0,1,1.875,0v3.951h3.951a.938.938,0,1,1,0,1.875H13.912v3.951a.938.938,0,1,1-1.875,0Z" transform="translate(0 0)" fill="#12263f"/>
    </g>
  </g>
</svg>
