<svg xmlns="http://www.w3.org/2000/svg" width="64" height="64" viewBox="0 0 64 64">
  <g id="Grupo_1075355" data-name="Grupo 1075355" transform="translate(-1181 -2045.25)">
    <circle id="Elipse_9673" data-name="Elipse 9673" cx="32" cy="32" r="32" transform="translate(1181 2045.25)" fill="#ffce00"/>
    <g id="Monitoring" transform="translate(1192.601 2056.857)">
      <path id="Trazado_830324" data-name="Trazado 830324" d="M20.068,17.959A7.973,7.973,0,1,0,22.987,7.068,7.973,7.973,0,0,0,20.068,17.959ZM23.6,8.13a6.7,6.7,0,1,1-3.16,4.092A6.746,6.746,0,0,1,23.6,8.13Z" transform="translate(-6.574 -1.55)" fill="#12263f"/>
      <path id="Trazado_830325" data-name="Trazado 830325" d="M38.185,32.661H36.942a3.035,3.035,0,0,0,.629-1.84v-18.4a3.07,3.07,0,0,0-3.067-3.067H30.356a10.407,10.407,0,0,0-19.9,0H6.293a3.07,3.07,0,0,0-3.067,3.067v18.4a3.035,3.035,0,0,0,.629,1.84H2.613A.613.613,0,0,0,2,33.275v2.453a3.07,3.07,0,0,0,3.067,3.067H35.732A3.07,3.07,0,0,0,38.8,35.728V33.275A.613.613,0,0,0,38.185,32.661Zm-3.68-22.079a1.84,1.84,0,0,1,1.84,1.84v18.4a1.836,1.836,0,0,1-1.669,1.823,3.056,3.056,0,0,0,.013-1.246.607.607,0,0,0,.429-.577v-18.4a.613.613,0,0,0-.613-.613H30.8a10.4,10.4,0,0,0-.145-1.227ZM10,13.036a10.384,10.384,0,0,0,7.7,9.458,10.493,10.493,0,0,0,2.715.359,10.3,10.3,0,0,0,3.52-.624l1.615,2.8-.531.307a.613.613,0,0,0-.224.838l2.331,4.036H6.906V13.036Zm16.125,8.083L27.677,23.8l-1.062.613-1.543-2.673c.184-.091.363-.184.541-.289S25.957,21.231,26.128,21.118Zm.037,4.971,1.595-.92,1.062-.613h0l.53-.307,3.931,6.808v0h0a1.841,1.841,0,1,1-3.189,1.84ZM30.108,23.1a.613.613,0,0,0-.838-.224l-.531.307-1.62-2.8a10.442,10.442,0,0,0,3.68-7.347h3.093V29.66ZM15.8,4.455a9.144,9.144,0,0,1,4.585-1.237A9.206,9.206,0,1,1,15.8,4.455ZM4.453,12.422a1.84,1.84,0,0,1,1.84-1.84h3.853A10.544,10.544,0,0,0,10,11.809H6.293a.613.613,0,0,0-.613.613v18.4a.613.613,0,0,0,.613.613H27.835l.708,1.227H6.293a1.84,1.84,0,0,1-1.84-1.84Zm18.4,21.466V34.5a.613.613,0,0,1-.613.613h-3.68a.613.613,0,0,1-.613-.613v-.613Zm14.719,1.84a1.84,1.84,0,0,1-1.84,1.84H5.067a1.84,1.84,0,0,1-1.84-1.84v-1.84H16.719V34.5a1.84,1.84,0,0,0,1.84,1.84h3.68a1.84,1.84,0,0,0,1.84-1.84v-.613h5.213a3.049,3.049,0,0,0,4.8,0h3.483Z" fill="#12263f"/>
      <path id="Trazado_830326" data-name="Trazado 830326" d="M35.613,20.36h1.84a.613.613,0,0,0,.613-.613V13.613A.613.613,0,0,0,37.453,13h-1.84a.613.613,0,0,0-.613.613v6.133A.613.613,0,0,0,35.613,20.36Zm.613-6.133h.613v4.906h-.613Z" transform="translate(-12.761 -4.258)" fill="#12263f"/>
      <path id="Trazado_830327" data-name="Trazado 830327" d="M29.613,21.52h1.84a.613.613,0,0,0,.613-.613V16.613A.613.613,0,0,0,31.453,16h-1.84a.613.613,0,0,0-.613.613v4.293A.613.613,0,0,0,29.613,21.52Zm.613-4.293h.613v3.067h-.613Z" transform="translate(-10.441 -5.418)" fill="#12263f"/>
      <path id="Trazado_830328" data-name="Trazado 830328" d="M23.613,22.68h1.84a.613.613,0,0,0,.613-.613V19.613A.613.613,0,0,0,25.453,19h-1.84a.613.613,0,0,0-.613.613v2.453A.613.613,0,0,0,23.613,22.68Zm.613-2.453h.613v1.227h-.613Z" transform="translate(-8.121 -6.578)" fill="#12263f"/>
      <path id="Trazado_830329" data-name="Trazado 830329" d="M14.613,41.227H15.84a.613.613,0,0,0,0-1.227H14.613a.613.613,0,0,0,0,1.227Z" transform="translate(-4.64 -14.698)" fill="#12263f"/>
      <path id="Trazado_830330" data-name="Trazado 830330" d="M20.613,41.227h9.2a.613.613,0,1,0,0-1.227h-9.2a.613.613,0,1,0,0,1.227Z" transform="translate(-6.96 -14.698)" fill="#12263f"/>
      <path id="Trazado_830331" data-name="Trazado 830331" d="M14.613,37.227H15.84a.613.613,0,0,0,0-1.227H14.613a.613.613,0,0,0,0,1.227Z" transform="translate(-4.64 -13.151)" fill="#12263f"/>
      <path id="Trazado_830332" data-name="Trazado 830332" d="M20.613,37.227h2.453a.613.613,0,0,0,0-1.227H20.613a.613.613,0,1,0,0,1.227Z" transform="translate(-6.96 -13.151)" fill="#12263f"/>
      <path id="Trazado_830333" data-name="Trazado 830333" d="M14.613,45.227H15.84a.613.613,0,0,0,0-1.227H14.613a.613.613,0,0,0,0,1.227Z" transform="translate(-4.64 -16.245)" fill="#12263f"/>
      <path id="Trazado_830334" data-name="Trazado 830334" d="M20.613,45.227h9.2a.613.613,0,0,0,0-1.227h-9.2a.613.613,0,0,0,0,1.227Z" transform="translate(-6.96 -16.245)" fill="#12263f"/>
    </g>
  </g>
</svg>
