<svg xmlns="http://www.w3.org/2000/svg" width="503" height="277" viewBox="0 0 503 277">
  <g id="Grupo_1075361" data-name="Grupo 1075361" transform="translate(-917 -855)">
    <path id="Trazado_830415" data-name="Trazado 830415" d="M13,0H490a13,13,0,0,1,13,13V264a13,13,0,0,1-13,13H13A13,13,0,0,1,0,264V13A13,13,0,0,1,13,0Z" transform="translate(917 855)" fill="#12263f"/>
    <path id="Trazado_830416" data-name="Trazado 830416" d="M0,0H141V25H0Z" transform="translate(941 926)" fill="aqua"/>
    <path id="Trazado_830417" data-name="Trazado 830417" d="M0,0H30V22H0Z" transform="translate(1247 1040)" fill="#d5ffe9"/>
    <path id="Trazado_830418" data-name="Trazado 830418" d="M0,0H30V22H0Z" transform="translate(1247 949)" fill="#c2c2ff"/>
    <path id="Trazado_830419" data-name="Trazado 830419" d="M0,0H30V22H0Z" transform="translate(1247 1063)" fill="#c2c2ff"/>
    <path id="Trazado_830420" data-name="Trazado 830420" d="M0,0H30V22H0Z" transform="translate(1247 972)" fill="#c2c2ff"/>
    <path id="Trazado_830421" data-name="Trazado 830421" d="M0,0H30V22H0Z" transform="translate(1247 1086)" fill="#d5ffe9"/>
    <path id="Trazado_830422" data-name="Trazado 830422" d="M0,0H30V22H0Z" transform="translate(1247 995)" fill="#d5ffe9"/>
    <path id="Trazado_830423" data-name="Trazado 830423" d="M0,0H141V25H0Z" transform="translate(941 984)" fill="aqua"/>
    <path id="Trazado_830424" data-name="Trazado 830424" d="M0,0H141V25H0Z" transform="translate(941 1042)" fill="aqua"/>
    <path id="Trazado_830425" data-name="Trazado 830425" d="M2.688-4.277V0H1.245V-10.664h4.08a3.759,3.759,0,0,1,2.655.879,3.007,3.007,0,0,1,.948,2.314A3,3,0,0,1,7.98-5.149a3.779,3.779,0,0,1-2.655.872Zm0-1.128H5.325a2.092,2.092,0,0,0,1.619-.582,2.088,2.088,0,0,0,.535-1.469A2.119,2.119,0,0,0,6.94-8.936a2.072,2.072,0,0,0-1.615-.593H2.688ZM13.77.154A3.353,3.353,0,0,1,11.107-.937a4.2,4.2,0,0,1-.956-2.871v-.322a4.112,4.112,0,0,1,.985-2.823,3.089,3.089,0,0,1,2.406-1.117,2.876,2.876,0,0,1,2.384.989,4.074,4.074,0,0,1,.795,2.629v.762H11.653l-.022.037a3.276,3.276,0,0,0,.527,1.937,1.843,1.843,0,0,0,1.611.743,3.63,3.63,0,0,0,1.285-.209A2.869,2.869,0,0,0,16-1.758l.564.938a3.468,3.468,0,0,1-1.121.692A4.464,4.464,0,0,1,13.77.154Zm-.227-7.09a1.568,1.568,0,0,0-1.249.582,2.755,2.755,0,0,0-.6,1.49l.015.037h3.574v-.117a2.308,2.308,0,0,0-.425-1.428A1.535,1.535,0,0,0,13.542-6.936Zm4.468,3.12A5.289,5.289,0,0,1,18.827-6.9a2.631,2.631,0,0,1,2.289-1.172,2.838,2.838,0,0,1,1.234.256,2.53,2.53,0,0,1,.919.747v-4.358h1.443V0H23.606l-.22-1a2.572,2.572,0,0,1-.959.864A2.866,2.866,0,0,1,21.1.154,2.72,2.72,0,0,1,18.831-.9a4.368,4.368,0,0,1-.82-2.765Zm1.443.154a3.364,3.364,0,0,0,.491,1.923,1.714,1.714,0,0,0,1.523.721,1.911,1.911,0,0,0,1.084-.293,2.188,2.188,0,0,0,.718-.82v-3.7a2.222,2.222,0,0,0-.721-.78A1.906,1.906,0,0,0,21.482-6.9a1.649,1.649,0,0,0-1.534.857,4.423,4.423,0,0,0-.494,2.227ZM30.615-6.65l-.74-.044a1.652,1.652,0,0,0-.963.271,1.739,1.739,0,0,0-.6.762V0H26.865V-7.925h1.289l.139,1.157a2.751,2.751,0,0,1,.831-.959,1.944,1.944,0,0,1,1.139-.344,1.783,1.783,0,0,1,.308.026,2.039,2.039,0,0,1,.242.055Zm1.018,2.615a4.363,4.363,0,0,1,.952-2.9,3.193,3.193,0,0,1,2.585-1.139,3.224,3.224,0,0,1,2.6,1.135,4.349,4.349,0,0,1,.956,2.9v.161a4.342,4.342,0,0,1-.952,2.9A3.215,3.215,0,0,1,35.186.154a3.221,3.221,0,0,1-2.6-1.132,4.334,4.334,0,0,1-.956-2.9Zm1.443.161a3.759,3.759,0,0,0,.531,2.08,1.758,1.758,0,0,0,1.578.82,1.753,1.753,0,0,0,1.567-.82,3.739,3.739,0,0,0,.535-2.08v-.161a3.728,3.728,0,0,0-.538-2.073,1.764,1.764,0,0,0-1.578-.828,1.74,1.74,0,0,0-1.564.828,3.767,3.767,0,0,0-.531,2.073Zm12.788-.4V0H44.421V-10.664H48.5a3.759,3.759,0,0,1,2.655.879A3.007,3.007,0,0,1,52.1-7.471a3,3,0,0,1-.948,2.322,3.779,3.779,0,0,1-2.655.872Zm0-1.128H48.5a2.092,2.092,0,0,0,1.619-.582,2.088,2.088,0,0,0,.535-1.469,2.119,2.119,0,0,0-.538-1.479A2.072,2.072,0,0,0,48.5-9.529H45.864ZM56.946.154A3.353,3.353,0,0,1,54.283-.937a4.2,4.2,0,0,1-.956-2.871v-.322a4.112,4.112,0,0,1,.985-2.823,3.089,3.089,0,0,1,2.406-1.117,2.876,2.876,0,0,1,2.384.989A4.074,4.074,0,0,1,59.9-4.453v.762H54.829l-.022.037a3.276,3.276,0,0,0,.527,1.937,1.843,1.843,0,0,0,1.611.743,3.63,3.63,0,0,0,1.285-.209,2.869,2.869,0,0,0,.948-.575l.564.938a3.468,3.468,0,0,1-1.121.692A4.464,4.464,0,0,1,56.946.154Zm-.227-7.09a1.568,1.568,0,0,0-1.249.582,2.755,2.755,0,0,0-.6,1.49l.015.037h3.574v-.117a2.308,2.308,0,0,0-.425-1.428A1.535,1.535,0,0,0,56.719-6.936Zm.542-4.358h1.685l.015.044-1.97,1.9H55.906ZM65.266-6.65l-.74-.044a1.652,1.652,0,0,0-.963.271,1.739,1.739,0,0,0-.6.762V0H61.516V-7.925h1.289l.139,1.157a2.751,2.751,0,0,1,.831-.959,1.944,1.944,0,0,1,1.139-.344,1.783,1.783,0,0,1,.308.026,2.039,2.039,0,0,1,.242.055ZM69.91.154A3.353,3.353,0,0,1,67.247-.937a4.2,4.2,0,0,1-.956-2.871v-.322a4.112,4.112,0,0,1,.985-2.823,3.089,3.089,0,0,1,2.406-1.117,2.876,2.876,0,0,1,2.384.989,4.074,4.074,0,0,1,.795,2.629v.762H67.793l-.022.037A3.276,3.276,0,0,0,68.3-1.718a1.843,1.843,0,0,0,1.611.743A3.63,3.63,0,0,0,71.2-1.183a2.869,2.869,0,0,0,.948-.575l.564.938a3.468,3.468,0,0,1-1.121.692A4.464,4.464,0,0,1,69.91.154Zm-.227-7.09a1.568,1.568,0,0,0-1.249.582,2.755,2.755,0,0,0-.6,1.49l.015.037h3.574v-.117a2.308,2.308,0,0,0-.425-1.428A1.535,1.535,0,0,0,69.683-6.936Zm6.16,5.808H80.42V0h-6.3V-1.011l4.285-5.771H74.172V-7.925h6v.981Z" transform="translate(971 945)" fill="#12263f"/>
    <path id="Trazado_830426" data-name="Trazado 830426" d="M6.753-2.747H2.739L1.787,0H.315L4.16-10.664H5.4L9.163,0H7.69Zm-3.6-1.208H6.343L4.79-8.533H4.746Zm8.665-3.97.1,1.179a2.878,2.878,0,0,1,.992-.978,2.648,2.648,0,0,1,1.359-.348,2.587,2.587,0,0,1,1.985.751A3.3,3.3,0,0,1,16.963-5V0H15.52V-4.973a2.144,2.144,0,0,0-.414-1.487A1.658,1.658,0,0,0,13.843-6.9a2.237,2.237,0,0,0-1.132.267,1.943,1.943,0,0,0-.736.751V0H10.532V-7.925ZM23.928,0q-.073-.359-.114-.634a4.65,4.65,0,0,1-.048-.553,3.364,3.364,0,0,1-1.051.956,2.688,2.688,0,0,1-1.4.385A2.59,2.59,0,0,1,19.435-.48a2.33,2.33,0,0,1-.648-1.747A2.047,2.047,0,0,1,19.706-4,4.293,4.293,0,0,1,22.2-4.644h1.567v-.784a1.454,1.454,0,0,0-.425-1.1,1.668,1.668,0,0,0-1.2-.406,1.743,1.743,0,0,0-1.135.352,1.055,1.055,0,0,0-.432.842l-1.37.015-.015-.044A1.9,1.9,0,0,1,20-7.354a3.354,3.354,0,0,1,2.223-.718,3.272,3.272,0,0,1,2.168.685,2.426,2.426,0,0,1,.82,1.974V-1.6a7.428,7.428,0,0,0,.044.82A4.218,4.218,0,0,0,25.415,0Zm-2.4-1.055a2.568,2.568,0,0,0,1.414-.4,1.915,1.915,0,0,0,.82-.923V-3.669H22.148a2.1,2.1,0,0,0-1.4.439A1.314,1.314,0,0,0,20.229-2.2a1.087,1.087,0,0,0,.33.835A1.38,1.38,0,0,0,21.533-1.055Zm11.14-3.567V0H31.23V-10.657h3.647a4.05,4.05,0,0,1,2.673.776,2.782,2.782,0,0,1,.923,2.256A2.415,2.415,0,0,1,38.046-6.2a2.9,2.9,0,0,1-1.249.967A2.186,2.186,0,0,1,38.06-4.3a3.033,3.033,0,0,1,.385,1.586v1a3.341,3.341,0,0,0,.11.894,1.34,1.34,0,0,0,.381.645V0H37.449a1.194,1.194,0,0,1-.366-.732,6.05,6.05,0,0,1-.081-1V-2.7A1.927,1.927,0,0,0,36.5-4.094a1.789,1.789,0,0,0-1.355-.527Zm0-1.135h2.058a2.68,2.68,0,0,0,1.761-.465,1.772,1.772,0,0,0,.538-1.417,1.826,1.826,0,0,0-.524-1.4,2.307,2.307,0,0,0-1.63-.494h-2.2Zm7.566,1.721a4.363,4.363,0,0,1,.952-2.9,3.193,3.193,0,0,1,2.585-1.139,3.224,3.224,0,0,1,2.6,1.135,4.349,4.349,0,0,1,.956,2.9v.161a4.342,4.342,0,0,1-.952,2.9A3.215,3.215,0,0,1,43.792.154,3.221,3.221,0,0,1,41.2-.978a4.334,4.334,0,0,1-.956-2.9Zm1.443.161a3.759,3.759,0,0,0,.531,2.08,1.758,1.758,0,0,0,1.578.82,1.753,1.753,0,0,0,1.567-.82,3.739,3.739,0,0,0,.535-2.08v-.161a3.728,3.728,0,0,0-.538-2.073,1.764,1.764,0,0,0-1.578-.828,1.74,1.74,0,0,0-1.564.828,3.767,3.767,0,0,0-.531,2.073Zm9.082-4.05V.652a2.631,2.631,0,0,1-.63,1.886,2.3,2.3,0,0,1-1.75.663,2.39,2.39,0,0,1-.414-.033,3.272,3.272,0,0,1-.4-.1l.1-1.135A1.519,1.519,0,0,0,47.966,2a2.445,2.445,0,0,0,.315.026.956.956,0,0,0,.758-.322A1.576,1.576,0,0,0,49.321.652V-7.925ZM50.72-9.983H49.277v-1.443H50.72ZM57.854,0q-.073-.359-.114-.634a4.65,4.65,0,0,1-.048-.553,3.364,3.364,0,0,1-1.051.956,2.688,2.688,0,0,1-1.4.385A2.59,2.59,0,0,1,53.361-.48a2.33,2.33,0,0,1-.648-1.747A2.047,2.047,0,0,1,53.632-4a4.293,4.293,0,0,1,2.494-.641h1.567v-.784a1.454,1.454,0,0,0-.425-1.1,1.668,1.668,0,0,0-1.2-.406,1.743,1.743,0,0,0-1.135.352,1.055,1.055,0,0,0-.432.842l-1.37.015-.015-.044a1.9,1.9,0,0,1,.809-1.582,3.354,3.354,0,0,1,2.223-.718,3.272,3.272,0,0,1,2.168.685,2.426,2.426,0,0,1,.82,1.974V-1.6a7.428,7.428,0,0,0,.044.82A4.218,4.218,0,0,0,59.341,0Zm-2.4-1.055a2.568,2.568,0,0,0,1.414-.4,1.915,1.915,0,0,0,.82-.923V-3.669H56.074a2.1,2.1,0,0,0-1.4.439A1.314,1.314,0,0,0,54.155-2.2a1.087,1.087,0,0,0,.33.835A1.38,1.38,0,0,0,55.459-1.055ZM65.837-2.131a.962.962,0,0,0-.363-.776A3.5,3.5,0,0,0,64.1-3.435a5.762,5.762,0,0,1-2.15-.842,1.7,1.7,0,0,1-.751-1.45,2.09,2.09,0,0,1,.824-1.655,3.218,3.218,0,0,1,2.135-.688,3.189,3.189,0,0,1,2.183.732,2.1,2.1,0,0,1,.8,1.707l-.015.044H65.75a1.248,1.248,0,0,0-.45-.93,1.61,1.61,0,0,0-1.139-.417,1.642,1.642,0,0,0-1.139.344,1.074,1.074,0,0,0-.377.82.869.869,0,0,0,.326.725,3.608,3.608,0,0,0,1.344.469,5.679,5.679,0,0,1,2.212.872,1.755,1.755,0,0,1,.754,1.472,2.087,2.087,0,0,1-.853,1.721A3.52,3.52,0,0,1,64.2.154a3.483,3.483,0,0,1-2.388-.769,2.195,2.195,0,0,1-.828-1.794L61-2.454h1.377a1.335,1.335,0,0,0,.571,1.124A2.21,2.21,0,0,0,64.2-.974,1.973,1.973,0,0,0,65.4-1.3,1,1,0,0,0,65.837-2.131Z" transform="translate(978 1003)" fill="#12263f"/>
    <path id="Trazado_830427" data-name="Trazado 830427" d="M9.39-4.38A4.55,4.55,0,0,1,8.177-1.135,4.122,4.122,0,0,1,5.032.154,3.907,3.907,0,0,1,2-1.135,4.649,4.649,0,0,1,.828-4.38v-1.9A4.666,4.666,0,0,1,2-9.521a3.9,3.9,0,0,1,3.036-1.3A4.116,4.116,0,0,1,8.177-9.525,4.563,4.563,0,0,1,9.39-6.277ZM7.947-6.292a3.6,3.6,0,0,0-.791-2.4,2.637,2.637,0,0,0-2.124-.937,2.443,2.443,0,0,0-2.01.938,3.723,3.723,0,0,0-.751,2.4V-4.38a3.747,3.747,0,0,0,.751,2.417,2.443,2.443,0,0,0,2.01.938,2.639,2.639,0,0,0,2.128-.934A3.627,3.627,0,0,0,7.947-4.38ZM12.832,0H11.389V-11.426h1.443Zm1.963-3.816A5.289,5.289,0,0,1,15.612-6.9a2.624,2.624,0,0,1,2.281-1.172,2.781,2.781,0,0,1,1.326.3,2.667,2.667,0,0,1,.959.875l.176-1.033H21.5V.044a3.023,3.023,0,0,1-.886,2.34,3.641,3.641,0,0,1-2.556.817,5.359,5.359,0,0,1-1.234-.157,4.825,4.825,0,0,1-1.168-.428l.22-1.121a4.172,4.172,0,0,0,1.007.355,5.172,5.172,0,0,0,1.161.135,2.1,2.1,0,0,0,1.534-.48,1.988,1.988,0,0,0,.48-1.461v-.9a2.555,2.555,0,0,1-.93.754,2.9,2.9,0,0,1-1.252.256A2.71,2.71,0,0,1,15.612-.9a4.382,4.382,0,0,1-.817-2.765Zm1.443.154a3.368,3.368,0,0,0,.491,1.919,1.7,1.7,0,0,0,1.516.725,1.907,1.907,0,0,0,1.091-.3,2.251,2.251,0,0,0,.725-.839V-5.8a2.238,2.238,0,0,0-.725-.8,1.9,1.9,0,0,0-1.077-.3,1.643,1.643,0,0,0-1.527.857,4.423,4.423,0,0,0-.494,2.227ZM28.447,0q-.073-.359-.114-.634a4.65,4.65,0,0,1-.048-.553,3.364,3.364,0,0,1-1.051.956,2.688,2.688,0,0,1-1.4.385A2.59,2.59,0,0,1,23.954-.48a2.33,2.33,0,0,1-.648-1.747A2.047,2.047,0,0,1,24.225-4a4.293,4.293,0,0,1,2.494-.641h1.567v-.784a1.454,1.454,0,0,0-.425-1.1,1.668,1.668,0,0,0-1.2-.406,1.743,1.743,0,0,0-1.135.352,1.055,1.055,0,0,0-.432.842l-1.37.015-.015-.044a1.9,1.9,0,0,1,.809-1.582,3.354,3.354,0,0,1,2.223-.718,3.272,3.272,0,0,1,2.168.685,2.426,2.426,0,0,1,.82,1.974V-1.6a7.428,7.428,0,0,0,.044.82A4.218,4.218,0,0,0,29.934,0Zm-2.4-1.055a2.568,2.568,0,0,0,1.414-.4,1.915,1.915,0,0,0,.82-.923V-3.669H26.667a2.1,2.1,0,0,0-1.4.439A1.314,1.314,0,0,0,24.749-2.2a1.087,1.087,0,0,0,.33.835A1.38,1.38,0,0,0,26.052-1.055Zm11.14-3.223V0H35.75V-10.664h4.08a3.759,3.759,0,0,1,2.655.879,3.007,3.007,0,0,1,.948,2.314,3,3,0,0,1-.948,2.322,3.779,3.779,0,0,1-2.655.872Zm0-1.128h2.637a2.092,2.092,0,0,0,1.619-.582,2.088,2.088,0,0,0,.535-1.469,2.119,2.119,0,0,0-.538-1.479,2.072,2.072,0,0,0-1.615-.593H37.192ZM48.838-6.65l-.74-.044a1.652,1.652,0,0,0-.963.271,1.739,1.739,0,0,0-.6.762V0H45.088V-7.925h1.289l.139,1.157a2.751,2.751,0,0,1,.831-.959,1.944,1.944,0,0,1,1.139-.344,1.783,1.783,0,0,1,.308.026,2.039,2.039,0,0,1,.242.055ZM55.21,0q-.073-.359-.114-.634a4.65,4.65,0,0,1-.048-.553A3.364,3.364,0,0,1,54-.231a2.688,2.688,0,0,1-1.4.385A2.59,2.59,0,0,1,50.717-.48a2.33,2.33,0,0,1-.648-1.747A2.047,2.047,0,0,1,50.988-4a4.293,4.293,0,0,1,2.494-.641h1.567v-.784a1.454,1.454,0,0,0-.425-1.1,1.668,1.668,0,0,0-1.2-.406,1.743,1.743,0,0,0-1.135.352,1.055,1.055,0,0,0-.432.842l-1.37.015-.015-.044a1.9,1.9,0,0,1,.809-1.582A3.354,3.354,0,0,1,53.5-8.071a3.272,3.272,0,0,1,2.168.685,2.426,2.426,0,0,1,.82,1.974V-1.6a7.428,7.428,0,0,0,.044.82A4.218,4.218,0,0,0,56.7,0Zm-2.4-1.055a2.568,2.568,0,0,0,1.414-.4,1.915,1.915,0,0,0,.82-.923V-3.669H53.43a2.1,2.1,0,0,0-1.4.439A1.314,1.314,0,0,0,51.511-2.2a1.087,1.087,0,0,0,.33.835A1.38,1.38,0,0,0,52.815-1.055Zm7.778-8.782v1.912h1.5v1.069h-1.5v4.812a1.077,1.077,0,0,0,.231.784.834.834,0,0,0,.612.227,1.34,1.34,0,0,0,.278-.033,2.064,2.064,0,0,0,.256-.07l.2.989a1.275,1.275,0,0,1-.476.216,2.4,2.4,0,0,1-.623.084,1.869,1.869,0,0,1-1.4-.531,2.306,2.306,0,0,1-.52-1.666V-6.855h-1.26V-7.925h1.26V-9.836Zm2.71,5.8a4.363,4.363,0,0,1,.952-2.9,3.193,3.193,0,0,1,2.585-1.139,3.224,3.224,0,0,1,2.6,1.135,4.349,4.349,0,0,1,.956,2.9v.161a4.342,4.342,0,0,1-.952,2.9A3.215,3.215,0,0,1,66.855.154a3.221,3.221,0,0,1-2.6-1.132,4.334,4.334,0,0,1-.956-2.9Zm1.443.161a3.759,3.759,0,0,0,.531,2.08,1.758,1.758,0,0,0,1.578.82,1.753,1.753,0,0,0,1.567-.82,3.739,3.739,0,0,0,.535-2.08v-.161a3.728,3.728,0,0,0-.538-2.073,1.764,1.764,0,0,0-1.578-.828,1.74,1.74,0,0,0-1.564.828,3.767,3.767,0,0,0-.531,2.073Z" transform="translate(977 1061)" fill="#12263f"/>
    <path id="Trazado_830428" data-name="Trazado 830428" d="M10.177-4l.017.05A3.783,3.783,0,0,1,9.015-.921,4.806,4.806,0,0,1,5.669.174a4.634,4.634,0,0,1-3.511-1.4A5.017,5.017,0,0,1,.822-4.839v-2.4a5.11,5.11,0,0,1,1.3-3.615,4.443,4.443,0,0,1,3.42-1.407A5.1,5.1,0,0,1,9-11.181,3.715,3.715,0,0,1,10.21-8.143l-.017.05H7.836a2.376,2.376,0,0,0-.56-1.731,2.337,2.337,0,0,0-1.731-.569,1.954,1.954,0,0,0-1.7.876,3.873,3.873,0,0,0-.61,2.262v2.416a3.759,3.759,0,0,0,.643,2.274,2.091,2.091,0,0,0,1.789.88,2.128,2.128,0,0,0,1.623-.569A2.474,2.474,0,0,0,7.828-4Zm4.117,4H11.87V-12.949h2.424Zm7.288,0a5.1,5.1,0,0,1-.228-.647,4.5,4.5,0,0,1-.137-.7,3.322,3.322,0,0,1-.988,1.087,2.476,2.476,0,0,1-1.461.432,3.033,3.033,0,0,1-2.175-.726,2.6,2.6,0,0,1-.764-1.98,2.368,2.368,0,0,1,1.017-2.046A5.078,5.078,0,0,1,19.814-5.3h1.361v-.714a1.4,1.4,0,0,0-.34-1,1.336,1.336,0,0,0-1.013-.357,1.317,1.317,0,0,0-.909.286,1,1,0,0,0-.32.784H16.261l-.017-.05a2.278,2.278,0,0,1,.992-1.963,4.309,4.309,0,0,1,2.743-.826,4.021,4.021,0,0,1,2.619.813A2.833,2.833,0,0,1,23.6-6v3.71a7.018,7.018,0,0,0,.1,1.187A5.956,5.956,0,0,0,24,0ZM19.366-1.619a2.065,2.065,0,0,0,1.129-.315,1.7,1.7,0,0,0,.681-.73v-1.27H19.814a1.614,1.614,0,0,0-1.166.382,1.255,1.255,0,0,0-.394.938.936.936,0,0,0,.295.726A1.166,1.166,0,0,0,19.366-1.619Zm9.172-1.727.158.83h.05l.166-.83,1.478-5.636h2.532L29.866,0H27.55L24.5-8.981h2.532ZM37.76.174a4.041,4.041,0,0,1-3.138-1.233,4.518,4.518,0,0,1-1.129-3.175v-.332a4.917,4.917,0,0,1,1.1-3.3A3.725,3.725,0,0,1,37.6-9.147a3.487,3.487,0,0,1,2.777,1.108,4.379,4.379,0,0,1,.967,2.984V-3.8H35.992l-.025.05a2.426,2.426,0,0,0,.56,1.494,1.876,1.876,0,0,0,1.49.573A4.986,4.986,0,0,0,39.4-1.851a5.639,5.639,0,0,0,1.175-.506L41.23-.863a4.5,4.5,0,0,1-1.461.739A6.479,6.479,0,0,1,37.76.174ZM37.6-7.28a1.346,1.346,0,0,0-1.125.5A2.519,2.519,0,0,0,36-5.445l.017.042h2.955v-.183a2.1,2.1,0,0,0-.324-1.241A1.2,1.2,0,0,0,37.6-7.28ZM47.613-2.49a.836.836,0,0,0-.386-.685,3.921,3.921,0,0,0-1.432-.5A5.711,5.711,0,0,1,43.4-4.632a2.085,2.085,0,0,1-.818-1.735,2.475,2.475,0,0,1,.979-1.967,3.949,3.949,0,0,1,2.606-.813,4.262,4.262,0,0,1,2.727.813,2.377,2.377,0,0,1,.984,2.025l-.017.05H47.522a1.175,1.175,0,0,0-.349-.88,1.38,1.38,0,0,0-1-.34,1.372,1.372,0,0,0-.921.291.9.9,0,0,0-.34.714.806.806,0,0,0,.353.677,3.927,3.927,0,0,0,1.432.469,5.827,5.827,0,0,1,2.461.975,2.139,2.139,0,0,1,.809,1.772A2.371,2.371,0,0,1,48.925-.6a4.478,4.478,0,0,1-2.739.772,4.163,4.163,0,0,1-2.835-.909,2.541,2.541,0,0,1-.992-2.071l.017-.05h2.216a1.26,1.26,0,0,0,.473,1.046,1.953,1.953,0,0,0,1.17.324,1.665,1.665,0,0,0,1.025-.27A.875.875,0,0,0,47.613-2.49Z" transform="translate(986 897)" fill="#fff"/>
    <path id="Trazado_830429" data-name="Trazado 830429" d="M0,0H90V181H0Z" transform="translate(1124 926)" fill="#3ee2a8"/>
    <g id="Trazado_830430" data-name="Trazado 830430" transform="translate(1280 1040)" fill="#abeecb">
      <path d="M 107.5 67.5 L 0.5 67.5 L 0.5 0.5 L 107.5 0.5 L 107.5 67.5 Z" stroke="none"/>
      <path d="M 1 1 L 1 67 L 107 67 L 107 1 L 1 1 M 0 0 L 108 0 L 108 68 L 0 68 L 0 0 Z" stroke="none" fill="#0c0c0c"/>
    </g>
    <path id="Trazado_830431" data-name="Trazado 830431" d="M8.176-5.022H3.536V0H1.112V-12.086H9.023v1.868H3.536V-6.89h4.64Zm7.529,3.694A3.049,3.049,0,0,1,14.651-.216a2.8,2.8,0,0,1-1.486.39,2.731,2.731,0,0,1-2.22-.963,4.619,4.619,0,0,1-.8-2.988v-5.2h2.416V-3.76a2.9,2.9,0,0,0,.32,1.615,1.148,1.148,0,0,0,.992.436,2.415,2.415,0,0,0,1-.187,1.679,1.679,0,0,0,.681-.552V-8.981h2.424V0H15.962Zm6.309-7.653.108,1.287a3.285,3.285,0,0,1,1.1-1.071,2.866,2.866,0,0,1,1.469-.382,2.671,2.671,0,0,1,2.125.876A4.152,4.152,0,0,1,27.583-5.5V0H25.151V-5.5a2.15,2.15,0,0,0-.336-1.365,1.239,1.239,0,0,0-1.009-.4,2.116,2.116,0,0,0-.95.2,1.855,1.855,0,0,0-.677.56V0H19.756V-8.981Zm11.131,7.3a1.349,1.349,0,0,0,1-.378,1.372,1.372,0,0,0,.374-1.009h2.208l.017.05A2.811,2.811,0,0,1,35.735-.743a3.787,3.787,0,0,1-2.59.917A3.827,3.827,0,0,1,30.065-1.1a4.843,4.843,0,0,1-1.087-3.258v-.249a4.875,4.875,0,0,1,1.083-3.258,3.793,3.793,0,0,1,3.067-1.282,3.7,3.7,0,0,1,2.648.946,3.162,3.162,0,0,1,.971,2.49l-.017.05H34.523a1.792,1.792,0,0,0-.369-1.158,1.241,1.241,0,0,0-1.025-.461,1.383,1.383,0,0,0-1.332.751A4.12,4.12,0,0,0,31.4-4.607v.249A4.1,4.1,0,0,0,31.8-2.424,1.4,1.4,0,0,0,33.145-1.685ZM40.707,0H38.283V-8.981h2.424Zm0-11.131H38.283v-1.818h2.424Zm1.619,6.558a4.82,4.82,0,0,1,1.121-3.291,3.906,3.906,0,0,1,3.1-1.282,3.948,3.948,0,0,1,3.121,1.278,4.794,4.794,0,0,1,1.129,3.3V-4.4a4.8,4.8,0,0,1-1.125,3.3A3.931,3.931,0,0,1,46.567.174,3.941,3.941,0,0,1,43.45-1.1a4.8,4.8,0,0,1-1.125-3.3Zm2.416.174a3.907,3.907,0,0,0,.432,1.971,1.49,1.49,0,0,0,1.395.743,1.475,1.475,0,0,0,1.374-.747A3.881,3.881,0,0,0,48.377-4.4v-.174a3.842,3.842,0,0,0-.44-1.951,1.488,1.488,0,0,0-1.386-.755,1.47,1.47,0,0,0-1.374.76,3.876,3.876,0,0,0-.436,1.947Zm2.3-8.417h2.7l.017.05-2.3,2.158H45.389Zm7.471,3.835.108,1.287a3.285,3.285,0,0,1,1.1-1.071,2.866,2.866,0,0,1,1.469-.382,2.671,2.671,0,0,1,2.125.876A4.152,4.152,0,0,1,60.081-5.5V0H57.649V-5.5a2.15,2.15,0,0,0-.336-1.365,1.239,1.239,0,0,0-1.009-.4,2.116,2.116,0,0,0-.95.2,1.855,1.855,0,0,0-.677.56V0H52.253V-8.981ZM65.75-4.416a5.836,5.836,0,0,1,.917-3.428,2.978,2.978,0,0,1,2.586-1.3,2.515,2.515,0,0,1,1.212.291,2.916,2.916,0,0,1,.946.83v-4.922h2.432V0H71.777l-.208-1.1a3,3,0,0,1-1,.95,2.655,2.655,0,0,1-1.328.328,3.037,3.037,0,0,1-2.569-1.212,5.175,5.175,0,0,1-.917-3.2Zm2.416.174a3.658,3.658,0,0,0,.4,1.855,1.387,1.387,0,0,0,1.295.677,1.886,1.886,0,0,0,.913-.212,1.689,1.689,0,0,0,.639-.618V-6.367a1.865,1.865,0,0,0-.635-.66,1.689,1.689,0,0,0-.9-.237,1.368,1.368,0,0,0-1.3.789,4.456,4.456,0,0,0-.411,2.059ZM79.613.174a4.041,4.041,0,0,1-3.138-1.233,4.518,4.518,0,0,1-1.129-3.175v-.332a4.917,4.917,0,0,1,1.1-3.3,3.725,3.725,0,0,1,3.013-1.278,3.487,3.487,0,0,1,2.777,1.108A4.379,4.379,0,0,1,83.2-5.055V-3.8H77.845l-.025.05a2.426,2.426,0,0,0,.56,1.494,1.876,1.876,0,0,0,1.49.573,4.986,4.986,0,0,0,1.382-.166,5.639,5.639,0,0,0,1.175-.506l.656,1.494a4.5,4.5,0,0,1-1.461.739A6.479,6.479,0,0,1,79.613.174ZM79.455-7.28a1.346,1.346,0,0,0-1.125.5,2.519,2.519,0,0,0-.477,1.332l.017.042h2.955v-.183A2.1,2.1,0,0,0,80.5-6.827,1.2,1.2,0,0,0,79.455-7.28ZM98.8,0H96.372V-5.022H91.45V0H89.026V-12.086H91.45v5.2h4.922v-5.2H98.8Zm7.338,0a5.1,5.1,0,0,1-.228-.647,4.5,4.5,0,0,1-.137-.7,3.322,3.322,0,0,1-.988,1.087,2.476,2.476,0,0,1-1.461.432,3.033,3.033,0,0,1-2.175-.726,2.6,2.6,0,0,1-.764-1.98A2.368,2.368,0,0,1,101.4-4.578a5.078,5.078,0,0,1,2.968-.726h1.361v-.714a1.4,1.4,0,0,0-.34-1,1.336,1.336,0,0,0-1.013-.357,1.317,1.317,0,0,0-.909.286,1,1,0,0,0-.32.784h-2.333l-.017-.05a2.278,2.278,0,0,1,.992-1.963,4.309,4.309,0,0,1,2.743-.826,4.021,4.021,0,0,1,2.619.813,2.833,2.833,0,0,1,1,2.333v3.71a7.018,7.018,0,0,0,.1,1.187,5.956,5.956,0,0,0,.3,1.1Zm-2.216-1.619a2.065,2.065,0,0,0,1.129-.315,1.7,1.7,0,0,0,.681-.73v-1.27h-1.361a1.614,1.614,0,0,0-1.166.382,1.255,1.255,0,0,0-.394.938.937.937,0,0,0,.295.726A1.166,1.166,0,0,0,103.917-1.619Zm10.907-.872a.836.836,0,0,0-.386-.685,3.921,3.921,0,0,0-1.432-.5,5.711,5.711,0,0,1-2.395-.955,2.085,2.085,0,0,1-.818-1.735,2.475,2.475,0,0,1,.979-1.967,3.949,3.949,0,0,1,2.606-.813,4.262,4.262,0,0,1,2.727.813,2.377,2.377,0,0,1,.984,2.025l-.017.05h-2.341a1.175,1.175,0,0,0-.349-.88,1.38,1.38,0,0,0-1-.34,1.372,1.372,0,0,0-.921.291.9.9,0,0,0-.34.714.806.806,0,0,0,.353.677,3.927,3.927,0,0,0,1.432.469,5.827,5.827,0,0,1,2.461.975,2.139,2.139,0,0,1,.809,1.772A2.371,2.371,0,0,1,116.136-.6,4.479,4.479,0,0,1,113.4.174a4.163,4.163,0,0,1-2.835-.909,2.541,2.541,0,0,1-.992-2.071l.017-.05H111.8a1.26,1.26,0,0,0,.473,1.046,1.953,1.953,0,0,0,1.17.324,1.665,1.665,0,0,0,1.025-.27A.875.875,0,0,0,114.825-2.49ZM121.1-7.844a3.085,3.085,0,0,1,1.038-.959,2.735,2.735,0,0,1,1.361-.344,2.75,2.75,0,0,1,2.2.934,4.357,4.357,0,0,1,.8,2.885V0H124.08V-5.346a2.482,2.482,0,0,0-.336-1.482,1.194,1.194,0,0,0-1.009-.436,2.413,2.413,0,0,0-.967.178,1.669,1.669,0,0,0-.668.51V0h-2.424V-12.949H121.1Z" transform="translate(1105 897)" fill="#fff"/>
    <path id="Trazado_830432" data-name="Trazado 830432" d="M0,0H30V22H0Z" transform="translate(1247 926)" fill="#d5ffe9"/>
    <g id="Trazado_830433" data-name="Trazado 830433" transform="translate(1280 926)" fill="#abeecb">
      <path d="M 107.5 90.5 L 0.5 90.5 L 0.5 0.5 L 107.5 0.5 L 107.5 90.5 Z" stroke="none"/>
      <path d="M 1 1 L 1 90 L 107 90 L 107 1 L 1 1 M 0 0 L 108 0 L 108 91 L 0 91 L 0 0 Z" stroke="none" fill="#0c0c0c"/>
    </g>
    <path id="Trazado_830434" data-name="Trazado 830434" d="M7.617-3.765A4.208,4.208,0,0,1,6.7-.9,3.113,3.113,0,0,1,4.226.154,3.127,3.127,0,0,1,1.754-.9,4.187,4.187,0,0,1,.828-3.765V-6.9a4.214,4.214,0,0,1,.919-2.856,3.1,3.1,0,0,1,2.465-1.062A3.125,3.125,0,0,1,6.691-9.756,4.193,4.193,0,0,1,7.617-6.9ZM6.174-7.2a2.909,2.909,0,0,0-.513-1.816,1.723,1.723,0,0,0-1.45-.667,1.7,1.7,0,0,0-1.436.667A2.939,2.939,0,0,0,2.271-7.2v3.728a2.926,2.926,0,0,0,.516,1.824,1.71,1.71,0,0,0,1.439.674,1.7,1.7,0,0,0,1.443-.67,2.969,2.969,0,0,0,.505-1.827Zm9.888,3.435A4.208,4.208,0,0,1,15.143-.9,3.113,3.113,0,0,1,12.671.154,3.127,3.127,0,0,1,10.2-.9a4.187,4.187,0,0,1-.927-2.864V-6.9a4.214,4.214,0,0,1,.919-2.856,3.1,3.1,0,0,1,2.465-1.062,3.125,3.125,0,0,1,2.479,1.062A4.193,4.193,0,0,1,16.062-6.9ZM14.619-7.2a2.909,2.909,0,0,0-.513-1.816,1.723,1.723,0,0,0-1.45-.667,1.7,1.7,0,0,0-1.436.667A2.939,2.939,0,0,0,10.715-7.2v3.728a2.926,2.926,0,0,0,.516,1.824,1.71,1.71,0,0,0,1.439.674,1.7,1.7,0,0,0,1.443-.67,2.969,2.969,0,0,0,.505-1.827Z" transform="translate(1254 943)" fill="#12263f"/>
    <path id="Trazado_830435" data-name="Trazado 830435" d="M5.2,0H3.75V-9.331l-2.322.022v-1.113l3.772-.4Zm7.485-6.064a1.691,1.691,0,0,0,1.366-.48,2.043,2.043,0,0,0,.4-1.344,1.894,1.894,0,0,0-.436-1.3,1.632,1.632,0,0,0-1.293-.494,1.929,1.929,0,0,0-1.381.516A1.706,1.706,0,0,0,10.8-7.874H9.419L9.4-7.917a2.548,2.548,0,0,1,.908-2.051,3.478,3.478,0,0,1,2.417-.85,3.377,3.377,0,0,1,2.329.751,2.8,2.8,0,0,1,.842,2.208A2.484,2.484,0,0,1,15.5-6.5a2.642,2.642,0,0,1-1.095.959,2.52,2.52,0,0,1,1.227.978,2.872,2.872,0,0,1,.421,1.586,2.927,2.927,0,0,1-.927,2.3,3.466,3.466,0,0,1-2.406.831,3.81,3.81,0,0,1-2.4-.8,2.456,2.456,0,0,1-1-2.12l.015-.044h1.377a1.73,1.73,0,0,0,.56,1.307,2.017,2.017,0,0,0,1.447.531,1.794,1.794,0,0,0,1.384-.546,2.013,2.013,0,0,0,.505-1.425,2.131,2.131,0,0,0-.465-1.5,1.913,1.913,0,0,0-1.461-.5H11.5V-6.064Z" transform="translate(1254 1057)" fill="#12263f"/>
    <path id="Trazado_830436" data-name="Trazado 830436" d="M7.617-3.765A4.208,4.208,0,0,1,6.7-.9,3.113,3.113,0,0,1,4.226.154,3.127,3.127,0,0,1,1.754-.9,4.187,4.187,0,0,1,.828-3.765V-6.9a4.214,4.214,0,0,1,.919-2.856,3.1,3.1,0,0,1,2.465-1.062A3.125,3.125,0,0,1,6.691-9.756,4.193,4.193,0,0,1,7.617-6.9ZM6.174-7.2a2.909,2.909,0,0,0-.513-1.816,1.723,1.723,0,0,0-1.45-.667,1.7,1.7,0,0,0-1.436.667A2.939,2.939,0,0,0,2.271-7.2v3.728a2.926,2.926,0,0,0,.516,1.824,1.71,1.71,0,0,0,1.439.674,1.7,1.7,0,0,0,1.443-.67,2.969,2.969,0,0,0,.505-1.827ZM13.645,0h-1.45V-9.331l-2.322.022v-1.113l3.772-.4Z" transform="translate(1254 966)" fill="#12263f"/>
    <path id="Trazado_830437" data-name="Trazado 830437" d="M5.2,0H3.75V-9.331l-2.322.022v-1.113l3.772-.4Zm9.785-3.589h1.472v1.128H14.985V0H13.55V-2.461H8.972v-.813l4.49-7.39h1.523Zm-4.468,0H13.55v-5L13.506-8.6l-.139.366Z" transform="translate(1254 1079)" fill="#12263f"/>
    <path id="Trazado_830438" data-name="Trazado 830438" d="M7.617-3.765A4.208,4.208,0,0,1,6.7-.9,3.113,3.113,0,0,1,4.226.154,3.127,3.127,0,0,1,1.754-.9,4.187,4.187,0,0,1,.828-3.765V-6.9a4.214,4.214,0,0,1,.919-2.856,3.1,3.1,0,0,1,2.465-1.062A3.125,3.125,0,0,1,6.691-9.756,4.193,4.193,0,0,1,7.617-6.9ZM6.174-7.2a2.909,2.909,0,0,0-.513-1.816,1.723,1.723,0,0,0-1.45-.667,1.7,1.7,0,0,0-1.436.667A2.939,2.939,0,0,0,2.271-7.2v3.728a2.926,2.926,0,0,0,.516,1.824,1.71,1.71,0,0,0,1.439.674,1.7,1.7,0,0,0,1.443-.67,2.969,2.969,0,0,0,.505-1.827ZM16.165,0H9.543V-.989L12.891-4.98A10.056,10.056,0,0,0,14.1-6.705,2.878,2.878,0,0,0,14.421-8a1.726,1.726,0,0,0-.432-1.212A1.537,1.537,0,0,0,12.8-9.683a1.788,1.788,0,0,0-1.439.579,2.144,2.144,0,0,0-.494,1.443H9.47l-.015-.044a2.876,2.876,0,0,1,.872-2.208,3.343,3.343,0,0,1,2.468-.9,3.1,3.1,0,0,1,2.249.791,2.713,2.713,0,0,1,.82,2.043A3.259,3.259,0,0,1,15.4-6.335a18.386,18.386,0,0,1-1.417,2.021L11.294-1.165l.015.037h4.856Z" transform="translate(1254 989)" fill="#12263f"/>
    <path id="Trazado_830439" data-name="Trazado 830439" d="M5.2,0H3.75V-9.331l-2.322.022v-1.113l3.772-.4ZM9.727-4.739l.615-5.925h5.339v1.282H11.558l-.344,3.069a3.292,3.292,0,0,1,.762-.421,2.679,2.679,0,0,1,.952-.172,2.9,2.9,0,0,1,2.318.927A3.742,3.742,0,0,1,16.084-3.4,3.751,3.751,0,0,1,15.223-.82a3.17,3.17,0,0,1-2.509.974,3.437,3.437,0,0,1-2.256-.74,2.56,2.56,0,0,1-.864-2.175l.015-.044h1.3a1.781,1.781,0,0,0,.5,1.351,1.8,1.8,0,0,0,1.3.48,1.7,1.7,0,0,0,1.421-.645,2.79,2.79,0,0,0,.505-1.765,2.541,2.541,0,0,0-.509-1.648,1.721,1.721,0,0,0-1.417-.63,2.265,2.265,0,0,0-1.23.256,1.5,1.5,0,0,0-.564.791Z" transform="translate(1254 1103)" fill="#12263f"/>
    <path id="Trazado_830440" data-name="Trazado 830440" d="M7.617-3.765A4.208,4.208,0,0,1,6.7-.9,3.113,3.113,0,0,1,4.226.154,3.127,3.127,0,0,1,1.754-.9,4.187,4.187,0,0,1,.828-3.765V-6.9a4.214,4.214,0,0,1,.919-2.856,3.1,3.1,0,0,1,2.465-1.062A3.125,3.125,0,0,1,6.691-9.756,4.193,4.193,0,0,1,7.617-6.9ZM6.174-7.2a2.909,2.909,0,0,0-.513-1.816,1.723,1.723,0,0,0-1.45-.667,1.7,1.7,0,0,0-1.436.667A2.939,2.939,0,0,0,2.271-7.2v3.728a2.926,2.926,0,0,0,.516,1.824,1.71,1.71,0,0,0,1.439.674,1.7,1.7,0,0,0,1.443-.67,2.969,2.969,0,0,0,.505-1.827Zm6.511,1.135a1.691,1.691,0,0,0,1.366-.48,2.043,2.043,0,0,0,.4-1.344,1.894,1.894,0,0,0-.436-1.3,1.632,1.632,0,0,0-1.293-.494,1.929,1.929,0,0,0-1.381.516A1.706,1.706,0,0,0,10.8-7.874H9.419L9.4-7.917a2.548,2.548,0,0,1,.908-2.051,3.478,3.478,0,0,1,2.417-.85,3.377,3.377,0,0,1,2.329.751,2.8,2.8,0,0,1,.842,2.208A2.484,2.484,0,0,1,15.5-6.5a2.642,2.642,0,0,1-1.095.959,2.52,2.52,0,0,1,1.227.978,2.872,2.872,0,0,1,.421,1.586,2.927,2.927,0,0,1-.927,2.3,3.466,3.466,0,0,1-2.406.831,3.81,3.81,0,0,1-2.4-.8,2.456,2.456,0,0,1-1-2.12l.015-.044h1.377a1.73,1.73,0,0,0,.56,1.307,2.017,2.017,0,0,0,1.447.531,1.794,1.794,0,0,0,1.384-.546,2.013,2.013,0,0,0,.505-1.425,2.131,2.131,0,0,0-.465-1.5,1.913,1.913,0,0,0-1.461-.5H11.5V-6.064Z" transform="translate(1254 1012)" fill="#12263f"/>
    <path id="Trazado_830441" data-name="Trazado 830441" d="M4.682-1.685a1.349,1.349,0,0,0,1-.378A1.372,1.372,0,0,0,6.06-3.071H8.268l.017.05A2.811,2.811,0,0,1,7.271-.743a3.787,3.787,0,0,1-2.59.917A3.827,3.827,0,0,1,1.6-1.1,4.843,4.843,0,0,1,.515-4.358v-.249A4.875,4.875,0,0,1,1.6-7.865,3.793,3.793,0,0,1,4.665-9.147,3.7,3.7,0,0,1,7.313-8.2a3.162,3.162,0,0,1,.971,2.49l-.017.05H6.06A1.792,1.792,0,0,0,5.69-6.819,1.241,1.241,0,0,0,4.665-7.28a1.383,1.383,0,0,0-1.332.751,4.12,4.12,0,0,0-.394,1.922v.249a4.1,4.1,0,0,0,.394,1.934A1.4,1.4,0,0,0,4.682-1.685ZM14.991,0a5.1,5.1,0,0,1-.228-.647,4.5,4.5,0,0,1-.137-.7,3.322,3.322,0,0,1-.988,1.087,2.476,2.476,0,0,1-1.461.432A3.033,3.033,0,0,1,10-.552a2.6,2.6,0,0,1-.764-1.98,2.368,2.368,0,0,1,1.017-2.046A5.078,5.078,0,0,1,13.223-5.3h1.361v-.714a1.4,1.4,0,0,0-.34-1,1.336,1.336,0,0,0-1.013-.357,1.317,1.317,0,0,0-.909.286,1,1,0,0,0-.32.784H9.67l-.017-.05a2.278,2.278,0,0,1,.992-1.963,4.309,4.309,0,0,1,2.743-.826,4.021,4.021,0,0,1,2.619.813,2.833,2.833,0,0,1,1,2.333v3.71A7.018,7.018,0,0,0,17.1-1.1a5.956,5.956,0,0,0,.3,1.1ZM12.775-1.619A2.065,2.065,0,0,0,13.9-1.934a1.7,1.7,0,0,0,.681-.73v-1.27H13.223a1.614,1.614,0,0,0-1.166.382,1.255,1.255,0,0,0-.394.938.936.936,0,0,0,.295.726A1.166,1.166,0,0,0,12.775-1.619ZM23.682-2.49a.836.836,0,0,0-.386-.685,3.921,3.921,0,0,0-1.432-.5,5.711,5.711,0,0,1-2.395-.955,2.085,2.085,0,0,1-.818-1.735,2.475,2.475,0,0,1,.979-1.967,3.949,3.949,0,0,1,2.606-.813,4.262,4.262,0,0,1,2.727.813,2.377,2.377,0,0,1,.984,2.025l-.017.05H23.591a1.175,1.175,0,0,0-.349-.88,1.38,1.38,0,0,0-1-.34,1.372,1.372,0,0,0-.921.291.9.9,0,0,0-.34.714.806.806,0,0,0,.353.677,3.927,3.927,0,0,0,1.432.469,5.827,5.827,0,0,1,2.461.975,2.139,2.139,0,0,1,.809,1.772A2.371,2.371,0,0,1,24.994-.6a4.479,4.479,0,0,1-2.739.772A4.163,4.163,0,0,1,19.42-.735a2.541,2.541,0,0,1-.992-2.071l.017-.05h2.216a1.26,1.26,0,0,0,.473,1.046,1.953,1.953,0,0,0,1.17.324,1.665,1.665,0,0,0,1.025-.27A.875.875,0,0,0,23.682-2.49ZM30.14,0H27.716V-8.981H30.14Zm0-11.131H27.716v-1.818H30.14ZM34.681,0H32.257V-12.949h2.424Zm4.541,0H36.8V-12.949h2.424Zm7.288,0a5.1,5.1,0,0,1-.228-.647,4.5,4.5,0,0,1-.137-.7,3.322,3.322,0,0,1-.988,1.087A2.476,2.476,0,0,1,43.7.174a3.033,3.033,0,0,1-2.175-.726,2.6,2.6,0,0,1-.764-1.98,2.368,2.368,0,0,1,1.017-2.046A5.078,5.078,0,0,1,44.741-5.3H46.1v-.714a1.4,1.4,0,0,0-.34-1,1.336,1.336,0,0,0-1.013-.357,1.317,1.317,0,0,0-.909.286,1,1,0,0,0-.32.784H41.188l-.017-.05a2.278,2.278,0,0,1,.992-1.963,4.309,4.309,0,0,1,2.743-.826,4.021,4.021,0,0,1,2.619.813,2.833,2.833,0,0,1,1,2.333v3.71a7.018,7.018,0,0,0,.1,1.187,5.956,5.956,0,0,0,.3,1.1ZM44.293-1.619a2.065,2.065,0,0,0,1.129-.315,1.7,1.7,0,0,0,.681-.73v-1.27H44.741a1.614,1.614,0,0,0-1.166.382,1.255,1.255,0,0,0-.394.938.936.936,0,0,0,.295.726A1.166,1.166,0,0,0,44.293-1.619ZM55.2-2.49a.836.836,0,0,0-.386-.685,3.921,3.921,0,0,0-1.432-.5,5.711,5.711,0,0,1-2.395-.955,2.085,2.085,0,0,1-.818-1.735,2.475,2.475,0,0,1,.979-1.967,3.949,3.949,0,0,1,2.606-.813,4.262,4.262,0,0,1,2.727.813,2.377,2.377,0,0,1,.984,2.025l-.017.05H55.109a1.175,1.175,0,0,0-.349-.88,1.38,1.38,0,0,0-1-.34,1.372,1.372,0,0,0-.921.291.9.9,0,0,0-.34.714.806.806,0,0,0,.353.677,3.927,3.927,0,0,0,1.432.469,5.827,5.827,0,0,1,2.461.975,2.139,2.139,0,0,1,.809,1.772A2.371,2.371,0,0,1,56.512-.6a4.478,4.478,0,0,1-2.739.772,4.163,4.163,0,0,1-2.835-.909,2.541,2.541,0,0,1-.992-2.071l.017-.05h2.216a1.26,1.26,0,0,0,.473,1.046,1.953,1.953,0,0,0,1.17.324,1.665,1.665,0,0,0,1.025-.27A.875.875,0,0,0,55.2-2.49Z" transform="translate(1289 897)" fill="#fff"/>
    <g id="Trazado_830442" data-name="Trazado 830442" transform="translate(1280 948)" fill="#9efe9c">
      <path d="M 107.5 23.5 L 0.5 23.5 L 0.5 0.5 L 107.5 0.5 L 107.5 23.5 Z" stroke="none"/>
      <path d="M 1 1 L 1 23 L 107 23 L 107 1 L 1 1 M 0 0 L 108 0 L 108 24 L 0 24 L 0 0 Z" stroke="none" fill="#0c0c0c"/>
    </g>
    <g id="Trazado_830443" data-name="Trazado 830443" transform="translate(1280 1062)" fill="#9efe9c">
      <path d="M 107.5 23.5 L 0.5 23.5 L 0.5 0.5 L 107.5 0.5 L 107.5 23.5 Z" stroke="none"/>
      <path d="M 1 1 L 1 23 L 107 23 L 107 1 L 1 1 M 0 0 L 108 0 L 108 24 L 0 24 L 0 0 Z" stroke="none" fill="#0c0c0c"/>
    </g>
    <g id="Trazado_830444" data-name="Trazado 830444" transform="translate(1280 971)" fill="#9efe9c">
      <path d="M 107.5 24.5 L 0.5 24.5 L 0.5 0.5 L 107.5 0.5 L 107.5 24.5 Z" stroke="none"/>
      <path d="M 1 1 L 1 24 L 107 24 L 107 1 L 1 1 M 0 0 L 108 0 L 108 25 L 0 25 L 0 0 Z" stroke="none" fill="#0c0c0c"/>
    </g>
    <g id="Trazado_830445" data-name="Trazado 830445" transform="translate(1280 1085)" fill="#9efe9c">
      <path d="M 107.5 22.5 L 0.5 22.5 L 0.5 0.5 L 107.5 0.5 L 107.5 22.5 Z" stroke="none"/>
      <path d="M 1 1 L 1 22 L 107 22 L 107 1 L 1 1 M 0 0 L 108 0 L 108 23 L 0 23 L 0 0 Z" stroke="none" fill="#0c0c0c"/>
    </g>
    <g id="Trazado_830446" data-name="Trazado 830446" transform="translate(1280 994)" fill="#abeecb">
      <path d="M 107.5 22.5 L 0.5 22.5 L 0.5 0.5 L 107.5 0.5 L 107.5 22.5 Z" stroke="none"/>
      <path d="M 1 1 L 1 22 L 107 22 L 107 1 L 1 1 M 0 0 L 108 0 L 108 23 L 0 23 L 0 0 Z" stroke="none" fill="#0c0c0c"/>
    </g>
    <path id="Trazado_830447" data-name="Trazado 830447" d="M1.282-4.739,1.9-10.664H7.236v1.282H3.113L2.769-6.313a3.292,3.292,0,0,1,.762-.421,2.679,2.679,0,0,1,.952-.172A2.9,2.9,0,0,1,6.8-5.98,3.742,3.742,0,0,1,7.639-3.4,3.751,3.751,0,0,1,6.779-.82,3.17,3.17,0,0,1,4.27.154a3.437,3.437,0,0,1-2.256-.74A2.56,2.56,0,0,1,1.15-2.761l.015-.044h1.3a1.781,1.781,0,0,0,.5,1.351,1.8,1.8,0,0,0,1.3.48,1.7,1.7,0,0,0,1.421-.645A2.79,2.79,0,0,0,6.2-3.384a2.541,2.541,0,0,0-.509-1.648,1.721,1.721,0,0,0-1.417-.63,2.265,2.265,0,0,0-1.23.256,1.5,1.5,0,0,0-.564.791ZM16.165,0H9.543V-.989L12.891-4.98A10.056,10.056,0,0,0,14.1-6.705,2.878,2.878,0,0,0,14.421-8a1.726,1.726,0,0,0-.432-1.212A1.537,1.537,0,0,0,12.8-9.683a1.788,1.788,0,0,0-1.439.579,2.144,2.144,0,0,0-.494,1.443H9.47l-.015-.044a2.876,2.876,0,0,1,.872-2.208,3.343,3.343,0,0,1,2.468-.9,3.1,3.1,0,0,1,2.249.791,2.713,2.713,0,0,1,.82,2.043A3.259,3.259,0,0,1,15.4-6.335a18.386,18.386,0,0,1-1.417,2.021L11.294-1.165l.015.037h4.856ZM22.09,0H20.64V-9.331l-2.322.022v-1.113l3.772-.4Zm8.789-3.94H26.558V-5.068h4.321Zm8.613-4a2.4,2.4,0,0,1-.469,1.469,2.839,2.839,0,0,1-1.245.948,3.125,3.125,0,0,1,1.458,1,2.476,2.476,0,0,1,.549,1.589,2.815,2.815,0,0,1-.956,2.278,3.649,3.649,0,0,1-2.435.806,3.932,3.932,0,0,1-2.56-.806,2.767,2.767,0,0,1-.992-2.278,2.445,2.445,0,0,1,.56-1.589A3.23,3.23,0,0,1,34.915-5.53a2.81,2.81,0,0,1-1.3-.941,2.378,2.378,0,0,1-.476-1.469,2.613,2.613,0,0,1,.9-2.139,3.559,3.559,0,0,1,2.34-.74,3.336,3.336,0,0,1,2.238.743A2.646,2.646,0,0,1,39.492-7.939ZM38.35-2.959a1.938,1.938,0,0,0-.568-1.436,1.912,1.912,0,0,0-1.4-.564,2.092,2.092,0,0,0-1.5.564,1.9,1.9,0,0,0-.593,1.436,1.866,1.866,0,0,0,.59,1.443,2.158,2.158,0,0,0,1.52.542,1.921,1.921,0,0,0,1.4-.546A1.918,1.918,0,0,0,38.35-2.959Zm-.3-4.958a1.752,1.752,0,0,0-.48-1.267,1.586,1.586,0,0,0-1.19-.5,1.8,1.8,0,0,0-1.289.48,1.689,1.689,0,0,0-.505,1.285A1.769,1.769,0,0,0,35.1-6.6a1.771,1.771,0,0,0,1.3.505A1.552,1.552,0,0,0,37.577-6.6,1.853,1.853,0,0,0,38.049-7.917Zm6.16,6.943a2.146,2.146,0,0,0,1.681-.718,2.956,2.956,0,0,0,.641-2.036v-.908a2.325,2.325,0,0,1-.875.787,2.484,2.484,0,0,1-1.146.267A3.121,3.121,0,0,1,42.1-4.53a3.736,3.736,0,0,1-.875-2.633,3.76,3.76,0,0,1,.93-2.633,2.986,2.986,0,0,1,2.3-1.022,3.4,3.4,0,0,1,2.563,1,3.919,3.919,0,0,1,.967,2.834v3.237A3.822,3.822,0,0,1,46.926-.875,3.728,3.728,0,0,1,44.209.154,5.91,5.91,0,0,1,43.055.037a5.232,5.232,0,0,1-1.1-.344l.22-1.1a4.161,4.161,0,0,0,.948.333A5.28,5.28,0,0,0,44.209-.974Zm.3-3.735a2.24,2.24,0,0,0,1.271-.344,2.018,2.018,0,0,0,.751-.879v-1.26A2.822,2.822,0,0,0,46-9.034a1.838,1.838,0,0,0-1.5-.648,1.578,1.578,0,0,0-1.307.7,2.959,2.959,0,0,0-.524,1.82,2.992,2.992,0,0,0,.483,1.776A1.576,1.576,0,0,0,44.509-4.709ZM56.77-9.529a15.853,15.853,0,0,0-2.732,4.241,11.362,11.362,0,0,0-.71,4.124V0H51.885V-1.165a10.313,10.313,0,0,1,.89-4.354,19.079,19.079,0,0,1,2.574-4.01H49.695v-1.135H56.77Zm5.354-1.289a6.261,6.261,0,0,1,1.245.125,4.5,4.5,0,0,1,1.018.315L64.08-9.272a5.389,5.389,0,0,0-.879-.3,4.539,4.539,0,0,0-1.077-.114,1.931,1.931,0,0,0-1.63.857,3.579,3.579,0,0,0-.626,2.168v.828a3.262,3.262,0,0,1,1.058-.7,3.366,3.366,0,0,1,1.315-.256,2.738,2.738,0,0,1,2.179.923,3.564,3.564,0,0,1,.8,2.424,3.722,3.722,0,0,1-.9,2.618A3.124,3.124,0,0,1,61.9.154,3.174,3.174,0,0,1,59.429-.97a4.469,4.469,0,0,1-1-3.073V-6.5a4.546,4.546,0,0,1,1.066-3.1A3.349,3.349,0,0,1,62.124-10.818Zm-.344,5.1a2.247,2.247,0,0,0-1.168.289,1.936,1.936,0,0,0-.743.78v.74a3.5,3.5,0,0,0,.59,2.142A1.755,1.755,0,0,0,61.9-.974a1.6,1.6,0,0,0,1.388-.685,3.009,3.009,0,0,0,.487-1.783A2.469,2.469,0,0,0,63.256-5.1,1.832,1.832,0,0,0,61.78-5.713Z" transform="translate(1303 966)" fill="#12263f"/>
    <path id="Trazado_830448" data-name="Trazado 830448" d="M1.282-4.739,1.9-10.664H7.236v1.282H3.113L2.769-6.313a3.292,3.292,0,0,1,.762-.421,2.679,2.679,0,0,1,.952-.172A2.9,2.9,0,0,1,6.8-5.98,3.742,3.742,0,0,1,7.639-3.4,3.751,3.751,0,0,1,6.779-.82,3.17,3.17,0,0,1,4.27.154a3.437,3.437,0,0,1-2.256-.74A2.56,2.56,0,0,1,1.15-2.761l.015-.044h1.3a1.781,1.781,0,0,0,.5,1.351,1.8,1.8,0,0,0,1.3.48,1.7,1.7,0,0,0,1.421-.645A2.79,2.79,0,0,0,6.2-3.384a2.541,2.541,0,0,0-.509-1.648,1.721,1.721,0,0,0-1.417-.63,2.265,2.265,0,0,0-1.23.256,1.5,1.5,0,0,0-.564.791ZM16.165,0H9.543V-.989L12.891-4.98A10.056,10.056,0,0,0,14.1-6.705,2.878,2.878,0,0,0,14.421-8a1.726,1.726,0,0,0-.432-1.212A1.537,1.537,0,0,0,12.8-9.683a1.788,1.788,0,0,0-1.439.579,2.144,2.144,0,0,0-.494,1.443H9.47l-.015-.044a2.876,2.876,0,0,1,.872-2.208,3.343,3.343,0,0,1,2.468-.9,3.1,3.1,0,0,1,2.249.791,2.713,2.713,0,0,1,.82,2.043A3.259,3.259,0,0,1,15.4-6.335a18.386,18.386,0,0,1-1.417,2.021L11.294-1.165l.015.037h4.856ZM22.09,0H20.64V-9.331l-2.322.022v-1.113l3.772-.4Zm8.789-3.94H26.558V-5.068h4.321ZM35.764-.974a2.146,2.146,0,0,0,1.681-.718,2.956,2.956,0,0,0,.641-2.036v-.908a2.325,2.325,0,0,1-.875.787,2.484,2.484,0,0,1-1.146.267,3.121,3.121,0,0,1-2.413-.948,3.736,3.736,0,0,1-.875-2.633,3.76,3.76,0,0,1,.93-2.633,2.986,2.986,0,0,1,2.3-1.022,3.4,3.4,0,0,1,2.563,1,3.919,3.919,0,0,1,.967,2.834v3.237A3.822,3.822,0,0,1,38.481-.875,3.728,3.728,0,0,1,35.764.154,5.91,5.91,0,0,1,34.611.037a5.232,5.232,0,0,1-1.1-.344l.22-1.1a4.161,4.161,0,0,0,.948.333A5.28,5.28,0,0,0,35.764-.974Zm.3-3.735a2.24,2.24,0,0,0,1.271-.344,2.018,2.018,0,0,0,.751-.879v-1.26a2.822,2.822,0,0,0-.535-1.842,1.838,1.838,0,0,0-1.5-.648,1.578,1.578,0,0,0-1.307.7,2.959,2.959,0,0,0-.524,1.82A2.992,2.992,0,0,0,34.7-5.387,1.576,1.576,0,0,0,36.064-4.709Zm9.17-6.108a6.261,6.261,0,0,1,1.245.125,4.5,4.5,0,0,1,1.018.315L47.19-9.272a5.389,5.389,0,0,0-.879-.3,4.539,4.539,0,0,0-1.077-.114,1.931,1.931,0,0,0-1.63.857,3.579,3.579,0,0,0-.626,2.168v.828a3.262,3.262,0,0,1,1.058-.7,3.366,3.366,0,0,1,1.315-.256,2.738,2.738,0,0,1,2.179.923,3.564,3.564,0,0,1,.8,2.424,3.722,3.722,0,0,1-.9,2.618,3.124,3.124,0,0,1-2.421.978A3.174,3.174,0,0,1,42.539-.97a4.469,4.469,0,0,1-1-3.073V-6.5a4.546,4.546,0,0,1,1.066-3.1A3.349,3.349,0,0,1,45.234-10.818Zm-.344,5.1a2.247,2.247,0,0,0-1.168.289,1.936,1.936,0,0,0-.743.78v.74a3.5,3.5,0,0,0,.59,2.142,1.755,1.755,0,0,0,1.447.787A1.6,1.6,0,0,0,46.4-1.659a3.009,3.009,0,0,0,.487-1.783A2.469,2.469,0,0,0,46.366-5.1,1.832,1.832,0,0,0,44.89-5.713Zm5.376.974.615-5.925h5.339v1.282H52.1l-.344,3.069a3.292,3.292,0,0,1,.762-.421,2.679,2.679,0,0,1,.952-.172,2.9,2.9,0,0,1,2.318.927A3.742,3.742,0,0,1,56.624-3.4,3.751,3.751,0,0,1,55.763-.82a3.17,3.17,0,0,1-2.509.974A3.437,3.437,0,0,1,51-.586a2.56,2.56,0,0,1-.864-2.175l.015-.044h1.3a1.781,1.781,0,0,0,.5,1.351,1.8,1.8,0,0,0,1.3.48,1.7,1.7,0,0,0,1.421-.645,2.79,2.79,0,0,0,.505-1.765,2.541,2.541,0,0,0-.509-1.648,1.721,1.721,0,0,0-1.417-.63,2.265,2.265,0,0,0-1.23.256,1.5,1.5,0,0,0-.564.791Zm8.445,0,.615-5.925h5.339v1.282H60.542L60.2-6.313a3.292,3.292,0,0,1,.762-.421,2.679,2.679,0,0,1,.952-.172,2.9,2.9,0,0,1,2.318.927A3.742,3.742,0,0,1,65.068-3.4,3.751,3.751,0,0,1,64.208-.82,3.17,3.17,0,0,1,61.7.154a3.437,3.437,0,0,1-2.256-.74,2.56,2.56,0,0,1-.864-2.175l.015-.044h1.3a1.781,1.781,0,0,0,.5,1.351,1.8,1.8,0,0,0,1.3.48,1.7,1.7,0,0,0,1.421-.645,2.79,2.79,0,0,0,.505-1.765,2.541,2.541,0,0,0-.509-1.648,1.721,1.721,0,0,0-1.417-.63,2.265,2.265,0,0,0-1.23.256,1.5,1.5,0,0,0-.564.791Z" transform="translate(1303 1080)" fill="#12263f"/>
    <path id="Trazado_830449" data-name="Trazado 830449" d="M1.282-4.739,1.9-10.664H7.236v1.282H3.113L2.769-6.313a3.292,3.292,0,0,1,.762-.421,2.679,2.679,0,0,1,.952-.172A2.9,2.9,0,0,1,6.8-5.98,3.742,3.742,0,0,1,7.639-3.4,3.751,3.751,0,0,1,6.779-.82,3.17,3.17,0,0,1,4.27.154a3.437,3.437,0,0,1-2.256-.74A2.56,2.56,0,0,1,1.15-2.761l.015-.044h1.3a1.781,1.781,0,0,0,.5,1.351,1.8,1.8,0,0,0,1.3.48,1.7,1.7,0,0,0,1.421-.645A2.79,2.79,0,0,0,6.2-3.384a2.541,2.541,0,0,0-.509-1.648,1.721,1.721,0,0,0-1.417-.63,2.265,2.265,0,0,0-1.23.256,1.5,1.5,0,0,0-.564.791ZM16.165,0H9.543V-.989L12.891-4.98A10.056,10.056,0,0,0,14.1-6.705,2.878,2.878,0,0,0,14.421-8a1.726,1.726,0,0,0-.432-1.212A1.537,1.537,0,0,0,12.8-9.683a1.788,1.788,0,0,0-1.439.579,2.144,2.144,0,0,0-.494,1.443H9.47l-.015-.044a2.876,2.876,0,0,1,.872-2.208,3.343,3.343,0,0,1,2.468-.9,3.1,3.1,0,0,1,2.249.791,2.713,2.713,0,0,1,.82,2.043A3.259,3.259,0,0,1,15.4-6.335a18.386,18.386,0,0,1-1.417,2.021L11.294-1.165l.015.037h4.856ZM22.09,0H20.64V-9.331l-2.322.022v-1.113l3.772-.4Zm8.789-3.94H26.558V-5.068h4.321ZM37.295,0h-1.45V-9.331l-2.322.022v-1.113l3.772-.4ZM48.259,0H41.638V-.989L44.985-4.98A10.056,10.056,0,0,0,46.2-6.705,2.878,2.878,0,0,0,46.516-8a1.726,1.726,0,0,0-.432-1.212,1.537,1.537,0,0,0-1.194-.472,1.788,1.788,0,0,0-1.439.579,2.144,2.144,0,0,0-.494,1.443H41.565l-.015-.044a2.876,2.876,0,0,1,.872-2.208,3.343,3.343,0,0,1,2.468-.9,3.1,3.1,0,0,1,2.249.791,2.713,2.713,0,0,1,.82,2.043,3.259,3.259,0,0,1-.465,1.648,18.386,18.386,0,0,1-1.417,2.021L43.389-1.165l.015.037h4.856Zm4.966-6.064a1.691,1.691,0,0,0,1.366-.48,2.043,2.043,0,0,0,.4-1.344,1.894,1.894,0,0,0-.436-1.3,1.632,1.632,0,0,0-1.293-.494,1.929,1.929,0,0,0-1.381.516,1.706,1.706,0,0,0-.546,1.293H49.958l-.022-.044a2.548,2.548,0,0,1,.908-2.051,3.478,3.478,0,0,1,2.417-.85,3.377,3.377,0,0,1,2.329.751,2.8,2.8,0,0,1,.842,2.208A2.484,2.484,0,0,1,56.041-6.5a2.642,2.642,0,0,1-1.095.959,2.52,2.52,0,0,1,1.227.978,2.872,2.872,0,0,1,.421,1.586,2.927,2.927,0,0,1-.927,2.3,3.466,3.466,0,0,1-2.406.831,3.81,3.81,0,0,1-2.4-.8,2.456,2.456,0,0,1-1-2.12l.015-.044h1.377a1.73,1.73,0,0,0,.56,1.307,2.017,2.017,0,0,0,1.447.531,1.794,1.794,0,0,0,1.384-.546,2.013,2.013,0,0,0,.505-1.425,2.131,2.131,0,0,0-.465-1.5,1.913,1.913,0,0,0-1.461-.5H52.039V-6.064ZM63.97-3.589h1.472v1.128H63.97V0H62.534V-2.461H57.957v-.813l4.49-7.39H63.97Zm-4.468,0h3.032v-5L62.49-8.6l-.139.366Z" transform="translate(1303 989)" fill="#12263f"/>
    <path id="Trazado_830450" data-name="Trazado 830450" d="M5,0l5,15.778H0Z" transform="translate(1240.317 955) rotate(90)" fill="#fff"/>
    <path id="Trazado_830451" data-name="Trazado 830451" d="M5,0l5,15.778H0Z" transform="translate(1240.317 977) rotate(90)" fill="#fff"/>
    <path id="Trazado_830452" data-name="Trazado 830452" d="M5,0l5,15.778H0Z" transform="translate(1240.317 1063) rotate(90)" fill="#fff"/>
    <path id="Trazado_825683" data-name="Trazado 825683" d="M-7681-10803.233h23.61l56.6-37h64.9" transform="translate(8763 11800.233)" fill="none" stroke="#fff" stroke-linejoin="round" stroke-width="2"/>
    <path id="Trazado_825684" data-name="Trazado 825684" d="M-7681-10843h22.645l46.132,45h73.582" transform="translate(8763 11780)" fill="none" stroke="#fff" stroke-linejoin="round" stroke-width="2"/>
    <path id="Trazado_825685" data-name="Trazado 825685" d="M-7681-10725.5h22.253l11.711,13.5H-7535.3" transform="translate(8763 11780)" fill="none" stroke="#fff" stroke-linejoin="round" stroke-width="2"/>
    <path id="Trazado_830453" data-name="Trazado 830453" d="M2,0A2,2,0,1,1,0,2,2,2,0,0,1,2,0Z" transform="translate(1260.75 1023)" fill="#fff"/>
    <path id="Trazado_830454" data-name="Trazado 830454" d="M2,0A2,2,0,1,1,0,2,2,2,0,0,1,2,0Z" transform="translate(1332.75 1023)" fill="#fff"/>
    <path id="Trazado_830455" data-name="Trazado 830455" d="M2,0A2,2,0,1,1,0,2,2,2,0,0,1,2,0Z" transform="translate(1260.75 1031)" fill="#fff"/>
    <path id="Trazado_830456" data-name="Trazado 830456" d="M2,0A2,2,0,1,1,0,2,2,2,0,0,1,2,0Z" transform="translate(1332.75 1031)" fill="#fff"/>
  </g>
</svg>
