<svg xmlns="http://www.w3.org/2000/svg" xmlns:xlink="http://www.w3.org/1999/xlink" width="562.766" height="286.347" viewBox="0 0 562.766 286.347">
  <defs>
    <clipPath id="clip-path">
      <path id="Exclusión_3" data-name="Exclusión 3" d="M539.766,286.347H23a23,23,0,0,1-23-23V23A23,23,0,0,1,23,0H539.766a23,23,0,0,1,23,23V263.346a23,23,0,0,1-23,23ZM45.556,15.993a23.026,23.026,0,0,0-23,23V249.638a23.026,23.026,0,0,0,23,23H517.21a23.026,23.026,0,0,0,23-23V38.992a23.026,23.026,0,0,0-23-23Z" transform="translate(0 0)" fill="#1789f7"/>
    </clipPath>
  </defs>
  <g id="Grupo_1075361" data-name="Grupo 1075361" transform="translate(-208 -1216)">
    <g id="Grupo_1074417" data-name="Grupo 1074417" transform="translate(0 83)">
      <g id="Grupo_1073094" data-name="Grupo 1073094" transform="translate(208 1133)">
        <rect id="Rectángulo_382363" data-name="Rectángulo 382363" width="562.766" height="286.347" rx="23" transform="translate(0)" fill="#0082ff"/>
        <g id="Enmascarar_grupo_124" data-name="Enmascarar grupo 124" transform="translate(0 0)" clip-path="url(#clip-path)">
          <ellipse id="Elipse_9726" data-name="Elipse 9726" cx="195.671" cy="132.131" rx="195.671" ry="132.131" transform="translate(-119.545 108.903)" fill="#ffce00"/>
          <ellipse id="Elipse_9727" data-name="Elipse 9727" cx="195.671" cy="132.131" rx="195.671" ry="132.131" transform="translate(302.247 -126.419)" fill="#3ee2a8"/>
        </g>
      </g>
      <rect id="Rectángulo_382366" data-name="Rectángulo 382366" width="531.952" height="256.902" rx="22" transform="translate(223 1149)" fill="#fff"/>
    </g>
    <path id="Trazado_826104" data-name="Trazado 826104" d="M-8527.084-10412.621v132.793h52v-132.793" transform="translate(8765.084 11691.621)" fill="none" stroke="#273a89" stroke-width="1"/>
    <path id="Trazado_830457" data-name="Trazado 830457" d="M-9.174-3.773-9.734,0H-11.4l1.49-9.953h3.814a3.227,3.227,0,0,1,2.423.861,2.49,2.49,0,0,1,.632,2.229A3.407,3.407,0,0,1-4.3-4.594a4.269,4.269,0,0,1-2.714.82Zm.205-1.333h2.153a2.075,2.075,0,0,0,1.439-.5A2.045,2.045,0,0,0-4.7-6.85a1.607,1.607,0,0,0-.27-1.278A1.577,1.577,0,0,0-6.289-8.62H-8.442ZM-.882,0H-2.543l1.107-7.4H.226ZM.5-9.208H-1.162l.219-1.456H.718ZM2.748,0H1.087l1.6-10.664H4.348ZM9.064,0A4.724,4.724,0,0,1,9-.537,3.935,3.935,0,0,1,9-1.08a3.614,3.614,0,0,1-1.029.872,2.57,2.57,0,0,1-1.3.352,2.147,2.147,0,0,1-1.665-.6,1.869,1.869,0,0,1-.393-1.627A2.291,2.291,0,0,1,5.7-3.777a4.659,4.659,0,0,1,2.485-.578H9.481L9.577-5a1.078,1.078,0,0,0-.2-.919,1.208,1.208,0,0,0-.937-.318,1.589,1.589,0,0,0-.937.273.985.985,0,0,0-.444.7l-1.593.007L5.455-5.3A2.181,2.181,0,0,1,6.467-6.874a3.8,3.8,0,0,1,2.27-.66A2.777,2.777,0,0,1,10.7-6.87a2.01,2.01,0,0,1,.537,1.88l-.5,3.288a6.31,6.31,0,0,0-.068.889A4.429,4.429,0,0,0,10.746,0ZM7.212-1.189a2.306,2.306,0,0,0,1.162-.321,2.01,2.01,0,0,0,.786-.725l.164-1.08H8a1.891,1.891,0,0,0-1.176.362,1.31,1.31,0,0,0-.554.841.75.75,0,0,0,.171.68A1.039,1.039,0,0,0,7.212-1.189ZM-13.255,9.3l.068.718.041.007.28-.711L-9.4,2.047h1.771L-12.674,12h-1.579l-2.058-9.953h1.771ZM-4,12a4.724,4.724,0,0,1-.065-.537,3.935,3.935,0,0,1,0-.543,3.614,3.614,0,0,1-1.029.872,2.57,2.57,0,0,1-1.3.352,2.147,2.147,0,0,1-1.665-.6,1.869,1.869,0,0,1-.393-1.627,2.291,2.291,0,0,1,1.09-1.692,4.659,4.659,0,0,1,2.485-.578h1.292l.1-.649a1.078,1.078,0,0,0-.2-.919,1.208,1.208,0,0,0-.937-.318,1.589,1.589,0,0,0-.937.273.985.985,0,0,0-.444.7l-1.593.007L-7.608,6.7A2.181,2.181,0,0,1-6.6,5.126a3.8,3.8,0,0,1,2.27-.66,2.777,2.777,0,0,1,1.965.663,2.01,2.01,0,0,1,.537,1.88l-.5,3.288a6.311,6.311,0,0,0-.068.889A4.429,4.429,0,0,0-2.317,12Zm-1.853-1.189a2.306,2.306,0,0,0,1.162-.321A2.01,2.01,0,0,0-3.9,9.765l.164-1.08H-5.059a1.891,1.891,0,0,0-1.176.362,1.31,1.31,0,0,0-.554.841.75.75,0,0,0,.171.68A1.039,1.039,0,0,0-5.852,10.811Zm8.2.007a1.593,1.593,0,0,0,1-.359,1.375,1.375,0,0,0,.54-.9h1.5l.014.041a2.649,2.649,0,0,1-1.09,1.812,3.462,3.462,0,0,1-2.164.731,2.587,2.587,0,0,1-2.28-1.066,3.557,3.557,0,0,1-.5-2.652l.041-.239A4.688,4.688,0,0,1,.673,5.5,3.522,3.522,0,0,1,3.295,4.467a2.513,2.513,0,0,1,1.958.786,2.211,2.211,0,0,1,.509,1.969l-.014.034H4.238A1.364,1.364,0,0,0,4.02,6.21,1.08,1.08,0,0,0,3.1,5.8a1.616,1.616,0,0,0-1.364.7,3.671,3.671,0,0,0-.66,1.688l-.041.239a3.234,3.234,0,0,0,.126,1.733A1.16,1.16,0,0,0,2.352,10.817ZM8.21,12H6.549L7.656,4.6H9.317ZM9.591,2.792H7.93l.219-1.456H9.81ZM14.526,12a4.724,4.724,0,0,1-.065-.537,3.935,3.935,0,0,1,0-.543,3.614,3.614,0,0,1-1.029.872,2.57,2.57,0,0,1-1.3.352,2.147,2.147,0,0,1-1.665-.6,1.869,1.869,0,0,1-.393-1.627,2.291,2.291,0,0,1,1.09-1.692,4.659,4.659,0,0,1,2.485-.578h1.292l.1-.649a1.078,1.078,0,0,0-.2-.919,1.208,1.208,0,0,0-.937-.318,1.589,1.589,0,0,0-.937.273.985.985,0,0,0-.444.7l-1.593.007L10.917,6.7a2.181,2.181,0,0,1,1.012-1.569,3.8,3.8,0,0,1,2.27-.66,2.777,2.777,0,0,1,1.965.663A2.01,2.01,0,0,1,16.7,7.01L16.2,10.3a6.311,6.311,0,0,0-.068.889,4.429,4.429,0,0,0,.075.813Zm-1.853-1.189a2.306,2.306,0,0,0,1.162-.321,2.01,2.01,0,0,0,.786-.725l.164-1.08H13.467a1.891,1.891,0,0,0-1.176.362,1.31,1.31,0,0,0-.554.841.75.75,0,0,0,.171.68A1.039,1.039,0,0,0,12.674,10.811Z" transform="translate(264.5 1366.565)" fill="#12263f"/>
    <path id="Trazado_830458" data-name="Trazado 830458" d="M-28.615,0V-9.953h3.288a4.173,4.173,0,0,1,3.08,1.183,4.111,4.111,0,0,1,1.186,3.042v1.511a4.1,4.1,0,0,1-1.186,3.042A4.186,4.186,0,0,1-25.327,0Zm1.661-8.62v7.294h1.627a2.39,2.39,0,0,0,1.9-.81,3.058,3.058,0,0,0,.7-2.082V-5.742a3.038,3.038,0,0,0-.7-2.068,2.39,2.39,0,0,0-1.9-.81ZM-16.27.144A3.221,3.221,0,0,1-18.8-.878a3.827,3.827,0,0,1-.913-2.649V-3.8A3.957,3.957,0,0,1-18.8-6.484a2.949,2.949,0,0,1,2.355-1.049,2.768,2.768,0,0,1,2.256.919,3.718,3.718,0,0,1,.766,2.458v.9H-18l-.014.034a2.423,2.423,0,0,0,.479,1.477,1.633,1.633,0,0,0,1.36.567A3.743,3.743,0,0,0-15-1.347a3.347,3.347,0,0,0,.919-.472l.54,1.087a3.52,3.52,0,0,1-1.121.622A4.7,4.7,0,0,1-16.27.144ZM-16.447-6.2a1.283,1.283,0,0,0-1.039.468,2.321,2.321,0,0,0-.485,1.22l.014.034h2.892v-.13A1.867,1.867,0,0,0-15.4-5.759,1.227,1.227,0,0,0-16.447-6.2Zm8.524,4.177a.766.766,0,0,0-.325-.632A3.359,3.359,0,0,0-9.475-3.1a4.991,4.991,0,0,1-2-.786,1.656,1.656,0,0,1-.69-1.395,2.008,2.008,0,0,1,.786-1.589A3.115,3.115,0,0,1-9.3-7.533a3.212,3.212,0,0,1,2.136.68,1.971,1.971,0,0,1,.776,1.637l-.014.041H-8a1.036,1.036,0,0,0-.355-.783,1.337,1.337,0,0,0-.95-.332,1.358,1.358,0,0,0-.916.273.855.855,0,0,0-.314.67.72.72,0,0,0,.294.6,3.222,3.222,0,0,0,1.21.4,5.011,5.011,0,0,1,2.051.8,1.7,1.7,0,0,1,.69,1.418,1.966,1.966,0,0,1-.824,1.63,3.469,3.469,0,0,1-2.17.632A3.313,3.313,0,0,1-11.56-.595a2.085,2.085,0,0,1-.793-1.7l.014-.041h1.545a1.108,1.108,0,0,0,.465.937A1.868,1.868,0,0,0-9.263-1.1a1.671,1.671,0,0,0,.988-.253A.787.787,0,0,0-7.923-2.023ZM-.342,0Q-.431-.28-.489-.547A3.909,3.909,0,0,1-.567-1.08a2.849,2.849,0,0,1-.9.872A2.3,2.3,0,0,1-2.714.144,2.459,2.459,0,0,1-4.488-.451a2.16,2.16,0,0,1-.619-1.634,1.93,1.93,0,0,1,.848-1.671,4.093,4.093,0,0,1,2.386-.6H-.581V-5a1.208,1.208,0,0,0-.338-.909A1.354,1.354,0,0,0-1.9-6.241a1.4,1.4,0,0,0-.9.27.858.858,0,0,0-.335.7l-1.6.007L-4.744-5.3a1.832,1.832,0,0,1,.783-1.552A3.317,3.317,0,0,1-1.8-7.533a3.164,3.164,0,0,1,2.085.656A2.31,2.31,0,0,1,1.08-4.99V-1.7a6.064,6.064,0,0,0,.062.878A4.664,4.664,0,0,0,1.34,0Zm-2.03-1.189A2.076,2.076,0,0,0-1.248-1.5a1.583,1.583,0,0,0,.667-.718V-3.315H-1.9a1.666,1.666,0,0,0-1.135.359,1.09,1.09,0,0,0-.41.844.861.861,0,0,0,.277.673A1.151,1.151,0,0,0-2.372-1.189ZM9.3-3.452a4.17,4.17,0,0,1-.759,2.6A2.51,2.51,0,0,1,6.426.144,2.616,2.616,0,0,1,5.312-.082a2.293,2.293,0,0,1-.834-.663V2.844H2.816V-7.4h1.4l.164.93A2.467,2.467,0,0,1,5.24-7.26a2.4,2.4,0,0,1,1.166-.273A2.456,2.456,0,0,1,8.535-6.45,4.861,4.861,0,0,1,9.3-3.6ZM7.643-3.6a3.6,3.6,0,0,0-.427-1.856A1.389,1.389,0,0,0,5.94-6.173a1.656,1.656,0,0,0-.882.222,1.636,1.636,0,0,0-.581.619v3.343a1.545,1.545,0,0,0,.581.6,1.771,1.771,0,0,0,.9.208,1.425,1.425,0,0,0,1.268-.625,2.9,2.9,0,0,0,.42-1.644ZM12.517,0H10.855V-7.4h1.661Zm0-9.208H10.855v-1.456h1.661ZM16.146,0H14.485V-10.664h1.661Zm6.316,0q-.089-.28-.147-.547a3.909,3.909,0,0,1-.079-.533,2.849,2.849,0,0,1-.9.872,2.3,2.3,0,0,1-1.251.352,2.459,2.459,0,0,1-1.774-.595A2.16,2.16,0,0,1,17.7-2.085a1.93,1.93,0,0,1,.848-1.671,4.093,4.093,0,0,1,2.386-.6h1.292V-5a1.208,1.208,0,0,0-.338-.909,1.354,1.354,0,0,0-.981-.328,1.4,1.4,0,0,0-.9.27.858.858,0,0,0-.335.7l-1.6.007L18.061-5.3a1.832,1.832,0,0,1,.783-1.552,3.317,3.317,0,0,1,2.164-.677,3.164,3.164,0,0,1,2.085.656,2.31,2.31,0,0,1,.793,1.887V-1.7a6.064,6.064,0,0,0,.062.878,4.664,4.664,0,0,0,.2.824Zm-2.03-1.189A2.076,2.076,0,0,0,21.557-1.5a1.583,1.583,0,0,0,.667-.718V-3.315H20.9a1.666,1.666,0,0,0-1.135.359,1.09,1.09,0,0,0-.41.844.861.861,0,0,0,.277.673A1.151,1.151,0,0,0,20.433-1.189ZM29.306-5.9l-.711-.027a1.49,1.49,0,0,0-.81.205,1.351,1.351,0,0,0-.5.581V0H25.621V-7.4h1.518l.109,1.073a2.372,2.372,0,0,1,.721-.889,1.679,1.679,0,0,1,1.015-.321,1.548,1.548,0,0,1,.28.024,2.047,2.047,0,0,1,.239.058Z" transform="translate(704 1438.826)" fill="#1682fb"/>
    <path id="Trazado_826117" data-name="Trazado 826117" d="M-8527.085-10412.621v132.793h52v-132.793" transform="translate(9205.585 11691.621)" fill="none" stroke="#273a89" stroke-width="1"/>
    <path id="Trazado_826125" data-name="Trazado 826125" d="M-8434.5-10357.856h52" transform="translate(9112.998 11745.985)" fill="none" stroke="#273a89" stroke-width="1"/>
    <path id="Trazado_830459" data-name="Trazado 830459" d="M1.784-2.324H-1.743L-2.509,0H-4.225L-.752-9.953H.827L4.259,0H2.543ZM-1.285-3.712H1.333L.055-7.636H.014Z" transform="translate(704 1404.045)" fill="#12263f"/>
    <path id="Trazado_830460" data-name="Trazado 830460" d="M-28.615,0V-9.953h3.288a4.173,4.173,0,0,1,3.08,1.183,4.111,4.111,0,0,1,1.186,3.042v1.511a4.1,4.1,0,0,1-1.186,3.042A4.186,4.186,0,0,1-25.327,0Zm1.661-8.62v7.294h1.627a2.39,2.39,0,0,0,1.9-.81,3.058,3.058,0,0,0,.7-2.082V-5.742a3.038,3.038,0,0,0-.7-2.068,2.39,2.39,0,0,0-1.9-.81ZM-16.27.144A3.221,3.221,0,0,1-18.8-.878a3.827,3.827,0,0,1-.913-2.649V-3.8A3.957,3.957,0,0,1-18.8-6.484a2.949,2.949,0,0,1,2.355-1.049,2.768,2.768,0,0,1,2.256.919,3.718,3.718,0,0,1,.766,2.458v.9H-18l-.014.034a2.423,2.423,0,0,0,.479,1.477,1.633,1.633,0,0,0,1.36.567A3.743,3.743,0,0,0-15-1.347a3.347,3.347,0,0,0,.919-.472l.54,1.087a3.52,3.52,0,0,1-1.121.622A4.7,4.7,0,0,1-16.27.144ZM-16.447-6.2a1.283,1.283,0,0,0-1.039.468,2.321,2.321,0,0,0-.485,1.22l.014.034h2.892v-.13A1.867,1.867,0,0,0-15.4-5.759,1.227,1.227,0,0,0-16.447-6.2Zm8.524,4.177a.766.766,0,0,0-.325-.632A3.359,3.359,0,0,0-9.475-3.1a4.991,4.991,0,0,1-2-.786,1.656,1.656,0,0,1-.69-1.395,2.008,2.008,0,0,1,.786-1.589A3.115,3.115,0,0,1-9.3-7.533a3.212,3.212,0,0,1,2.136.68,1.971,1.971,0,0,1,.776,1.637l-.014.041H-8a1.036,1.036,0,0,0-.355-.783,1.337,1.337,0,0,0-.95-.332,1.358,1.358,0,0,0-.916.273.855.855,0,0,0-.314.67.72.72,0,0,0,.294.6,3.222,3.222,0,0,0,1.21.4,5.011,5.011,0,0,1,2.051.8,1.7,1.7,0,0,1,.69,1.418,1.966,1.966,0,0,1-.824,1.63,3.469,3.469,0,0,1-2.17.632A3.313,3.313,0,0,1-11.56-.595a2.085,2.085,0,0,1-.793-1.7l.014-.041h1.545a1.108,1.108,0,0,0,.465.937A1.868,1.868,0,0,0-9.263-1.1a1.671,1.671,0,0,0,.988-.253A.787.787,0,0,0-7.923-2.023ZM-.342,0Q-.431-.28-.489-.547A3.909,3.909,0,0,1-.567-1.08a2.849,2.849,0,0,1-.9.872A2.3,2.3,0,0,1-2.714.144,2.459,2.459,0,0,1-4.488-.451a2.16,2.16,0,0,1-.619-1.634,1.93,1.93,0,0,1,.848-1.671,4.093,4.093,0,0,1,2.386-.6H-.581V-5a1.208,1.208,0,0,0-.338-.909A1.354,1.354,0,0,0-1.9-6.241a1.4,1.4,0,0,0-.9.27.858.858,0,0,0-.335.7l-1.6.007L-4.744-5.3a1.832,1.832,0,0,1,.783-1.552A3.317,3.317,0,0,1-1.8-7.533a3.164,3.164,0,0,1,2.085.656A2.31,2.31,0,0,1,1.08-4.99V-1.7a6.064,6.064,0,0,0,.062.878A4.664,4.664,0,0,0,1.34,0Zm-2.03-1.189A2.076,2.076,0,0,0-1.248-1.5a1.583,1.583,0,0,0,.667-.718V-3.315H-1.9a1.666,1.666,0,0,0-1.135.359,1.09,1.09,0,0,0-.41.844.861.861,0,0,0,.277.673A1.151,1.151,0,0,0-2.372-1.189ZM9.3-3.452a4.17,4.17,0,0,1-.759,2.6A2.51,2.51,0,0,1,6.426.144,2.616,2.616,0,0,1,5.312-.082a2.293,2.293,0,0,1-.834-.663V2.844H2.816V-7.4h1.4l.164.93A2.467,2.467,0,0,1,5.24-7.26a2.4,2.4,0,0,1,1.166-.273A2.456,2.456,0,0,1,8.535-6.45,4.861,4.861,0,0,1,9.3-3.6ZM7.643-3.6a3.6,3.6,0,0,0-.427-1.856A1.389,1.389,0,0,0,5.94-6.173a1.656,1.656,0,0,0-.882.222,1.636,1.636,0,0,0-.581.619v3.343a1.545,1.545,0,0,0,.581.6,1.771,1.771,0,0,0,.9.208,1.425,1.425,0,0,0,1.268-.625,2.9,2.9,0,0,0,.42-1.644ZM12.517,0H10.855V-7.4h1.661Zm0-9.208H10.855v-1.456h1.661ZM16.146,0H14.485V-10.664h1.661Zm6.316,0q-.089-.28-.147-.547a3.909,3.909,0,0,1-.079-.533,2.849,2.849,0,0,1-.9.872,2.3,2.3,0,0,1-1.251.352,2.459,2.459,0,0,1-1.774-.595A2.16,2.16,0,0,1,17.7-2.085a1.93,1.93,0,0,1,.848-1.671,4.093,4.093,0,0,1,2.386-.6h1.292V-5a1.208,1.208,0,0,0-.338-.909,1.354,1.354,0,0,0-.981-.328,1.4,1.4,0,0,0-.9.27.858.858,0,0,0-.335.7l-1.6.007L18.061-5.3a1.832,1.832,0,0,1,.783-1.552,3.317,3.317,0,0,1,2.164-.677,3.164,3.164,0,0,1,2.085.656,2.31,2.31,0,0,1,.793,1.887V-1.7a6.064,6.064,0,0,0,.062.878,4.664,4.664,0,0,0,.2.824Zm-2.03-1.189A2.076,2.076,0,0,0,21.557-1.5a1.583,1.583,0,0,0,.667-.718V-3.315H20.9a1.666,1.666,0,0,0-1.135.359,1.09,1.09,0,0,0-.41.844.861.861,0,0,0,.277.673A1.151,1.151,0,0,0,20.433-1.189ZM29.306-5.9l-.711-.027a1.49,1.49,0,0,0-.81.205,1.351,1.351,0,0,0-.5.581V0H25.621V-7.4h1.518l.109,1.073a2.372,2.372,0,0,1,.721-.889,1.679,1.679,0,0,1,1.015-.321,1.548,1.548,0,0,1,.28.024,2.047,2.047,0,0,1,.239.058Z" transform="translate(616 1437.826)" fill="#1682fb"/>
    <path id="Trazado_826114" data-name="Trazado 826114" d="M-8527.085-10412.621v132.793h52v-132.793" transform="translate(9117.585 11691.621)" fill="none" stroke="#273a89" stroke-width="1"/>
    <path id="Trazado_826123" data-name="Trazado 826123" d="M-8434.5-10357.856h52" transform="translate(9024.998 11745.985)" fill="none" stroke="#273a89" stroke-width="1"/>
    <path id="Trazado_826124" data-name="Trazado 826124" d="M-8434.5-10357.856h52" transform="translate(9024.998 11722.506)" fill="none" stroke="#273a89" stroke-width="1"/>
    <path id="Trazado_830461" data-name="Trazado 830461" d="M1.784-2.324H-1.743L-2.509,0H-4.225L-.752-9.953H.827L4.259,0H2.543ZM-1.285-3.712H1.333L.055-7.636H.014Z" transform="translate(616 1404.045)" fill="#12263f"/>
    <path id="Trazado_830462" data-name="Trazado 830462" d="M-3.411,0V-9.953H-.15a4.291,4.291,0,0,1,2.577.68,2.357,2.357,0,0,1,.93,2.034,2,2,0,0,1-.373,1.183,2.312,2.312,0,0,1-1.036.8,2.233,2.233,0,0,1,1.473.827,2.5,2.5,0,0,1,.516,1.572A2.558,2.558,0,0,1,3.021-.728,3.963,3.963,0,0,1,.492,0ZM-1.75-4.525v3.2H.492a2,2,0,0,0,1.326-.393,1.407,1.407,0,0,0,.465-1.138,1.59,1.59,0,0,0-.458-1.2A1.862,1.862,0,0,0,.54-4.525H-1.75Zm0-1.237H.027a1.873,1.873,0,0,0,1.22-.366A1.261,1.261,0,0,0,1.7-7.164a1.291,1.291,0,0,0-.472-1.1A2.24,2.24,0,0,0-.15-8.62h-1.6Z" transform="translate(616 1380.565)" fill="#12263f"/>
    <path id="Trazado_830463" data-name="Trazado 830463" d="M-22.777-2.324H-26.3L-27.07,0h-1.716l3.473-9.953h1.579L-20.3,0h-1.716Zm-3.069-1.388h2.618l-1.278-3.924h-.041Zm12.756.26a4.17,4.17,0,0,1-.759,2.6,2.51,2.51,0,0,1-2.112.991,2.616,2.616,0,0,1-1.114-.226,2.293,2.293,0,0,1-.834-.663V2.844h-1.661V-7.4h1.4l.164.93a2.467,2.467,0,0,1,.858-.793,2.4,2.4,0,0,1,1.166-.273A2.456,2.456,0,0,1-13.853-6.45,4.861,4.861,0,0,1-13.091-3.6ZM-14.745-3.6a3.6,3.6,0,0,0-.427-1.856,1.389,1.389,0,0,0-1.275-.721,1.656,1.656,0,0,0-.882.222,1.636,1.636,0,0,0-.581.619v3.343a1.545,1.545,0,0,0,.581.6,1.771,1.771,0,0,0,.9.208,1.425,1.425,0,0,0,1.268-.625,2.9,2.9,0,0,0,.42-1.644ZM-9.871,0h-1.661V-7.4h1.661Zm0-9.208h-1.661v-1.456h1.661ZM-6.241,0H-7.9V-10.664h1.661ZM.075,0Q-.014-.28-.072-.547A3.909,3.909,0,0,1-.15-1.08a2.849,2.849,0,0,1-.9.872A2.3,2.3,0,0,1-2.3.144,2.459,2.459,0,0,1-4.071-.451a2.16,2.16,0,0,1-.619-1.634,1.93,1.93,0,0,1,.848-1.671,4.093,4.093,0,0,1,2.386-.6H-.164V-5A1.208,1.208,0,0,0-.5-5.913a1.354,1.354,0,0,0-.981-.328,1.4,1.4,0,0,0-.9.27.858.858,0,0,0-.335.7l-1.6.007L-4.327-5.3a1.832,1.832,0,0,1,.783-1.552,3.317,3.317,0,0,1,2.164-.677A3.164,3.164,0,0,1,.7-6.877,2.31,2.31,0,0,1,1.5-4.99V-1.7a6.064,6.064,0,0,0,.062.878,4.664,4.664,0,0,0,.2.824Zm-2.03-1.189A2.076,2.076,0,0,0-.831-1.5a1.583,1.583,0,0,0,.667-.718V-3.315H-1.483a1.666,1.666,0,0,0-1.135.359,1.09,1.09,0,0,0-.41.844.861.861,0,0,0,.277.673A1.151,1.151,0,0,0-1.955-1.189ZM6.918-5.9l-.711-.027a1.49,1.49,0,0,0-.81.205,1.351,1.351,0,0,0-.5.581V0H3.233V-7.4H4.751L4.86-6.323a2.372,2.372,0,0,1,.721-.889A1.679,1.679,0,0,1,6.6-7.533a1.548,1.548,0,0,1,.28.024,2.047,2.047,0,0,1,.239.058Zm4.717,1.853A9.171,9.171,0,0,1,12.7-8.63,5.653,5.653,0,0,1,15.019-11.1l.041.007.308.916A5.376,5.376,0,0,0,13.8-7.943a9.992,9.992,0,0,0-.653,3.883v.137a10.039,10.039,0,0,0,.649,3.883,5.733,5.733,0,0,0,1.572,2.283l-.308.875h-.041A5.669,5.669,0,0,1,12.7.643a9.175,9.175,0,0,1-1.066-4.58Zm12.2.793.014.041a3.069,3.069,0,0,1-.978,2.43,3.848,3.848,0,0,1-2.714.926,3.652,3.652,0,0,1-2.816-1.172,4.251,4.251,0,0,1-1.08-3V-5.92a4.3,4.3,0,0,1,1.066-3A3.575,3.575,0,0,1,20.1-10.1a4.017,4.017,0,0,1,2.765.9,3.038,3.038,0,0,1,.981,2.454l-.014.041H22.23a2.045,2.045,0,0,0-.54-1.528,2.175,2.175,0,0,0-1.586-.53,1.887,1.887,0,0,0-1.6.8,3.328,3.328,0,0,0-.591,2.027v1.907a3.311,3.311,0,0,0,.6,2.041,1.94,1.94,0,0,0,1.641.8A2.09,2.09,0,0,0,21.7-1.716a2.09,2.09,0,0,0,.53-1.538Zm4.293-.684A9.054,9.054,0,0,1,27.033.629a5.733,5.733,0,0,1-2.341,2.488H24.65l-.314-.875A5.427,5.427,0,0,0,25.9-.014a10.123,10.123,0,0,0,.656-3.91v-.137a9.838,9.838,0,0,0-.673-3.886,5.871,5.871,0,0,0-1.548-2.273l.314-.882h.041a5.715,5.715,0,0,1,2.338,2.488,9.055,9.055,0,0,1,1.094,4.566Z" transform="translate(527 1437.826)" fill="#1682fb"/>
    <path id="Trazado_826110" data-name="Trazado 826110" d="M-8527.085-10412.621v132.793h52v-132.793" transform="translate(9028.585 11691.621)" fill="none" stroke="#273a89" stroke-width="1"/>
    <path id="Trazado_826111" data-name="Trazado 826111" d="M-8434.5-10357.856h52" transform="translate(8935.998 11745.985)" fill="none" stroke="#273a89" stroke-width="1"/>
    <path id="Trazado_826112" data-name="Trazado 826112" d="M-8434.5-10357.856h52" transform="translate(8935.998 11722.506)" fill="none" stroke="#273a89" stroke-width="1"/>
    <path id="Trazado_826113" data-name="Trazado 826113" d="M-8434.5-10357.856h52" transform="translate(8935.998 11699.026)" fill="none" stroke="#273a89" stroke-width="1"/>
    <path id="Trazado_830464" data-name="Trazado 830464" d="M1.784-2.324H-1.743L-2.509,0H-4.225L-.752-9.953H.827L4.259,0H2.543ZM-1.285-3.712H1.333L.055-7.636H.014Z" transform="translate(527 1404.045)" fill="#12263f"/>
    <path id="Trazado_830465" data-name="Trazado 830465" d="M-3.411,0V-9.953H-.15a4.291,4.291,0,0,1,2.577.68,2.357,2.357,0,0,1,.93,2.034,2,2,0,0,1-.373,1.183,2.312,2.312,0,0,1-1.036.8,2.233,2.233,0,0,1,1.473.827,2.5,2.5,0,0,1,.516,1.572A2.558,2.558,0,0,1,3.021-.728,3.963,3.963,0,0,1,.492,0ZM-1.75-4.525v3.2H.492a2,2,0,0,0,1.326-.393,1.407,1.407,0,0,0,.465-1.138,1.59,1.59,0,0,0-.458-1.2A1.862,1.862,0,0,0,.54-4.525H-1.75Zm0-1.237H.027a1.873,1.873,0,0,0,1.22-.366A1.261,1.261,0,0,0,1.7-7.164a1.291,1.291,0,0,0-.472-1.1A2.24,2.24,0,0,0-.15-8.62h-1.6Z" transform="translate(527 1380.565)" fill="#12263f"/>
    <path id="Trazado_830466" data-name="Trazado 830466" d="M3.876-3.254l.014.041a3.069,3.069,0,0,1-.978,2.43A3.848,3.848,0,0,1,.2.144,3.652,3.652,0,0,1-2.618-1.029a4.251,4.251,0,0,1-1.08-3V-5.92a4.3,4.3,0,0,1,1.066-3A3.575,3.575,0,0,1,.15-10.1a4.017,4.017,0,0,1,2.765.9A3.038,3.038,0,0,1,3.9-6.747l-.014.041H2.276a2.045,2.045,0,0,0-.54-1.528A2.175,2.175,0,0,0,.15-8.764a1.887,1.887,0,0,0-1.6.8,3.328,3.328,0,0,0-.591,2.027v1.907a3.311,3.311,0,0,0,.6,2.041,1.94,1.94,0,0,0,1.641.8,2.09,2.09,0,0,0,1.548-.533,2.09,2.09,0,0,0,.53-1.538Z" transform="translate(527 1357.743)" fill="#12263f"/>
    <path id="Trazado_830467" data-name="Trazado 830467" d="M-22.866-2.324h-3.527L-27.159,0h-1.716L-25.4-9.953h1.579L-20.392,0h-1.716Zm-3.069-1.388h2.618L-24.6-7.636h-.041Zm12.756.26a4.17,4.17,0,0,1-.759,2.6,2.51,2.51,0,0,1-2.112.991,2.616,2.616,0,0,1-1.114-.226A2.293,2.293,0,0,1-18-.745V2.844H-19.66V-7.4h1.4l.164.93a2.467,2.467,0,0,1,.858-.793,2.4,2.4,0,0,1,1.166-.273A2.456,2.456,0,0,1-13.942-6.45,4.861,4.861,0,0,1-13.18-3.6ZM-14.834-3.6a3.6,3.6,0,0,0-.427-1.856,1.389,1.389,0,0,0-1.275-.721,1.656,1.656,0,0,0-.882.222A1.636,1.636,0,0,0-18-5.332v3.343a1.545,1.545,0,0,0,.581.6,1.771,1.771,0,0,0,.9.208,1.425,1.425,0,0,0,1.268-.625,2.9,2.9,0,0,0,.42-1.644ZM-9.96,0h-1.661V-7.4H-9.96Zm0-9.208h-1.661v-1.456H-9.96ZM-6.33,0H-7.991V-10.664H-6.33ZM-.014,0Q-.1-.28-.161-.547A3.909,3.909,0,0,1-.239-1.08a2.849,2.849,0,0,1-.9.872A2.3,2.3,0,0,1-2.386.144,2.459,2.459,0,0,1-4.16-.451a2.16,2.16,0,0,1-.619-1.634,1.93,1.93,0,0,1,.848-1.671,4.093,4.093,0,0,1,2.386-.6H-.253V-5a1.208,1.208,0,0,0-.338-.909,1.354,1.354,0,0,0-.981-.328,1.4,1.4,0,0,0-.9.27.858.858,0,0,0-.335.7l-1.6.007L-4.416-5.3a1.832,1.832,0,0,1,.783-1.552A3.317,3.317,0,0,1-1.47-7.533a3.164,3.164,0,0,1,2.085.656A2.31,2.31,0,0,1,1.408-4.99V-1.7a6.064,6.064,0,0,0,.062.878,4.664,4.664,0,0,0,.2.824Zm-2.03-1.189A2.076,2.076,0,0,0-.919-1.5a1.583,1.583,0,0,0,.667-.718V-3.315H-1.572a1.666,1.666,0,0,0-1.135.359,1.09,1.09,0,0,0-.41.844.861.861,0,0,0,.277.673A1.151,1.151,0,0,0-2.044-1.189ZM6.829-5.9l-.711-.027a1.49,1.49,0,0,0-.81.205,1.351,1.351,0,0,0-.5.581V0H3.145V-7.4H4.662l.109,1.073a2.372,2.372,0,0,1,.721-.889,1.679,1.679,0,0,1,1.015-.321,1.548,1.548,0,0,1,.28.024,2.047,2.047,0,0,1,.239.058Zm4.717,1.853a9.171,9.171,0,0,1,1.07-4.583A5.653,5.653,0,0,1,14.93-11.1l.041.007.308.916a5.376,5.376,0,0,0-1.569,2.235,9.992,9.992,0,0,0-.653,3.883v.137a10.039,10.039,0,0,0,.649,3.883,5.733,5.733,0,0,0,1.572,2.283l-.308.875H14.93A5.669,5.669,0,0,1,12.612.643a9.175,9.175,0,0,1-1.066-4.58Zm10.1,1.723H18.122L17.356,0H15.641l3.473-9.953h1.579L24.124,0H22.408ZM18.58-3.712H21.2L19.92-7.636h-.041Zm9.632-.226A9.054,9.054,0,0,1,27.122.629,5.733,5.733,0,0,1,24.78,3.117h-.041l-.314-.875A5.427,5.427,0,0,0,25.99-.014a10.123,10.123,0,0,0,.656-3.91v-.137a9.838,9.838,0,0,0-.673-3.886,5.871,5.871,0,0,0-1.548-2.273l.314-.882h.041a5.715,5.715,0,0,1,2.338,2.488,9.055,9.055,0,0,1,1.094,4.566Z" transform="translate(350 1437.826)" fill="#1682fb"/>
    <path id="Trazado_826105" data-name="Trazado 826105" d="M-8527.085-10412.621v132.793h52v-132.793" transform="translate(8851.585 11691.621)" fill="none" stroke="#273a89" stroke-width="1"/>
    <path id="Trazado_826122" data-name="Trazado 826122" d="M-8434.5-10357.856h52" transform="translate(8758.998 11745.985)" fill="none" stroke="#273a89" stroke-width="1"/>
    <path id="Trazado_830468" data-name="Trazado 830468" d="M1.784-2.324H-1.743L-2.509,0H-4.225L-.752-9.953H.827L4.259,0H2.543ZM-1.285-3.712H1.333L.055-7.636H.014Z" transform="translate(350.383 1404.045)" fill="#12263f"/>
    <path id="Trazado_830469" data-name="Trazado 830469" d="M-22.88-2.324h-3.527L-27.173,0h-1.716l3.473-9.953h1.579L-20.405,0h-1.716Zm-3.069-1.388h2.618l-1.278-3.924h-.041Zm12.756.26a4.17,4.17,0,0,1-.759,2.6,2.51,2.51,0,0,1-2.112.991,2.616,2.616,0,0,1-1.114-.226,2.293,2.293,0,0,1-.834-.663V2.844h-1.661V-7.4h1.4l.164.93a2.467,2.467,0,0,1,.858-.793,2.4,2.4,0,0,1,1.166-.273A2.456,2.456,0,0,1-13.956-6.45,4.861,4.861,0,0,1-13.193-3.6ZM-14.848-3.6a3.6,3.6,0,0,0-.427-1.856,1.389,1.389,0,0,0-1.275-.721,1.656,1.656,0,0,0-.882.222,1.636,1.636,0,0,0-.581.619v3.343a1.545,1.545,0,0,0,.581.6,1.771,1.771,0,0,0,.9.208,1.425,1.425,0,0,0,1.268-.625,2.9,2.9,0,0,0,.42-1.644ZM-9.974,0h-1.661V-7.4h1.661Zm0-9.208h-1.661v-1.456h1.661ZM-6.344,0H-8V-10.664h1.661ZM-.027,0Q-.116-.28-.174-.547A3.909,3.909,0,0,1-.253-1.08a2.849,2.849,0,0,1-.9.872A2.3,2.3,0,0,1-2.4.144,2.459,2.459,0,0,1-4.173-.451a2.16,2.16,0,0,1-.619-1.634,1.93,1.93,0,0,1,.848-1.671,4.093,4.093,0,0,1,2.386-.6H-.267V-5A1.208,1.208,0,0,0-.6-5.913a1.354,1.354,0,0,0-.981-.328,1.4,1.4,0,0,0-.9.27.858.858,0,0,0-.335.7l-1.6.007L-4.43-5.3a1.832,1.832,0,0,1,.783-1.552,3.317,3.317,0,0,1,2.164-.677A3.164,3.164,0,0,1,.6-6.877,2.31,2.31,0,0,1,1.395-4.99V-1.7a6.064,6.064,0,0,0,.062.878,4.664,4.664,0,0,0,.2.824Zm-2.03-1.189A2.076,2.076,0,0,0-.933-1.5a1.583,1.583,0,0,0,.667-.718V-3.315H-1.586a1.666,1.666,0,0,0-1.135.359,1.09,1.09,0,0,0-.41.844.861.861,0,0,0,.277.673A1.151,1.151,0,0,0-2.058-1.189ZM6.815-5.9,6.1-5.927a1.49,1.49,0,0,0-.81.205,1.351,1.351,0,0,0-.5.581V0H3.131V-7.4H4.648l.109,1.073a2.372,2.372,0,0,1,.721-.889,1.679,1.679,0,0,1,1.015-.321,1.548,1.548,0,0,1,.28.024,2.047,2.047,0,0,1,.239.058Zm4.717,1.853A9.171,9.171,0,0,1,12.6-8.63,5.653,5.653,0,0,1,14.916-11.1l.041.007.308.916A5.376,5.376,0,0,0,13.7-7.943a9.992,9.992,0,0,0-.653,3.883v.137a10.039,10.039,0,0,0,.649,3.883,5.733,5.733,0,0,0,1.572,2.283l-.308.875h-.041A5.669,5.669,0,0,1,12.6.643a9.175,9.175,0,0,1-1.066-4.58ZM16.454,0V-9.953h3.261a4.291,4.291,0,0,1,2.577.68,2.357,2.357,0,0,1,.93,2.034,2,2,0,0,1-.373,1.183,2.312,2.312,0,0,1-1.036.8,2.233,2.233,0,0,1,1.473.827A2.5,2.5,0,0,1,23.8-2.857a2.558,2.558,0,0,1-.916,2.129A3.963,3.963,0,0,1,20.357,0Zm1.661-4.525v3.2h2.242a2,2,0,0,0,1.326-.393,1.407,1.407,0,0,0,.465-1.138,1.59,1.59,0,0,0-.458-1.2,1.862,1.862,0,0,0-1.285-.472h-2.29Zm0-1.237h1.777a1.873,1.873,0,0,0,1.22-.366,1.261,1.261,0,0,0,.448-1.036,1.291,1.291,0,0,0-.472-1.1,2.24,2.24,0,0,0-1.374-.359h-1.6Zm10.11,1.825A9.054,9.054,0,0,1,27.135.629a5.733,5.733,0,0,1-2.341,2.488h-.041l-.314-.875A5.427,5.427,0,0,0,26-.014a10.123,10.123,0,0,0,.656-3.91v-.137a9.838,9.838,0,0,0-.673-3.886,5.871,5.871,0,0,0-1.548-2.273l.314-.882h.041a5.715,5.715,0,0,1,2.338,2.488,9.055,9.055,0,0,1,1.094,4.566Z" transform="translate(439 1437.826)" fill="#1682fb"/>
    <path id="Trazado_826107" data-name="Trazado 826107" d="M-8527.085-10412.621v132.793h52v-132.793" transform="translate(8941.585 11691.621)" fill="none" stroke="#273a89" stroke-width="1"/>
    <path id="Trazado_826119" data-name="Trazado 826119" d="M-8434.5-10357.856h52" transform="translate(8848.998 11745.985)" fill="none" stroke="#273a89" stroke-width="1"/>
    <path id="Trazado_830470" data-name="Trazado 830470" d="M1.784-2.324H-1.743L-2.509,0H-4.225L-.752-9.953H.827L4.259,0H2.543ZM-1.285-3.712H1.333L.055-7.636H.014Z" transform="translate(439 1404.045)" fill="#12263f"/>
    <path id="Trazado_830471" data-name="Trazado 830471" d="M-3.411,0V-9.953H-.15a4.291,4.291,0,0,1,2.577.68,2.357,2.357,0,0,1,.93,2.034,2,2,0,0,1-.373,1.183,2.312,2.312,0,0,1-1.036.8,2.233,2.233,0,0,1,1.473.827,2.5,2.5,0,0,1,.516,1.572A2.558,2.558,0,0,1,3.021-.728,3.963,3.963,0,0,1,.492,0ZM-1.75-4.525v3.2H.492a2,2,0,0,0,1.326-.393,1.407,1.407,0,0,0,.465-1.138,1.59,1.59,0,0,0-.458-1.2A1.862,1.862,0,0,0,.54-4.525H-1.75Zm0-1.237H.027a1.873,1.873,0,0,0,1.22-.366A1.261,1.261,0,0,0,1.7-7.164a1.291,1.291,0,0,0-.472-1.1A2.24,2.24,0,0,0-.15-8.62h-1.6Z" transform="translate(439 1380.565)" fill="#12263f"/>
    <path id="Trazado_826120" data-name="Trazado 826120" d="M-8434.5-10357.856h52" transform="translate(8848.998 11722.506)" fill="none" stroke="#273a89" stroke-width="1"/>
  </g>
</svg>
